<svg width="16" height="16" viewBox="0 0 16 16" fill="none" xmlns="http://www.w3.org/2000/svg">
<path d="M7.29299 8L7.64654 8.35355C7.84181 8.15829 7.84181 7.84171 7.64654 7.64645L7.29299 8ZM8.70721 8L8.35365 7.64645C8.15839 7.84171 8.15839 8.15829 8.35365 8.35355L8.70721 8ZM5.17167 3.75736C4.78115 3.36684 4.14798 3.36683 3.75746 3.75736L4.46456 4.46447L5.17167 3.75736ZM8.70721 7.29289L5.17167 3.75736L4.46456 4.46447L8.0001 8L8.70721 7.29289ZM8.70721 8.70711C9.09773 8.31658 9.09773 7.68342 8.70721 7.29289L8.0001 8L8.70721 8.70711ZM5.17167 12.2426L8.70721 8.70711L8.0001 8L4.46456 11.5355L5.17167 12.2426ZM3.75746 12.2426C4.14798 12.6332 4.78115 12.6332 5.17167 12.2426L4.46456 11.5355L3.75746 12.2426ZM3.75746 10.8284C3.36693 11.219 3.36693 11.8521 3.75746 12.2426L4.46456 11.5355L3.75746 10.8284ZM6.93944 7.64645L3.75746 10.8284L4.46456 11.5355L7.64654 8.35355L6.93944 7.64645ZM3.75746 5.17157L6.93944 8.35355L7.64654 7.64645L4.46456 4.46447L3.75746 5.17157ZM3.75746 3.75736C3.36693 4.14788 3.36693 4.78105 3.75746 5.17157L4.46456 4.46447L3.75746 3.75736ZM7.29299 7.29289C6.90247 7.68342 6.90247 8.31658 7.29299 8.70711L8.0001 8L7.29299 7.29289ZM10.8285 3.75736L7.29299 7.29289L8.0001 8L11.5356 4.46447L10.8285 3.75736ZM12.2427 3.75736C11.8522 3.36684 11.219 3.36683 10.8285 3.75736L11.5356 4.46447L12.2427 3.75736ZM12.2427 5.17157C12.6333 4.78105 12.6333 4.14788 12.2427 3.75736L11.5356 4.46447L12.2427 5.17157ZM9.06076 8.35355L12.2427 5.17157L11.5356 4.46447L8.35365 7.64645L9.06076 8.35355ZM12.2427 10.8284L9.06076 7.64645L8.35365 8.35355L11.5356 11.5355L12.2427 10.8284ZM12.2427 12.2426C12.6333 11.8521 12.6333 11.219 12.2427 10.8284L11.5356 11.5355L12.2427 12.2426ZM10.8285 12.2426C11.219 12.6332 11.8522 12.6332 12.2427 12.2426L11.5356 11.5355L10.8285 12.2426ZM7.29299 8.70711L10.8285 12.2426L11.5356 11.5355L8.0001 8L7.29299 8.70711Z" fill="white"/>
</svg>
