<svg width="126" height="16" viewBox="0 0 126 16" fill="none" xmlns="http://www.w3.org/2000/svg">
<path d="M13.1953 11.88L15.7553 0.999999H18.0753L14.3753 15H12.1353L9.41531 6.12L6.69531 15H4.45531L0.755311 0.999999H3.07531L5.63531 11.88L8.41531 2.48H10.4153L13.1953 11.88ZM20.2269 15V0.999999H28.5269V3.08H22.4269V6.52H27.3469V8.6H22.4269V12.92H28.7269V15H20.2269ZM31.5987 15V0.999999H33.7987V12.92H39.8387V15H31.5987ZM53.2545 5.08L51.1745 5.6C50.8145 4.66667 50.3545 3.98667 49.7945 3.56C49.2345 3.13333 48.5012 2.92 47.5945 2.92C46.3279 2.92 45.3012 3.36667 44.5145 4.26C43.7412 5.15333 43.3545 6.4 43.3545 8C43.3545 9.6 43.7412 10.8467 44.5145 11.74C45.3012 12.6333 46.3279 13.08 47.5945 13.08C48.5012 13.08 49.2345 12.8667 49.7945 12.44C50.3545 12.0133 50.8145 11.3333 51.1745 10.4L53.2545 10.92C52.8945 12.28 52.2279 13.3267 51.2545 14.06C50.2812 14.7933 49.0612 15.16 47.5945 15.16C45.7812 15.16 44.2479 14.5333 42.9945 13.28C41.7412 12.0267 41.1145 10.2667 41.1145 8C41.1145 5.74667 41.7412 3.99333 42.9945 2.74C44.2612 1.47333 45.7945 0.84 47.5945 0.84C49.0612 0.84 50.2812 1.20667 51.2545 1.94C52.2279 2.67333 52.8945 3.72 53.2545 5.08ZM57.0608 2.72C58.3008 1.46667 59.8274 0.84 61.6408 0.84C63.4674 0.84 64.9874 1.46667 66.2008 2.72C67.4408 3.96 68.0608 5.72 68.0608 8C68.0608 10.2667 67.4408 12.0333 66.2008 13.3C64.9741 14.54 63.4541 15.16 61.6408 15.16C59.8274 15.16 58.3008 14.54 57.0608 13.3C55.8341 12.0333 55.2208 10.2667 55.2208 8C55.2208 5.73333 55.8341 3.97333 57.0608 2.72ZM64.6208 4.22C63.8341 3.35333 62.8408 2.92 61.6408 2.92C60.4408 2.92 59.4408 3.35333 58.6408 4.22C57.8541 5.08667 57.4608 6.34667 57.4608 8C57.4608 9.65333 57.8541 10.9133 58.6408 11.78C59.4408 12.6467 60.4408 13.08 61.6408 13.08C62.8408 13.08 63.8341 12.6467 64.6208 11.78C65.4208 10.9133 65.8208 9.65333 65.8208 8C65.8208 6.34667 65.4208 5.08667 64.6208 4.22ZM73.1292 15H70.9292V0.999999H73.5292L77.0092 10.32L80.4892 0.999999H83.0892V15H80.8892V5.56L77.7892 13.72H76.2292L73.1292 5.56V15ZM86.3441 15V0.999999H94.6441V3.08H88.5441V6.52H93.4641V8.6H88.5441V12.92H94.8441V15H86.3441ZM105.527 3.08H101.607V0.999999H111.647V3.08H107.727V15H105.527V3.08ZM114.682 2.72C115.922 1.46667 117.449 0.84 119.262 0.84C121.089 0.84 122.609 1.46667 123.822 2.72C125.062 3.96 125.682 5.72 125.682 8C125.682 10.2667 125.062 12.0333 123.822 13.3C122.595 14.54 121.075 15.16 119.262 15.16C117.449 15.16 115.922 14.54 114.682 13.3C113.455 12.0333 112.842 10.2667 112.842 8C112.842 5.73333 113.455 3.97333 114.682 2.72ZM122.242 4.22C121.455 3.35333 120.462 2.92 119.262 2.92C118.062 2.92 117.062 3.35333 116.262 4.22C115.475 5.08667 115.082 6.34667 115.082 8C115.082 9.65333 115.475 10.9133 116.262 11.78C117.062 12.6467 118.062 13.08 119.262 13.08C120.462 13.08 121.455 12.6467 122.242 11.78C123.042 10.9133 123.442 9.65333 123.442 8C123.442 6.34667 123.042 5.08667 122.242 4.22Z" fill="url(#paint0_linear)"/>
<defs>
<linearGradient id="paint0_linear" x1="59.5313" y1="-24.3359" x2="72.7528" y2="33.06" gradientUnits="userSpaceOnUse">
<stop offset="0.0163564" stop-color="#F4C625"/>
<stop offset="1" stop-color="#E652E9"/>
</linearGradient>
</defs>
</svg>
