<svg width="432" height="135" xmlns="http://www.w3.org/2000/svg" xmlns:xlink="http://www.w3.org/1999/xlink"><defs><path id="a" d="M0 92.167h93.63V0H0z"/><path d="M40.86 65.082c-7.286-.56-13.961 6.166-11.497 17.08-7.98-5.787-8.21-15.53-5.749-21.829 2.565-6.568-.103-12.025-6.366-12.632-6.996-.679-10.881 7.379-7.299 20.212C3.745 60.72 0 51.407 0 41.233 0 18.46 18.753 0 41.887 0s41.887 18.46 41.887 41.233c0 5.003-.904 9.796-2.562 14.232-1.134-13.068-8.213-19.784-15.61-16.658-6.928 2.93-2.259 14.352-1.914 19.802.582 9.238-.03 19.813-17.077 28.605 7.083-13.337.82-21.627-5.751-22.132" id="c"/></defs><g fill="none" fill-rule="evenodd"><path d="M-4.812 9.373L74.59-.377l9.75 79.404-79.404 9.75z"/><path d="M70.979 51.326l1.1 8.955c.24 1.963-1 3.989-3.403 5.93-.342.27-.708.553-1.11.817 0 0-.013.001-.011.013a27.91 27.91 0 01-1.11.733c-1.317.817-2.854 1.615-4.556 2.36-.378.167-.758.332-1.15.5h-.011c-.37.153-.75.308-1.142.464a62.146 62.146 0 01-4.652 1.585c-.384.118-.77.238-1.168.347h-.011c-.388.107-.76.225-1.16.322a82.729 82.729 0 01-4.708 1.126c-.39.084-.778.168-1.18.242l-.013.001a90.678 90.678 0 01-5.924.978c-.394.06-.787.108-1.192.157l-.012.002c-.406.05-.788.097-1.183.133-1.993.229-3.994.39-5.997.486l-.011.001c-.409.027-.796.038-1.194.05a82.516 82.516 0 01-4.84.047c-.411.003-.814-.02-1.214-.03l-.012.001c-.413-.008-.804-.032-1.207-.054a62.138 62.138 0 01-4.896-.414c-.418-.055-.837-.11-1.231-.169l-.012.002c-.42-.07-.817-.14-1.225-.209-1.831-.312-3.516-.714-4.992-1.188a16.085 16.085 0 01-1.267-.453s-.01.001-.012-.01a11.267 11.267 0 01-1.263-.514c-2.8-1.29-4.507-2.966-4.748-4.929l-1.1-8.955 67.817-8.327z" fill="#10BA97" fill-rule="nonzero"/><path d="M70.979 51.326c.24 1.963-1 3.989-3.406 5.907-.35.293-.716.576-1.12.84-.344.257-.714.494-1.107.745-1.318.818-2.856 1.603-4.556 2.36-.379.167-.758.333-1.15.5h-.012c-.37.154-.75.308-1.142.464a62.007 62.007 0 01-4.652 1.585c-.384.119-.77.238-1.168.346l-.01.002c-.389.107-.761.224-1.161.32a81.816 81.816 0 01-4.707 1.127c-.39.084-.779.167-1.182.241l-.011.002a90.223 90.223 0 01-5.924.978c-.394.06-.787.108-1.193.157l-.012.002c-.406.05-.787.096-1.182.134-1.994.229-3.994.39-5.998.486l-.01.001c-.41.026-.796.038-1.195.05a82.64 82.64 0 01-4.84.046c-.41.004-.814-.019-1.214-.03l-.012.002c-.413-.009-.804-.032-1.206-.054a61.999 61.999 0 01-4.896-.414 69.75 69.75 0 01-1.232-.17h-.012c-.42-.066-.817-.137-1.225-.207-1.831-.312-3.515-.713-4.992-1.188-.44-.137-.859-.289-1.266-.453 0 0-.011 0-.012-.01a11.272 11.272 0 01-1.264-.514c-2.799-1.29-4.506-2.965-4.747-4.928-.774-6.3 13.79-13.279 32.512-15.577 18.723-2.3 34.53.95 35.304 7.25z" fill="#21D8B3" fill-rule="nonzero"/><path d="M37.98 63.725c-.337.041-.657.08-.989.11-1.928.221-3.863.379-5.801.474l-.148.005-.06.008c-.309.018-.606.027-.908.036a81.165 81.165 0 01-4.747.05c-.327-.001-.557-.01-.785-.018l-.67-.019c-.243-.008-.869-.044-.869-.044a58.244 58.244 0 01-4.672-.393 77.377 77.377 0 01-1.15-.158l-1.176-.197a34.78 34.78 0 01-3.837-.864l-.002-.014-1.911-.643-.613-.246-.022.003a8.198 8.198 0 01-.28-.128c-2.076-.957-2.874-1.906-2.939-2.432-.356-2.899 10.636-9.653 29.666-11.99 19.022-2.336 31.318 1.56 31.674 4.459.064.524-.477 1.628-2.213 3.013-.278.237-.57.458-.874.662l-.163.115c-.28.209-.584.399-.902.602-1.098.683-2.498 1.407-4.133 2.135l-1.082.466c-.352.146-.717.294-1.092.442a57.35 57.35 0 01-4.375 1.49c-.324.1-.617.191-.913.275l-.638.178a80.514 80.514 0 01-5.239 1.278c-.34.074-.666.144-1.002.206l-.204.038a87.529 87.529 0 01-5.657.933c-.402.06-.74.102-1.083.145l-.19.023z" fill="#10BA97" fill-rule="nonzero"/><path d="M10.272 74.05L8.653 60.865M11.69 85.604v-.013"/><path d="M10.453 65.558l1.1 8.956a16.085 16.085 0 01-1.268-.453s-.01.001-.012-.01a11.267 11.267 0 01-1.263-.514l-1.1-8.956c.399.19.82.365 1.263.513.001.012.013.01.013.01.408.165.827.317 1.267.454z" fill="#09997B" fill-rule="nonzero"/><path d="M17.768 75.91l-1.1-8.956"/><path d="M17.914 67.123l1.1 8.956a72.637 72.637 0 01-1.234-.17h-.011c-.42-.067-.817-.137-1.225-.207l-1.1-8.956c.408.07.805.14 1.225.208l.012-.002c.395.06.813.116 1.232.171z" fill="#09997B" fill-rule="nonzero"/><path d="M25.115 76.546l-1.1-8.955"/><path d="M25.242 67.619l1.1 8.956c-.412.003-.815-.02-1.215-.03l-.012.001c-.413-.008-.804-.032-1.207-.054l-1.1-8.955c.404.021.794.045 1.207.054l.011-.001c.403.01.804.033 1.216.029z" fill="#09997B" fill-rule="nonzero"/><path d="M32.374 76.48l-1.1-8.957"/><path d="M32.49 67.457l1.1 8.956c-.409.026-.806.051-1.204.064l-.011.001c-.409.027-.796.038-1.194.05l-1.1-8.954c.399-.013.784-.025 1.193-.05l.012-.002c.4-.014.795-.04 1.204-.065z" fill="#09997B" fill-rule="nonzero"/><path d="M39.566 75.858l-1.1-8.956"/><path d="M39.67 66.742l1.1 8.956c-.393.06-.787.109-1.192.158l-.012.002c-.406.05-.788.097-1.183.133l-1.1-8.956c.396-.037.777-.083 1.183-.133l.012-.002c.406-.05.8-.098 1.192-.157z" fill="#09997B" fill-rule="nonzero"/><path d="M46.694 74.721l-1.1-8.956"/><path d="M46.788 65.522l1.1 8.956c-.39.084-.779.168-1.182.242l-.012.001c-.39.083-.769.153-1.172.227l-1.1-8.956c.403-.074.783-.144 1.173-.227l.01-.001c.403-.074.794-.158 1.183-.242z" fill="#09997B" fill-rule="nonzero"/><path d="M54.136 72.983l-1.1-8.955"/><path d="M54.477 63.648l1.1 8.955c-.47.13-.941.26-1.428.378l-.013.002c-.473.118-.928.245-1.416.353l-1.1-8.956c.488-.107.944-.234 1.415-.352l.015-.002c.486-.12.957-.249 1.427-.378z" fill="#09997B" fill-rule="nonzero"/><path d="M61.04 70.597l-1.1-8.957"/><path d="M61.363 61.108l1.1 8.956c-.464.177-.929.352-1.408.53l-.014.003c-.453.162-.918.327-1.398.494l-1.1-8.957c.48-.165.946-.33 1.398-.494l.014-.001c.48-.178.944-.354 1.408-.53z" fill="#09997B" fill-rule="nonzero"/><path d="M67.555 67.04l-1.101-8.967"/><path d="M67.573 57.232l1.103 8.98c-.342.269-.708.552-1.11.816 0 0-.013.001-.011.013a27.91 27.91 0 01-1.11.733l-1.1-8.957c.393-.251.765-.488 1.109-.745.403-.263.767-.547 1.12-.841z" fill="#09997B" fill-rule="nonzero"/><g><path d="M77.683 34.131l1.1 8.955c.24 1.963-1 3.988-3.403 5.93-.342.27-.707.552-1.11.816 0 0-.012.002-.01.013a27.91 27.91 0 01-1.11.734c-1.318.817-2.855 1.614-4.556 2.36-.379.166-.759.332-1.15.5h-.012c-.37.153-.75.307-1.142.463a62.146 62.146 0 01-4.651 1.586c-.385.118-.77.238-1.169.346l-.01.002c-.389.106-.761.223-1.161.32a82.729 82.729 0 01-4.707 1.127c-.39.083-.779.167-1.181.241l-.012.002a90.678 90.678 0 01-5.924.978c-.394.06-.787.107-1.193.157l-.012.002c-.406.05-.788.096-1.183.133-1.993.228-3.993.39-5.997.486l-.01.001c-.41.027-.796.038-1.195.05a82.516 82.516 0 01-4.84.047c-.41.002-.814-.02-1.214-.03l-.012.001c-.413-.008-.804-.033-1.206-.055a62.138 62.138 0 01-4.896-.413c-.42-.055-.838-.11-1.232-.169l-.012.001c-.42-.069-.817-.138-1.224-.208-1.832-.312-3.516-.714-4.993-1.188a16.085 16.085 0 01-1.266-.453s-.01 0-.012-.01a11.267 11.267 0 01-1.263-.514c-2.8-1.29-4.507-2.966-4.748-4.929l-1.1-8.955 67.816-8.327z" fill="#10BA97" fill-rule="nonzero"/><path d="M77.683 34.131c.241 1.963-1 3.988-3.405 5.907-.351.293-.717.576-1.12.84-.345.257-.715.493-1.108.744-1.317.819-2.856 1.604-4.556 2.361-.378.166-.758.333-1.15.5h-.011c-.37.154-.75.308-1.143.463a62.007 62.007 0 01-4.651 1.586c-.385.119-.77.237-1.169.346l-.01.001c-.388.108-.76.225-1.161.321a81.816 81.816 0 01-4.707 1.127c-.39.084-.778.167-1.181.241l-.012.002a90.223 90.223 0 01-5.924.978c-.394.059-.787.107-1.193.157l-.012.002c-.405.05-.787.096-1.182.134-1.993.229-3.994.39-5.998.486h-.01c-.41.027-.796.039-1.194.051a82.64 82.64 0 01-4.84.046c-.411.003-.814-.019-1.214-.03l-.012.002c-.413-.01-.804-.033-1.207-.055a61.999 61.999 0 01-4.896-.413 69.75 69.75 0 01-1.232-.171l-.012.001c-.42-.067-.817-.138-1.224-.207-1.832-.312-3.516-.713-4.992-1.188-.44-.138-.86-.289-1.267-.454 0 0-.01.002-.012-.009a11.272 11.272 0 01-1.263-.514c-2.8-1.29-4.507-2.965-4.748-4.928-.773-6.3 13.79-13.279 32.513-15.578 18.723-2.299 34.53.951 35.303 7.251z" fill="#21D8B3" fill-rule="nonzero"/><path d="M44.685 46.53c-.337.041-.658.08-.99.11-1.928.22-3.863.379-5.801.474l-.148.005-.06.007c-.309.02-.606.028-.908.037a81.165 81.165 0 01-4.747.05c-.326-.001-.556-.01-.785-.018l-.67-.019c-.243-.009-.868-.044-.868-.044a58.244 58.244 0 01-4.673-.394 77.377 77.377 0 01-1.149-.157l-1.176-.198a34.78 34.78 0 01-3.838-.863l-.002-.014-1.91-.643-.613-.246-.023.003a8.198 8.198 0 01-.28-.128c-2.075-.957-2.874-1.906-2.938-2.432-.356-2.899 10.636-9.654 29.665-11.99 19.022-2.336 31.318 1.56 31.674 4.459.064.524-.477 1.628-2.213 3.012-.278.238-.57.459-.873.663l-.164.115c-.28.208-.583.398-.902.602-1.098.683-2.498 1.406-4.133 2.135l-1.081.466c-.353.146-.717.294-1.093.441a57.35 57.35 0 01-4.375 1.491c-.324.1-.617.191-.912.274l-.639.18c-.206.059-.413.12-.629.173-1.49.405-2.968.758-4.61 1.104-.34.074-.665.143-1.001.206l-.205.038a87.529 87.529 0 01-5.656.933c-.403.06-.741.102-1.084.144l-.19.024z" fill="#10BA97" fill-rule="nonzero"/><path d="M16.977 56.855l-1.62-13.187M18.395 68.409l-.001-.013"/><path d="M17.158 48.362l1.1 8.957a16.085 16.085 0 01-1.268-.453s-.01 0-.012-.01a11.267 11.267 0 01-1.263-.514l-1.1-8.956c.398.19.82.365 1.262.513.001.012.013.01.013.01.408.165.827.316 1.268.453z" fill="#09997B" fill-rule="nonzero"/><path d="M24.472 58.715l-1.1-8.957"/><path d="M24.618 49.928l1.1 8.956a72.637 72.637 0 01-1.233-.171l-.012.001c-.42-.068-.817-.137-1.224-.207l-1.1-8.956c.407.07.804.14 1.224.207l.012-.001c.396.06.813.116 1.232.171h.001z" fill="#09997B" fill-rule="nonzero"/><path d="M31.82 59.351l-1.1-8.955"/><path d="M31.946 50.424l1.1 8.956c-.412.002-.815-.02-1.215-.03l-.012.001c-.413-.008-.804-.033-1.206-.055l-1.1-8.955c.404.022.794.046 1.207.055l.01-.001c.403.01.805.032 1.216.029z" fill="#09997B" fill-rule="nonzero"/><path d="M39.078 59.284l-1.1-8.956"/><path d="M39.195 50.262l1.1 8.956c-.41.026-.807.051-1.205.064l-.01.001c-.41.027-.796.038-1.195.05l-1.1-8.955c.4-.012.785-.024 1.194-.05l.011-.001c.4-.014.796-.04 1.205-.065z" fill="#09997B" fill-rule="nonzero"/><path d="M46.27 58.663l-1.1-8.956"/><path d="M46.374 49.547l1.1 8.956c-.392.06-.786.108-1.192.158l-.012.002c-.406.05-.788.096-1.183.133l-1.1-8.956c.396-.037.778-.084 1.183-.133l.012-.002c.406-.05.8-.098 1.192-.157z" fill="#09997B" fill-rule="nonzero"/><path d="M53.399 57.526l-1.1-8.956"/><path d="M53.492 48.327l1.1 8.956c-.39.083-.779.167-1.181.241l-.012.002c-.391.083-.77.153-1.173.227l-1.1-8.956c.404-.074.783-.144 1.173-.227l.01-.002c.404-.074.795-.157 1.183-.24z" fill="#09997B" fill-rule="nonzero"/><path d="M60.84 55.788l-1.099-8.955"/><path d="M61.182 46.453l1.1 8.955c-.471.13-.942.26-1.428.378l-.013.002c-.474.118-.929.245-1.417.353l-1.1-8.956c.488-.107.945-.235 1.416-.352l.014-.002c.486-.12.957-.249 1.428-.378z" fill="#09997B" fill-rule="nonzero"/><path d="M67.745 53.401l-1.1-8.956"/><path d="M68.067 43.913l1.1 8.956c-.464.176-.929.352-1.408.53l-.014.002c-.452.163-.917.328-1.398.494l-1.1-8.956c.481-.166.946-.33 1.398-.494l.015-.002c.479-.177.944-.354 1.407-.53z" fill="#09997B" fill-rule="nonzero"/><path d="M74.26 49.845l-1.102-8.967"/><path d="M74.278 40.037l1.102 8.979c-.342.27-.707.552-1.11.816 0 0-.012.002-.01.013a27.91 27.91 0 01-1.11.734l-1.1-8.958c.392-.25.764-.487 1.108-.744.403-.263.768-.547 1.12-.841z" fill="#09997B" fill-rule="nonzero"/></g><g><path d="M67.954 16.435l1.1 8.955c.24 1.963-1 3.988-3.403 5.93-.342.27-.707.552-1.11.816 0 0-.012.002-.011.013a27.91 27.91 0 01-1.109.733c-1.318.818-2.855 1.615-4.556 2.361-.379.166-.759.331-1.15.499l-.012.001c-.37.153-.75.307-1.142.463a62.146 62.146 0 01-4.652 1.586c-.384.117-.77.237-1.168.346l-.01.001c-.389.107-.761.224-1.162.321a82.729 82.729 0 01-4.706 1.127c-.39.083-.779.167-1.182.241l-.011.002a90.678 90.678 0 01-5.924.978c-.394.059-.787.107-1.193.157l-.012.001c-.406.05-.788.097-1.183.134-1.993.228-3.993.39-5.997.485l-.01.002c-.41.026-.796.038-1.195.05a82.516 82.516 0 01-4.84.047c-.41.002-.814-.02-1.214-.03h-.012c-.413-.007-.804-.032-1.207-.054a62.138 62.138 0 01-4.895-.413c-.42-.055-.838-.11-1.232-.17l-.012.002c-.42-.069-.817-.139-1.225-.208-1.831-.312-3.515-.714-4.992-1.189a16.085 16.085 0 01-1.266-.453s-.011.002-.012-.01a11.267 11.267 0 01-1.264-.513c-2.799-1.29-4.506-2.966-4.747-4.93l-1.1-8.954 67.816-8.327z" fill="#10BA97" fill-rule="nonzero"/><path d="M67.954 16.435c.241 1.963-1 3.988-3.405 5.906-.351.293-.717.576-1.12.84-.345.257-.715.494-1.108.745-1.317.819-2.856 1.603-4.556 2.361-.379.166-.758.332-1.15.499l-.012.001c-.369.154-.749.308-1.142.463a62.007 62.007 0 01-4.651 1.586c-.385.118-.77.237-1.169.346l-.01.001c-.388.108-.761.225-1.161.321a81.816 81.816 0 01-4.707 1.127c-.39.084-.778.167-1.181.241l-.012.001a90.223 90.223 0 01-5.924.979c-.394.059-.787.107-1.193.157l-.012.001c-.406.05-.787.097-1.182.135-1.994.228-3.994.39-5.998.485l-.01.002c-.41.025-.796.038-1.194.05a82.64 82.64 0 01-4.84.046c-.411.003-.814-.019-1.215-.03l-.011.002c-.413-.01-.804-.033-1.207-.055a61.999 61.999 0 01-4.896-.413 69.75 69.75 0 01-1.232-.171l-.012.001c-.42-.067-.817-.138-1.224-.207-1.832-.313-3.516-.713-4.992-1.189-.44-.137-.86-.288-1.267-.453 0 0-.01.001-.012-.009a11.272 11.272 0 01-1.263-.514C2.086 28.4.379 26.725.138 24.762c-.773-6.3 13.79-13.279 32.513-15.578 18.723-2.299 34.53.95 35.303 7.25z" fill="#21D8B3" fill-rule="nonzero"/><path d="M34.956 28.833c-.338.042-.658.081-.99.111-1.928.22-3.863.379-5.801.473l-.148.006-.06.007c-.309.019-.606.028-.908.037a81.165 81.165 0 01-4.747.049c-.326 0-.556-.01-.785-.017l-.67-.02c-.243-.008-.868-.043-.868-.043a58.244 58.244 0 01-4.673-.394 77.377 77.377 0 01-1.149-.158l-1.176-.197a34.78 34.78 0 01-3.838-.863l-.002-.014-1.911-.643-.612-.246-.023.002a8.198 8.198 0 01-.28-.127c-2.076-.958-2.874-1.906-2.939-2.432-.356-2.9 10.637-9.654 29.666-11.99 19.022-2.336 31.318 1.56 31.674 4.459.064.523-.477 1.628-2.213 3.012-.278.237-.57.459-.874.663l-.163.115c-.28.208-.583.398-.902.602-1.098.682-2.498 1.406-4.133 2.135l-1.081.465c-.353.146-.718.295-1.093.442a57.35 57.35 0 01-4.375 1.49c-.324.1-.617.192-.913.275l-.638.179c-.206.06-.413.12-.63.173-1.489.405-2.968.759-4.609 1.105-.34.073-.665.143-1.001.206l-.205.038a87.529 87.529 0 01-5.656.932c-.403.06-.741.103-1.084.145l-.19.023z" fill="#10BA97" fill-rule="nonzero"/><path d="M7.247 39.16L5.628 25.971M8.666 50.713l-.001-.013"/><path d="M7.429 30.666l1.1 8.956a16.085 16.085 0 01-1.268-.453s-.011.002-.012-.01a11.267 11.267 0 01-1.264-.513l-1.1-8.956c.4.19.82.364 1.263.513.001.012.013.01.013.01.408.165.827.316 1.268.453z" fill="#09997B" fill-rule="nonzero"/><path d="M14.743 41.018l-1.1-8.956"/><path d="M14.89 32.232l1.099 8.956a72.637 72.637 0 01-1.233-.171l-.012.001c-.42-.068-.817-.138-1.225-.207l-1.1-8.956c.408.07.805.14 1.225.207l.012-.001c.395.059.813.115 1.232.17h.001z" fill="#09997B" fill-rule="nonzero"/><path d="M22.09 41.655l-1.1-8.955"/><path d="M22.217 32.728l1.1 8.956c-.412.002-.815-.02-1.215-.03h-.012c-.413-.007-.804-.032-1.207-.054l-1.1-8.955c.405.022.795.046 1.208.055l.01-.002c.403.01.805.033 1.216.03z" fill="#09997B" fill-rule="nonzero"/><path d="M29.35 41.588l-1.1-8.956"/><path d="M29.465 32.566l1.1 8.956c-.409.026-.806.05-1.204.063l-.01.002c-.41.026-.796.038-1.195.05l-1.1-8.955c.4-.012.785-.025 1.193-.05l.012-.002c.4-.013.796-.039 1.204-.064z" fill="#09997B" fill-rule="nonzero"/><path d="M36.541 40.966l-1.1-8.956"/><path d="M36.645 31.85l1.1 8.957c-.392.06-.786.108-1.192.158l-.012.001c-.406.05-.788.097-1.183.134l-1.1-8.956c.396-.037.777-.084 1.183-.134l.012-.001c.406-.05.8-.098 1.192-.157v-.001z" fill="#09997B" fill-rule="nonzero"/><path d="M43.67 39.83l-1.1-8.957"/><path d="M43.763 30.63l1.1 8.957c-.39.083-.779.167-1.182.241l-.011.002c-.391.083-.77.153-1.173.227l-1.1-8.956c.404-.074.783-.144 1.173-.228h.01c.404-.075.794-.158 1.183-.242z" fill="#09997B" fill-rule="nonzero"/><path d="M51.111 38.092l-1.1-8.956"/><path d="M51.453 28.757l1.1 8.955c-.471.13-.942.26-1.429.378l-.013.002c-.473.117-.928.245-1.416.353l-1.1-8.956c.488-.107.945-.235 1.416-.352l.014-.002c.486-.12.957-.249 1.428-.378z" fill="#09997B" fill-rule="nonzero"/><path d="M58.016 35.705l-1.1-8.956"/><path d="M58.338 26.217l1.1 8.956c-.464.176-.929.352-1.408.53l-.014.002c-.452.162-.917.327-1.398.494l-1.1-8.956c.481-.166.946-.33 1.398-.494l.014-.002c.48-.177.945-.354 1.408-.53z" fill="#09997B" fill-rule="nonzero"/><path d="M64.53 32.15l-1.101-8.968"/><path d="M64.549 22.34l1.102 8.98c-.342.27-.707.552-1.11.816 0 0-.012.002-.011.013a27.91 27.91 0 01-1.109.733l-1.1-8.957c.392-.25.764-.488 1.108-.744.403-.264.767-.547 1.12-.842v.001z" fill="#09997B" fill-rule="nonzero"/></g><g><path d="M202.44-2.464l79.806 5.58-5.581 79.806-79.805-5.58z"/><g transform="rotate(4 118.598 2896.711)" fill-rule="nonzero"><path d="M.325 23.97v13.09c0 2.182.402 4.345 1.185 6.381l6.053 15.637c.21.583.322 1.197.328 1.816v7.213l25.877-2.32 2.37-13.518c.504-2.882.757-5.802.757-8.727V11.36a3.778 3.778 0 00-3.783-3.783 3.495 3.495 0 00-1.261.227 3.714 3.714 0 00-2.22 2.094c-.05.15-.1.277-.15.454a3.615 3.615 0 00-.102.554c-.041.148-.058.301-.05.454V6.316a3.778 3.778 0 00-3.783-3.783 3.55 3.55 0 00-1.362.278 3.737 3.737 0 00-2.421 3.505V3.794a3.783 3.783 0 10-7.567 0v5.044a3.783 3.783 0 00-7.566 0v12.333a3.702 3.702 0 00-2.522-.983A3.778 3.778 0 00.325 23.97z" fill="#92B2FF"/><path d="M24.285 3.794v2.522a3.737 3.737 0 012.42-3.505c.042-.017.085-.024.127-.04a3.76 3.76 0 00-1.286-.238 3.55 3.55 0 00-1.362.278l-.038.02c.088.313.134.637.139.963zm7.566 7.566a1.395 1.395 0 01.05-.454c.02-.187.053-.372.101-.554.05-.177.101-.303.152-.454a3.713 3.713 0 012.214-2.091 3.76 3.76 0 00-1.256-.23 3.495 3.495 0 00-1.261.227v3.556zM10.413 67.881v-6.987a5.508 5.508 0 00-.328-1.816L4.032 43.441a17.78 17.78 0 01-1.185-6.38V23.97a3.767 3.767 0 012.501-3.546 3.678 3.678 0 00-1.24-.237A3.778 3.778 0 00.325 23.97v13.09c0 2.181.402 4.344 1.185 6.38l6.053 15.637c.21.583.322 1.197.328 1.816v7.213l2.522-.226zm6.305-59.043V3.794A3.766 3.766 0 0119.241.242a3.749 3.749 0 00-5.045 3.552v1.492a3.766 3.766 0 012.522 3.552zm-7.566 0a3.766 3.766 0 012.522-3.552A3.749 3.749 0 006.63 8.838v11.35a3.702 3.702 0 012.522.983V8.838z" fill="#5485FF"/><path d="M29.329 11.587v18.916a1.261 1.261 0 102.522 0V7.804a3.714 3.714 0 00-2.22 2.094c-.05.15-.1.277-.15.454a3.615 3.615 0 00-.102.554c-.03.226-.046.454-.05.681zm-7.566-5.27v18.915a1.261 1.261 0 002.522 0V3.794c.004-.33-.03-.66-.101-.983a3.737 3.737 0 00-2.421 3.505zm-7.478-2.468v18.916a1.261 1.261 0 002.522 0V1.327c.004-.33-.03-.66-.1-.984a3.737 3.737 0 00-2.422 3.506zM6.627 18.795v2.068c.003.304.11.597.302.832.026 0 .026.025.05.05a.68.68 0 01.202.177l.026.025c.438.464.682 1.078.68 1.715v11.35c.007.48.279.917.707 1.135l3.304 1.664a10.881 10.881 0 016.078 9.811 1.261 1.261 0 102.522 0 13.41 13.41 0 00-7.465-12.08L10.41 34.23V23.662a4.978 4.978 0 00-1.261-3.304 4.79 4.79 0 00-2.522-1.563z" fill="#5485FF"/><rect fill="#5485FF" x="6.629" y="65.585" width="30.265" height="12.61" rx="1"/><path d="M9.152 75.674v-7.567a2.522 2.522 0 012.522-2.522H9.152a2.522 2.522 0 00-2.522 2.522v7.567a2.522 2.522 0 002.522 2.522h2.522a2.522 2.522 0 01-2.522-2.522z" fill="#305BC4"/><path d="M79.446 23.97v13.09c0 2.182-.403 4.345-1.186 6.381l-6.053 15.637a5.508 5.508 0 00-.328 1.816v7.213l-25.876-2.32-2.371-13.518a50.731 50.731 0 01-.757-8.727V11.36a3.778 3.778 0 013.784-3.783c.43-.002.858.075 1.26.227a3.714 3.714 0 012.22 2.094c.05.15.1.277.151.454.048.182.082.367.101.554.042.148.059.301.05.454V6.316a3.778 3.778 0 013.784-3.783c.468.002.93.096 1.362.278a3.737 3.737 0 012.42 3.505V3.794a3.783 3.783 0 017.567 0v5.044a3.783 3.783 0 117.566 0v12.333a3.702 3.702 0 012.522-.983 3.778 3.778 0 013.784 3.783z" fill="#92B2FF"/><path d="M55.486 3.794v2.522a3.737 3.737 0 00-2.421-3.505c-.041-.017-.085-.024-.126-.04a3.76 3.76 0 011.286-.238c.468.002.93.096 1.362.278l.038.02a3.76 3.76 0 00-.14.963zM47.92 11.36a1.395 1.395 0 00-.05-.454 3.615 3.615 0 00-.102-.554c-.05-.177-.1-.303-.151-.454a3.713 3.713 0 00-2.214-2.091 3.76 3.76 0 011.256-.23c.43-.002.858.075 1.26.227v3.556zm15.132-2.522V3.794A3.766 3.766 0 0060.53.242a3.749 3.749 0 015.044 3.552v1.492a3.766 3.766 0 00-2.522 3.552zm7.566 0a3.766 3.766 0 00-2.522-3.552 3.749 3.749 0 015.044 3.552v11.35a3.702 3.702 0 00-2.522.983V8.838z" fill="#5485FF"/><path d="M50.442 11.587v18.916a1.261 1.261 0 11-2.522 0V7.804a3.714 3.714 0 012.219 2.094c.05.15.1.277.151.454.048.182.082.367.101.554.03.226.046.454.05.681zm7.566-5.27v18.915a1.261 1.261 0 01-2.522 0V3.794c-.004-.33.03-.66.1-.983a3.737 3.737 0 012.422 3.505zm7.477-2.468v18.916a1.261 1.261 0 01-2.522 0V1.327c-.004-.33.03-.66.1-.984a3.737 3.737 0 012.422 3.506zm7.659 14.946v2.068a1.34 1.34 0 01-.303.832c-.025 0-.025.025-.05.05a.68.68 0 00-.202.177l-.025.025a2.488 2.488 0 00-.681 1.715v11.35a1.29 1.29 0 01-.706 1.135l-3.304 1.664a10.881 10.881 0 00-6.079 9.811 1.261 1.261 0 01-2.522 0 13.41 13.41 0 017.466-12.08l2.623-1.312V23.662a4.978 4.978 0 011.26-3.304 4.79 4.79 0 012.523-1.563z" fill="#5485FF"/><rect fill="#5485FF" transform="rotate(180 58.008 71.89)" x="42.875" y="65.585" width="30.265" height="12.61" rx="1"/><path d="M45.397 75.674v-7.567a2.522 2.522 0 012.523-2.522h-2.523a2.522 2.522 0 00-2.522 2.522v7.567a2.522 2.522 0 002.522 2.522h2.523a2.522 2.522 0 01-2.523-2.522z" fill="#305BC4"/></g></g><g><path d="M288.448 63.938l78.785-13.892 13.892 78.785-78.785 13.892z"/><g stroke="#B93844"><path d="M341.298 133.315c20.396-3.597 34.015-23.046 30.419-43.442a37.482 37.482 0 00-3.674-10.838c-7.361-14.12-23.255-22.493-39.768-19.58-20.397 3.596-34.015 23.045-30.419 43.441a37.49 37.49 0 003.58 10.656c7.318 14.229 23.277 22.687 39.862 19.763z" stroke-width="1.5" fill="#D94454"/><path d="M318.617 78.185l15.745 11.747-5.166.911-2.684.473c-.721.128-1.2.78-1.082 1.45l4.618 26.193-8.128 1.433-.087-.492-4.547-25.704c-.118-.67-.792-1.12-1.513-.993l-7.86 1.386 10.704-16.404zM350.436 114.675l10.779-16.424-5.166.911-2.685.474c-.72.127-1.394-.323-1.512-.993l-4.619-26.193-8.128 1.434.086.492 4.52 25.71c.117.67-.362 1.322-1.083 1.45l-7.86 1.386 15.668 11.753z" fill="#FF7382" fill-rule="nonzero"/></g></g><g><path d="M353.853-14.837l79.805 5.58-5.58 79.805-79.806-5.58z"/><g stroke="#6D3AD3" stroke-linejoin="round" fill-rule="nonzero"><path fill="#935DFF" d="M393.239 41.067L378.89 54.68l6.995-20.362 7.364 6.732z"/><path fill="#935DFF" d="M412.208 57.009L394.376 42.16l-8.49-7.844 45.366-32.114z"/><path fill="#7E4EDC" d="M431.252 2.203l-45.35 33.059-7.01 19.417-2.418-26.03z"/><path fill="#935DFF" d="M376.496 28.849l-23.28-11.646 78.036-15z"/></g></g><g><path d="M89 33h95v95H89z"/><g transform="matrix(1 0 0 -1 89 127.03)"><mask id="b" fill="#fff"><use xlink:href="#a"/></mask><g mask="url(#b)"><path d="M88.702 43.658c0 5.004-.904 9.796-2.562 14.233-1.134-13.071-8.213-19.785-15.61-16.658-6.93 2.93-2.259 14.351-1.914 19.801.582 9.239-.03 19.814-17.078 28.606 7.084-13.34.82-21.626-5.75-22.132-7.289-.558-13.961 6.165-11.497 17.08-7.978-5.788-8.213-15.528-5.751-21.83 2.567-6.568-.101-12.025-6.364-12.631-6.996-.68-10.884 7.376-7.299 20.211-6.204-7.191-9.95-16.505-9.95-26.68 0-22.772 18.754-41.233 41.888-41.233 23.134 0 41.887 18.46 41.887 41.233" fill="#F4900C" fill-rule="nonzero"/></g></g><g transform="matrix(1 0 0 -1 93.928 124.604)"><mask id="d" fill="#fff"><use xlink:href="#c"/></mask><use fill="#FFA539" xlink:href="#c"/><g mask="url(#d)"><path d="M71.455 14.553A28.625 28.625 0 0167.5 29.108c.362-7.48-6.313-10.413-9.905-8.996-5.187 2.044-3.797 5.557-5.133 12.833-1.335 7.276-6.467 12.33-14.066 14.553 5.544-15.36-3.073-21.022-7.59-22.033-4.612-1.033-9.246.002-9.776 9.719-5.379-5.273-8.71-12.57-8.71-20.631 0-16.074 13.239-29.106 29.567-29.106 16.329 0 29.568 13.032 29.568 29.106" stroke="#F79219" stroke-width="1.5" fill="#FFCC4D" fill-rule="nonzero"/></g></g></g></g></svg>