<?xml version="1.0" encoding="UTF-8"?>
<svg width="300px" height="300px" viewBox="0 0 300 300" version="1.1" xmlns="http://www.w3.org/2000/svg" xmlns:xlink="http://www.w3.org/1999/xlink">
    <!-- Generator: Sketch 57.1 (83088) - https://sketch.com -->
    <title>token / vector / dark / iBNB</title>
    <desc>Created with Sketch.</desc>
    <g id="token-/-vector-/-dark-/-iBNB" stroke="none" stroke-width="1" fill="none" fill-rule="evenodd">
        <circle id="Oval" fill="#1E1A31" cx="150" cy="150" r="150"></circle>
        <path d="M47.6166667,106.2 C49.9500117,106.2 51.8833257,106.949993 53.4166667,108.45 C54.9500077,109.950007 55.7166667,111.833322 55.7166667,114.1 C55.7166667,116.366678 54.9500077,118.266659 53.4166667,119.8 C51.8833257,121.333341 49.9500117,122.1 47.6166667,122.1 C45.2833217,122.1 43.3333412,121.333341 41.7666667,119.8 C40.1999922,118.266659 39.4166667,116.366678 39.4166667,114.1 C39.4166667,111.833322 40.1999922,109.950007 41.7666667,108.45 C43.3333412,106.949993 45.2833217,106.2 47.6166667,106.2 Z M40.5166667,127.6 L54.6166667,127.6 L54.6166667,179 L40.5166667,179 L40.5166667,127.6 Z M93.7833333,109 C101.916707,109 108.216644,110.599984 112.683333,113.8 C117.150022,117.000016 119.383333,121.533304 119.383333,127.4 C119.383333,131.733355 118.183345,135.23332 115.783333,137.9 C113.383321,140.56668 109.983355,142.299996 105.583333,143.1 C110.783359,143.76667 114.799986,145.43332 117.633333,148.1 C120.466681,150.76668 121.883333,154.499976 121.883333,159.3 C121.883333,165.433364 119.550023,170.249982 114.883333,173.75 C110.216643,177.250018 103.616709,179 95.0833333,179 L67.1833333,179 L67.1833333,109 L93.7833333,109 Z M82.1833333,137.8 L94.1833333,137.8 C97.3833493,137.8 99.8833243,137.033341 101.683333,135.5 C103.483342,133.966659 104.383333,131.900013 104.383333,129.3 C104.383333,126.699987 103.483342,124.633341 101.683333,123.1 C99.8833243,121.566659 97.3833493,120.8 94.1833333,120.8 L82.1833333,120.8 L82.1833333,137.8 Z M82.1833333,167.1 L95.1833333,167.1 C98.7833513,167.1 101.566657,166.333341 103.533333,164.8 C105.50001,163.266659 106.483333,161.133347 106.483333,158.4 C106.483333,155.533319 105.483343,153.316675 103.483333,151.75 C101.483323,150.183325 98.7166843,149.4 95.1833333,149.4 L82.1833333,149.4 L82.1833333,167.1 Z M133.45,179 L133.45,109 L147.05,109 L176.75,153.1 L176.75,109 L191.55,109 L191.55,179 L177.85,179 L148.15,134.9 L148.15,179 L133.45,179 Z M231.716667,109 C239.850041,109 246.149978,110.599984 250.616667,113.8 C255.083356,117.000016 257.316667,121.533304 257.316667,127.4 C257.316667,131.733355 256.116679,135.23332 253.716667,137.9 C251.316655,140.56668 247.916689,142.299996 243.516667,143.1 C248.716693,143.76667 252.733319,145.43332 255.566667,148.1 C258.400014,150.76668 259.816667,154.499976 259.816667,159.3 C259.816667,165.433364 257.483357,170.249982 252.816667,173.75 C248.149977,177.250018 241.550043,179 233.016667,179 L205.116667,179 L205.116667,109 L231.716667,109 Z M220.116667,137.8 L232.116667,137.8 C235.316683,137.8 237.816658,137.033341 239.616667,135.5 C241.416676,133.966659 242.316667,131.900013 242.316667,129.3 C242.316667,126.699987 241.416676,124.633341 239.616667,123.1 C237.816658,121.566659 235.316683,120.8 232.116667,120.8 L220.116667,120.8 L220.116667,137.8 Z M220.116667,167.1 L233.116667,167.1 C236.716685,167.1 239.49999,166.333341 241.466667,164.8 C243.433343,163.266659 244.416667,161.133347 244.416667,158.4 C244.416667,155.533319 243.416677,153.316675 241.416667,151.75 C239.416657,150.183325 236.650018,149.4 233.116667,149.4 L220.116667,149.4 L220.116667,167.1 Z" id="iBNB" fill="#FFFFFF" fill-rule="nonzero"></path>
    </g>
</svg>