<?xml version="1.0" encoding="UTF-8"?>
<svg width="300px" height="300px" viewBox="0 0 300 300" version="1.1" xmlns="http://www.w3.org/2000/svg" xmlns:xlink="http://www.w3.org/1999/xlink">
    <!-- Generator: Sketch 57.1 (83088) - https://sketch.com -->
    <title>token / vector / dark / iBTC</title>
    <desc>Created with Sketch.</desc>
    <g id="token-/-vector-/-dark-/-iBTC" stroke="none" stroke-width="1" fill="none" fill-rule="evenodd">
        <circle id="Oval" fill="#1E1A31" cx="150" cy="150" r="150"></circle>
        <path d="M54.7666667,106.2 C57.1000117,106.2 59.0333257,106.949993 60.5666667,108.45 C62.1000077,109.950007 62.8666667,111.833322 62.8666667,114.1 C62.8666667,116.366678 62.1000077,118.266659 60.5666667,119.8 C59.0333257,121.333341 57.1000117,122.1 54.7666667,122.1 C52.4333217,122.1 50.4833412,121.333341 48.9166667,119.8 C47.3499922,118.266659 46.5666667,116.366678 46.5666667,114.1 C46.5666667,111.833322 47.3499922,109.950007 48.9166667,108.45 C50.4833412,106.949993 52.4333217,106.2 54.7666667,106.2 Z M47.6666667,127.6 L61.7666667,127.6 L61.7666667,179 L47.6666667,179 L47.6666667,127.6 Z M100.933333,109 C109.066707,109 115.366644,110.599984 119.833333,113.8 C124.300022,117.000016 126.533333,121.533304 126.533333,127.4 C126.533333,131.733355 125.333345,135.23332 122.933333,137.9 C120.533321,140.56668 117.133355,142.299996 112.733333,143.1 C117.933359,143.76667 121.949986,145.43332 124.783333,148.1 C127.616681,150.76668 129.033333,154.499976 129.033333,159.3 C129.033333,165.433364 126.700023,170.249982 122.033333,173.75 C117.366643,177.250018 110.766709,179 102.233333,179 L74.3333333,179 L74.3333333,109 L100.933333,109 Z M89.3333333,137.8 L101.333333,137.8 C104.533349,137.8 107.033324,137.033341 108.833333,135.5 C110.633342,133.966659 111.533333,131.900013 111.533333,129.3 C111.533333,126.699987 110.633342,124.633341 108.833333,123.1 C107.033324,121.566659 104.533349,120.8 101.333333,120.8 L89.3333333,120.8 L89.3333333,137.8 Z M89.3333333,167.1 L102.333333,167.1 C105.933351,167.1 108.716657,166.333341 110.683333,164.8 C112.65001,163.266659 113.633333,161.133347 113.633333,158.4 C113.633333,155.533319 112.633343,153.316675 110.633333,151.75 C108.633323,150.183325 105.866684,149.4 102.333333,149.4 L89.3333333,149.4 L89.3333333,167.1 Z M131.9,109 L187.3,109 L187.3,121.9 L167.1,121.9 L167.1,179 L152.1,179 L152.1,121.9 L131.9,121.9 L131.9,109 Z M189.566667,144 C189.566667,136.866631 190.949986,130.616693 193.716667,125.25 C196.483347,119.883306 200.449974,115.733348 205.616667,112.8 C210.783359,109.866652 216.866632,108.4 223.866667,108.4 C229.333361,108.4 234.233312,109.466656 238.566667,111.6 C242.900022,113.733344 246.399987,116.733314 249.066667,120.6 C251.733347,124.466686 253.333331,128.933308 253.866667,134 L238.866667,134 C237.999996,129.99998 236.183347,126.850011 233.416667,124.55 C230.649986,122.249989 227.200021,121.1 223.066667,121.1 C217.466639,121.1 213.03335,123.199979 209.766667,127.4 C206.499984,131.600021 204.866667,137.133299 204.866667,144 C204.866667,150.800034 206.499984,156.316645 209.766667,160.55 C213.03335,164.783355 217.466639,166.9 223.066667,166.9 C227.200021,166.9 230.649986,165.750011 233.416667,163.45 C236.183347,161.149989 237.999996,158.00002 238.866667,154 L253.866667,154 C253.333331,159.066692 251.733347,163.533314 249.066667,167.4 C246.399987,171.266686 242.900022,174.266656 238.566667,176.4 C234.233312,178.533344 229.333361,179.6 223.866667,179.6 C216.866632,179.6 210.783359,178.133348 205.616667,175.2 C200.449974,172.266652 196.483347,168.116693 193.716667,162.75 C190.949986,157.383307 189.566667,151.133369 189.566667,144 Z" id="iBTC" fill="#FFFFFF" fill-rule="nonzero"></path>
    </g>
</svg>