<?xml version="1.0" encoding="UTF-8"?>
<svg width="300px" height="300px" viewBox="0 0 300 300" version="1.1" xmlns="http://www.w3.org/2000/svg" xmlns:xlink="http://www.w3.org/1999/xlink">
    <!-- Generator: Sketch 57.1 (83088) - https://sketch.com -->
    <title>token / vector / dark / iCEX</title>
    <desc>Created with Sketch.</desc>
    <g id="token-/-vector-/-dark-/-iCEX" stroke="none" stroke-width="1" fill="none" fill-rule="evenodd">
        <circle id="Oval" fill="#1E1A31" cx="150" cy="150" r="150"></circle>
        <path d="M50.2166667,106.2 C52.5500117,106.2 54.4833257,106.949993 56.0166667,108.45 C57.5500077,109.950007 58.3166667,111.833322 58.3166667,114.1 C58.3166667,116.366678 57.5500077,118.266659 56.0166667,119.8 C54.4833257,121.333341 52.5500117,122.1 50.2166667,122.1 C47.8833217,122.1 45.9333412,121.333341 44.3666667,119.8 C42.7999922,118.266659 42.0166667,116.366678 42.0166667,114.1 C42.0166667,111.833322 42.7999922,109.950007 44.3666667,108.45 C45.9333412,106.949993 47.8833217,106.2 50.2166667,106.2 Z M43.1166667,127.6 L57.2166667,127.6 L57.2166667,179 L43.1166667,179 L43.1166667,127.6 Z M66.9833333,144 C66.9833333,136.866631 68.3666528,130.616693 71.1333333,125.25 C73.9000138,119.883306 77.8666408,115.733348 83.0333333,112.8 C88.2000258,109.866652 94.2832983,108.4 101.283333,108.4 C106.750027,108.4 111.649978,109.466656 115.983333,111.6 C120.316688,113.733344 123.816653,116.733314 126.483333,120.6 C129.150013,124.466686 130.749997,128.933308 131.283333,134 L116.283333,134 C115.416662,129.99998 113.600014,126.850011 110.833333,124.55 C108.066653,122.249989 104.616687,121.1 100.483333,121.1 C94.8833053,121.1 90.4500163,123.199979 87.1833333,127.4 C83.9166503,131.600021 82.2833333,137.133299 82.2833333,144 C82.2833333,150.800034 83.9166503,156.316645 87.1833333,160.55 C90.4500163,164.783355 94.8833053,166.9 100.483333,166.9 C104.616687,166.9 108.066653,165.750011 110.833333,163.45 C113.600014,161.149989 115.416662,158.00002 116.283333,154 L131.283333,154 C130.749997,159.066692 129.150013,163.533314 126.483333,167.4 C123.816653,171.266686 120.316688,174.266656 115.983333,176.4 C111.649978,178.533344 106.750027,179.6 101.283333,179.6 C94.2832983,179.6 88.2000258,178.133348 83.0333333,175.2 C77.8666408,172.266652 73.9000138,168.116693 71.1333333,162.75 C68.3666528,157.383307 66.9833333,151.133369 66.9833333,144 Z M141.65,109 L188.65,109 L188.65,121.9 L156.65,121.9 L156.65,137.6 L182.65,137.6 L182.65,149.9 L156.65,149.9 L156.65,166.1 L189.75,166.1 L189.75,179 L141.65,179 L141.65,109 Z M218.816667,143.3 L197.016667,109 L215.216667,109 L229.016667,131 L243.116667,109 L259.516667,109 L237.716667,143.3 L260.616667,179 L242.316667,179 L227.416667,155.5 L212.216667,179 L195.916667,179 L218.816667,143.3 Z" id="iCEX" fill="#FFFFFF" fill-rule="nonzero"></path>
    </g>
</svg>