<?xml version="1.0" encoding="UTF-8"?>
<svg width="300px" height="300px" viewBox="0 0 300 300" version="1.1" xmlns="http://www.w3.org/2000/svg" xmlns:xlink="http://www.w3.org/1999/xlink">
    <!-- Generator: Sketch 57.1 (83088) - https://sketch.com -->
    <title>token / vector / dark / iETH</title>
    <desc>Created with Sketch.</desc>
    <g id="token-/-vector-/-dark-/-iETH" stroke="none" stroke-width="1" fill="none" fill-rule="evenodd">
        <circle id="Oval" fill="#1E1A31" cx="150" cy="150" r="150"></circle>
        <path d="M55.0166667,106.2 C57.3500117,106.2 59.2833257,106.949993 60.8166667,108.45 C62.3500077,109.950007 63.1166667,111.833322 63.1166667,114.1 C63.1166667,116.366678 62.3500077,118.266659 60.8166667,119.8 C59.2833257,121.333341 57.3500117,122.1 55.0166667,122.1 C52.6833217,122.1 50.7333412,121.333341 49.1666667,119.8 C47.5999922,118.266659 46.8166667,116.366678 46.8166667,114.1 C46.8166667,111.833322 47.5999922,109.950007 49.1666667,108.45 C50.7333412,106.949993 52.6833217,106.2 55.0166667,106.2 Z M47.9166667,127.6 L62.0166667,127.6 L62.0166667,179 L47.9166667,179 L47.9166667,127.6 Z M74.5833333,109 L121.583333,109 L121.583333,121.9 L89.5833333,121.9 L89.5833333,137.6 L115.583333,137.6 L115.583333,149.9 L89.5833333,149.9 L89.5833333,166.1 L122.683333,166.1 L122.683333,179 L74.5833333,179 L74.5833333,109 Z M128.35,109 L183.75,109 L183.75,121.9 L163.55,121.9 L163.55,179 L148.55,179 L148.55,121.9 L128.35,121.9 L128.35,109 Z M193.616667,109 L208.616667,109 L208.616667,137.1 L236.416667,137.1 L236.416667,109 L251.416667,109 L251.416667,179 L236.416667,179 L236.416667,150.1 L208.616667,150.1 L208.616667,179 L193.616667,179 L193.616667,109 Z" id="iETH" fill="#FFFFFF" fill-rule="nonzero"></path>
    </g>
</svg>