<?xml version="1.0" encoding="UTF-8"?>
<svg width="300px" height="300px" viewBox="0 0 300 300" version="1.1" xmlns="http://www.w3.org/2000/svg" xmlns:xlink="http://www.w3.org/1999/xlink">
    <!-- Generator: Sketch 57.1 (83088) - https://sketch.com -->
    <title>token / vector / dark / iMKR</title>
    <desc>Created with Sketch.</desc>
    <g id="token-/-vector-/-dark-/-iMKR" stroke="none" stroke-width="1" fill="none" fill-rule="evenodd">
        <circle id="Oval" fill="#1E1A31" cx="150" cy="150" r="150"></circle>
        <path d="M36.3666667,106.2 C38.7000117,106.2 40.6333257,106.949993 42.1666667,108.45 C43.7000077,109.950007 44.4666667,111.833322 44.4666667,114.1 C44.4666667,116.366678 43.7000077,118.266659 42.1666667,119.8 C40.6333257,121.333341 38.7000117,122.1 36.3666667,122.1 C34.0333217,122.1 32.0833412,121.333341 30.5166667,119.8 C28.9499922,118.266659 28.1666667,116.366678 28.1666667,114.1 C28.1666667,111.833322 28.9499922,109.950007 30.5166667,108.45 C32.0833412,106.949993 34.0333217,106.2 36.3666667,106.2 Z M29.2666667,127.6 L43.3666667,127.6 L43.3666667,179 L29.2666667,179 L29.2666667,127.6 Z M55.9333333,109 L75.6333333,109 L95.0333333,160.4 L113.833333,109 L133.133333,109 L133.133333,179 L118.833333,179 L118.833333,132.1 L100.633333,179 L88.4333333,179 L70.2333333,132.1 L70.2333333,179 L55.9333333,179 L55.9333333,109 Z M146.8,109.1 L161.8,109.1 L161.8,140.5 L189.8,109.1 L208,109.1 L182.3,137.9 L209.7,179 L191.7,179 L171.7,149.5 L161.8,160.6 L161.8,179 L146.8,179 L146.8,109.1 Z M245.266667,109 C250.333359,109 254.816647,109.94999 258.716667,111.85 C262.616686,113.75001 265.633323,116.466649 267.766667,120 C269.900011,123.533351 270.966667,127.63331 270.966667,132.3 C270.966667,136.766689 269.900011,140.71665 267.766667,144.15 C265.633323,147.58335 262.700019,150.199991 258.966667,152 L272.766667,179 L256.166667,179 L244.466667,155.5 L231.766667,155.5 L231.766667,179 L216.766667,179 L216.766667,109 L245.266667,109 Z M231.766667,143 L244.066667,143 C247.600018,143 250.416656,142.033343 252.516667,140.1 C254.616677,138.166657 255.666667,135.566683 255.666667,132.3 C255.666667,128.96665 254.616677,126.333343 252.516667,124.4 C250.416656,122.466657 247.600018,121.5 244.066667,121.5 L231.766667,121.5 L231.766667,143 Z" id="iMKR" fill="#FFFFFF" fill-rule="nonzero"></path>
    </g>
</svg>