<?xml version="1.0" encoding="UTF-8"?>
<svg width="300px" height="300px" viewBox="0 0 300 300" version="1.1" xmlns="http://www.w3.org/2000/svg" xmlns:xlink="http://www.w3.org/1999/xlink">
    <!-- Generator: Sketch 57.1 (83088) - https://sketch.com -->
    <title>token / vector / dark / iTRX</title>
    <desc>Created with Sketch.</desc>
    <g id="token-/-vector-/-dark-/-iTRX" stroke="none" stroke-width="1" fill="none" fill-rule="evenodd">
        <circle id="Oval" fill="#1E1A31" cx="150" cy="150" r="150"></circle>
        <path d="M51.9666667,106.2 C54.3000117,106.2 56.2333257,106.949993 57.7666667,108.45 C59.3000077,109.950007 60.0666667,111.833322 60.0666667,114.1 C60.0666667,116.366678 59.3000077,118.266659 57.7666667,119.8 C56.2333257,121.333341 54.3000117,122.1 51.9666667,122.1 C49.6333217,122.1 47.6833412,121.333341 46.1166667,119.8 C44.5499922,118.266659 43.7666667,116.366678 43.7666667,114.1 C43.7666667,111.833322 44.5499922,109.950007 46.1166667,108.45 C47.6833412,106.949993 49.6333217,106.2 51.9666667,106.2 Z M44.8666667,127.6 L58.9666667,127.6 L58.9666667,179 L44.8666667,179 L44.8666667,127.6 Z M67.7333333,109 L123.133333,109 L123.133333,121.9 L102.933333,121.9 L102.933333,179 L87.9333333,179 L87.9333333,121.9 L67.7333333,121.9 L67.7333333,109 Z M161.5,109 C166.566692,109 171.049981,109.94999 174.95,111.85 C178.85002,113.75001 181.866656,116.466649 184,120 C186.133344,123.533351 187.2,127.63331 187.2,132.3 C187.2,136.766689 186.133344,140.71665 184,144.15 C181.866656,147.58335 178.933352,150.199991 175.2,152 L189,179 L172.4,179 L160.7,155.5 L148,155.5 L148,179 L133,179 L133,109 L161.5,109 Z M148,143 L160.3,143 C163.833351,143 166.64999,142.033343 168.75,140.1 C170.85001,138.166657 171.9,135.566683 171.9,132.3 C171.9,128.96665 170.85001,126.333343 168.75,124.4 C166.64999,122.466657 163.833351,121.5 160.3,121.5 L148,121.5 L148,143 Z M217.066667,143.3 L195.266667,109 L213.466667,109 L227.266667,131 L241.366667,109 L257.766667,109 L235.966667,143.3 L258.866667,179 L240.566667,179 L225.666667,155.5 L210.466667,179 L194.166667,179 L217.066667,143.3 Z" id="iTRX" fill="#FFFFFF" fill-rule="nonzero"></path>
    </g>
</svg>