<?xml version="1.0" encoding="UTF-8"?>
<svg width="300px" height="300px" viewBox="0 0 300 300" version="1.1" xmlns="http://www.w3.org/2000/svg" xmlns:xlink="http://www.w3.org/1999/xlink">
    <!-- Generator: Sketch 57.1 (83088) - https://sketch.com -->
    <title>token / vector / dark / iXTZ</title>
    <desc>Created with Sketch.</desc>
    <g id="token-/-vector-/-dark-/-iXTZ" stroke="none" stroke-width="1" fill="none" fill-rule="evenodd">
        <circle id="Oval" fill="#1E1A31" cx="150" cy="150" r="150"></circle>
        <path d="M52.5666667,106.2 C54.9000117,106.2 56.8333257,106.949993 58.3666667,108.45 C59.9000077,109.950007 60.6666667,111.833322 60.6666667,114.1 C60.6666667,116.366678 59.9000077,118.266659 58.3666667,119.8 C56.8333257,121.333341 54.9000117,122.1 52.5666667,122.1 C50.2333217,122.1 48.2833412,121.333341 46.7166667,119.8 C45.1499922,118.266659 44.3666667,116.366678 44.3666667,114.1 C44.3666667,111.833322 45.1499922,109.950007 46.7166667,108.45 C48.2833412,106.949993 50.2333217,106.2 52.5666667,106.2 Z M45.4666667,127.6 L59.5666667,127.6 L59.5666667,179 L45.4666667,179 L45.4666667,127.6 Z M90.5333333,143.3 L68.7333333,109 L86.9333333,109 L100.733333,131 L114.833333,109 L131.233333,109 L109.433333,143.3 L132.333333,179 L114.033333,179 L99.1333333,155.5 L83.9333333,179 L67.6333333,179 L90.5333333,143.3 Z M137.7,109 L193.1,109 L193.1,121.9 L172.9,121.9 L172.9,179 L157.9,179 L157.9,121.9 L137.7,121.9 L137.7,109 Z M200.566667,109 L256.166667,109 L256.166667,118.9 L220.266667,166.2 L257.066667,166.2 L257.066667,179 L199.666667,179 L199.666667,169.1 L235.566667,121.8 L200.566667,121.8 L200.566667,109 Z" id="iXTZ" fill="#FFFFFF" fill-rule="nonzero"></path>
    </g>
</svg>