<?xml version="1.0" encoding="UTF-8"?>
<svg width="300px" height="300px" viewBox="0 0 300 300" version="1.1" xmlns="http://www.w3.org/2000/svg" xmlns:xlink="http://www.w3.org/1999/xlink">
    <!-- Generator: Sketch 57.1 (83088) - https://sketch.com -->
    <title>token / vector / dark / sAUD</title>
    <desc>Created with Sketch.</desc>
    <g id="token-/-vector-/-dark-/-sAUD" stroke="none" stroke-width="1" fill="none" fill-rule="evenodd">
        <circle id="Oval" fill="#1E1A31" cx="150" cy="150" r="150"></circle>
        <g id="logo-/-icon-/-snx-/-snx-light" transform="translate(67.000000, 85.000000)" fill="#FFFFFF">
            <polygon id="Stroke" opacity="0.5" points="16.4242874 123.528427 3.94076966 114.6224 82.457252 5.52842738 94.9407697 14.4344545"></polygon>
            <path d="M56.8681078,57.3494854 L61.0594056,57.3494854 C80.356563,57.3494854 96,72.9412843 96,92.1747428 C96,111.408201 80.356563,127 61.0594056,127 L9.67585345,127 C5.43659705,127 2,123.574748 2,119.349485 C2,115.124222 5.43659705,111.69897 9.67585345,111.69897 L61.0594056,111.69897 C71.8780504,111.69897 80.6482949,102.957676 80.6482949,92.1747428 C80.6482949,81.3918097 71.8780504,72.6505153 61.0594056,72.6505153 L41.1351711,72.6505153 L41.1318922,72.6505146 L36.9405944,72.6505146 C17.643437,72.6505146 2,57.0587157 2,37.8252572 C2,18.5917988 17.643437,3 36.9405944,3 L88.3241465,3 C92.563403,3 96,6.42525221 96,10.6505149 C96,14.8757777 92.563403,18.3010299 88.3241465,18.3010299 L36.9405944,18.3010299 C26.1219496,18.3010299 17.3517051,27.0423242 17.3517051,37.8252572 C17.3517051,48.6081903 26.1219496,57.3494847 36.9405944,57.3494847 L56.8648289,57.3494847 C56.8659219,57.3494847 56.8670149,57.3494849 56.8681078,57.3494854 L56.8681078,57.3494854 Z" id="Path"></path>
        </g>
        <path d="M134.12,172.5 L149.48,130.5 L160.28,130.5 L175.52,172.5 L165.86,172.5 L162.62,163.32 L146.66,163.32 L143.42,172.5 L134.12,172.5 Z M149.06,156.06 L160.16,156.06 L154.58,140.1 L149.06,156.06 Z M187.04,130.5 L187.04,154.86 C187.04,158.260017 187.699993,160.819991 189.02,162.54 C190.340007,164.260009 192.419986,165.12 195.26,165.12 C198.100014,165.12 200.189993,164.260009 201.53,162.54 C202.870007,160.819991 203.54,158.260017 203.54,154.86 L203.54,130.5 L212.54,130.5 L212.54,154.38 C212.54,160.38003 211.070015,164.959984 208.13,168.12 C205.189985,171.280016 200.900028,172.86 195.26,172.86 C189.619972,172.86 185.340015,171.280016 182.42,168.12 C179.499985,164.959984 178.04,160.38003 178.04,154.38 L178.04,130.5 L187.04,130.5 Z M220.94,130.5 L235.52,130.5 C239.720021,130.5 243.429984,131.389991 246.65,133.17 C249.870016,134.950009 252.349991,137.429984 254.09,140.61 C255.830009,143.790016 256.7,147.41998 256.7,151.5 C256.7,155.58002 255.830009,159.209984 254.09,162.39 C252.349991,165.570016 249.870016,168.049991 246.65,169.83 C243.429984,171.610009 239.720021,172.5 235.52,172.5 L220.94,172.5 L220.94,130.5 Z M235.52,165 C239.320019,165 242.26999,163.770012 244.37,161.31 C246.470011,158.849988 247.52,155.58002 247.52,151.5 C247.52,147.41998 246.470011,144.150012 244.37,141.69 C242.26999,139.229988 239.320019,138 235.52,138 L229.94,138 L229.94,165 L235.52,165 Z" id="AUD" fill="#FFFFFF" fill-rule="nonzero" transform="translate(195.410000, 151.680000) rotate(270.000000) translate(-195.410000, -151.680000) "></path>
    </g>
</svg>