<?xml version="1.0" encoding="UTF-8"?>
<svg width="300px" height="300px" viewBox="0 0 300 300" version="1.1" xmlns="http://www.w3.org/2000/svg" xmlns:xlink="http://www.w3.org/1999/xlink">
    <!-- Generator: Sketch 57.1 (83088) - https://sketch.com -->
    <title>token / vector / dark / sBNB</title>
    <desc>Created with Sketch.</desc>
    <g id="token-/-vector-/-dark-/-sBNB" stroke="none" stroke-width="1" fill="none" fill-rule="evenodd">
        <circle id="Oval" fill="#1E1A31" cx="150" cy="150" r="150"></circle>
        <g id="logo-/-icon-/-snx-/-snx-light" transform="translate(67.000000, 85.000000)" fill="#FFFFFF">
            <polygon id="Stroke" opacity="0.5" points="16.4242874 123.528427 3.94076966 114.6224 82.457252 5.52842738 94.9407697 14.4344545"></polygon>
            <path d="M56.8681078,57.3494854 L61.0594056,57.3494854 C80.356563,57.3494854 96,72.9412843 96,92.1747428 C96,111.408201 80.356563,127 61.0594056,127 L9.67585345,127 C5.43659705,127 2,123.574748 2,119.349485 C2,115.124222 5.43659705,111.69897 9.67585345,111.69897 L61.0594056,111.69897 C71.8780504,111.69897 80.6482949,102.957676 80.6482949,92.1747428 C80.6482949,81.3918097 71.8780504,72.6505153 61.0594056,72.6505153 L41.1351711,72.6505153 L41.1318922,72.6505146 L36.9405944,72.6505146 C17.643437,72.6505146 2,57.0587157 2,37.8252572 C2,18.5917988 17.643437,3 36.9405944,3 L88.3241465,3 C92.563403,3 96,6.42525221 96,10.6505149 C96,14.8757777 92.563403,18.3010299 88.3241465,18.3010299 L36.9405944,18.3010299 C26.1219496,18.3010299 17.3517051,27.0423242 17.3517051,37.8252572 C17.3517051,48.6081903 26.1219496,57.3494847 36.9405944,57.3494847 L56.8648289,57.3494847 C56.8659219,57.3494847 56.8670149,57.3494849 56.8681078,57.3494854 L56.8681078,57.3494854 Z" id="Path"></path>
        </g>
        <path d="M154.55,135 C159.430024,135 163.209987,135.95999 165.89,137.88 C168.570013,139.80001 169.91,142.519982 169.91,146.04 C169.91,148.640013 169.190007,150.739992 167.75,152.34 C166.309993,153.940008 164.270013,154.979998 161.63,155.46 C164.750016,155.860002 167.159991,156.859992 168.86,158.46 C170.560009,160.060008 171.41,162.299986 171.41,165.18 C171.41,168.860018 170.010014,171.749989 167.21,173.85 C164.409986,175.95001 160.450026,177 155.33,177 L138.59,177 L138.59,135 L154.55,135 Z M147.59,152.28 L154.79,152.28 C156.71001,152.28 158.209995,151.820005 159.29,150.9 C160.370005,149.979995 160.91,148.740008 160.91,147.18 C160.91,145.619992 160.370005,144.380005 159.29,143.46 C158.209995,142.539995 156.71001,142.08 154.79,142.08 L147.59,142.08 L147.59,152.28 Z M147.59,169.86 L155.39,169.86 C157.550011,169.86 159.219994,169.400005 160.4,168.48 C161.580006,167.559995 162.17,166.280008 162.17,164.64 C162.17,162.919991 161.570006,161.590005 160.37,160.65 C159.169994,159.709995 157.510011,159.24 155.39,159.24 L147.59,159.24 L147.59,169.86 Z M178.85,177 L178.85,135 L187.01,135 L204.83,161.46 L204.83,135 L213.71,135 L213.71,177 L205.49,177 L187.67,150.54 L187.67,177 L178.85,177 Z M238.31,135 C243.190024,135 246.969987,135.95999 249.65,137.88 C252.330013,139.80001 253.67,142.519982 253.67,146.04 C253.67,148.640013 252.950007,150.739992 251.51,152.34 C250.069993,153.940008 248.030013,154.979998 245.39,155.46 C248.510016,155.860002 250.919992,156.859992 252.62,158.46 C254.320009,160.060008 255.17,162.299986 255.17,165.18 C255.17,168.860018 253.770014,171.749989 250.97,173.85 C248.169986,175.95001 244.210026,177 239.09,177 L222.35,177 L222.35,135 L238.31,135 Z M231.35,152.28 L238.55,152.28 C240.47001,152.28 241.969995,151.820005 243.05,150.9 C244.130005,149.979995 244.67,148.740008 244.67,147.18 C244.67,145.619992 244.130005,144.380005 243.05,143.46 C241.969995,142.539995 240.47001,142.08 238.55,142.08 L231.35,142.08 L231.35,152.28 Z M231.35,169.86 L239.15,169.86 C241.310011,169.86 242.979994,169.400005 244.16,168.48 C245.340006,167.559995 245.93,166.280008 245.93,164.64 C245.93,162.919991 245.330006,161.590005 244.13,160.65 C242.929994,159.709995 241.270011,159.24 239.15,159.24 L231.35,159.24 L231.35,169.86 Z" id="BNB" fill="#FFFFFF" fill-rule="nonzero" transform="translate(196.880000, 156.000000) rotate(270.000000) translate(-196.880000, -156.000000) "></path>
    </g>
</svg>