<?xml version="1.0" encoding="UTF-8"?>
<svg width="300px" height="300px" viewBox="0 0 300 300" version="1.1" xmlns="http://www.w3.org/2000/svg" xmlns:xlink="http://www.w3.org/1999/xlink">
    <!-- Generator: Sketch 57.1 (83088) - https://sketch.com -->
    <title>token / vector / dark / sBTC</title>
    <desc>Created with Sketch.</desc>
    <g id="token-/-vector-/-dark-/-sBTC" stroke="none" stroke-width="1" fill="none" fill-rule="evenodd">
        <circle id="Oval" fill="#1E1A31" cx="150" cy="150" r="150"></circle>
        <g id="logo-/-icon-/-snx-/-snx-light" transform="translate(67.000000, 85.000000)" fill="#FFFFFF">
            <polygon id="Stroke" opacity="0.5" points="16.4242874 123.528427 3.94076966 114.6224 82.457252 5.52842738 94.9407697 14.4344545"></polygon>
            <path d="M56.8681078,57.3494854 L61.0594056,57.3494854 C80.356563,57.3494854 96,72.9412843 96,92.1747428 C96,111.408201 80.356563,127 61.0594056,127 L9.67585345,127 C5.43659705,127 2,123.574748 2,119.349485 C2,115.124222 5.43659705,111.69897 9.67585345,111.69897 L61.0594056,111.69897 C71.8780504,111.69897 80.6482949,102.957676 80.6482949,92.1747428 C80.6482949,81.3918097 71.8780504,72.6505153 61.0594056,72.6505153 L41.1351711,72.6505153 L41.1318922,72.6505146 L36.9405944,72.6505146 C17.643437,72.6505146 2,57.0587157 2,37.8252572 C2,18.5917988 17.643437,3 36.9405944,3 L88.3241465,3 C92.563403,3 96,6.42525221 96,10.6505149 C96,14.8757777 92.563403,18.3010299 88.3241465,18.3010299 L36.9405944,18.3010299 C26.1219496,18.3010299 17.3517051,27.0423242 17.3517051,37.8252572 C17.3517051,48.6081903 26.1219496,57.3494847 36.9405944,57.3494847 L56.8648289,57.3494847 C56.8659219,57.3494847 56.8670149,57.3494849 56.8681078,57.3494854 L56.8681078,57.3494854 Z" id="Path"></path>
        </g>
        <path d="M158.84,135 C163.720024,135 167.499987,135.95999 170.18,137.88 C172.860013,139.80001 174.2,142.519982 174.2,146.04 C174.2,148.640013 173.480007,150.739992 172.04,152.34 C170.599993,153.940008 168.560013,154.979998 165.92,155.46 C169.040016,155.860002 171.449992,156.859992 173.15,158.46 C174.850009,160.060008 175.7,162.299986 175.7,165.18 C175.7,168.860018 174.300014,171.749989 171.5,173.85 C168.699986,175.95001 164.740026,177 159.62,177 L142.88,177 L142.88,135 L158.84,135 Z M151.88,152.28 L159.08,152.28 C161.00001,152.28 162.499995,151.820005 163.58,150.9 C164.660005,149.979995 165.2,148.740008 165.2,147.18 C165.2,145.619992 164.660005,144.380005 163.58,143.46 C162.499995,142.539995 161.00001,142.08 159.08,142.08 L151.88,142.08 L151.88,152.28 Z M151.88,169.86 L159.68,169.86 C161.840011,169.86 163.509994,169.400005 164.69,168.48 C165.870006,167.559995 166.46,166.280008 166.46,164.64 C166.46,162.919991 165.860006,161.590005 164.66,160.65 C163.459994,159.709995 161.800011,159.24 159.68,159.24 L151.88,159.24 L151.88,169.86 Z M177.92,135 L211.16,135 L211.16,142.74 L199.04,142.74 L199.04,177 L190.04,177 L190.04,142.74 L177.92,142.74 L177.92,135 Z M213.02,156 C213.02,151.719979 213.849992,147.970016 215.51,144.75 C217.170008,141.529984 219.549984,139.040009 222.65,137.28 C225.750015,135.519991 229.399979,134.64 233.6,134.64 C236.880016,134.64 239.819987,135.279994 242.42,136.56 C245.020013,137.840006 247.119992,139.639988 248.72,141.96 C250.320008,144.280012 251.279998,146.959985 251.6,150 L242.6,150 C242.079997,147.599988 240.990008,145.710007 239.33,144.33 C237.669992,142.949993 235.600012,142.26 233.12,142.26 C229.759983,142.26 227.10001,143.519987 225.14,146.04 C223.17999,148.560013 222.2,151.879979 222.2,156 C222.2,160.08002 223.17999,163.389987 225.14,165.93 C227.10001,168.470013 229.759983,169.74 233.12,169.74 C235.600012,169.74 237.669992,169.050007 239.33,167.67 C240.990008,166.289993 242.079997,164.400012 242.6,162 L251.6,162 C251.279998,165.040015 250.320008,167.719988 248.72,170.04 C247.119992,172.360012 245.020013,174.159994 242.42,175.44 C239.819987,176.720006 236.880016,177.36 233.6,177.36 C229.399979,177.36 225.750015,176.480009 222.65,174.72 C219.549984,172.959991 217.170008,170.470016 215.51,167.25 C213.849992,164.029984 213.02,160.280021 213.02,156 Z" id="BTC" fill="#FFFFFF" fill-rule="nonzero" transform="translate(197.240000, 156.000000) rotate(270.000000) translate(-197.240000, -156.000000) "></path>
    </g>
</svg>