<?xml version="1.0" encoding="UTF-8"?>
<svg width="300px" height="300px" viewBox="0 0 300 300" version="1.1" xmlns="http://www.w3.org/2000/svg" xmlns:xlink="http://www.w3.org/1999/xlink">
    <!-- Generator: Sketch 57.1 (83088) - https://sketch.com -->
    <title>token / vector / dark / sCEX</title>
    <desc>Created with Sketch.</desc>
    <g id="token-/-vector-/-dark-/-sCEX" stroke="none" stroke-width="1" fill="none" fill-rule="evenodd">
        <circle id="Oval" fill="#1E1A31" cx="150" cy="150" r="150"></circle>
        <g id="logo-/-icon-/-snx-/-snx-light" transform="translate(67.000000, 85.000000)" fill="#FFFFFF">
            <polygon id="Stroke" opacity="0.5" points="16.4242874 123.528427 3.94076966 114.6224 82.457252 5.52842738 94.9407697 14.4344545"></polygon>
            <path d="M56.8681078,57.3494854 L61.0594056,57.3494854 C80.356563,57.3494854 96,72.9412843 96,92.1747428 C96,111.408201 80.356563,127 61.0594056,127 L9.67585345,127 C5.43659705,127 2,123.574748 2,119.349485 C2,115.124222 5.43659705,111.69897 9.67585345,111.69897 L61.0594056,111.69897 C71.8780504,111.69897 80.6482949,102.957676 80.6482949,92.1747428 C80.6482949,81.3918097 71.8780504,72.6505153 61.0594056,72.6505153 L41.1351711,72.6505153 L41.1318922,72.6505146 L36.9405944,72.6505146 C17.643437,72.6505146 2,57.0587157 2,37.8252572 C2,18.5917988 17.643437,3 36.9405944,3 L88.3241465,3 C92.563403,3 96,6.42525221 96,10.6505149 C96,14.8757777 92.563403,18.3010299 88.3241465,18.3010299 L36.9405944,18.3010299 C26.1219496,18.3010299 17.3517051,27.0423242 17.3517051,37.8252572 C17.3517051,48.6081903 26.1219496,57.3494847 36.9405944,57.3494847 L56.8648289,57.3494847 C56.8659219,57.3494847 56.8670149,57.3494849 56.8681078,57.3494854 L56.8681078,57.3494854 Z" id="Path"></path>
        </g>
        <path d="M138.17,156 C138.17,151.719979 138.999992,147.970016 140.66,144.75 C142.320008,141.529984 144.699984,139.040009 147.8,137.28 C150.900015,135.519991 154.549979,134.64 158.75,134.64 C162.030016,134.64 164.969987,135.279994 167.57,136.56 C170.170013,137.840006 172.269992,139.639988 173.87,141.96 C175.470008,144.280012 176.429998,146.959985 176.75,150 L167.75,150 C167.229997,147.599988 166.140008,145.710007 164.48,144.33 C162.819992,142.949993 160.750012,142.26 158.27,142.26 C154.909983,142.26 152.25001,143.519987 150.29,146.04 C148.32999,148.560013 147.35,151.879979 147.35,156 C147.35,160.08002 148.32999,163.389987 150.29,165.93 C152.25001,168.470013 154.909983,169.74 158.27,169.74 C160.750012,169.74 162.819992,169.050007 164.48,167.67 C166.140008,166.289993 167.229997,164.400012 167.75,162 L176.75,162 C176.429998,165.040015 175.470008,167.719988 173.87,170.04 C172.269992,172.360012 170.170013,174.159994 167.57,175.44 C164.969987,176.720006 162.030016,177.36 158.75,177.36 C154.549979,177.36 150.900015,176.480009 147.8,174.72 C144.699984,172.959991 142.320008,170.470016 140.66,167.25 C138.999992,164.029984 138.17,160.280021 138.17,156 Z M183.47,135 L211.67,135 L211.67,142.74 L192.47,142.74 L192.47,152.16 L208.07,152.16 L208.07,159.54 L192.47,159.54 L192.47,169.26 L212.33,169.26 L212.33,177 L183.47,177 L183.47,135 Z M230.27,155.58 L217.19,135 L228.11,135 L236.39,148.2 L244.85,135 L254.69,135 L241.61,155.58 L255.35,177 L244.37,177 L235.43,162.9 L226.31,177 L216.53,177 L230.27,155.58 Z" id="CEX" fill="#FFFFFF" fill-rule="nonzero" transform="translate(196.760000, 156.000000) rotate(270.000000) translate(-196.760000, -156.000000) "></path>
    </g>
</svg>