<?xml version="1.0" encoding="UTF-8"?>
<svg width="300px" height="300px" viewBox="0 0 300 300" version="1.1" xmlns="http://www.w3.org/2000/svg" xmlns:xlink="http://www.w3.org/1999/xlink">
    <!-- Generator: Sketch 57.1 (83088) - https://sketch.com -->
    <title>token / vector / dark / sCHF</title>
    <desc>Created with Sketch.</desc>
    <g id="token-/-vector-/-dark-/-sCHF" stroke="none" stroke-width="1" fill="none" fill-rule="evenodd">
        <circle id="Oval" fill="#1E1A31" cx="150" cy="150" r="150"></circle>
        <g id="logo-/-icon-/-snx-/-snx-light" transform="translate(67.000000, 85.000000)" fill="#FFFFFF">
            <polygon id="Stroke" opacity="0.5" points="16.4242874 123.528427 3.94076966 114.6224 82.457252 5.52842738 94.9407697 14.4344545"></polygon>
            <path d="M56.8681078,57.3494854 L61.0594056,57.3494854 C80.356563,57.3494854 96,72.9412843 96,92.1747428 C96,111.408201 80.356563,127 61.0594056,127 L9.67585345,127 C5.43659705,127 2,123.574748 2,119.349485 C2,115.124222 5.43659705,111.69897 9.67585345,111.69897 L61.0594056,111.69897 C71.8780504,111.69897 80.6482949,102.957676 80.6482949,92.1747428 C80.6482949,81.3918097 71.8780504,72.6505153 61.0594056,72.6505153 L41.1351711,72.6505153 L41.1318922,72.6505146 L36.9405944,72.6505146 C17.643437,72.6505146 2,57.0587157 2,37.8252572 C2,18.5917988 17.643437,3 36.9405944,3 L88.3241465,3 C92.563403,3 96,6.42525221 96,10.6505149 C96,14.8757777 92.563403,18.3010299 88.3241465,18.3010299 L36.9405944,18.3010299 C26.1219496,18.3010299 17.3517051,27.0423242 17.3517051,37.8252572 C17.3517051,48.6081903 26.1219496,57.3494847 36.9405944,57.3494847 L56.8648289,57.3494847 C56.8659219,57.3494847 56.8670149,57.3494849 56.8681078,57.3494854 L56.8681078,57.3494854 Z" id="Path"></path>
        </g>
        <path d="M138.38,151.5 C138.38,147.219979 139.209992,143.470016 140.87,140.25 C142.530008,137.029984 144.909985,134.540009 148.01,132.78 C151.110016,131.019991 154.759979,130.14 158.96,130.14 C162.240016,130.14 165.179987,130.779994 167.78,132.06 C170.380013,133.340006 172.479992,135.139988 174.08,137.46 C175.680008,139.780012 176.639998,142.459985 176.96,145.5 L167.96,145.5 C167.439997,143.099988 166.350008,141.210007 164.69,139.83 C163.029992,138.449993 160.960012,137.76 158.48,137.76 C155.119983,137.76 152.46001,139.019987 150.5,141.54 C148.53999,144.060013 147.56,147.379979 147.56,151.5 C147.56,155.58002 148.53999,158.889987 150.5,161.43 C152.46001,163.970013 155.119983,165.24 158.48,165.24 C160.960012,165.24 163.029992,164.550007 164.69,163.17 C166.350008,161.789993 167.439997,159.900012 167.96,157.5 L176.96,157.5 C176.639998,160.540015 175.680008,163.219988 174.08,165.54 C172.479992,167.860012 170.380013,169.659994 167.78,170.94 C165.179987,172.220006 162.240016,172.86 158.96,172.86 C154.759979,172.86 151.110016,171.980009 148.01,170.22 C144.909985,168.459991 142.530008,165.970016 140.87,162.75 C139.209992,159.529984 138.38,155.780021 138.38,151.5 Z M183.68,130.5 L192.68,130.5 L192.68,147.36 L209.36,147.36 L209.36,130.5 L218.36,130.5 L218.36,172.5 L209.36,172.5 L209.36,155.16 L192.68,155.16 L192.68,172.5 L183.68,172.5 L183.68,130.5 Z M227,130.5 L254.72,130.5 L254.72,138.24 L236,138.24 L236,148.08 L251.36,148.08 L251.36,155.46 L236,155.46 L236,172.5 L227,172.5 L227,130.5 Z" id="CHF" fill="#FFFFFF" fill-rule="nonzero" transform="translate(196.550000, 151.500000) rotate(270.000000) translate(-196.550000, -151.500000) "></path>
    </g>
</svg>