<?xml version="1.0" encoding="UTF-8"?>
<svg width="300px" height="300px" viewBox="0 0 300 300" version="1.1" xmlns="http://www.w3.org/2000/svg" xmlns:xlink="http://www.w3.org/1999/xlink">
    <!-- Generator: Sketch 57.1 (83088) - https://sketch.com -->
    <title>token / vector / dark / sETH</title>
    <desc>Created with Sketch.</desc>
    <g id="token-/-vector-/-dark-/-sETH" stroke="none" stroke-width="1" fill="none" fill-rule="evenodd">
        <circle id="Oval" fill="#1E1A31" cx="150" cy="150" r="150"></circle>
        <g id="logo-/-icon-/-snx-/-snx-light" transform="translate(67.000000, 85.000000)" fill="#FFFFFF">
            <polygon id="Stroke" opacity="0.5" points="16.4242874 123.528427 3.94076966 114.6224 82.457252 5.52842738 94.9407697 14.4344545"></polygon>
            <path d="M56.8681078,57.3494854 L61.0594056,57.3494854 C80.356563,57.3494854 96,72.9412843 96,92.1747428 C96,111.408201 80.356563,127 61.0594056,127 L9.67585345,127 C5.43659705,127 2,123.574748 2,119.349485 C2,115.124222 5.43659705,111.69897 9.67585345,111.69897 L61.0594056,111.69897 C71.8780504,111.69897 80.6482949,102.957676 80.6482949,92.1747428 C80.6482949,81.3918097 71.8780504,72.6505153 61.0594056,72.6505153 L41.1351711,72.6505153 L41.1318922,72.6505146 L36.9405944,72.6505146 C17.643437,72.6505146 2,57.0587157 2,37.8252572 C2,18.5917988 17.643437,3 36.9405944,3 L88.3241465,3 C92.563403,3 96,6.42525221 96,10.6505149 C96,14.8757777 92.563403,18.3010299 88.3241465,18.3010299 L36.9405944,18.3010299 C26.1219496,18.3010299 17.3517051,27.0423242 17.3517051,37.8252572 C17.3517051,48.6081903 26.1219496,57.3494847 36.9405944,57.3494847 L56.8648289,57.3494847 C56.8659219,57.3494847 56.8670149,57.3494849 56.8681078,57.3494854 L56.8681078,57.3494854 Z" id="Path"></path>
        </g>
        <path d="M142.73,135 L170.93,135 L170.93,142.74 L151.73,142.74 L151.73,152.16 L167.33,152.16 L167.33,159.54 L151.73,159.54 L151.73,169.26 L171.59,169.26 L171.59,177 L142.73,177 L142.73,135 Z M175.49,135 L208.73,135 L208.73,142.74 L196.61,142.74 L196.61,177 L187.61,177 L187.61,142.74 L175.49,142.74 L175.49,135 Z M215.15,135 L224.15,135 L224.15,151.86 L240.83,151.86 L240.83,135 L249.83,135 L249.83,177 L240.83,177 L240.83,159.66 L224.15,159.66 L224.15,177 L215.15,177 L215.15,135 Z" id="ETH" fill="#FFFFFF" fill-rule="nonzero" transform="translate(196.280000, 156.000000) rotate(270.000000) translate(-196.280000, -156.000000) "></path>
    </g>
</svg>