<?xml version="1.0" encoding="UTF-8"?>
<svg width="300px" height="300px" viewBox="0 0 300 300" version="1.1" xmlns="http://www.w3.org/2000/svg" xmlns:xlink="http://www.w3.org/1999/xlink">
    <!-- Generator: Sketch 57.1 (83088) - https://sketch.com -->
    <title>token / vector / dark / sEUR</title>
    <desc>Created with Sketch.</desc>
    <g id="token-/-vector-/-dark-/-sEUR" stroke="none" stroke-width="1" fill="none" fill-rule="evenodd">
        <circle id="Oval" fill="#1E1A31" cx="150" cy="150" r="150"></circle>
        <g id="logo-/-icon-/-snx-/-snx-light" transform="translate(67.000000, 85.000000)" fill="#FFFFFF">
            <polygon id="Stroke" opacity="0.5" points="16.4242874 123.528427 3.94076966 114.6224 82.457252 5.52842738 94.9407697 14.4344545"></polygon>
            <path d="M56.8681078,57.3494854 L61.0594056,57.3494854 C80.356563,57.3494854 96,72.9412843 96,92.1747428 C96,111.408201 80.356563,127 61.0594056,127 L9.67585345,127 C5.43659705,127 2,123.574748 2,119.349485 C2,115.124222 5.43659705,111.69897 9.67585345,111.69897 L61.0594056,111.69897 C71.8780504,111.69897 80.6482949,102.957676 80.6482949,92.1747428 C80.6482949,81.3918097 71.8780504,72.6505153 61.0594056,72.6505153 L41.1351711,72.6505153 L41.1318922,72.6505146 L36.9405944,72.6505146 C17.643437,72.6505146 2,57.0587157 2,37.8252572 C2,18.5917988 17.643437,3 36.9405944,3 L88.3241465,3 C92.563403,3 96,6.42525221 96,10.6505149 C96,14.8757777 92.563403,18.3010299 88.3241465,18.3010299 L36.9405944,18.3010299 C26.1219496,18.3010299 17.3517051,27.0423242 17.3517051,37.8252572 C17.3517051,48.6081903 26.1219496,57.3494847 36.9405944,57.3494847 L56.8648289,57.3494847 C56.8659219,57.3494847 56.8670149,57.3494849 56.8681078,57.3494854 L56.8681078,57.3494854 Z" id="Path"></path>
        </g>
        <path d="M141.41,130.5 L169.61,130.5 L169.61,138.24 L150.41,138.24 L150.41,147.66 L166.01,147.66 L166.01,155.04 L150.41,155.04 L150.41,164.76 L170.27,164.76 L170.27,172.5 L141.41,172.5 L141.41,130.5 Z M185.87,130.5 L185.87,154.86 C185.87,158.260017 186.529993,160.819991 187.85,162.54 C189.170007,164.260009 191.249986,165.12 194.09,165.12 C196.930014,165.12 199.019993,164.260009 200.36,162.54 C201.700007,160.819991 202.37,158.260017 202.37,154.86 L202.37,130.5 L211.37,130.5 L211.37,154.38 C211.37,160.38003 209.900015,164.959984 206.96,168.12 C204.019985,171.280016 199.730028,172.86 194.09,172.86 C188.449972,172.86 184.170015,171.280016 181.25,168.12 C178.329985,164.959984 176.87,160.38003 176.87,154.38 L176.87,130.5 L185.87,130.5 Z M236.87,130.5 C239.910015,130.5 242.599988,131.069994 244.94,132.21 C247.280012,133.350006 249.089994,134.979989 250.37,137.1 C251.650006,139.220011 252.29,141.679986 252.29,144.48 C252.29,147.160013 251.650006,149.52999 250.37,151.59 C249.089994,153.65001 247.330011,155.219995 245.09,156.3 L253.37,172.5 L243.41,172.5 L236.39,158.4 L228.77,158.4 L228.77,172.5 L219.77,172.5 L219.77,130.5 L236.87,130.5 Z M228.77,150.9 L236.15,150.9 C238.270011,150.9 239.959994,150.320006 241.22,149.16 C242.480006,148 243.11,146.44001 243.11,144.48 C243.11,142.47999 242.480006,140.900006 241.22,139.74 C239.959994,138.579994 238.270011,138 236.15,138 L228.77,138 L228.77,150.9 Z" id="EUR" fill="#FFFFFF" fill-rule="nonzero" transform="translate(197.390000, 151.680000) rotate(270.000000) translate(-197.390000, -151.680000) "></path>
    </g>
</svg>