<?xml version="1.0" encoding="UTF-8"?>
<svg width="300px" height="300px" viewBox="0 0 300 300" version="1.1" xmlns="http://www.w3.org/2000/svg" xmlns:xlink="http://www.w3.org/1999/xlink">
    <!-- Generator: Sketch 57.1 (83088) - https://sketch.com -->
    <title>token / vector / dark / sGBP</title>
    <desc>Created with Sketch.</desc>
    <g id="token-/-vector-/-dark-/-sGBP" stroke="none" stroke-width="1" fill="none" fill-rule="evenodd">
        <circle id="Oval" fill="#1E1A31" cx="150" cy="150" r="150"></circle>
        <g id="logo-/-icon-/-snx-/-snx-light" transform="translate(67.000000, 85.000000)" fill="#FFFFFF">
            <polygon id="Stroke" opacity="0.5" points="16.4242874 123.528427 3.94076966 114.6224 82.457252 5.52842738 94.9407697 14.4344545"></polygon>
            <path d="M56.8681078,57.3494854 L61.0594056,57.3494854 C80.356563,57.3494854 96,72.9412843 96,92.1747428 C96,111.408201 80.356563,127 61.0594056,127 L9.67585345,127 C5.43659705,127 2,123.574748 2,119.349485 C2,115.124222 5.43659705,111.69897 9.67585345,111.69897 L61.0594056,111.69897 C71.8780504,111.69897 80.6482949,102.957676 80.6482949,92.1747428 C80.6482949,81.3918097 71.8780504,72.6505153 61.0594056,72.6505153 L41.1351711,72.6505153 L41.1318922,72.6505146 L36.9405944,72.6505146 C17.643437,72.6505146 2,57.0587157 2,37.8252572 C2,18.5917988 17.643437,3 36.9405944,3 L88.3241465,3 C92.563403,3 96,6.42525221 96,10.6505149 C96,14.8757777 92.563403,18.3010299 88.3241465,18.3010299 L36.9405944,18.3010299 C26.1219496,18.3010299 17.3517051,27.0423242 17.3517051,37.8252572 C17.3517051,48.6081903 26.1219496,57.3494847 36.9405944,57.3494847 L56.8648289,57.3494847 C56.8659219,57.3494847 56.8670149,57.3494849 56.8681078,57.3494854 L56.8681078,57.3494854 Z" id="Path"></path>
        </g>
        <path d="M136.16,151.5 C136.16,147.219979 136.999992,143.470016 138.68,140.25 C140.360008,137.029984 142.769984,134.540009 145.91,132.78 C149.050016,131.019991 152.739979,130.14 156.98,130.14 C160.300017,130.14 163.279987,130.779994 165.92,132.06 C168.560013,133.340006 170.689992,135.139988 172.31,137.46 C173.930008,139.780012 174.919998,142.439985 175.28,145.44 L166.4,145.44 C165.839997,143.079988 164.720008,141.210007 163.04,139.83 C161.359992,138.449993 159.260013,137.76 156.74,137.76 C154.419988,137.76 152.400009,138.339994 150.68,139.5 C148.959991,140.660006 147.640005,142.27999 146.72,144.36 C145.799995,146.44001 145.34,148.819987 145.34,151.5 C145.34,155.620021 146.34999,158.939987 148.37,161.46 C150.39001,163.980013 153.179982,165.24 156.74,165.24 C159.340013,165.24 161.63999,164.530007 163.64,163.11 C165.64001,161.689993 166.839998,159.600014 167.24,156.84 L167.24,156.3 L156.8,156.3 L156.8,149.16 L175.58,149.16 L175.58,172.5 L169.34,172.5 L168.38,167.28 C167.139994,168.920008 165.48001,170.259995 163.4,171.3 C161.31999,172.340005 158.900014,172.86 156.14,172.86 C152.17998,172.86 148.690015,171.980009 145.67,170.22 C142.649985,168.459991 140.310008,165.960016 138.65,162.72 C136.989992,159.479984 136.16,155.740021 136.16,151.5 Z M200.24,130.5 C205.120024,130.5 208.899987,131.45999 211.58,133.38 C214.260013,135.30001 215.6,138.019982 215.6,141.54 C215.6,144.140013 214.880007,146.239992 213.44,147.84 C211.999993,149.440008 209.960013,150.479998 207.32,150.96 C210.440016,151.360002 212.849991,152.359992 214.55,153.96 C216.250009,155.560008 217.1,157.799986 217.1,160.68 C217.1,164.360018 215.700014,167.24999 212.9,169.35 C210.099986,171.450011 206.140026,172.5 201.02,172.5 L184.28,172.5 L184.28,130.5 L200.24,130.5 Z M193.28,147.78 L200.48,147.78 C202.40001,147.78 203.899995,147.320005 204.98,146.4 C206.060005,145.479995 206.6,144.240008 206.6,142.68 C206.6,141.119992 206.060005,139.880005 204.98,138.96 C203.899995,138.039995 202.40001,137.58 200.48,137.58 L193.28,137.58 L193.28,147.78 Z M193.28,165.36 L201.08,165.36 C203.240011,165.36 204.909994,164.900005 206.09,163.98 C207.270006,163.059995 207.86,161.780008 207.86,160.14 C207.86,158.419991 207.260006,157.090005 206.06,156.15 C204.859994,155.209995 203.200011,154.74 201.08,154.74 L193.28,154.74 L193.28,165.36 Z M241.64,130.5 C244.640015,130.5 247.289988,131.069994 249.59,132.21 C251.890011,133.350006 253.669994,134.979989 254.93,137.1 C256.190006,139.220011 256.82,141.679986 256.82,144.48 C256.82,147.280014 256.190006,149.72999 254.93,151.83 C253.669994,153.930011 251.890011,155.549994 249.59,156.69 C247.289988,157.830006 244.640015,158.4 241.64,158.4 L233.54,158.4 L233.54,172.5 L224.54,172.5 L224.54,130.5 L241.64,130.5 Z M233.54,150.9 L240.8,150.9 C242.920011,150.9 244.599994,150.320006 245.84,149.16 C247.080006,148 247.7,146.44001 247.7,144.48 C247.7,142.47999 247.080006,140.900006 245.84,139.74 C244.599994,138.579994 242.920011,138 240.8,138 L233.54,138 L233.54,150.9 Z" id="GBP" fill="#FFFFFF" fill-rule="nonzero" transform="translate(196.490000, 151.500000) rotate(270.000000) translate(-196.490000, -151.500000) "></path>
    </g>
</svg>