<?xml version="1.0" encoding="UTF-8"?>
<svg width="300px" height="300px" viewBox="0 0 300 300" version="1.1" xmlns="http://www.w3.org/2000/svg" xmlns:xlink="http://www.w3.org/1999/xlink">
    <!-- Generator: Sketch 57.1 (83088) - https://sketch.com -->
    <title>token / vector / dark / sJPY</title>
    <desc>Created with Sketch.</desc>
    <g id="token-/-vector-/-dark-/-sJPY" stroke="none" stroke-width="1" fill="none" fill-rule="evenodd">
        <circle id="Oval" fill="#1E1A31" cx="150" cy="150" r="150"></circle>
        <g id="logo-/-icon-/-snx-/-snx-light" transform="translate(67.000000, 85.000000)" fill="#FFFFFF">
            <polygon id="Stroke" opacity="0.5" points="16.4242874 123.528427 3.94076966 114.6224 82.457252 5.52842738 94.9407697 14.4344545"></polygon>
            <path d="M56.8681078,57.3494854 L61.0594056,57.3494854 C80.356563,57.3494854 96,72.9412843 96,92.1747428 C96,111.408201 80.356563,127 61.0594056,127 L9.67585345,127 C5.43659705,127 2,123.574748 2,119.349485 C2,115.124222 5.43659705,111.69897 9.67585345,111.69897 L61.0594056,111.69897 C71.8780504,111.69897 80.6482949,102.957676 80.6482949,92.1747428 C80.6482949,81.3918097 71.8780504,72.6505153 61.0594056,72.6505153 L41.1351711,72.6505153 L41.1318922,72.6505146 L36.9405944,72.6505146 C17.643437,72.6505146 2,57.0587157 2,37.8252572 C2,18.5917988 17.643437,3 36.9405944,3 L88.3241465,3 C92.563403,3 96,6.42525221 96,10.6505149 C96,14.8757777 92.563403,18.3010299 88.3241465,18.3010299 L36.9405944,18.3010299 C26.1219496,18.3010299 17.3517051,27.0423242 17.3517051,37.8252572 C17.3517051,48.6081903 26.1219496,57.3494847 36.9405944,57.3494847 L56.8648289,57.3494847 C56.8659219,57.3494847 56.8670149,57.3494849 56.8681078,57.3494854 L56.8681078,57.3494854 Z" id="Path"></path>
        </g>
        <path d="M165.41,130.5 L165.41,161.34 C165.41,164.860018 164.44001,167.59999 162.5,169.56 C160.55999,171.52001 157.810018,172.5 154.25,172.5 L146.51,172.5 L146.51,164.7 L151.49,164.7 C153.250009,164.7 154.51,164.290004 155.27,163.47 C156.030004,162.649996 156.41,161.360009 156.41,159.6 L156.41,130.5 L165.41,130.5 Z M191.21,130.5 C194.210015,130.5 196.859989,131.069994 199.16,132.21 C201.460012,133.350006 203.239994,134.979989 204.5,137.1 C205.760006,139.220011 206.39,141.679986 206.39,144.48 C206.39,147.280014 205.760006,149.729989 204.5,151.83 C203.239994,153.93001 201.460012,155.549994 199.16,156.69 C196.859989,157.830006 194.210015,158.4 191.21,158.4 L183.11,158.4 L183.11,172.5 L174.11,172.5 L174.11,130.5 L191.21,130.5 Z M183.11,150.9 L190.37,150.9 C192.490011,150.9 194.169994,150.320006 195.41,149.16 C196.650006,148 197.27,146.44001 197.27,144.48 C197.27,142.47999 196.650006,140.900006 195.41,139.74 C194.169994,138.579994 192.490011,138 190.37,138 L183.11,138 L183.11,150.9 Z M207.47,130.5 L217.97,130.5 L227.39,147.72 L237.29,130.5 L247.31,130.5 L231.89,156.9 L231.89,172.5 L222.89,172.5 L222.89,156.9 L207.47,130.5 Z" id="JPY" fill="#FFFFFF" fill-rule="nonzero" transform="translate(196.910000, 151.500000) rotate(270.000000) translate(-196.910000, -151.500000) "></path>
    </g>
</svg>