<?xml version="1.0" encoding="UTF-8"?>
<svg width="300px" height="300px" viewBox="0 0 300 300" version="1.1" xmlns="http://www.w3.org/2000/svg" xmlns:xlink="http://www.w3.org/1999/xlink">
    <!-- Generator: Sketch 57.1 (83088) - https://sketch.com -->
    <title>token / vector / dark / sMKR</title>
    <desc>Created with Sketch.</desc>
    <g id="token-/-vector-/-dark-/-sMKR" stroke="none" stroke-width="1" fill="none" fill-rule="evenodd">
        <circle id="Oval" fill="#1E1A31" cx="150" cy="150" r="150"></circle>
        <g id="logo-/-icon-/-snx-/-snx-light" transform="translate(67.000000, 85.000000)" fill="#FFFFFF">
            <polygon id="Stroke" opacity="0.5" points="16.4242874 123.528427 3.94076966 114.6224 82.457252 5.52842738 94.9407697 14.4344545"></polygon>
            <path d="M56.8681078,57.3494854 L61.0594056,57.3494854 C80.356563,57.3494854 96,72.9412843 96,92.1747428 C96,111.408201 80.356563,127 61.0594056,127 L9.67585345,127 C5.43659705,127 2,123.574748 2,119.349485 C2,115.124222 5.43659705,111.69897 9.67585345,111.69897 L61.0594056,111.69897 C71.8780504,111.69897 80.6482949,102.957676 80.6482949,92.1747428 C80.6482949,81.3918097 71.8780504,72.6505153 61.0594056,72.6505153 L41.1351711,72.6505153 L41.1318922,72.6505146 L36.9405944,72.6505146 C17.643437,72.6505146 2,57.0587157 2,37.8252572 C2,18.5917988 17.643437,3 36.9405944,3 L88.3241465,3 C92.563403,3 96,6.42525221 96,10.6505149 C96,14.8757777 92.563403,18.3010299 88.3241465,18.3010299 L36.9405944,18.3010299 C26.1219496,18.3010299 17.3517051,27.0423242 17.3517051,37.8252572 C17.3517051,48.6081903 26.1219496,57.3494847 36.9405944,57.3494847 L56.8648289,57.3494847 C56.8659219,57.3494847 56.8670149,57.3494849 56.8681078,57.3494854 L56.8681078,57.3494854 Z" id="Path"></path>
        </g>
        <path d="M136.84,130 L148.66,130 L160.3,160.84 L171.58,130 L183.16,130 L183.16,172 L174.58,172 L174.58,143.86 L163.66,172 L156.34,172 L145.42,143.86 L145.42,172 L136.84,172 L136.84,130 Z M191.86,130.06 L200.86,130.06 L200.86,148.9 L217.66,130.06 L228.58,130.06 L213.16,147.34 L229.6,172 L218.8,172 L206.8,154.3 L200.86,160.96 L200.86,172 L191.86,172 L191.86,130.06 Z M251.44,130 C254.480015,130 257.169988,130.569994 259.51,131.71 C261.850012,132.850006 263.659994,134.479989 264.94,136.6 C266.220006,138.720011 266.86,141.179986 266.86,143.98 C266.86,146.660013 266.220006,149.02999 264.94,151.09 C263.659994,153.15001 261.900011,154.719995 259.66,155.8 L267.94,172 L257.98,172 L250.96,157.9 L243.34,157.9 L243.34,172 L234.34,172 L234.34,130 L251.44,130 Z M243.34,150.4 L250.72,150.4 C252.840011,150.4 254.529994,149.820006 255.79,148.66 C257.050006,147.5 257.68,145.94001 257.68,143.98 C257.68,141.97999 257.050006,140.400006 255.79,139.24 C254.529994,138.079994 252.840011,137.5 250.72,137.5 L243.34,137.5 L243.34,150.4 Z" id="MKR" fill="#FFFFFF" fill-rule="nonzero" transform="translate(202.390000, 151.000000) rotate(270.000000) translate(-202.390000, -151.000000) "></path>
    </g>
</svg>