<?xml version="1.0" encoding="UTF-8"?>
<svg width="300px" height="300px" viewBox="0 0 300 300" version="1.1" xmlns="http://www.w3.org/2000/svg" xmlns:xlink="http://www.w3.org/1999/xlink">
    <!-- Generator: Sketch 57.1 (83088) - https://sketch.com -->
    <title>token / vector / dark / sTRX</title>
    <desc>Created with Sketch.</desc>
    <g id="token-/-vector-/-dark-/-sTRX" stroke="none" stroke-width="1" fill="none" fill-rule="evenodd">
        <circle id="Oval" fill="#1E1A31" cx="150" cy="150" r="150"></circle>
        <g id="logo-/-icon-/-snx-/-snx-light" transform="translate(67.000000, 85.000000)" fill="#FFFFFF">
            <polygon id="Stroke" opacity="0.5" points="16.4242874 123.528427 3.94076966 114.6224 82.457252 5.52842738 94.9407697 14.4344545"></polygon>
            <path d="M56.8681078,57.3494854 L61.0594056,57.3494854 C80.356563,57.3494854 96,72.9412843 96,92.1747428 C96,111.408201 80.356563,127 61.0594056,127 L9.67585345,127 C5.43659705,127 2,123.574748 2,119.349485 C2,115.124222 5.43659705,111.69897 9.67585345,111.69897 L61.0594056,111.69897 C71.8780504,111.69897 80.6482949,102.957676 80.6482949,92.1747428 C80.6482949,81.3918097 71.8780504,72.6505153 61.0594056,72.6505153 L41.1351711,72.6505153 L41.1318922,72.6505146 L36.9405944,72.6505146 C17.643437,72.6505146 2,57.0587157 2,37.8252572 C2,18.5917988 17.643437,3 36.9405944,3 L88.3241465,3 C92.563403,3 96,6.42525221 96,10.6505149 C96,14.8757777 92.563403,18.3010299 88.3241465,18.3010299 L36.9405944,18.3010299 C26.1219496,18.3010299 17.3517051,27.0423242 17.3517051,37.8252572 C17.3517051,48.6081903 26.1219496,57.3494847 36.9405944,57.3494847 L56.8648289,57.3494847 C56.8659219,57.3494847 56.8670149,57.3494849 56.8681078,57.3494854 L56.8681078,57.3494854 Z" id="Path"></path>
        </g>
        <path d="M138.62,135 L171.86,135 L171.86,142.74 L159.74,142.74 L159.74,177 L150.74,177 L150.74,142.74 L138.62,142.74 L138.62,135 Z M195.38,135 C198.420015,135 201.109988,135.569994 203.45,136.71 C205.790012,137.850006 207.599994,139.479989 208.88,141.6 C210.160006,143.720011 210.8,146.179986 210.8,148.98 C210.8,151.660013 210.160006,154.02999 208.88,156.09 C207.599994,158.15001 205.840011,159.719995 203.6,160.8 L211.88,177 L201.92,177 L194.9,162.9 L187.28,162.9 L187.28,177 L178.28,177 L178.28,135 L195.38,135 Z M187.28,155.4 L194.66,155.4 C196.780011,155.4 198.469994,154.820006 199.73,153.66 C200.990006,152.5 201.62,150.94001 201.62,148.98 C201.62,146.97999 200.990006,145.400006 199.73,144.24 C198.469994,143.079994 196.780011,142.5 194.66,142.5 L187.28,142.5 L187.28,155.4 Z M229.22,155.58 L216.14,135 L227.06,135 L235.34,148.2 L243.8,135 L253.64,135 L240.56,155.58 L254.3,177 L243.32,177 L234.38,162.9 L225.26,177 L215.48,177 L229.22,155.58 Z" id="TRX" fill="#FFFFFF" fill-rule="nonzero" transform="translate(196.460000, 156.000000) rotate(270.000000) translate(-196.460000, -156.000000) "></path>
    </g>
</svg>