<?xml version="1.0" encoding="UTF-8"?>
<svg width="300px" height="300px" viewBox="0 0 300 300" version="1.1" xmlns="http://www.w3.org/2000/svg" xmlns:xlink="http://www.w3.org/1999/xlink">
    <!-- Generator: Sketch 57.1 (83088) - https://sketch.com -->
    <title>token / vector / dark / sUSD</title>
    <desc>Created with Sketch.</desc>
    <g id="token-/-vector-/-dark-/-sUSD" stroke="none" stroke-width="1" fill="none" fill-rule="evenodd">
        <circle id="Oval" fill="#1E1A31" cx="150" cy="150" r="150"></circle>
        <g id="logo-/-icon-/-snx-/-snx-light" transform="translate(67.000000, 85.000000)" fill="#FFFFFF">
            <polygon id="Stroke" opacity="0.5" points="16.4242874 123.528427 3.94076966 114.6224 82.457252 5.52842738 94.9407697 14.4344545"></polygon>
            <path d="M56.8681078,57.3494854 L61.0594056,57.3494854 C80.356563,57.3494854 96,72.9412843 96,92.1747428 C96,111.408201 80.356563,127 61.0594056,127 L9.67585345,127 C5.43659705,127 2,123.574748 2,119.349485 C2,115.124222 5.43659705,111.69897 9.67585345,111.69897 L61.0594056,111.69897 C71.8780504,111.69897 80.6482949,102.957676 80.6482949,92.1747428 C80.6482949,81.3918097 71.8780504,72.6505153 61.0594056,72.6505153 L41.1351711,72.6505153 L41.1318922,72.6505146 L36.9405944,72.6505146 C17.643437,72.6505146 2,57.0587157 2,37.8252572 C2,18.5917988 17.643437,3 36.9405944,3 L88.3241465,3 C92.563403,3 96,6.42525221 96,10.6505149 C96,14.8757777 92.563403,18.3010299 88.3241465,18.3010299 L36.9405944,18.3010299 C26.1219496,18.3010299 17.3517051,27.0423242 17.3517051,37.8252572 C17.3517051,48.6081903 26.1219496,57.3494847 36.9405944,57.3494847 L56.8648289,57.3494847 C56.8659219,57.3494847 56.8670149,57.3494849 56.8681078,57.3494854 L56.8681078,57.3494854 Z" id="Path"></path>
        </g>
        <path d="M147.11,130.5 L147.11,154.86 C147.11,158.260017 147.769993,160.819991 149.09,162.54 C150.410007,164.260009 152.489986,165.12 155.33,165.12 C158.170014,165.12 160.259993,164.260009 161.6,162.54 C162.940007,160.819991 163.61,158.260017 163.61,154.86 L163.61,130.5 L172.61,130.5 L172.61,154.38 C172.61,160.38003 171.140015,164.959984 168.2,168.12 C165.259985,171.280016 160.970028,172.86 155.33,172.86 C149.689972,172.86 145.410015,171.280016 142.49,168.12 C139.569985,164.959984 138.11,160.38003 138.11,154.38 L138.11,130.5 L147.11,130.5 Z M188.15,158.82 C188.310001,160.90001 189.159992,162.569994 190.7,163.83 C192.240008,165.090006 194.289987,165.72 196.85,165.72 C198.970011,165.72 200.699993,165.270004 202.04,164.37 C203.380007,163.469995 204.05,162.220008 204.05,160.62 C204.05,159.499994 203.680004,158.610003 202.94,157.95 C202.199996,157.289997 201.160007,156.770002 199.82,156.39 C198.479993,156.009998 196.410014,155.540003 193.61,154.98 C190.849986,154.459997 188.530009,153.790004 186.65,152.97 C184.769991,152.149996 183.240006,150.930008 182.06,149.31 C180.879994,147.689992 180.29,145.540013 180.29,142.86 C180.29,140.419988 180.959993,138.24001 182.3,136.32 C183.640007,134.39999 185.499988,132.890006 187.88,131.79 C190.260012,130.689995 192.949985,130.14 195.95,130.14 C199.030015,130.14 201.799988,130.709994 204.26,131.85 C206.720012,132.990006 208.659993,134.55999 210.08,136.56 C211.500007,138.56001 212.23,140.819987 212.27,143.34 L203.45,143.34 C203.249999,141.539991 202.490007,140.090006 201.17,138.99 C199.849993,137.889995 198.110011,137.34 195.95,137.34 C193.94999,137.34 192.350006,137.759996 191.15,138.6 C189.949994,139.440004 189.35,140.64 189.35,142.2 C189.35,143.320006 189.709996,144.189997 190.43,144.81 C191.150004,145.430003 192.169993,145.929998 193.49,146.31 C194.810007,146.690002 196.849986,147.14 199.61,147.66 C202.410014,148.180003 204.76999,148.829996 206.69,149.61 C208.61001,150.390004 210.159994,151.569992 211.34,153.15 C212.520006,154.730008 213.11,156.839987 213.11,159.48 C213.11,162.040013 212.410007,164.32999 211.01,166.35 C209.609993,168.37001 207.660012,169.959994 205.16,171.12 C202.659987,172.280006 199.850016,172.86 196.73,172.86 C193.369983,172.86 190.380013,172.250006 187.76,171.03 C185.139987,169.809994 183.090007,168.120011 181.61,165.96 C180.129993,163.799989 179.37,161.380013 179.33,158.7 L188.15,158.82 Z M220.01,130.5 L234.59,130.5 C238.790021,130.5 242.499984,131.389991 245.72,133.17 C248.940016,134.950009 251.419991,137.429984 253.16,140.61 C254.900009,143.790016 255.77,147.41998 255.77,151.5 C255.77,155.58002 254.900009,159.209984 253.16,162.39 C251.419991,165.570016 248.940016,168.049991 245.72,169.83 C242.499984,171.610009 238.790021,172.5 234.59,172.5 L220.01,172.5 L220.01,130.5 Z M234.59,165 C238.390019,165 241.33999,163.770012 243.44,161.31 C245.54001,158.849988 246.59,155.58002 246.59,151.5 C246.59,147.41998 245.54001,144.150012 243.44,141.69 C241.33999,139.229988 238.390019,138 234.59,138 L229.01,138 L229.01,165 L234.59,165 Z" id="USD" fill="#FFFFFF" fill-rule="nonzero" transform="translate(196.940000, 151.500000) rotate(270.000000) translate(-196.940000, -151.500000) "></path>
    </g>
</svg>