<?xml version="1.0" encoding="UTF-8"?>
<svg width="300px" height="300px" viewBox="0 0 300 300" version="1.1" xmlns="http://www.w3.org/2000/svg" xmlns:xlink="http://www.w3.org/1999/xlink">
    <!-- Generator: Sketch 57.1 (83088) - https://sketch.com -->
    <title>token / vector / dark / sXAG</title>
    <desc>Created with Sketch.</desc>
    <g id="token-/-vector-/-dark-/-sXAG" stroke="none" stroke-width="1" fill="none" fill-rule="evenodd">
        <circle id="Oval" fill="#1E1A31" cx="150" cy="150" r="150"></circle>
        <g id="logo-/-icon-/-snx-/-snx-light" transform="translate(67.000000, 85.000000)" fill="#FFFFFF">
            <polygon id="Stroke" opacity="0.5" points="16.4242874 123.528427 3.94076966 114.6224 82.457252 5.52842738 94.9407697 14.4344545"></polygon>
            <path d="M56.8681078,57.3494854 L61.0594056,57.3494854 C80.356563,57.3494854 96,72.9412843 96,92.1747428 C96,111.408201 80.356563,127 61.0594056,127 L9.67585345,127 C5.43659705,127 2,123.574748 2,119.349485 C2,115.124222 5.43659705,111.69897 9.67585345,111.69897 L61.0594056,111.69897 C71.8780504,111.69897 80.6482949,102.957676 80.6482949,92.1747428 C80.6482949,81.3918097 71.8780504,72.6505153 61.0594056,72.6505153 L41.1351711,72.6505153 L41.1318922,72.6505146 L36.9405944,72.6505146 C17.643437,72.6505146 2,57.0587157 2,37.8252572 C2,18.5917988 17.643437,3 36.9405944,3 L88.3241465,3 C92.563403,3 96,6.42525221 96,10.6505149 C96,14.8757777 92.563403,18.3010299 88.3241465,18.3010299 L36.9405944,18.3010299 C26.1219496,18.3010299 17.3517051,27.0423242 17.3517051,37.8252572 C17.3517051,48.6081903 26.1219496,57.3494847 36.9405944,57.3494847 L56.8648289,57.3494847 C56.8659219,57.3494847 56.8670149,57.3494849 56.8681078,57.3494854 L56.8681078,57.3494854 Z" id="Path"></path>
        </g>
        <path d="M146.57,150.08 L133.49,129.5 L144.41,129.5 L152.69,142.7 L161.15,129.5 L170.99,129.5 L157.91,150.08 L171.65,171.5 L160.67,171.5 L151.73,157.4 L142.61,171.5 L132.83,171.5 L146.57,150.08 Z M174.29,171.5 L189.65,129.5 L200.45,129.5 L215.69,171.5 L206.03,171.5 L202.79,162.32 L186.83,162.32 L183.59,171.5 L174.29,171.5 Z M189.23,155.06 L200.33,155.06 L194.75,139.1 L189.23,155.06 Z M217.55,150.5 C217.55,146.219979 218.389992,142.470016 220.07,139.25 C221.750008,136.029984 224.159984,133.540009 227.3,131.78 C230.440016,130.019991 234.129979,129.14 238.37,129.14 C241.690017,129.14 244.669987,129.779994 247.31,131.06 C249.950013,132.340006 252.079992,134.139988 253.7,136.46 C255.320008,138.780012 256.309998,141.439985 256.67,144.44 L247.79,144.44 C247.229997,142.079988 246.110008,140.210007 244.43,138.83 C242.749992,137.449993 240.650013,136.76 238.13,136.76 C235.809988,136.76 233.790009,137.339994 232.07,138.5 C230.349991,139.660006 229.030005,141.27999 228.11,143.36 C227.189995,145.44001 226.73,147.819987 226.73,150.5 C226.73,154.620021 227.73999,157.939987 229.76,160.46 C231.78001,162.980013 234.569982,164.24 238.13,164.24 C240.730013,164.24 243.02999,163.530007 245.03,162.11 C247.03001,160.689993 248.229998,158.600014 248.63,155.84 L248.63,155.3 L238.19,155.3 L238.19,148.16 L256.97,148.16 L256.97,171.5 L250.73,171.5 L249.77,166.28 C248.529994,167.920008 246.87001,169.259995 244.79,170.3 C242.70999,171.340005 240.290014,171.86 237.53,171.86 C233.56998,171.86 230.080015,170.980009 227.06,169.22 C224.039985,167.459991 221.700008,164.960016 220.04,161.72 C218.379992,158.479984 217.55,154.740021 217.55,150.5 Z" id="XAG" fill="#FFFFFF" fill-rule="nonzero" transform="translate(194.900000, 150.500000) rotate(270.000000) translate(-194.900000, -150.500000) "></path>
    </g>
</svg>