<?xml version="1.0" encoding="UTF-8"?>
<svg width="300px" height="300px" viewBox="0 0 300 300" version="1.1" xmlns="http://www.w3.org/2000/svg" xmlns:xlink="http://www.w3.org/1999/xlink">
    <!-- Generator: Sketch 57.1 (83088) - https://sketch.com -->
    <title>token / vector / dark / sXAU</title>
    <desc>Created with Sketch.</desc>
    <g id="token-/-vector-/-dark-/-sXAU" stroke="none" stroke-width="1" fill="none" fill-rule="evenodd">
        <circle id="Oval" fill="#1E1A31" cx="150" cy="150" r="150"></circle>
        <g id="logo-/-icon-/-snx-/-snx-light" transform="translate(67.000000, 85.000000)" fill="#FFFFFF">
            <polygon id="Stroke" opacity="0.5" points="16.4242874 123.528427 3.94076966 114.6224 82.457252 5.52842738 94.9407697 14.4344545"></polygon>
            <path d="M56.8681078,57.3494854 L61.0594056,57.3494854 C80.356563,57.3494854 96,72.9412843 96,92.1747428 C96,111.408201 80.356563,127 61.0594056,127 L9.67585345,127 C5.43659705,127 2,123.574748 2,119.349485 C2,115.124222 5.43659705,111.69897 9.67585345,111.69897 L61.0594056,111.69897 C71.8780504,111.69897 80.6482949,102.957676 80.6482949,92.1747428 C80.6482949,81.3918097 71.8780504,72.6505153 61.0594056,72.6505153 L41.1351711,72.6505153 L41.1318922,72.6505146 L36.9405944,72.6505146 C17.643437,72.6505146 2,57.0587157 2,37.8252572 C2,18.5917988 17.643437,3 36.9405944,3 L88.3241465,3 C92.563403,3 96,6.42525221 96,10.6505149 C96,14.8757777 92.563403,18.3010299 88.3241465,18.3010299 L36.9405944,18.3010299 C26.1219496,18.3010299 17.3517051,27.0423242 17.3517051,37.8252572 C17.3517051,48.6081903 26.1219496,57.3494847 36.9405944,57.3494847 L56.8648289,57.3494847 C56.8659219,57.3494847 56.8670149,57.3494849 56.8681078,57.3494854 L56.8681078,57.3494854 Z" id="Path"></path>
        </g>
        <path d="M148.85,150.08 L135.77,129.5 L146.69,129.5 L154.97,142.7 L163.43,129.5 L173.27,129.5 L160.19,150.08 L173.93,171.5 L162.95,171.5 L154.01,157.4 L144.89,171.5 L135.11,171.5 L148.85,150.08 Z M176.57,171.5 L191.93,129.5 L202.73,129.5 L217.97,171.5 L208.31,171.5 L205.07,162.32 L189.11,162.32 L185.87,171.5 L176.57,171.5 Z M191.51,155.06 L202.61,155.06 L197.03,139.1 L191.51,155.06 Z M229.49,129.5 L229.49,153.86 C229.49,157.260017 230.149993,159.819991 231.47,161.54 C232.790007,163.260009 234.869986,164.12 237.71,164.12 C240.550014,164.12 242.639993,163.260009 243.98,161.54 C245.320007,159.819991 245.99,157.260017 245.99,153.86 L245.99,129.5 L254.99,129.5 L254.99,153.38 C254.99,159.38003 253.520015,163.959984 250.58,167.12 C247.639985,170.280016 243.350028,171.86 237.71,171.86 C232.069972,171.86 227.790015,170.280016 224.87,167.12 C221.949985,163.959984 220.49,159.38003 220.49,153.38 L220.49,129.5 L229.49,129.5 Z" id="XAU" fill="#FFFFFF" fill-rule="nonzero" transform="translate(195.050000, 150.680000) rotate(270.000000) translate(-195.050000, -150.680000) "></path>
    </g>
</svg>