<?xml version="1.0" encoding="UTF-8"?>
<svg width="300px" height="300px" viewBox="0 0 300 300" version="1.1" xmlns="http://www.w3.org/2000/svg" xmlns:xlink="http://www.w3.org/1999/xlink">
    <!-- Generator: Sketch 57.1 (83088) - https://sketch.com -->
    <title>token / vector / dark / sXTZ</title>
    <desc>Created with Sketch.</desc>
    <g id="token-/-vector-/-dark-/-sXTZ" stroke="none" stroke-width="1" fill="none" fill-rule="evenodd">
        <circle id="Oval" fill="#1E1A31" cx="150" cy="150" r="150"></circle>
        <g id="logo-/-icon-/-snx-/-snx-light" transform="translate(67.000000, 85.000000)" fill="#FFFFFF">
            <polygon id="Stroke" opacity="0.5" points="16.4242874 123.528427 3.94076966 114.6224 82.457252 5.52842738 94.9407697 14.4344545"></polygon>
            <path d="M56.8681078,57.3494854 L61.0594056,57.3494854 C80.356563,57.3494854 96,72.9412843 96,92.1747428 C96,111.408201 80.356563,127 61.0594056,127 L9.67585345,127 C5.43659705,127 2,123.574748 2,119.349485 C2,115.124222 5.43659705,111.69897 9.67585345,111.69897 L61.0594056,111.69897 C71.8780504,111.69897 80.6482949,102.957676 80.6482949,92.1747428 C80.6482949,81.3918097 71.8780504,72.6505153 61.0594056,72.6505153 L41.1351711,72.6505153 L41.1318922,72.6505146 L36.9405944,72.6505146 C17.643437,72.6505146 2,57.0587157 2,37.8252572 C2,18.5917988 17.643437,3 36.9405944,3 L88.3241465,3 C92.563403,3 96,6.42525221 96,10.6505149 C96,14.8757777 92.563403,18.3010299 88.3241465,18.3010299 L36.9405944,18.3010299 C26.1219496,18.3010299 17.3517051,27.0423242 17.3517051,37.8252572 C17.3517051,48.6081903 26.1219496,57.3494847 36.9405944,57.3494847 L56.8648289,57.3494847 C56.8659219,57.3494847 56.8670149,57.3494849 56.8681078,57.3494854 L56.8681078,57.3494854 Z" id="Path"></path>
        </g>
        <path d="M152.3,155.58 L139.22,135 L150.14,135 L158.42,148.2 L166.88,135 L176.72,135 L163.64,155.58 L177.38,177 L166.4,177 L157.46,162.9 L148.34,177 L138.56,177 L152.3,155.58 Z M181.1,135 L214.34,135 L214.34,142.74 L202.22,142.74 L202.22,177 L193.22,177 L193.22,142.74 L181.1,142.74 L181.1,135 Z M219.32,135 L252.68,135 L252.68,140.94 L231.14,169.32 L253.22,169.32 L253.22,177 L218.78,177 L218.78,171.06 L240.32,142.68 L219.32,142.68 L219.32,135 Z" id="XTZ" fill="#FFFFFF" fill-rule="nonzero" transform="translate(195.890000, 156.000000) rotate(270.000000) translate(-195.890000, -156.000000) "></path>
    </g>
</svg>