<?xml version="1.0" encoding="UTF-8"?>
<svg width="40px" height="40px" viewBox="0 0 40 40" version="1.1" xmlns="http://www.w3.org/2000/svg" xmlns:xlink="http://www.w3.org/1999/xlink">
    <!-- Generator: Sketch 56.3 (81716) - https://sketch.com -->
    <title>ETH</title>
    <desc>Created with Sketch.</desc>
    <g id="dashboard" stroke="none" stroke-width="1" fill="none" fill-rule="evenodd">
        <g id="organisms-/-lightMode-/-dashboard-/-prices" transform="translate(-397.000000, -78.000000)">
            <g id="ETH" transform="translate(397.000000, 78.000000)">
                <g>
                    <circle id="Oval" fill="#1E1A31" cx="20" cy="20" r="20"></circle>
                    <path d="M13.021978,19.5130282 C13,19.4908451 13,19.4908451 13,19.468662 L13,19.3799296 C13.021978,19.3577465 13.021978,19.3577465 13.021978,19.3355634 L13.021978,19.2911972 C13.021978,19.2690141 13.043956,19.2690141 13.043956,19.246831 C13.0659341,19.246831 13.0659341,19.2246479 13.0659341,19.2246479 L19.6373626,8.19964789 C19.6593407,8.15528169 19.6813187,8.13309859 19.7032967,8.11091549 L19.7252747,8.11091549 C19.7472527,8.08873239 19.7692308,8.08873239 19.7912088,8.0665493 C19.7912088,8.0443662 19.8131868,8.0443662 19.8131868,8.0443662 C19.8351648,8.0443662 19.8571429,8.0221831 19.8791209,8.0221831 L19.9010989,8.0221831 C19.9450549,8 19.967033,8 20.010989,8 C20.0549451,8 20.0769231,8 20.1208791,8.0221831 L20.1428571,8.0221831 C20.1648352,8.0221831 20.1868132,8.0221831 20.2087912,8.0443662 C20.2087912,8.0665493 20.2307692,8.0665493 20.2307692,8.0665493 C20.2527473,8.0665493 20.2747253,8.08873239 20.2967033,8.11091549 L20.3186813,8.11091549 C20.3406593,8.13309859 20.3626374,8.17746479 20.3846154,8.19964789 L26.9340659,19.2246479 C26.956044,19.2246479 26.956044,19.246831 26.956044,19.246831 C26.956044,19.2690141 26.978022,19.2690141 26.978022,19.2911972 L26.978022,19.3355634 C27,19.3577465 27,19.3577465 27,19.3799296 L27,19.4242958 L27,19.468662 L27,19.5130282 L27,19.5573944 C27,19.5795775 26.978022,19.5795775 26.978022,19.6017606 L26.978022,19.6239437 C26.956044,19.6461268 26.9340659,19.690493 26.9120879,19.7126761 L26.8901099,19.7348592 L26.8241758,19.8014085 C26.8241758,19.8235915 26.8021978,19.8235915 26.8021978,19.8235915 L20.2307692,23.7056338 L20.2087912,23.7056338 C20.1868132,23.7056338 20.1648352,23.7278169 20.1428571,23.7278169 L20.1208791,23.7278169 C20.0769231,23.75 20.0549451,23.75 20.010989,23.75 C19.967033,23.75 19.9450549,23.7278169 19.9010989,23.7278169 L19.8791209,23.7278169 C19.8571429,23.7278169 19.8351648,23.7278169 19.8131868,23.7056338 L19.7912088,23.7056338 L13.1978022,19.8014085 C13.1758242,19.8014085 13.1758242,19.8014085 13.1538462,19.7792254 L13.1318681,19.7570423 C13.1318681,19.7348592 13.1098901,19.7348592 13.1098901,19.7126761 L13.0879121,19.690493 L13.0659341,19.6683099 C13.0659341,19.6461268 13.043956,19.6461268 13.043956,19.6239437 L13.043956,19.6017606 C13.021978,19.5795775 13.021978,19.5795775 13.021978,19.5573944 L13.021978,19.5130282 Z M19.5714286,22.5521127 L19.5714286,17.1394366 L14.4065934,19.4908451 L19.5714286,22.5521127 Z M20.4505495,17.1394366 L20.4505495,22.5521127 L25.6153846,19.5130282 L20.4505495,17.1394366 Z M20.4505495,16.1633803 L25.4615385,18.4704225 L20.4505495,10.0408451 L20.4505495,16.1633803 Z M19.5714286,16.1633803 L19.5714286,10.018662 L14.5604396,18.4482394 L19.5714286,16.1633803 Z M26.8783798,21.2797778 C27.0322906,21.4396377 27.0322906,21.6680091 26.9223543,21.8507062 L20.348168,31.4423029 C20.2822062,31.5564886 20.1282955,31.625 19.996372,31.625 C19.8644486,31.625 19.7325251,31.5564886 19.6445761,31.4423029 L13.0703898,21.8507062 C12.9604535,21.6680091 12.9824408,21.4396377 13.1143642,21.2797778 C13.2462877,21.1199178 13.4881474,21.0742436 13.6640454,21.1884293 L19.996372,25.1392536 L26.3286987,21.1884293 C26.5045967,21.0970807 26.7464564,21.1199178 26.8783798,21.2797778 Z M19.5566271,25.9385534 L15.0052673,23.1067486 L19.5566271,29.7523549 L19.5566271,25.9385534 Z M20.4361169,29.7523549 L24.9874767,23.1067486 L20.4361169,25.9385534 L20.4361169,29.7523549 Z" fill="#FFFFFF" fill-rule="nonzero"></path>
                </g>
            </g>
        </g>
    </g>
</svg>