<svg width="149" height="30" viewBox="0 0 149 30" fill="none" xmlns="http://www.w3.org/2000/svg">
<path fill-rule="evenodd" clip-rule="evenodd" d="M42.2285 6.43668L47.2089 17.1534L52.1892 6.43668H56.7499V24.4551H53.4203V10.7678L48.2721 22.4839H46.1177L40.8016 10.3791V24.4551H37.5V6.43668H42.2285ZM62.2339 10.9343H65.5355V24.4551H62.2339V10.9343ZM61.8422 6.60318C61.8422 6.01089 62.0194 5.54354 62.3738 5.20112C62.7282 4.85871 63.2318 4.6875 63.8847 4.6875C64.5189 4.6875 65.0178 4.85871 65.3816 5.20112C65.7453 5.54354 65.9272 6.01089 65.9272 6.60318C65.9272 7.19547 65.7453 7.66281 65.3816 8.00523C65.0178 8.34765 64.5189 8.51885 63.8847 8.51885C63.2318 8.51885 62.7282 8.34765 62.3738 8.00523C62.0194 7.66281 61.8422 7.19547 61.8422 6.60318ZM74.377 13.2943C75.2724 11.499 76.7086 10.6013 78.6859 10.6013C80.3646 10.6013 81.6284 11.1473 82.4771 12.2393C83.3258 13.3314 83.7502 14.775 83.7502 16.5704V24.4552H80.4486V16.5704C80.4486 15.5709 80.2061 14.8167 79.7211 14.3077C79.2361 13.7987 78.5553 13.5442 77.6786 13.5442C76.8019 13.5442 76.0511 13.9329 75.4263 14.7103C74.8014 15.4877 74.4703 16.6537 74.433 18.2085V24.4552H71.1314V10.9622H74.0133L74.377 13.2943ZM96.229 24.122C94.9979 24.6033 94.028 24.8439 93.3192 24.8439C92.6103 24.8439 91.9901 24.7606 91.4585 24.594C90.9269 24.4274 90.4559 24.1776 90.0455 23.8444C89.1875 23.0855 88.7585 22.0398 88.7585 20.7071V13.1555H86.8559V10.9622H88.7585V7.40845H92.0601V10.9622H95.7534V13.1555H92.0601V20.5961C92.0601 21.7066 92.5917 22.2619 93.6549 22.2619C94.1958 22.2619 94.8953 22.1138 95.7534 21.8177L96.229 24.122ZM102.916 13.6274C103.737 11.6839 104.968 10.7122 106.609 10.7122C106.926 10.7122 107.328 10.777 107.813 10.9065L107.757 14.1826C107.234 14.0716 106.721 14.016 106.218 14.016C104.017 14.016 102.916 15.5245 102.916 18.5415V24.4551H99.6145V10.9343H102.916V13.6274Z" fill="white"/>
<path fill-rule="evenodd" clip-rule="evenodd" d="M1.875 11.7188C7.31155 11.7188 11.7188 16.0775 11.7188 21.4543V25.7812C6.2822 25.7812 1.875 21.4225 1.875 16.0457V11.7188ZM28.125 4.21875V11.7656C28.125 19.5062 21.6191 25.7812 13.5938 25.7812V18.2344C13.5938 10.4938 20.0996 4.21875 28.125 4.21875Z" fill="url(#paint0_linear)"/>
<path d="M133 5L117 13V21L133 29L149 21V13L133 5Z" fill="#3399CC"/>
<path d="M133 5L117 13V21L133 29L149 21V13L133 5Z" fill="#795DF5"/>
<path opacity="0.11" d="M117 13L133 21V29L117 21V13Z" fill="black"/>
<path opacity="0.29" d="M149 13V21L133 29V21L149 13Z" fill="black"/>
<path d="M131.839 16.5097L135.039 14.3829L134.159 13.7573L131.933 15.2366L127.678 12.2129L126.703 12.8604L131.839 16.5097Z" fill="white"/>
<path d="M138.962 11.7767L138.111 11.172L136.267 12.3972L135.913 10.383C135.824 9.90744 135.57 9.52109 135.145 9.21872C134.257 8.58791 133.071 8.54892 132.089 9.20139C131.654 9.49028 131.419 9.82817 131.383 10.2049C131.347 10.5816 131.513 10.9258 131.879 11.217L132.91 10.754C132.537 10.4065 132.535 10.0751 132.917 9.82108C133.337 9.54216 133.819 9.5752 134.237 9.87236C134.523 10.0757 134.703 10.3895 134.764 10.8034L135.259 13.7325L135.626 13.9932L138.962 11.7767Z" fill="white"/>
<defs>
<linearGradient id="paint0_linear" x1="16.6036" y1="25.7813" x2="14.6954" y2="4.38453" gradientUnits="userSpaceOnUse">
<stop stop-color="#00E2DF"/>
<stop offset="1" stop-color="#BFF360"/>
</linearGradient>
</defs>
</svg>
