<svg width="232" height="64" xmlns="http://www.w3.org/2000/svg"><g fill="none" fill-rule="evenodd"><path d="M90.088 13.731l10.624 22.863 10.625-22.863h9.73v38.44h-7.104v-29.2l-10.982 24.995h-4.597l-11.34-25.824V52.17H80V13.73h10.088zm42.678 9.595h7.043v28.845h-7.043V23.326zm-.836-9.24c0-1.263.378-2.26 1.134-2.99.756-.73 1.83-1.096 3.223-1.096 1.353 0 2.418.365 3.194 1.096.776.73 1.164 1.727 1.164 2.99 0 1.264-.388 2.261-1.164 2.992-.776.73-1.84 1.096-3.194 1.096-1.392 0-2.467-.366-3.223-1.096-.756-.73-1.134-1.728-1.134-2.991zm26.74 14.275c1.911-3.83 4.975-5.745 9.193-5.745 3.582 0 6.277 1.165 8.088 3.494 1.81 2.33 2.716 5.41 2.716 9.24v16.82h-7.043V35.35c0-2.132-.518-3.741-1.552-4.827-1.035-1.086-2.487-1.63-4.358-1.63-1.87 0-3.472.83-4.805 2.489-1.333 1.658-2.04 4.146-2.119 7.462v13.327h-7.043V23.386h6.148l.776 4.975zm46.619 23.1C202.661 52.486 200.593 53 199.08 53c-1.512 0-2.835-.178-3.97-.533a9 9 0 01-3.014-1.6c-1.83-1.618-2.746-3.85-2.746-6.692v-16.11h-4.059v-4.68h4.06v-7.58h7.043v7.58h7.879v4.68h-7.88v15.873c0 2.37 1.135 3.554 3.403 3.554 1.154 0 2.646-.316 4.477-.948l1.014 4.916zm14.265-22.39c1.751-4.145 4.378-6.218 7.88-6.218.676 0 1.531.138 2.566.414l-.12 6.99a15.757 15.757 0 00-3.282-.356c-4.696 0-7.044 3.218-7.044 9.654v12.616h-7.043V23.326h7.043v5.746z" fill="#FFF"/><path d="M0 0h64v64H0z"/><path d="M4 25c11.598 0 21 9.299 21 20.77V55C13.402 55 4 45.701 4 34.23V25zm25 13.9C29 22.387 42.88 9 60 9v16.1C60 41.613 46.12 55 29 55V38.9z" fill="#10BA97"/></g></svg>
