<?xml version="1.0" encoding="UTF-8"?>
<svg width="104px" height="29px" viewBox="0 0 104 29" version="1.1" xmlns="http://www.w3.org/2000/svg" xmlns:xlink="http://www.w3.org/1999/xlink">
    <!-- Generator: Sketch 56.3 (81716) - https://sketch.com -->
    <title>logo</title>
    <desc>Created with Sketch.</desc>
    <g id="dashboard" stroke="none" stroke-width="1" fill="none" fill-rule="evenodd">
        <g id="organisms-/-lightMode-/-dashboard-/-full" transform="translate(-32.000000, -29.000000)">
            <g id="atoms-/-logo-/-full-/-dark" transform="translate(32.000000, 29.000000)">
                <path d="M40.3840718,6.22204287 L45.1468913,16.581504 L49.9097109,6.22204287 L54.2711692,6.22204287 L54.2711692,23.6398933 L51.0870371,23.6398933 L51.0870371,10.4087681 L46.163673,21.7343965 L44.1033522,21.7343965 L39.0194437,10.0330363 L39.0194437,23.6398933 L35.862069,23.6398933 L35.862069,6.22204287 L40.3840718,6.22204287 Z M59.5156222,10.569796 L62.672997,10.569796 L62.672997,23.6398933 L59.5156222,23.6398933 L59.5156222,10.569796 Z M59.1410184,6.38307076 C59.1410184,5.81052428 59.3104804,5.3587561 59.6494093,5.02775267 C59.9883382,4.69674923 60.4699668,4.53125 61.0943096,4.53125 C61.700814,4.53125 62.1779831,4.69674923 62.5258312,5.02775267 C62.8736793,5.3587561 63.0476008,5.81052428 63.0476008,6.38307076 C63.0476008,6.95561725 62.8736793,7.40738543 62.5258312,7.73838886 C62.1779831,8.06939229 61.700814,8.23489153 61.0943096,8.23489153 C60.4699668,8.23489153 59.9883382,8.06939229 59.6494093,7.73838886 C59.3104804,7.40738543 59.1410184,6.95561725 59.1410184,6.38307076 Z M71.1283395,12.8510244 C71.984581,11.1154929 73.3581145,10.2477402 75.2489812,10.2477402 C76.854434,10.2477402 78.0629651,10.7755486 78.8746106,11.8311811 C79.6862562,12.8868137 80.0920729,14.2823748 80.0920729,16.0179063 L80.0920729,23.6398933 L76.9346982,23.6398933 L76.9346982,16.0179063 C76.9346982,15.0517341 76.7028029,14.3226429 76.2390054,13.8306108 C75.775208,13.3385787 75.1241174,13.0925663 74.2857143,13.0925663 C73.4473111,13.0925663 72.7293277,13.4682943 72.1317425,14.2197615 C71.5341573,14.9712288 71.2175311,16.0984128 71.1818544,17.6013473 L71.1818544,23.6398933 L68.0244796,23.6398933 L68.0244796,10.596634 L70.7804932,10.596634 L71.1283395,12.8510244 Z M92.0258792,23.3178375 C90.8485472,23.7830315 89.9209661,24.015625 89.2431083,24.015625 C88.5652504,24.015625 87.9721337,23.9351111 87.4637403,23.7740832 C86.9553469,23.6130545 86.5049349,23.371515 86.1124909,23.0494576 C85.2919261,22.3158825 84.8816499,21.3049952 84.8816499,20.0167657 L84.8816499,12.7168345 L83.0621458,12.7168345 L83.0621458,10.596634 L84.8816499,10.596634 L84.8816499,7.16137225 L88.0390247,7.16137225 L88.0390247,10.596634 L91.5710032,10.596634 L91.5710032,12.7168345 L88.0390247,12.7168345 L88.0390247,19.9094137 C88.0390247,20.9829384 88.5474104,21.5196927 89.5641972,21.5196927 C90.0815098,21.5196927 90.7504384,21.3765582 91.5710032,21.090285 L92.0258792,23.3178375 Z M98.420901,13.1730802 C99.205789,11.2944121 100.383103,10.3550921 101.95288,10.3550921 C102.256132,10.3550921 102.639651,10.4177134 103.103448,10.542958 L103.049933,13.7098399 C102.550459,13.6024874 102.059912,13.548812 101.578276,13.548812 C99.4733487,13.548812 98.420901,15.0069944 98.420901,17.9234031 L98.420901,23.6398933 L95.2635262,23.6398933 L95.2635262,10.569796 L98.420901,10.569796 L98.420901,13.1730802 Z" id="Mintr" fill="#1E1A31" fill-rule="evenodd"></path>
                <g id="atoms-/-logo-/-glyph-/-colour">
                    <g id="atoms-/-spacing-/-boundingBox">
                        <rect id="boundingBox" x="0" y="0" width="29" height="29"></rect>
                    </g>
                    <g id="mintr-icon" stroke-width="1" fill-rule="evenodd">
                        <path d="M8.07386364,7.73333333 C4.17149621,7.73333333 -1.42108547e-14,6.57333333 -1.42108547e-14,3.86666667 C-1.42108547e-14,1.16 4.17149621,-3.55271368e-15 8.07386364,-3.55271368e-15 C11.9762311,-3.55271368e-15 16.1477273,1.16 16.1477273,3.86666667 C16.1477273,6.57333333 11.9762311,7.73333333 8.07386364,7.73333333 Z M-1.42108547e-14,8.25384615 C1.88390152,9.4782906 4.70975379,10.2945869 8.07386364,10.2945869 C11.4379735,10.2945869 14.2638258,9.4782906 16.1477273,8.25384615 L16.1477273,10.2945869 C16.1477273,13.1516239 11.9762311,14.3760684 8.07386364,14.3760684 C4.17149621,14.3760684 -1.42108547e-14,13.1516239 -1.42108547e-14,10.2945869 L-1.42108547e-14,8.25384615 Z M-1.42108547e-14,14.8222222 C1.88390152,16.0466667 4.70975379,16.862963 8.07386364,16.862963 C11.4379735,16.862963 14.2638258,16.182716 16.1477273,14.8222222 L16.1477273,16.862963 C16.1477273,19.72 11.9762311,20.9444444 8.07386364,20.9444444 C4.17149621,20.9444444 -1.42108547e-14,19.72 -1.42108547e-14,16.862963 L-1.42108547e-14,14.8222222 Z" id="Combined-Shape" fill="#10BA97"></path>
                        <path d="M22.8867743,16.0977792 C22.8867743,16.0977792 23.8785952,10.2653958 19.8315403,7.73333333 C19.7095954,9.76012388 18.7299854,11.6390656 17.1379354,12.8998042 C15.4095611,14.4190417 12.1588878,17.835 12.1934553,21.4769167 C12.168125,24.652647 13.9461805,27.5680714 16.7816244,29 C16.8819445,27.5799472 17.5499572,26.260085 18.6349735,25.3381458 C19.5543433,24.6312916 20.1512109,23.5848947 20.2915538,22.4339167 C22.711998,23.7203098 24.2774276,26.1844514 24.4130618,28.9215792 L24.4130618,28.9388583 C27.0882443,27.7137732 28.8493261,25.0913396 28.9706519,22.1521333 C29.2578279,18.7308583 27.3832066,14.078775 25.7199786,12.5582083 C25.0920403,13.959746 24.116903,15.1780018 22.8867743,16.0977792 Z" id="Shape" fill="#F4C14D"></path>
                    </g>
                </g>
            </g>
        </g>
    </g>
</svg>