<svg width="137" height="140" viewBox="0 0 137 140" fill="none" xmlns="http://www.w3.org/2000/svg">
<mask id="mask0" mask-type="alpha" maskUnits="userSpaceOnUse" x="37" y="39" width="64" height="63">
<path fill-rule="evenodd" clip-rule="evenodd" d="M37 39L100.077 39V101.092L37 101.092L37 39Z" fill="white"/>
</mask>
<g mask="url(#mask0)">
<path d="M96.7577 71.6797C96.7577 68.3088 96.1485 65.0801 95.0314 62.0915C94.2678 70.8971 89.4989 75.4199 84.5158 73.3137C79.8464 71.3399 82.9936 63.6454 83.226 59.9739C83.6178 53.75 83.2061 46.6258 71.7211 40.7026C76.4934 49.6895 72.2738 55.2712 67.8468 55.6127C62.9368 55.9886 58.4417 51.4591 60.1016 44.1062C54.7268 48.0049 54.5691 54.567 56.2274 58.8121C57.957 63.2369 56.1593 66.9134 51.9398 67.3219C47.2273 67.7794 44.6079 62.3529 47.0231 53.7059C42.8434 58.5507 40.3203 64.8252 40.3203 71.6797C40.3203 87.0212 52.954 99.4575 68.539 99.4575C84.124 99.4575 96.7577 87.0212 96.7577 71.6797Z" fill="#F4900C"/>
</g>
<g filter="url(#filter0_d)">
<path fill-rule="evenodd" clip-rule="evenodd" d="M67.8468 55.6127C62.9384 55.9902 58.4417 51.4591 60.1016 44.1062C54.7251 48.0049 54.5708 54.5686 56.229 58.8121C57.957 63.2369 56.1593 66.9134 51.9398 67.3219C47.2273 67.7794 44.6096 62.3513 47.0231 53.7059C42.8434 58.5507 40.3203 64.8252 40.3203 71.6797C40.3203 87.0212 52.954 99.4575 68.539 99.4575C84.124 99.4575 96.7577 87.0212 96.7577 71.6797C96.7577 68.3088 96.1485 65.0801 95.0314 62.0915C94.2678 70.8954 89.4989 75.4199 84.5158 73.3137C79.8481 71.3399 82.9936 63.6454 83.226 59.9739C83.6178 53.75 83.2061 46.6258 71.7211 40.7026C76.4934 49.6879 72.2738 55.2729 67.8468 55.6127Z" fill="url(#paint0_linear)"/>
<mask id="mask1" mask-type="alpha" maskUnits="userSpaceOnUse" x="40" y="40" width="57" height="60">
<path fill-rule="evenodd" clip-rule="evenodd" d="M67.8468 55.6127C62.9384 55.9902 58.4417 51.4591 60.1016 44.1062C54.7251 48.0049 54.5708 54.5686 56.229 58.8121C57.957 63.2369 56.1593 66.9134 51.9398 67.3219C47.2273 67.7794 44.6096 62.3513 47.0231 53.7059C42.8434 58.5507 40.3203 64.8252 40.3203 71.6797C40.3203 87.0212 52.954 99.4575 68.539 99.4575C84.124 99.4575 96.7577 87.0212 96.7577 71.6797C96.7577 68.3088 96.1485 65.0801 95.0314 62.0915C94.2678 70.8954 89.4989 75.4199 84.5158 73.3137C79.8481 71.3399 82.9936 63.6454 83.226 59.9739C83.6178 53.75 83.2061 46.6258 71.7211 40.7026C76.4934 49.6879 72.2738 55.2729 67.8468 55.6127Z" fill="white"/>
</mask>
<g mask="url(#mask1)">
<path d="M88.4583 89.6536C88.4583 86.0801 87.4889 82.732 85.7941 79.848C86.0381 84.8873 81.5414 86.8627 79.1212 85.9085C75.6271 84.531 76.5633 82.165 75.6636 77.2631C74.7639 72.3611 71.3063 68.9559 66.1871 67.4591C69.9219 77.8072 64.1172 81.6209 61.0745 82.3023C57.9671 82.9984 54.8448 82.3007 54.4879 75.7549C50.8643 79.3072 48.6201 84.2222 48.6201 89.6536C48.6201 100.482 57.5389 109.261 68.5392 109.261C79.5395 109.261 88.4583 100.482 88.4583 89.6536Z" fill="#FFCD1D"/>
</g>
</g>
<defs>
<filter id="filter0_d" x="0.320312" y="0.702614" width="136.437" height="138.755" filterUnits="userSpaceOnUse" color-interpolation-filters="sRGB">
<feFlood flood-opacity="0" result="BackgroundImageFix"/>
<feColorMatrix in="SourceAlpha" type="matrix" values="0 0 0 0 0 0 0 0 0 0 0 0 0 0 0 0 0 0 127 0"/>
<feOffset/>
<feGaussianBlur stdDeviation="20"/>
<feColorMatrix type="matrix" values="0 0 0 0 1 0 0 0 0 0.803922 0 0 0 0 0.113725 0 0 0 0.5 0"/>
<feBlend mode="normal" in2="BackgroundImageFix" result="effect1_dropShadow"/>
<feBlend mode="normal" in="SourceGraphic" in2="effect1_dropShadow" result="shape"/>
</filter>
<linearGradient id="paint0_linear" x1="68.539" y1="99.4575" x2="68.539" y2="40.7026" gradientUnits="userSpaceOnUse">
<stop stop-color="#F79D08"/>
<stop offset="1" stop-color="#FFC030"/>
</linearGradient>
</defs>
</svg>
