<?xml version="1.0" encoding="UTF-8"?>
<svg width="44px" height="54px" viewBox="0 0 44 54" version="1.1" xmlns="http://www.w3.org/2000/svg" xmlns:xlink="http://www.w3.org/1999/xlink">
    <!-- Generator: Sketch 56.3 (81716) - https://sketch.com -->
    <title>icon</title>
    <desc>Created with Sketch.</desc>
    <g id="buttons" stroke="none" stroke-width="1" fill="none" fill-rule="evenodd">
        <g id="atoms-/-button-/-lightMode-/-process-/-home-/-large-/-default" transform="translate(-146.000000, -75.000000)">
            <g id="atoms-/-icon-/-64px-/-thick-/-burn" transform="translate(136.000000, 70.000000)">
                <g id="atoms-/-spacing-/-boundingBox">
                    <rect id="boundingBox" x="0" y="0" width="64" height="64"></rect>
                </g>
                <path d="M38.5013241,14.7499705 C37.1898213,10.7570869 34.8221644,7.49099276 31.2225561,5.29305238 C29.8898313,4.4792834 28.1802846,5.43847021 28.1802846,7 C28.1802846,10.5084734 26.148976,14.3255906 22.4703501,17.4793954 C15.2016642,23.7110746 9.92689479,31.2372632 10.0007268,38.9327124 C10.0838874,47.6054325 15.1786965,55.8536332 23.8502577,58.8877779 C25.1472402,59.3415869 26.5050129,58.3824457 26.5107661,57.0083739 C26.52289,54.1127367 27.3364469,52.2290861 29.8455901,48.3145864 L29.9440921,48.1609388 C31.5724411,45.6210029 32.6128285,43.7671242 33.2342632,41.9460869 C36.0530398,45.8510736 37.4668246,50.9071051 37.4969899,56.8947592 C37.5039374,58.2738015 38.8716292,59.2321846 40.1702071,58.7679638 C47.9281204,55.9946337 53.1454488,49.6662249 53.918554,40.6527452 C54.5926744,32.8281522 51.2245142,25.5243476 45.9349243,19.281643 C45.0551094,18.243297 43.417636,18.3679022 42.7050699,19.5274222 C41.8033754,20.9947006 41.033391,21.9842285 40.4566359,22.469069 C40.2737721,22.6227906 40.0264432,22.7975745 39.7164543,22.9915143 C39.7446861,20.3079494 39.3999379,17.4858096 38.5013241,14.7499705 Z M49.9332519,40.3101564 C49.3881458,46.6654395 46.2545438,51.2707592 41.3717485,53.8780022 C40.7856273,46.5702273 38.1453213,40.4749949 33.3466279,36.0908103 C32.0924363,34.9449551 30.0710684,35.7856831 29.9994049,37.4829883 C29.8805314,40.2984373 29.0602567,42.1281718 26.5766869,46.0021005 L26.4780144,46.1560143 C24.3795597,49.4298012 23.246486,51.6180671 22.776262,54.0512082 C17.2658487,51.0537892 14.0602818,45.1244504 14.0005429,38.8943482 C13.941418,32.7318195 18.6323945,26.038603 25.0738472,20.5161376 C28.4057216,17.659614 30.6932172,14.2504183 31.6609421,10.7406752 C33.0306578,12.1850876 34.0290465,13.9522144 34.7010716,15.9982017 C35.6978238,19.0328239 35.8819511,22.3061369 35.590759,25.2194189 C35.547986,25.6473494 35.5068731,25.9418108 35.4830608,26.0785192 C35.2062335,27.667807 36.828187,28.9140235 38.2925393,28.237162 C40.5295332,27.2031657 42.0873466,26.3238153 43.0305436,25.530931 C43.5165169,25.1224049 44.012058,24.5932424 44.5249287,23.9400447 C48.2225134,28.9509447 50.4276898,34.5711586 49.9332519,40.3101564 Z" id="🎨-icon-colour" fill="#F4C14D" fill-rule="evenodd"></path>
            </g>
        </g>
    </g>
</svg>