<?xml version="1.0" encoding="UTF-8"?>
<svg width="64px" height="64px" viewBox="0 0 64 64" version="1.1" xmlns="http://www.w3.org/2000/svg" xmlns:xlink="http://www.w3.org/1999/xlink">
    <!-- Generator: Sketch 56.3 (81716) - https://sketch.com -->
    <title>Burn</title>
    <desc>Created with Sketch.</desc>
    <defs>
        <polygon id="path-1" points="0 62.0915033 62.0915033 62.0915033 62.0915033 0 0 0"></polygon>
        <path d="M27.0964052,43.8447712 C22.2647059,43.4673203 17.8382353,47.998366 19.4722222,55.3513072 L19.4722222,55.3513072 C14.1797386,51.4526144 14.0277778,44.8888889 15.6601307,40.6454248 L15.6601307,40.6454248 C17.3611111,36.2205882 15.5915033,32.5441176 11.4379085,32.1356209 L11.4379085,32.1356209 C6.79901961,31.6781046 4.22222222,37.1062092 6.59803922,45.751634 L6.59803922,45.751634 C2.48366013,40.9068627 0,34.6323529 0,27.7777778 L0,27.7777778 C0,12.4362745 12.4362745,0 27.7777778,0 L27.7777778,0 C43.119281,0 55.5555556,12.4362745 55.5555556,27.7777778 L55.5555556,27.7777778 C55.5555556,31.1486928 54.9558824,34.377451 53.8562092,37.3660131 L53.8562092,37.3660131 C53.1045752,28.5620915 48.4101307,24.0375817 43.504902,26.1437908 L43.504902,26.1437908 C38.9101307,28.1176471 42.0065359,35.8120915 42.2352941,39.4836601 L42.2352941,39.4836601 C42.620915,45.7075163 42.2156863,52.8316993 30.9101307,58.754902 L30.9101307,58.754902 C35.6078431,49.7696078 31.4542484,44.1846405 27.0964052,43.8447712" id="path-3"></path>
    </defs>
    <g id="Burn" stroke="none" stroke-width="1" fill="none" fill-rule="evenodd">
        <g id="g10">
            <g transform="translate(31.500000, 31.846405) scale(-1, 1) rotate(-180.000000) translate(-31.500000, -31.846405) translate(0.000000, 0.346405)">
                <g id="g12">
                    <g id="g14-Clipped">
                        <mask id="mask-2" fill="white">
                            <use xlink:href="#path-1"></use>
                        </mask>
                        <g id="path18"></g>
                        <g id="g14" mask="url(#mask-2)">
                            <g transform="translate(3.267974, 1.633987)" id="g20">
                                <g>
                                    <path d="M55.5555556,27.7777778 C55.5555556,31.1486928 54.9558824,34.377451 53.8562092,37.3660131 C53.1045752,28.5604575 48.4101307,24.0375817 43.504902,26.1437908 C38.9084967,28.1176471 42.0065359,35.8120915 42.2352941,39.4836601 C42.620915,45.7075163 42.2156863,52.8316993 30.9101307,58.754902 C35.6078431,49.7679739 31.4542484,44.1862745 27.0964052,43.8447712 C22.2630719,43.4689542 17.8382353,47.998366 19.4722222,55.3513072 C14.1813725,51.4526144 14.0261438,44.8905229 15.6584967,40.6454248 C17.3611111,36.2205882 15.5915033,32.5441176 11.4379085,32.1356209 C6.79901961,31.6781046 4.22058824,37.1045752 6.59803922,45.751634 C2.48366013,40.9068627 0,34.6323529 0,27.7777778 C0,12.4362745 12.4362745,0 27.7777778,0 C43.119281,0 55.5555556,12.4362745 55.5555556,27.7777778" id="path22" fill="#F4900C" fill-rule="nonzero"></path>
                                </g>
                            </g>
                        </g>
                    </g>
                </g>
                <g id="g24" transform="translate(3.267974, 1.633987)">
                    <g id="g26-Clipped">
                        <mask id="mask-4" fill="white">
                            <use xlink:href="#path-3"></use>
                        </mask>
                        <use id="path30" stroke="#EB7F07" fill="#FFA539" xlink:href="#path-3"></use>
                        <g id="g26" mask="url(#mask-4)">
                            <g transform="translate(8.169935, -9.803922)" id="g32">
                                <g>
                                    <path d="M39.2156863,19.6078431 C39.2156863,23.1813725 38.2614379,26.5294118 36.5931373,29.4133987 C36.8333333,24.374183 32.4068627,22.3986928 30.0245098,23.3529412 C26.5849673,24.7303922 27.5065359,27.0964052 26.620915,31.998366 C25.7352941,36.9003268 22.3316993,40.3055556 17.2924837,41.8022876 C20.9689542,31.4542484 15.254902,27.6405229 12.2598039,26.9591503 C9.20098039,26.2630719 6.12745098,26.9607843 5.77614379,33.5065359 C2.20915033,29.9542484 0,25.0392157 0,19.6078431 C0,8.77941176 8.77941176,0 19.6078431,0 C30.4362745,0 39.2156863,8.77941176 39.2156863,19.6078431" id="path34" stroke="#F79219" fill="#FFCC4D" fill-rule="nonzero"></path>
                                </g>
                            </g>
                        </g>
                    </g>
                </g>
            </g>
        </g>
    </g>
</svg>