<svg width="164" height="164" viewBox="0 0 164 164" fill="none" xmlns="http://www.w3.org/2000/svg">
<g filter="url(#filter0_d)">
<path d="M50.2598 70.1767V80.6484C50.26 82.3937 50.5815 84.1241 51.2081 85.753L56.0505 98.2626C56.219 98.7286 56.3077 99.2198 56.3128 99.7153V105.486L77.014 103.63L78.9106 92.8149C79.3132 90.5096 79.5157 88.1739 79.5159 85.8338V60.0883C79.517 59.2853 79.1985 58.5149 78.6307 57.9471C78.0629 57.3793 77.2924 57.0608 76.4894 57.0618C76.1448 57.0597 75.8028 57.1212 75.4806 57.2434C74.6762 57.5216 74.0297 58.1313 73.705 58.9181C73.6647 59.0391 73.6243 59.14 73.584 59.2813C73.5456 59.4269 73.5186 59.5753 73.5033 59.7252C73.47 59.8432 73.4563 59.9659 73.4629 60.0883V56.053C73.464 55.25 73.1455 54.4796 72.5777 53.9118C72.0099 53.3439 71.2394 53.0254 70.4364 53.0265C70.0622 53.028 69.6919 53.1034 69.3469 53.2484C68.1794 53.6877 67.4073 54.8056 67.4099 56.053V54.0353C67.4099 52.3638 66.0549 51.0088 64.3834 51.0088C62.7119 51.0088 61.3569 52.3638 61.3569 54.0353V58.0707C61.3569 56.3992 60.0019 55.0442 58.3304 55.0442C56.6589 55.0442 55.3039 56.3992 55.3039 58.0707V67.9371C54.7548 67.4294 54.034 67.1483 53.2863 67.1502C52.4833 67.1491 51.7128 67.4676 51.145 68.0354C50.5772 68.6032 50.2587 69.3737 50.2598 70.1767Z" fill="url(#paint0_linear)"/>
<path fill-rule="evenodd" clip-rule="evenodd" d="M63.3746 58.0707V54.0353C63.3754 52.7557 64.1844 51.6161 65.3923 51.1934C64.4676 50.853 63.4347 50.9884 62.6291 51.5558C61.8234 52.1231 61.3479 53.05 61.3569 54.0353V55.2288C62.5648 55.6514 63.3738 56.791 63.3746 58.0707ZM69.4276 54.0353V56.0401C69.4303 54.7979 70.2011 53.6861 71.3646 53.2484C71.3821 53.2412 71.4003 53.2363 71.4186 53.2314L71.4186 53.2314C71.4343 53.2272 71.4499 53.223 71.4652 53.2173C71.136 53.0941 70.7879 53.0295 70.4364 53.0265C70.0622 53.028 69.6919 53.1034 69.3469 53.2484L69.3166 53.2641C69.3869 53.5153 69.4242 53.7745 69.4276 54.0353ZM75.4806 60.0883C75.4784 60.0483 75.4784 60.0082 75.4806 59.9683V60.0883ZM75.4806 59.9683V57.2434C75.8028 57.1212 76.1448 57.0597 76.4894 57.0618C76.8324 57.0652 77.1723 57.1273 77.4943 57.2452C76.6917 57.5238 76.0468 58.1327 75.7227 58.9181C75.7093 58.9584 75.6958 58.9964 75.6824 59.0345L75.6824 59.0346L75.6824 59.0347L75.6824 59.0347L75.6823 59.0347C75.6554 59.1109 75.6286 59.1871 75.6017 59.2813C75.5632 59.4269 75.5363 59.5753 75.5209 59.7252C75.4985 59.8046 75.485 59.8861 75.4806 59.9683ZM58.3304 99.7153V105.305L56.3128 105.486V99.7153C56.3077 99.2197 56.219 98.7286 56.0505 98.2626L51.2081 85.753C50.5815 84.1241 50.26 82.3937 50.2598 80.6483V70.1767C50.2587 69.3737 50.5772 68.6032 51.145 68.0354C51.7128 67.4676 52.4833 67.1491 53.2863 67.1502C53.6254 67.1558 53.9611 67.22 54.2784 67.3399C53.079 67.7677 52.278 68.9033 52.2774 70.1767V80.6483C52.2777 82.3937 52.5991 84.1241 53.2257 85.753L58.0681 98.2626C58.2366 98.7286 58.3253 99.2197 58.3304 99.7153ZM59.3393 55.2288C58.1314 55.6514 57.3224 56.791 57.3216 58.0707V67.9371C56.7725 67.4294 56.0517 67.1483 55.3039 67.1502V58.0707C55.2949 57.0854 55.7704 56.1585 56.5761 55.5911C57.3817 55.0237 58.4146 54.8883 59.3393 55.2288Z" fill="#0885FE"/>
<path fill-rule="evenodd" clip-rule="evenodd" d="M61.4278 54.0792V69.2117C61.4278 69.7689 61.8795 70.2205 62.4366 70.2205C62.9938 70.2205 63.4455 69.7689 63.4455 69.2117V52.0615C63.4486 51.797 63.4215 51.533 63.3647 51.2746C62.1972 51.7139 61.4251 52.8318 61.4278 54.0792ZM67.4095 71.1855V56.053C67.4068 54.8056 68.179 53.6876 69.3465 53.2484C69.4032 53.5068 69.4303 53.7708 69.4272 54.0353V71.1855C69.4272 71.7427 68.9755 72.1943 68.4184 72.1943C67.8612 72.1943 67.4095 71.7427 67.4095 71.1855ZM73.4625 75.4024V60.2699C73.4659 60.0877 73.4794 59.9059 73.5029 59.7251C73.5182 59.5753 73.5452 59.4269 73.5836 59.2813C73.6105 59.1871 73.6374 59.1109 73.6643 59.0347C73.6777 58.9965 73.6912 58.9584 73.7046 58.9181C74.0293 58.1313 74.6758 57.5216 75.4802 57.2434V75.4024C75.4802 75.9596 75.0285 76.4112 74.4714 76.4112C73.9142 76.4112 73.4625 75.9596 73.4625 75.4024ZM55.3008 67.6903V66.0358C56.0888 66.2287 56.7953 66.6668 57.3184 67.2868C57.9669 68.0147 58.3258 68.9551 58.3273 69.9299V78.384L60.4257 79.4331C64.0988 81.2497 66.4163 85 66.3979 89.0978C66.3979 89.6549 65.9463 90.1066 65.3891 90.1066C64.8319 90.1066 64.3803 89.6549 64.3803 89.0978C64.3947 85.7666 62.5068 82.7194 59.5177 81.249L56.8746 79.9174C56.532 79.7434 56.3144 79.3936 56.3096 79.0094V69.9299C56.3106 69.4197 56.1156 68.9285 55.7648 68.5579L55.7447 68.5378C55.7008 68.4804 55.6459 68.4324 55.5833 68.3965C55.5755 68.3888 55.5708 68.3811 55.5667 68.3745C55.5601 68.3639 55.5554 68.3562 55.5429 68.3562C55.3891 68.168 55.3038 67.9333 55.3008 67.6903Z" fill="#0885FE"/>
<rect x="55.3027" y="103.468" width="24.212" height="10.0883" rx="1" fill="url(#paint1_linear)"/>
<path d="M57.3214 111.539V105.486C57.3214 104.371 58.2247 103.468 59.339 103.468H57.3214C56.2071 103.468 55.3037 104.371 55.3037 105.486V111.539C55.3037 112.653 56.2071 113.556 57.3214 113.556H59.339C58.2247 113.556 57.3214 112.653 57.3214 111.539Z" fill="url(#paint2_linear)"/>
<path d="M113.556 70.1767V80.6484C113.556 82.3937 113.234 84.1241 112.608 85.753L107.765 98.2626C107.597 98.7286 107.508 99.2198 107.503 99.7153V105.486L86.8017 103.63L84.9051 92.8149C84.5026 90.5096 84.3001 88.1739 84.2998 85.8338V60.0883C84.2987 59.2853 84.6173 58.5149 85.1851 57.9471C85.7529 57.3793 86.5233 57.0608 87.3263 57.0618C87.6709 57.0597 88.0129 57.1212 88.3351 57.2434C89.1395 57.5216 89.786 58.1313 90.1107 58.9181C90.151 59.0391 90.1914 59.14 90.2317 59.2813C90.2702 59.4269 90.2972 59.5753 90.3125 59.7252C90.3458 59.8432 90.3594 59.9659 90.3528 60.0883V56.053C90.3517 55.25 90.6703 54.4796 91.2381 53.9118C91.8059 53.3439 92.5763 53.0254 93.3793 53.0265C93.7536 53.028 94.1238 53.1034 94.4688 53.2484C95.6364 53.6877 96.4085 54.8056 96.4058 56.053V54.0353C96.4058 52.3638 97.7608 51.0088 99.4323 51.0088C101.104 51.0088 102.459 52.3638 102.459 54.0353V58.0707C102.459 56.3992 103.814 55.0442 105.485 55.0442C107.157 55.0442 108.512 56.3992 108.512 58.0707V67.9371C109.061 67.4294 109.782 67.1483 110.529 67.1502C111.332 67.1491 112.103 67.4676 112.671 68.0354C113.239 68.6032 113.557 69.3737 113.556 70.1767Z" fill="url(#paint3_linear)"/>
<path fill-rule="evenodd" clip-rule="evenodd" d="M100.442 54.0353C100.441 52.7557 99.6321 51.6161 98.4242 51.1934C99.3489 50.853 100.382 50.9884 101.187 51.5558C101.993 52.1231 102.469 53.05 102.46 54.0353V55.2288C101.252 55.6514 100.443 56.791 100.442 58.0707V54.0353ZM94.3889 56.0401V54.0353C94.3923 53.7745 94.4296 53.5153 94.4999 53.2641L94.4696 53.2484C94.1246 53.1034 93.7543 53.028 93.3801 53.0265C93.0286 53.0295 92.6805 53.0941 92.3513 53.2173C92.3666 53.223 92.3822 53.2272 92.3979 53.2314L92.3979 53.2314C92.4162 53.2363 92.4344 53.2412 92.4519 53.2484C93.6154 53.6861 94.3862 54.7979 94.3889 56.0401ZM88.3359 60.0883C88.3381 60.0483 88.338 60.0082 88.3359 59.9683V60.0883ZM88.3359 59.9683V57.2434C88.0137 57.1212 87.6717 57.0597 87.3271 57.0618C86.9841 57.0652 86.6443 57.1273 86.3223 57.2452C87.1248 57.5238 87.7697 58.1328 88.0938 58.9181C88.1072 58.9584 88.1207 58.9965 88.1341 59.0347C88.161 59.1109 88.1879 59.1871 88.2148 59.2813C88.2533 59.4269 88.2802 59.5753 88.2955 59.7252C88.318 59.8046 88.3315 59.8861 88.3359 59.9683ZM104.477 55.2288C105.685 55.6514 106.494 56.791 106.495 58.0707V67.9371C107.044 67.4294 107.765 67.1483 108.513 67.1502V58.0707C108.522 57.0854 108.046 56.1585 107.24 55.5911C106.435 55.0237 105.402 54.8883 104.477 55.2288Z" fill="#0885FE"/>
<path fill-rule="evenodd" clip-rule="evenodd" d="M102.388 54.0792V69.2117C102.388 69.7689 101.937 70.2205 101.379 70.2205C100.822 70.2205 100.371 69.7689 100.371 69.2117V52.0615C100.368 51.797 100.395 51.533 100.451 51.2746C101.619 51.7139 102.391 52.8318 102.388 54.0792ZM96.4066 71.1855V56.053C96.4093 54.8056 95.6372 53.6876 94.4696 53.2484C94.4129 53.5068 94.3858 53.7708 94.3889 54.0353V71.1855C94.3889 71.7427 94.8406 72.1943 95.3978 72.1943C95.9549 72.1943 96.4066 71.7427 96.4066 71.1855ZM90.3536 75.4024V60.2699C90.3502 60.0877 90.3367 59.9059 90.3133 59.7251C90.2979 59.5753 90.271 59.4269 90.2325 59.2813C90.2056 59.1871 90.1787 59.1109 90.1518 59.0347L90.1518 59.0347C90.1384 58.9965 90.1249 58.9584 90.1115 58.9181C89.7868 58.1313 89.1403 57.5216 88.3359 57.2434V75.4024C88.3359 75.9596 88.7876 76.4112 89.3448 76.4112C89.9019 76.4112 90.3536 75.9596 90.3536 75.4024ZM108.515 67.6903V66.0358C107.727 66.2287 107.021 66.6667 106.498 67.2868C105.849 68.0147 105.49 68.9551 105.489 69.9299V78.384L103.39 79.4331C99.7173 81.2497 97.3998 85 97.4182 89.0978C97.4182 89.6549 97.8698 90.1066 98.427 90.1066C98.9842 90.1066 99.4358 89.6549 99.4358 89.0978C99.4214 85.7666 101.309 82.7194 104.298 81.249L106.942 79.9174C107.284 79.7434 107.502 79.3936 107.507 79.0094V69.9299C107.505 69.4197 107.701 68.9285 108.051 68.5579L108.071 68.5378C108.115 68.4804 108.17 68.4324 108.233 68.3965C108.241 68.3888 108.245 68.3811 108.249 68.3745C108.256 68.3639 108.261 68.3562 108.273 68.3562C108.427 68.168 108.512 67.9333 108.515 67.6903Z" fill="#0885FE"/>
<rect x="108.512" y="113.556" width="24.212" height="10.0883" rx="1" transform="rotate(180 108.512 113.556)" fill="url(#paint4_linear)"/>
<path d="M86.3175 111.539V105.486C86.3175 104.371 87.2208 103.468 88.3351 103.468H86.3175C85.2031 103.468 84.2998 104.371 84.2998 105.486V111.539C84.2998 112.653 85.2031 113.556 86.3175 113.556H88.3351C87.2208 113.556 86.3175 112.653 86.3175 111.539Z" fill="url(#paint5_linear)"/>
</g>
<defs>
<filter id="filter0_d" x="0" y="0" width="164" height="164" filterUnits="userSpaceOnUse" color-interpolation-filters="sRGB">
<feFlood flood-opacity="0" result="BackgroundImageFix"/>
<feColorMatrix in="SourceAlpha" type="matrix" values="0 0 0 0 0 0 0 0 0 0 0 0 0 0 0 0 0 0 127 0"/>
<feOffset/>
<feGaussianBlur stdDeviation="25"/>
<feColorMatrix type="matrix" values="0 0 0 0 0.458824 0 0 0 0 0.937255 0 0 0 0 0.992157 0 0 0 0.3 0"/>
<feBlend mode="normal" in2="BackgroundImageFix" result="effect1_dropShadow"/>
<feBlend mode="normal" in="SourceGraphic" in2="effect1_dropShadow" result="shape"/>
</filter>
<linearGradient id="paint0_linear" x1="64.8878" y1="51.0088" x2="64.8878" y2="105.486" gradientUnits="userSpaceOnUse">
<stop stop-color="#76F3FD"/>
<stop offset="1" stop-color="#3A68F6"/>
</linearGradient>
<linearGradient id="paint1_linear" x1="55.3027" y1="103.468" x2="79.7794" y2="112.867" gradientUnits="userSpaceOnUse">
<stop stop-color="#3130AF"/>
<stop offset="1" stop-color="#5834B2"/>
</linearGradient>
<linearGradient id="paint2_linear" x1="56.9466" y1="103.468" x2="58.6442" y2="103.596" gradientUnits="userSpaceOnUse">
<stop stop-color="#0885FE"/>
<stop offset="1" stop-color="#4E3CBD"/>
</linearGradient>
<linearGradient id="paint3_linear" x1="98.9279" y1="51.0088" x2="98.9279" y2="105.486" gradientUnits="userSpaceOnUse">
<stop stop-color="#76F3FD"/>
<stop offset="1" stop-color="#3A68F6"/>
</linearGradient>
<linearGradient id="paint4_linear" x1="108.512" y1="113.556" x2="132.988" y2="122.956" gradientUnits="userSpaceOnUse">
<stop stop-color="#3130AF"/>
<stop offset="1" stop-color="#5834B2"/>
</linearGradient>
<linearGradient id="paint5_linear" x1="85.9427" y1="103.468" x2="87.6403" y2="103.596" gradientUnits="userSpaceOnUse">
<stop stop-color="#0885FE"/>
<stop offset="1" stop-color="#4E3CBD"/>
</linearGradient>
</defs>
</svg>
