<?xml version="1.0" encoding="UTF-8"?>
<svg width="64px" height="64px" viewBox="0 0 64 64" version="1.1" xmlns="http://www.w3.org/2000/svg" xmlns:xlink="http://www.w3.org/1999/xlink">
    <!-- Generator: Sketch 56.3 (81716) - https://sketch.com -->
    <title>Claim</title>
    <desc>Created with Sketch.</desc>
    <g id="Claim" stroke="none" stroke-width="1" fill="none" fill-rule="evenodd">
        <g fill-rule="nonzero">
            <path d="M1.25988861,20.176662 L1.25988861,30.6483496 C1.25988861,32.3936843 1.58158674,34.1240712 2.20819442,35.7530451 L7.05059331,48.2625755 C7.2191085,48.7286166 7.30778527,49.2197495 7.31288991,49.7152952 L7.31288991,55.4858205 L28.0141451,53.6295676 L29.9107514,42.8148768 C30.3132866,40.5096221 30.5160539,38.1738871 30.5160539,35.8337517 L30.5160539,10.088331 C30.5171241,9.28532508 30.1986062,8.51489965 29.6307947,7.94708821 C29.0629833,7.37927677 28.2925579,7.06075888 27.4895519,7.06183171 C27.1449575,7.05967943 26.8029338,7.1212437 26.4807188,7.24342166 C25.6763241,7.52156004 25.0298362,8.1313157 24.7051726,8.91808461 C24.6648192,9.03914458 24.6244659,9.14002789 24.5841126,9.28126453 C24.5456924,9.42689932 24.5187081,9.57531301 24.503406,9.72515109 C24.4700916,9.84317159 24.4564577,9.96587615 24.4630526,10.088331 L24.4630526,6.05299861 C24.4641254,5.24999268 24.1456076,4.47956725 23.5777961,3.91175581 C23.0099847,3.34394436 22.2395593,3.02542648 21.4365533,3.0264993 C21.0622986,3.02798169 20.6920261,3.10340759 20.3470136,3.24844258 C19.1794913,3.68764983 18.4073821,4.80559963 18.410054,6.05299861 L18.410054,4.0353324 C18.410054,2.36384299 17.0550441,1.0088331 15.3835547,1.0088331 C13.7120653,1.0088331 12.3570554,2.36384299 12.3570554,4.0353324 L12.3570554,8.07066481 C12.3570554,6.3991754 11.0020455,5.0441655 9.33055611,5.0441655 C7.6590667,5.0441655 6.30405681,6.3991754 6.30405681,8.07066481 L6.30405681,17.9370525 C5.75496632,17.4294318 5.03417117,17.1483217 4.28639061,17.1501627 C3.48338468,17.1490899 2.71295925,17.4676078 2.14514781,18.0354192 C1.57733637,18.6032307 1.25881848,19.3736561 1.25988861,20.176662 Z" id="Path" fill="#92B2FF"></path>
            <path d="M20.4277606,4.0353324 L20.4277606,6.05299861 C20.4250886,4.80559963 21.1971978,3.68764983 22.3647201,3.24844258 C22.3972449,3.23500493 22.4323321,3.22959758 22.4653411,3.21726964 C22.1362008,3.09407768 21.7880201,3.02951126 21.4365937,3.0264993 C21.0623394,3.0279854 20.6920675,3.10341115 20.3470539,3.24844258 L20.3167889,3.2640795 C20.3870667,3.51526408 20.4243703,3.77452371 20.4277606,4.0353324 Z M26.4807592,10.088331 C26.4741643,9.96587615 26.4877981,9.84317159 26.5211125,9.72515109 C26.5364145,9.57531299 26.5633988,9.42689928 26.6018192,9.28126453 C26.6421725,9.14002789 26.6825258,9.03914458 26.7228791,8.91808461 C27.0469722,8.13274572 27.6918718,7.52379827 28.4944909,7.24523756 C28.1724293,7.12726366 27.8325646,7.06523435 27.4895923,7.06183171 C27.144998,7.05968083 26.8029745,7.12124505 26.4807592,7.24342166 L26.4807592,10.088331 Z M9.33059647,55.3049166 L9.33059647,49.7152952 C9.3254822,49.2197504 9.23680571,48.7286191 9.06829986,48.2625755 L4.22590098,35.7530451 C3.5992933,34.1240712 3.27783803,32.3936843 3.27759786,30.6483496 L3.27759786,20.176662 C3.27818989,18.9032911 4.07916057,17.7677493 5.27851743,17.3399444 C4.96123309,17.2199726 4.62559344,17.1557662 4.28643096,17.15016 C3.48342503,17.1490899 2.71299961,17.4676078 2.14518816,18.0354192 C1.57737672,18.6032307 1.25885884,19.3736561 1.25992896,20.176662 L1.25992896,30.6483496 C1.26017183,32.3936843 1.5816271,34.1240712 2.20823477,35.7530451 L7.05063366,48.2625755 C7.21913951,48.7286191 7.30781599,49.2197504 7.31293026,49.7152952 L7.31293026,55.4858205 L9.33059647,55.3049166 Z M14.374762,8.07066481 L14.374762,4.0353324 C14.3755283,2.75566756 15.1845838,1.61610487 16.3924282,1.19342938 C15.4677638,0.85296035 14.4348492,0.988406882 13.6292292,1.55576886 C12.8236091,2.12313083 12.3480714,3.05001931 12.3570958,4.0353324 L12.3570958,5.22876179 C13.5649402,5.65143727 14.3739956,6.79099996 14.374762,8.07066481 L14.374762,8.07066481 Z M8.32176337,8.07066481 C8.32252971,6.79099996 9.13158515,5.65143727 10.3394296,5.22876179 C9.41476521,4.88829275 8.38185064,5.02373929 7.57623055,5.59110126 C6.77061046,6.15846324 6.29507283,7.08535171 6.30409716,8.07066481 L6.30409716,17.1501627 C7.05187847,17.1483177 7.77267504,17.4294284 8.32176337,17.9370525 L8.32176337,8.07066481 Z" id="Shape" fill="#5485FF"></path>
            <path d="M24.4630526,10.269921 L24.4630526,25.4024175 C24.4630526,25.9595806 24.9147226,26.4112506 25.4718857,26.4112506 C26.0290489,26.4112506 26.4807188,25.9595806 26.4807188,25.4024175 L26.4807188,7.24342166 C25.6763241,7.52156004 25.0298362,8.1313157 24.7051726,8.91808461 C24.6648192,9.03914458 24.6244659,9.14002789 24.5841126,9.28126453 C24.5456924,9.42689932 24.5187081,9.57531301 24.503406,9.72515109 C24.4799182,9.90585787 24.4664465,10.0877258 24.4630526,10.269921 Z M18.4100471,6.05299861 L18.4100471,21.1854951 C18.4100471,21.7426583 18.861724,22.1943282 19.4188871,22.1943282 C19.9760503,22.1943282 20.4277202,21.7426583 20.4277202,21.1854951 L20.4277202,4.0353324 C20.4308263,3.77082028 20.4037491,3.50681711 20.3470136,3.24844258 C19.1794913,3.68764983 18.4073821,4.80559963 18.4100471,6.05299861 Z M12.4283125,4.07919647 L12.4283125,19.211693 C12.4283125,19.7688561 12.8799894,20.2205261 13.4371525,20.2205261 C13.9943156,20.2205261 14.4459856,19.7688561 14.4459856,19.211693 L14.4459856,2.06153026 C14.4490894,1.79701825 14.4220122,1.53301533 14.3652789,1.27464045 C13.1977642,1.71385734 12.4256591,2.83180112 12.4283125,4.07919647 L12.4283125,4.07919647 Z M6.30131278,16.035846 L6.30131278,17.6903323 C6.3042858,17.9332908 6.38965036,18.1680434 6.54343273,18.3561622 C6.56360939,18.3561622 6.56360939,18.3763388 6.58378605,18.3965155 C6.64644045,18.4324016 6.70131381,18.4804158 6.74519935,18.5377521 L6.76537601,18.5579288 C7.116137,18.9285187 7.3111561,19.419678 7.31014589,19.9299418 L7.31014589,29.0094397 C7.31489786,29.3936188 7.53253846,29.7433983 7.87509242,29.9173895 L10.5182351,31.2490492 C13.5073458,32.7193772 15.395238,35.7666389 15.3808107,39.0977707 C15.3808107,39.6549338 15.8324807,40.1066038 16.3896438,40.1066038 C16.9468069,40.1066038 17.3985853,39.6549338 17.3985853,39.0977707 C17.4168435,35.0000154 15.0993325,31.2497187 11.4261849,29.4331496 L9.32781209,28.3839632 L9.32781209,19.9299418 C9.32633663,18.9551222 8.96739485,18.0146948 8.31897899,17.2867991 C7.79579303,16.6667552 7.08932753,16.2287466 6.30131278,16.035846 Z" id="Shape" fill="#5485FF"></path>
            <rect id="Rectangle" fill="#5485FF" x="6.30318921" y="53.4681543" width="24.2119944" height="10.088331" rx="1"></rect>
            <path d="M8.32176337,61.5388192 L8.32176337,55.4858205 C8.32176337,54.3714943 9.22510329,53.4681543 10.3394296,53.4681543 L8.32176337,53.4681543 C7.20743709,53.4681543 6.30409716,54.3714943 6.30409716,55.4858205 L6.30409716,61.5388192 C6.30409716,62.6531454 7.20743709,63.5564854 8.32176337,63.5564854 L10.3394296,63.5564854 C9.22510329,63.5564854 8.32176337,62.6531454 8.32176337,61.5388192 Z" id="Path" fill="#305BC4"></path>
            <path d="M63.5564881,20.176662 L63.5564881,30.6483496 C63.5564881,32.3936843 63.2347899,34.1240712 62.6081822,35.7530451 L57.7657834,48.2625755 C57.5972775,48.7286191 57.508601,49.2197504 57.5034868,49.7152952 L57.5034868,55.4858205 L36.8022315,53.6295676 L34.9056253,42.8148768 C34.5030901,40.5096221 34.3003227,38.1738871 34.3003227,35.8337517 L34.3003227,10.088331 C34.2992526,9.28532508 34.6177705,8.51489965 35.1855819,7.94708821 C35.7533934,7.37927677 36.5238188,7.06075888 37.3268247,7.06183171 C37.671419,7.05968083 38.0134425,7.12124505 38.3356578,7.24342166 C39.1400553,7.52155549 39.7865448,8.13131268 40.1112041,8.91808461 C40.1515574,9.03914458 40.1919107,9.14002789 40.2322641,9.28126453 C40.2706844,9.42689928 40.2976687,9.57531299 40.3129707,9.72515109 C40.3462851,9.84317159 40.3599189,9.96587615 40.353324,10.088331 L40.353324,6.05299861 C40.3522512,5.24999268 40.6707691,4.47956725 41.2385805,3.91175581 C41.806392,3.34394436 42.5768174,3.02542648 43.3798233,3.0264993 C43.7540778,3.02798328 44.1243501,3.10340912 44.4693631,3.24844258 C45.6368854,3.68764983 46.4089946,4.80559963 46.4063226,6.05299861 L46.4063226,4.0353324 C46.4063226,2.36384299 47.7613325,1.0088331 49.4328219,1.0088331 C51.1043114,1.0088331 52.4593212,2.36384299 52.4593212,4.0353324 L52.4593212,8.07066481 C52.4593212,6.3991754 53.8143311,5.0441655 55.4858205,5.0441655 C57.15731,5.0441655 58.5123199,6.3991754 58.5123199,8.07066481 L58.5123199,17.9370525 C59.0614103,17.4294318 59.7822055,17.1483217 60.5299861,17.1501627 C61.332992,17.1490899 62.1034174,17.4676078 62.6712289,18.0354192 C63.2390403,18.6032307 63.5575582,19.3736561 63.5564881,20.176662 Z" id="Path" fill="#92B2FF"></path>
            <path d="M44.3886564,4.0353324 L44.3886564,6.05299861 C44.3913284,4.80559963 43.6192192,3.68764983 42.4516969,3.24844258 C42.4191923,3.23500493 42.3841051,3.22959758 42.351096,3.21726964 C42.68023,3.09408 43.0284037,3.02951361 43.3798233,3.0264993 C43.7540781,3.02798063 44.1243509,3.10340657 44.4693631,3.24844258 L44.4996281,3.2640795 C44.4293503,3.51526408 44.3920467,3.77452371 44.3886564,4.0353324 Z M38.3356578,10.088331 C38.3422527,9.96587615 38.3286189,9.84317159 38.2953045,9.72515109 C38.2800025,9.57531299 38.2530182,9.42689928 38.2145979,9.28126453 C38.1742445,9.14002789 38.1338912,9.03914458 38.0935379,8.91808461 C37.7694672,8.13276682 37.1246079,7.52382276 36.322027,7.24523756 C36.6440557,7.12727113 36.983886,7.06524187 37.3268247,7.06183171 C37.6714189,7.05968268 38.013442,7.12124684 38.3356578,7.24342166 L38.3356578,10.088331 Z M50.441655,8.07066481 L50.441655,4.0353324 C50.4408887,2.75566756 49.6318333,1.61610487 48.4239888,1.19342938 C49.3486532,0.85296035 50.3815678,0.988406882 51.1871879,1.55576886 C51.992808,2.12313083 52.4683456,3.05001931 52.4593212,4.0353324 L52.4593212,5.22876179 C51.2514768,5.65143727 50.4424214,6.79099996 50.441655,8.07066481 Z M56.4946536,8.07066481 C56.4938873,6.79099996 55.6848319,5.65143727 54.4769874,5.22876179 C55.4016518,4.88829275 56.4345664,5.02373929 57.2401865,5.59110126 C58.0458066,6.15846324 58.5213442,7.08535171 58.5123199,8.07066481 L58.5123199,17.1501627 C57.7645385,17.1483177 57.043742,17.4294284 56.4946536,17.9370525 L56.4946536,8.07066481 Z" id="Shape" fill="#5485FF"></path>
            <path d="M40.353324,10.269921 L40.353324,25.4024175 C40.353324,25.9595806 39.9016541,26.4112506 39.3444909,26.4112506 C38.7873278,26.4112506 38.3356578,25.9595806 38.3356578,25.4024175 L38.3356578,7.24342166 C39.1400553,7.52155549 39.7865448,8.13131268 40.1112041,8.91808461 C40.1515574,9.03914458 40.1919107,9.14002789 40.2322641,9.28126453 C40.2706844,9.42689928 40.2976687,9.57531299 40.3129707,9.72515109 C40.3364584,9.90585787 40.3499301,10.0877258 40.353324,10.269921 L40.353324,10.269921 Z M46.4063296,6.05299861 L46.4063296,21.1854951 C46.4063296,21.7426583 45.9546527,22.1943282 45.3974895,22.1943282 C44.8403264,22.1943282 44.3886564,21.7426583 44.3886564,21.1854951 L44.3886564,4.0353324 C44.3855504,3.77082028 44.4126276,3.50681711 44.4693631,3.24844258 C45.6368854,3.68764983 46.4089946,4.80559963 46.4063296,6.05299861 L46.4063296,6.05299861 Z M52.388044,4.07919647 L52.388044,19.211693 C52.388044,19.7688561 51.9363671,20.2205261 51.379204,20.2205261 C50.8220409,20.2205261 50.3703709,19.7688561 50.3703709,19.211693 L50.3703709,2.06153026 C50.3672671,1.79701825 50.3943443,1.53301533 50.4510775,1.27464045 C51.6185923,1.71385734 52.3906974,2.83180112 52.388044,4.07919647 L52.388044,4.07919647 Z M58.5150639,16.035846 L58.5150639,17.6903323 C58.5120988,17.9332923 58.4267333,18.1680474 58.2729439,18.3561622 C58.2527673,18.3561622 58.2527673,18.3763388 58.2325906,18.3965155 C58.1699387,18.4324052 58.115066,18.4804188 58.0711773,18.5377521 L58.0510007,18.5579288 C57.7002308,18.9285131 57.5052102,19.419676 57.5062308,19.9299418 L57.5062308,29.0094397 C57.5014697,29.3936161 57.2838318,29.7433914 56.9412842,29.9173895 L54.2981415,31.2490492 C51.3090275,32.7193735 49.4211338,35.7666375 49.435566,39.0977707 C49.435566,39.6549338 48.983896,40.1066038 48.4267329,40.1066038 C47.8695697,40.1066038 47.4177913,39.6549338 47.4177913,39.0977707 C47.3995235,35.0000127 49.7170375,31.2497113 53.3901917,29.4331496 L55.4885646,28.3839632 L55.4885646,19.9299418 C55.49004,18.9551222 55.8489818,18.0146948 56.4973977,17.2867991 C57.02058,16.666751 57.7270469,16.2287414 58.5150639,16.035846 Z" id="Shape" fill="#5485FF"></path>
            <rect id="Rectangle" fill="#5485FF" transform="translate(46.406323, 58.512320) rotate(180.000000) translate(-46.406323, -58.512320) " x="34.3003254" y="53.4681543" width="24.2119944" height="10.088331" rx="1"></rect>
            <path d="M36.3179916,61.5388192 L36.3179916,55.4858205 C36.3179916,54.3714943 37.2213316,53.4681543 38.3356578,53.4681543 L36.3179916,53.4681543 C35.2036654,53.4681543 34.3003254,54.3714943 34.3003254,55.4858205 L34.3003254,61.5388192 C34.3003254,62.6531454 35.2036654,63.5564854 36.3179916,63.5564854 L38.3356578,63.5564854 C37.2213316,63.5564854 36.3179916,62.6531454 36.3179916,61.5388192 Z" id="Path" fill="#305BC4"></path>
        </g>
    </g>
</svg>