<?xml version="1.0" encoding="UTF-8"?>
<svg width="56px" height="53px" viewBox="0 0 56 53" version="1.1" xmlns="http://www.w3.org/2000/svg" xmlns:xlink="http://www.w3.org/1999/xlink">
    <!-- Generator: Sketch 56.3 (81716) - https://sketch.com -->
    <title>icon</title>
    <desc>Created with Sketch.</desc>
    <g id="buttons" stroke="none" stroke-width="1" fill="none" fill-rule="evenodd">
        <g id="atoms-/-button-/-lightMode-/-process-/-home-/-large-/-default" transform="translate(-141.000000, -75.000000)">
            <g id="atoms-/-icon-/-64px-/-thick-/-claim" transform="translate(136.000000, 70.000000)">
                <g id="atoms-/-spacing-/-boundingBox">
                    <rect id="boundingBox" x="0" y="0" width="64" height="64"></rect>
                </g>
                <path d="M17,32 L17,48.3524171 C17.2545969,48.352318 17.5134466,48.4011466 17.7633967,48.5043673 L29.9374113,53.5318115 C30.4184925,53.7304813 30.9580727,53.7337798 31.4415469,53.5410066 L56.7009625,43.4694459 C56.6386971,43.3616118 56.5665743,43.2587977 56.4844692,43.1599037 C56.1975453,42.8143091 55.7699578,42.4928216 55.1826938,42.2045894 C54.9084498,42.0699868 54.6070112,42 54.301509,42 L43.5168934,42 C43.8543441,42.9767691 44.0170151,43.9906748 43.9986001,45.0352528 C43.9793728,46.12591 43.0897375,47 41.9989108,47 L26.6149657,47 C25.5103962,47 24.6149657,46.1045695 24.6149657,45 C24.6149657,43.8954305 25.5103962,43 26.6149657,43 L39.6195164,43 C39.3796466,42.4247027 39.0239268,41.8562335 38.5454954,41.2875588 C37.6329721,40.2029124 36.57682,39.4826532 35.3467748,39.0932662 C35.1515324,39.0314597 34.9479459,39 34.7431732,39 L28.5379588,39 C27.8564962,39 27.2219301,38.6530154 26.8541792,38.0792989 C25.7140308,36.30059 24.2961845,34.8259656 22.5908832,33.6435718 C21.0111494,32.548242 19.1661847,32 17,32 Z M16.8317505,28.0069768 C16.8872215,28.0023565 16.9433356,28 17,28 C19.961797,28 22.6038163,28.7850914 24.8700688,30.3564282 C26.7079897,31.6307755 28.2853013,33.1811335 29.5958284,35 L34.7432114,35 C35.3575689,35.0000118 35.9682784,35.0943713 36.5539828,35.2797837 C38.2242532,35.8085297 39.6984451,36.722121 40.9579948,38 L54.301509,38 C55.2180229,38 56.1223548,38.209964 56.9450976,38.6137771 C58.0146924,39.1387398 58.8933411,39.7993637 59.5620424,40.6048022 C60.5175442,41.7556867 61,43.1503489 61,44.7058824 C61,45.5244936 60.5011343,46.2604628 59.740739,46.5636514 L32.9230248,57.2565446 C31.4726021,57.8348645 29.8538617,57.8249687 28.4106179,57.2289593 L16.6652243,52.3785206 C16.1659847,53.3417893 15.159859,54 14,54 L8,54 C6.34314575,54 5,52.6568542 5,51 L5,29 C5,27.3431458 6.34314575,26 8,26 L14,26 C15.3088244,26 16.4218905,26.8381415 16.8317505,28.0069768 Z M9,30 L9,50 L13,50 L13,30 L9,30 Z M27,21 C22.581722,21 19,17.418278 19,13 C19,8.581722 22.581722,5 27,5 C31.418278,5 35,8.581722 35,13 C35,17.418278 31.418278,21 27,21 Z M27,17 C29.209139,17 31,15.209139 31,13 C31,10.790861 29.209139,9 27,9 C24.790861,9 23,10.790861 23,13 C23,15.209139 24.790861,17 27,17 Z M46,31 C41.581722,31 38,27.418278 38,23 C38,18.581722 41.581722,15 46,15 C50.418278,15 54,18.581722 54,23 C54,27.418278 50.418278,31 46,31 Z M46,27 C48.209139,27 50,25.209139 50,23 C50,20.790861 48.209139,19 46,19 C43.790861,19 42,20.790861 42,23 C42,25.209139 43.790861,27 46,27 Z" id="🎨-icon-colour" fill="#5485FF" fill-rule="evenodd"></path>
            </g>
        </g>
    </g>
</svg>