<svg width="122" height="146" viewBox="0 0 122 146" fill="none" xmlns="http://www.w3.org/2000/svg">
<g filter="url(#filter0_d)">
<path d="M61.4054 94.7074L61 94.1456L60.5946 94.7074L56.2644 100.707L55.6924 101.5H56.6699H65.3301H66.3076L65.7356 100.707L61.4054 94.7074Z" fill="url(#paint0_linear)" stroke="#F34AFC"/>
<path d="M60.5934 94.1798L61.0037 94.7534L61.4091 94.1763C62.4646 92.674 63.6104 91.0847 64.8013 89.4327C67.9336 85.0879 71.3779 80.3103 74.3113 75.5439C78.3505 68.9806 81.5 62.3201 81.5 56.7207C81.5 45.5465 72.3152 36.5 61 36.5C49.6848 36.5 40.5 45.5465 40.5 56.7207C40.5 62.3174 43.5268 68.8579 47.5084 75.3657C50.5842 80.393 54.2712 85.4639 57.6656 90.1322C58.6753 91.521 59.6592 92.8741 60.5934 94.1798Z" fill="url(#paint1_linear)" stroke="url(#paint2_linear)"/>
<path d="M55.3155 53.728C55.1617 53.5467 54.9723 53.4558 54.7469 53.4558H50.1381C50.0972 53.4558 50.0637 53.4424 50.0385 53.4157C50.0128 53.3895 50 53.3598 50 53.3279V50.1279C50 50.096 50.0128 50.0667 50.0385 50.04C50.0637 50.0133 50.0972 50 50.1381 50H55.0083C56.2372 50 57.2974 50.5176 58.1884 51.552L59.3714 53.0398L57.067 55.9358L55.3155 53.728ZM63.8269 51.5361C64.7179 50.512 65.7831 50 67.0223 50H71.8772C71.9181 50 71.9487 50.0108 71.9694 50.0319C71.9897 50.0534 72 50.0853 72 50.1279V53.3279C72 53.3598 71.9897 53.3895 71.9694 53.4157C71.9487 53.4424 71.9181 53.4558 71.8772 53.4558H67.2684C67.043 53.4558 66.8536 53.5467 66.6998 53.728L63.3046 57.9839L66.7151 62.2716C66.8689 62.4426 67.0529 62.5278 67.2684 62.5278H71.8772C71.9181 62.5278 71.9487 62.5412 71.9694 62.5679C71.9897 62.5946 72 62.6295 72 62.6717V65.8717C72 65.9035 71.9897 65.9333 71.9694 65.9595C71.9487 65.9862 71.9181 65.9996 71.8772 65.9996H67.0223C65.7831 65.9996 64.7229 65.4824 63.8422 64.4476L61.0155 60.8958L58.1884 64.4476C57.2974 65.4824 56.2322 65.9996 54.993 65.9996H50.1381C50.0972 65.9996 50.0662 65.9862 50.0459 65.9595C50.0252 65.9328 50.0153 65.8984 50.0153 65.8553V62.6553C50.0153 62.6234 50.0252 62.5942 50.0459 62.5675C50.0662 62.5408 50.0972 62.5274 50.1381 62.5274H54.7469C54.9619 62.5274 55.1513 62.437 55.3155 62.2553L58.6491 58.0635L63.8269 51.5361Z" fill="#00D1FF"/>
</g>
<defs>
<filter id="filter0_d" x="0" y="0" width="122" height="146" filterUnits="userSpaceOnUse" color-interpolation-filters="sRGB">
<feFlood flood-opacity="0" result="BackgroundImageFix"/>
<feColorMatrix in="SourceAlpha" type="matrix" values="0 0 0 0 0 0 0 0 0 0 0 0 0 0 0 0 0 0 127 0"/>
<feOffset dy="4"/>
<feGaussianBlur stdDeviation="20"/>
<feColorMatrix type="matrix" values="0 0 0 0 0.580392 0 0 0 0 0.572549 0 0 0 0 0.768627 0 0 0 0.25 0"/>
<feBlend mode="normal" in2="BackgroundImageFix" result="effect1_dropShadow"/>
<feBlend mode="normal" in="SourceGraphic" in2="effect1_dropShadow" result="shape"/>
</filter>
<linearGradient id="paint0_linear" x1="61" y1="100.6" x2="61" y2="94.2" gradientUnits="userSpaceOnUse">
<stop stop-color="#6B5BFF"/>
<stop offset="1" stop-color="#E22DEF"/>
</linearGradient>
<linearGradient id="paint1_linear" x1="61" y1="37" x2="61" y2="94" gradientUnits="userSpaceOnUse">
<stop stop-color="#685BFF"/>
<stop offset="1" stop-color="#E92AED"/>
</linearGradient>
<linearGradient id="paint2_linear" x1="61" y1="93.8889" x2="61" y2="37" gradientUnits="userSpaceOnUse">
<stop stop-color="#F94FFD"/>
<stop offset="1" stop-color="#9C39FF"/>
</linearGradient>
</defs>
</svg>
