<svg width="64" height="64" viewBox="0 0 64 64" fill="none" xmlns="http://www.w3.org/2000/svg">
<path d="M32.4054 53.9073L32 53.3456L31.5946 53.9073L27.6974 59.3073L27.1254 60.1H28.1029H35.8971H36.8746L36.3026 59.3073L32.4054 53.9073Z" fill="url(#paint0_linear)" stroke="#F34AFC"/>
<path d="M31.5934 53.4909L32.0037 54.0645L32.4091 53.4874C33.3583 52.1363 34.3891 50.7065 35.4606 49.2202C38.28 45.3094 41.3817 41.0071 44.0228 36.7157C47.6582 30.8085 50.5 24.8034 50.5 19.7486C50.5 9.66353 42.2106 1.49995 32 1.49995C21.7894 1.49995 13.5 9.66353 13.5 19.7486C13.5 24.8007 16.2312 30.6976 19.8149 36.5551C22.5842 41.0816 25.9042 45.6477 28.9593 49.8494C29.8679 51.099 30.7531 52.3164 31.5934 53.4909Z" fill="url(#paint1_linear)" stroke="url(#paint2_linear)"/>
<g clip-path="url(#clip0)">
<path d="M26.8855 17.0551C26.7471 16.8919 26.5766 16.8102 26.3738 16.8102H22.2259C22.189 16.8102 22.1589 16.7982 22.1362 16.7741C22.1131 16.7505 22.1016 16.7237 22.1016 16.6951V13.8151C22.1016 13.7864 22.1131 13.76 22.1362 13.736C22.1589 13.712 22.189 13.7 22.2259 13.7H26.609C27.715 13.7 28.6692 14.1658 29.4712 15.0967L30.5359 16.4358L28.4619 19.0422L26.8855 17.0551ZM34.5457 15.0824C35.3477 14.1608 36.3064 13.7 37.4217 13.7H41.791C41.8279 13.7 41.8554 13.7096 41.874 13.7286C41.8923 13.748 41.9016 13.7767 41.9016 13.8151V16.6951C41.9016 16.7237 41.8923 16.7505 41.874 16.7741C41.8554 16.7982 41.8279 16.8102 41.791 16.8102H37.6431C37.4403 16.8102 37.2698 16.8919 37.1314 17.0551L34.0757 20.8854L37.1452 24.7444C37.2836 24.8983 37.4492 24.975 37.6431 24.975H41.791C41.8279 24.975 41.8554 24.987 41.874 25.0111C41.8923 25.0351 41.9016 25.0665 41.9016 25.1045V27.9845C41.9016 28.0131 41.8923 28.0399 41.874 28.0635C41.8554 28.0875 41.8279 28.0996 41.791 28.0996H37.4217C36.3064 28.0996 35.3522 27.6341 34.5595 26.7028L32.0155 23.5061L29.4712 26.7028C28.6692 27.6341 27.7105 28.0996 26.5952 28.0996H22.2259C22.189 28.0996 22.1611 28.0875 22.1429 28.0635C22.1243 28.0395 22.1153 28.0085 22.1153 27.9697V25.0897C22.1153 25.061 22.1243 25.0347 22.1429 25.0107C22.1611 24.9866 22.189 24.9746 22.2259 24.9746H26.3738C26.5673 24.9746 26.7378 24.8932 26.8855 24.7297L29.8857 20.9571L34.5457 15.0824Z" fill="#00D1FF"/>
</g>
<defs>
<linearGradient id="paint0_linear" x1="32" y1="59.24" x2="32" y2="53.48" gradientUnits="userSpaceOnUse">
<stop stop-color="#6B5BFF"/>
<stop offset="1" stop-color="#E22DEF"/>
</linearGradient>
<linearGradient id="paint1_linear" x1="32" y1="1.99993" x2="32" y2="53.2999" gradientUnits="userSpaceOnUse">
<stop stop-color="#685BFF"/>
<stop offset="1" stop-color="#E92AED"/>
</linearGradient>
<linearGradient id="paint2_linear" x1="32" y1="53.1999" x2="32" y2="1.99995" gradientUnits="userSpaceOnUse">
<stop stop-color="#F94FFD"/>
<stop offset="1" stop-color="#9C39FF"/>
</linearGradient>
<clipPath id="clip0">
<rect width="19.8" height="14.4" fill="white" transform="translate(22.1016 13.7)"/>
</clipPath>
</defs>
</svg>
