<svg width="119" height="141" viewBox="0 0 119 141" fill="none" xmlns="http://www.w3.org/2000/svg">
	<g filter="url(#filter0_d)">
		<path
			d="M59.5876 89.4347L59.1822 88.8729L58.7767 89.4347L54.8403 94.8892L54.2682 95.6818H55.2457H63.1187H64.0961L63.5241 94.8892L59.5876 89.4347Z"
			fill="url(#paint0_linear)" stroke="url(#paint1_linear)" />
		<path
			d="M58.7748 89.0082L59.1852 89.5818L59.5906 89.0047C60.5495 87.6398 61.5907 86.1956 62.6731 84.6942C65.5209 80.7439 68.6537 76.3984 71.3214 72.0638C74.9935 66.0971 77.8633 60.0323 77.8633 54.928C77.8633 44.744 69.4925 36.5001 59.1815 36.5001C48.8704 36.5001 40.4996 44.744 40.4996 54.928C40.4996 60.0297 43.2577 65.985 46.8776 71.9017C49.6748 76.4737 53.0282 81.0857 56.1141 85.3298C57.0319 86.592 57.926 87.8218 58.7748 89.0082Z"
			fill="url(#paint2_linear)" stroke="url(#paint3_linear)" />
		<g clip-path="url(#clip0)">
			<path
				d="M54.0139 52.2072C53.8741 52.0423 53.7019 51.9597 53.497 51.9597H49.3072C49.27 51.9597 49.2395 51.9476 49.2166 51.9233C49.1933 51.8995 49.1816 51.8724 49.1816 51.8435V48.9344C49.1816 48.9054 49.1933 48.8788 49.2166 48.8545C49.2395 48.8303 49.27 48.8181 49.3072 48.8181H53.7346C54.8518 48.8181 55.8156 49.2887 56.6257 50.229L57.7011 51.5816L55.6062 54.2143L54.0139 52.2072ZM61.7515 50.2145C62.5616 49.2836 63.5299 48.8181 64.6565 48.8181H69.07C69.1072 48.8181 69.135 48.8279 69.1538 48.8471C69.1722 48.8667 69.1816 48.8956 69.1816 48.9344V51.8435C69.1816 51.8724 69.1722 51.8995 69.1538 51.9233C69.135 51.9476 69.1072 51.9597 69.07 51.9597H64.8802C64.6753 51.9597 64.5031 52.0423 64.3633 52.2072L61.2767 56.0762L64.3772 59.9741C64.517 60.1295 64.6843 60.2071 64.8802 60.2071H69.07C69.1072 60.2071 69.135 60.2192 69.1538 60.2435C69.1722 60.2677 69.1816 60.2995 69.1816 60.3378V63.2469C69.1816 63.2759 69.1722 63.3029 69.1538 63.3268C69.135 63.351 69.1072 63.3632 69.07 63.3632H64.6565C63.5299 63.3632 62.5661 62.893 61.7654 61.9523L59.1957 58.7234L56.6257 61.9523C55.8156 62.893 54.8473 63.3632 53.7207 63.3632H49.3072C49.27 63.3632 49.2418 63.351 49.2234 63.3268C49.2046 63.3025 49.1955 63.2712 49.1955 63.232V60.3229C49.1955 60.294 49.2046 60.2673 49.2234 60.2431C49.2418 60.2188 49.27 60.2067 49.3072 60.2067H53.497C53.6925 60.2067 53.8647 60.1245 54.0139 59.9593L57.0444 56.1486L61.7515 50.2145Z"
				fill="#00D1FF" />
		</g>
	</g>
	<defs>
		<filter id="filter0_d" x="0" y="0" width="118.364" height="140.182" filterUnits="userSpaceOnUse"
			color-interpolation-filters="sRGB">
			<feFlood flood-opacity="0" result="BackgroundImageFix" />
			<feColorMatrix in="SourceAlpha" type="matrix" values="0 0 0 0 0 0 0 0 0 0 0 0 0 0 0 0 0 0 127 0" />
			<feOffset dy="4" />
			<feGaussianBlur stdDeviation="20" />
			<feColorMatrix type="matrix" values="0 0 0 0 0.735467 0 0 0 0 0.727222 0 0 0 0 0.933333 0 0 0 0.25 0" />
			<feBlend mode="normal" in2="BackgroundImageFix" result="effect1_dropShadow" />
			<feBlend mode="normal" in="SourceGraphic" in2="effect1_dropShadow" result="shape" />
		</filter>
		<linearGradient id="paint0_linear" x1="59.1822" y1="94.8182" x2="59.1822" y2="89" gradientUnits="userSpaceOnUse">
			<stop stop-color="#695BFF" />
			<stop offset="1" stop-color="#5D2CEE" />
		</linearGradient>
		<linearGradient id="paint1_linear" x1="59.1822" y1="89.7273" x2="59.1822" y2="97" gradientUnits="userSpaceOnUse">
			<stop stop-color="#553EFF" />
			<stop offset="1" stop-color="#01D1FF" />
		</linearGradient>
		<linearGradient id="paint2_linear" x1="59.1815" y1="37.0001" x2="59.1815" y2="88.8183"
			gradientUnits="userSpaceOnUse">
			<stop stop-color="#725BFF" />
			<stop offset="1" stop-color="#A839FF" />
		</linearGradient>
		<linearGradient id="paint3_linear" x1="59.1815" y1="37.0001" x2="59.1815" y2="94.2728"
			gradientUnits="userSpaceOnUse">
			<stop stop-color="#00D1FF" />
			<stop offset="1" stop-color="#5E2CFF" />
			<stop offset="1" stop-color="#3D00FF" />
		</linearGradient>
		<clipPath id="clip0">
			<rect width="20" height="14.5455" fill="white" transform="translate(49.1816 48.8181)" />
		</clipPath>
	</defs>
</svg>
