<svg width="164" height="164" viewBox="0 0 164 164" fill="none" xmlns="http://www.w3.org/2000/svg">
<g filter="url(#filter0_d)">
<path d="M106.091 90.7021V97.92C106.091 99.5021 104.908 100.989 102.811 102.297C102.513 102.477 102.196 102.666 101.849 102.837C101.849 102.837 101.84 102.837 101.84 102.846C101.541 103.007 101.224 103.159 100.888 103.32C99.7619 103.841 98.4637 104.324 97.0398 104.75C96.7231 104.845 96.4054 104.939 96.0783 105.034H96.0688C95.7606 105.119 95.4438 105.205 95.1167 105.29C93.8455 105.61 92.5617 105.878 91.2687 106.096C90.9519 106.152 90.6342 106.21 90.3071 106.257H90.2985C89.9799 106.304 89.6726 106.36 89.3455 106.399C88.105 106.578 86.8258 106.721 85.4983 106.834C85.1807 106.862 84.8639 106.891 84.5367 106.911H84.5273C82.9302 107.03 81.3295 107.097 79.728 107.11C79.4095 107.118 79.0927 107.118 78.7655 107.118H78.7561C78.4289 107.118 78.1207 107.118 77.8039 107.109C76.1989 107.096 74.5948 107.03 72.9943 106.91H72.9857C72.6586 106.891 72.3504 106.862 72.0327 106.834C70.7463 106.726 69.4633 106.581 68.1856 106.399C67.8584 106.36 67.5408 106.304 67.224 106.256H67.2145C66.8874 106.21 66.5792 106.152 66.2615 106.095C64.9687 105.877 63.6853 105.609 62.4144 105.29C62.0872 105.205 61.7601 105.12 61.4528 105.035H61.4433C61.1162 104.939 60.808 104.845 60.4912 104.75C59.0673 104.324 57.7692 103.841 56.6432 103.32C56.3159 103.172 55.9951 103.011 55.6816 102.837C55.6816 102.837 55.673 102.837 55.673 102.827C55.3355 102.666 55.0187 102.487 54.72 102.297C52.623 100.999 51.4307 99.5021 51.4307 97.92V90.7021H106.091V90.7021Z" fill="#10BA97"/>
<path d="M106.091 90.7021C106.091 92.2842 104.908 93.7714 102.811 95.0601C102.504 95.2585 102.186 95.4476 101.84 95.618C101.541 95.7885 101.224 95.9402 100.888 96.1013C99.7619 96.6228 98.4637 97.0959 97.0398 97.5317C96.7231 97.6266 96.4054 97.7216 96.0783 97.8157H96.0688C95.7606 97.9013 95.4438 97.987 95.1167 98.0718C93.8455 98.3909 92.5618 98.6596 91.2687 98.8772C90.9519 98.934 90.6342 98.9909 90.3071 99.0383H90.2985C89.9799 99.0858 89.6726 99.1426 89.3455 99.1799C88.105 99.3605 86.8258 99.5021 85.4983 99.6157C85.1807 99.6446 84.8639 99.6725 84.5367 99.692H84.5273C82.9302 99.8117 81.3296 99.8781 79.728 99.8913C79.4095 99.8998 79.0927 99.8998 78.7655 99.8998H78.7561C78.4289 99.8998 78.1216 99.8998 77.8039 99.8913C76.1989 99.8784 74.5948 99.8119 72.9943 99.692H72.9857C72.6586 99.6725 72.3504 99.6446 72.0327 99.6157C70.7463 99.508 69.4633 99.3627 68.1856 99.1799C67.8584 99.1426 67.5408 99.0858 67.224 99.0383H67.2145C66.8874 98.9909 66.5792 98.934 66.2615 98.8772C64.9687 98.6596 63.6853 98.3909 62.4144 98.0718C62.0872 97.987 61.7601 97.9013 61.4528 97.8157H61.4433C61.1162 97.7216 60.808 97.6266 60.4912 97.5317C59.0673 97.1052 57.7692 96.6228 56.6432 96.1013C56.3074 95.9496 55.9889 95.7885 55.6816 95.618C55.6816 95.618 55.673 95.618 55.673 95.6096C55.3355 95.4485 55.0187 95.2679 54.72 95.078C52.623 93.7807 51.4307 92.2842 51.4307 90.7021C51.4307 85.6243 63.6747 81.5028 78.7655 81.5028C93.8564 81.5028 106.091 85.6243 106.091 90.7021Z" fill="#21D8B3"/>
<path d="M78.6805 97.3299C78.4085 97.3299 78.1502 97.3299 77.8842 97.3214C76.3316 97.3085 74.7797 97.2451 73.2313 97.1315L73.1134 97.1213H73.0651C72.8181 97.106 72.5813 97.084 72.3403 97.062C71.0783 96.9575 69.8198 96.8161 68.5663 96.638C68.3072 96.6058 68.1255 96.5761 67.9448 96.5482L67.4145 96.4676C67.2225 96.4371 66.7292 96.3481 66.7292 96.3481C65.4953 96.1413 64.2704 95.8851 63.0577 95.5799C62.7675 95.5053 62.4551 95.423 62.1606 95.3425L61.2455 95.0712C60.2381 94.7739 59.2488 94.42 58.2825 94.0113V94.0003L56.8276 93.3034L56.3653 93.0482H56.3473C56.2764 93.0065 56.2064 92.9635 56.1372 92.9193C54.5825 91.957 54.041 91.1261 54.041 90.7021C54.041 88.3654 63.4278 84.0735 78.7658 84.0735C94.0977 84.0735 103.481 88.3654 103.481 90.7021C103.481 91.1244 102.944 91.9485 101.43 92.8786C101.186 93.0398 100.933 93.187 100.672 93.3195L100.531 93.3949C100.289 93.5331 100.029 93.6544 99.7561 93.785C98.8178 94.2199 97.6358 94.6583 96.2662 95.0771L95.3623 95.3416C95.0678 95.423 94.764 95.5053 94.4515 95.5858C93.2351 95.8911 92.0436 96.1403 90.8324 96.343C90.5656 96.3905 90.3237 96.4345 90.0809 96.4718L89.5566 96.5515C89.387 96.5787 89.2166 96.6067 89.0401 96.6279C87.8177 96.8042 86.609 96.9407 85.2721 97.0552C84.9949 97.0806 84.7298 97.1044 84.4569 97.1213L84.2908 97.1315C82.7659 97.2445 81.2376 97.3076 79.7084 97.3206C79.383 97.329 79.1101 97.3299 78.8338 97.3299H78.6805Z" fill="url(#paint0_linear)"/>
<path d="M56.6437 96.1013V103.32C56.3162 103.172 55.9951 103.011 55.6813 102.837C55.6813 102.837 55.6727 102.837 55.6727 102.827C55.3352 102.666 55.0184 102.487 54.7197 102.297V95.078C55.0176 95.2679 55.3352 95.4476 55.6718 95.6087C55.6718 95.618 55.6813 95.618 55.6813 95.618C55.9895 95.7885 56.3072 95.9496 56.6437 96.1013Z" fill="#29AA8F"/>
<path d="M62.4152 98.0718V105.29C62.0881 105.206 61.761 105.12 61.4528 105.034H61.4433C61.1162 104.939 60.808 104.845 60.4912 104.75V97.5317C60.808 97.6266 61.1162 97.7216 61.4433 97.8157H61.4528C61.761 97.9013 62.0872 97.987 62.4144 98.0718H62.4152Z" fill="#29AA8F"/>
<path d="M68.1857 99.1799V106.399C67.8586 106.36 67.541 106.304 67.2242 106.256H67.2147C66.8876 106.21 66.5794 106.152 66.2617 106.095V98.8772C66.5802 98.934 66.8876 98.9909 67.2147 99.0383H67.2233C67.5418 99.0858 67.8586 99.1426 68.1857 99.1799Z" fill="#29AA8F"/>
<path d="M73.9572 99.7582V106.977C73.6301 106.957 73.3124 106.939 72.9948 106.91H72.9862C72.659 106.891 72.3509 106.862 72.0332 106.834V99.6157C72.3509 99.6446 72.6582 99.6725 72.9853 99.692H72.9948C73.3133 99.72 73.6301 99.7387 73.9572 99.7582Z" fill="#29AA8F"/>
<path d="M79.7269 99.8904V107.109C79.4101 107.118 79.0924 107.118 78.7653 107.118H78.7558C78.4287 107.118 78.1205 107.118 77.8037 107.109V99.8904C78.1214 99.8998 78.4287 99.8998 78.7558 99.8998H78.7653C79.0924 99.8998 79.4101 99.8998 79.7269 99.8913V99.8904Z" fill="#29AA8F"/>
<path d="M85.4982 99.6157V106.834C85.1806 106.862 84.8638 106.891 84.5367 106.911H84.5272C84.2087 106.939 83.9013 106.957 83.5742 106.977V99.7582C83.9013 99.7387 84.2095 99.72 84.5272 99.692H84.5358C84.8629 99.6725 85.1814 99.6446 85.4982 99.6157Z" fill="#29AA8F"/>
<path d="M91.7866 98.8772V106.095C91.4002 106.152 91.0138 106.21 90.6159 106.256H90.6054C90.218 106.304 89.8442 106.36 89.4463 106.399V99.1799C89.8442 99.1426 90.2191 99.0858 90.6044 99.0383H90.6159C91.0138 98.9909 91.4002 98.934 91.7866 98.8772V98.8772Z" fill="#29AA8F"/>
<path d="M97.5023 97.5317V104.75C97.117 104.845 96.7306 104.939 96.3327 105.034H96.3212C95.9463 105.119 95.561 105.205 95.1631 105.29V98.0718C95.561 97.987 95.9463 97.9013 96.3212 97.8157H96.3327C96.7306 97.7216 97.117 97.6266 97.5023 97.5317V97.5317Z" fill="#29AA8F"/>
<path d="M102.811 95.0593V102.297C102.513 102.477 102.195 102.666 101.849 102.837C101.849 102.837 101.84 102.837 101.84 102.846C101.541 103.007 101.224 103.159 100.888 103.32V96.1005C101.223 95.9394 101.542 95.7876 101.84 95.6172C102.186 95.4476 102.503 95.2577 102.811 95.0585V95.0593Z" fill="#29AA8F"/>
<path d="M113.091 77.7021V84.92C113.091 86.5021 111.908 87.9893 109.811 89.2967C109.513 89.4773 109.196 89.6663 108.849 89.8368C108.849 89.8368 108.84 89.8368 108.84 89.8461C108.541 90.0072 108.224 90.159 107.888 90.3201C106.762 90.8406 105.464 91.3239 104.04 91.7504C103.723 91.8454 103.405 91.9395 103.078 92.0344H103.069C102.761 92.1192 102.444 92.2049 102.117 92.2905C100.845 92.6095 99.5617 92.8783 98.2687 93.096C97.9519 93.1519 97.6342 93.2096 97.3071 93.2571H97.2985C96.9799 93.3037 96.6726 93.3605 96.3455 93.3987C95.105 93.5784 93.8258 93.7208 92.4983 93.8345C92.1807 93.8624 91.8639 93.8913 91.5367 93.9108H91.5273C89.9302 94.0301 88.3295 94.0966 86.728 94.11C86.4095 94.1185 86.0927 94.1185 85.7655 94.1185H85.7561C85.4289 94.1185 85.1207 94.1185 84.8039 94.1092C83.1989 94.096 81.5948 94.0295 79.9943 93.9099H79.9857C79.6586 93.8913 79.3504 93.8624 79.0327 93.8336C77.7463 93.7263 76.4633 93.5812 75.1856 93.3987C74.8584 93.3605 74.5408 93.3037 74.224 93.2562H74.2145C73.8874 93.2096 73.5792 93.1519 73.2615 93.0951C71.9687 92.8774 70.6853 92.6087 69.4144 92.2896C69.0872 92.2049 68.7601 92.1201 68.4528 92.0353H68.4433C68.1162 91.9395 67.808 91.8454 67.4912 91.7504C66.0673 91.3239 64.7692 90.8406 63.6432 90.3201C63.3159 90.1724 62.9951 90.0111 62.6816 89.8368C62.6816 89.8368 62.673 89.8368 62.673 89.8274C62.3355 89.6663 62.0187 89.4866 61.72 89.2967C59.623 87.9994 58.4307 86.5021 58.4307 84.92V77.7021H113.091V77.7021Z" fill="#10BA97"/>
<path d="M113.091 77.7021C113.091 79.2842 111.908 80.7714 109.811 82.0601C109.504 82.2585 109.186 82.4476 108.84 82.618C108.541 82.7885 108.224 82.9402 107.888 83.1013C106.762 83.6228 105.464 84.0959 104.04 84.5317C103.723 84.6266 103.405 84.7216 103.078 84.8157H103.069C102.761 84.9013 102.444 84.987 102.117 85.0718C100.845 85.3909 99.5618 85.6596 98.2687 85.8772C97.9519 85.934 97.6342 85.9909 97.3071 86.0383H97.2985C96.9799 86.0858 96.6726 86.1426 96.3455 86.1799C95.105 86.3605 93.8258 86.5021 92.4983 86.6157C92.1807 86.6446 91.8639 86.6725 91.5367 86.692H91.5273C89.9302 86.8117 88.3296 86.8781 86.728 86.8913C86.4095 86.8998 86.0927 86.8998 85.7655 86.8998H85.7561C85.4289 86.8998 85.1216 86.8998 84.8039 86.8913C83.1989 86.8784 81.5948 86.8119 79.9943 86.692H79.9857C79.6586 86.6725 79.3504 86.6446 79.0327 86.6157C77.7463 86.508 76.4633 86.3627 75.1856 86.1799C74.8584 86.1426 74.5408 86.0858 74.224 86.0383H74.2145C73.8874 85.9909 73.5792 85.934 73.2615 85.8772C71.9687 85.6596 70.6853 85.3909 69.4144 85.0718C69.0872 84.987 68.7601 84.9013 68.4528 84.8157H68.4433C68.1162 84.7216 67.808 84.6266 67.4912 84.5317C66.0673 84.1052 64.7692 83.6228 63.6432 83.1013C63.3074 82.9496 62.9889 82.7885 62.6816 82.618C62.6816 82.618 62.673 82.618 62.673 82.6096C62.3355 82.4485 62.0187 82.2679 61.72 82.078C59.623 80.7807 58.4307 79.2842 58.4307 77.7021C58.4307 72.6243 70.6747 68.5028 85.7655 68.5028C100.856 68.5028 113.091 72.6243 113.091 77.7021Z" fill="#21D8B3"/>
<path d="M85.6805 84.3299C85.4085 84.3299 85.1502 84.3299 84.8842 84.3214C83.3316 84.3085 81.7797 84.2451 80.2313 84.1315L80.1134 84.1213H80.0651C79.8181 84.106 79.5813 84.084 79.3403 84.062C78.0783 83.9575 76.8198 83.8161 75.5663 83.638C75.3072 83.6058 75.1255 83.5761 74.9448 83.5482L74.4145 83.4676C74.2225 83.4371 73.7292 83.3481 73.7292 83.3481C72.4953 83.1413 71.2704 82.8851 70.0577 82.5799C69.7675 82.5053 69.4551 82.423 69.1606 82.3425L68.2455 82.0712C67.2381 81.7739 66.2488 81.42 65.2825 81.0113V81.0003L63.8276 80.3034L63.3653 80.0482H63.3473C63.2764 80.0065 63.2064 79.9635 63.1372 79.9193C61.5825 78.957 61.041 78.1261 61.041 77.7021C61.041 75.3654 70.4278 71.0735 85.7658 71.0735C101.098 71.0735 110.481 75.3654 110.481 77.7021C110.481 78.1244 109.944 78.9485 108.43 79.8786C108.186 80.0398 107.933 80.187 107.672 80.3195L107.531 80.3949C107.289 80.5331 107.029 80.6544 106.756 80.785C105.818 81.2199 104.636 81.6583 103.266 82.0771L102.362 82.3416C102.068 82.423 101.764 82.5053 101.451 82.5858C100.235 82.8911 99.0436 83.1403 97.8324 83.343C97.5656 83.3905 97.3237 83.4345 97.0809 83.4718L96.5566 83.5515C96.387 83.5787 96.2166 83.6067 96.0401 83.6279C94.8177 83.8042 93.609 83.9407 92.2721 84.0552C91.9949 84.0806 91.7298 84.1044 91.4569 84.1213L91.2908 84.1315C89.7659 84.2445 88.2376 84.3076 86.7084 84.3206C86.383 84.329 86.1101 84.3299 85.8338 84.3299H85.6805Z" fill="url(#paint1_linear)"/>
<path d="M63.6437 83.1013V90.3201C63.3162 90.1724 62.9951 90.0111 62.6813 89.8368C62.6813 89.8368 62.6727 89.8368 62.6727 89.8274C62.3352 89.6663 62.0184 89.4866 61.7197 89.2967V82.078C62.0176 82.2679 62.3352 82.4476 62.6718 82.6087C62.6718 82.618 62.6813 82.618 62.6813 82.618C62.9895 82.7885 63.3072 82.9496 63.6437 83.1013Z" fill="#29AA8F"/>
<path d="M69.4152 85.0718V92.2905C69.0881 92.2057 68.761 92.1201 68.4528 92.0344H68.4433C68.1162 91.9395 67.808 91.8454 67.4912 91.7504V84.5317C67.808 84.6266 68.1162 84.7216 68.4433 84.8157H68.4528C68.761 84.9013 69.0872 84.987 69.4144 85.0718H69.4152Z" fill="#29AA8F"/>
<path d="M75.1857 86.1799V93.3986C74.8586 93.3605 74.541 93.3037 74.2242 93.2562H74.2147C73.8876 93.2096 73.5794 93.1519 73.2617 93.0951V85.8772C73.5802 85.934 73.8876 85.9909 74.2147 86.0383H74.2233C74.5418 86.0858 74.8586 86.1426 75.1857 86.1799Z" fill="#29AA8F"/>
<path d="M80.9572 86.7582V93.9769C80.6301 93.9574 80.3124 93.9387 79.9948 93.9099H79.9862C79.659 93.8913 79.3509 93.8624 79.0332 93.8336V86.6157C79.3509 86.6446 79.6582 86.6725 79.9853 86.692H79.9948C80.3133 86.72 80.6301 86.7387 80.9572 86.7582Z" fill="#29AA8F"/>
<path d="M86.7269 86.8904V94.1092C86.4101 94.1185 86.0924 94.1185 85.7653 94.1185H85.7558C85.4287 94.1185 85.1205 94.1185 84.8037 94.1092V86.8904C85.1214 86.8998 85.4287 86.8998 85.7558 86.8998H85.7653C86.0924 86.8998 86.4101 86.8998 86.7269 86.8913V86.8904Z" fill="#29AA8F"/>
<path d="M92.4982 86.6157V93.8345C92.1806 93.8624 91.8638 93.8913 91.5367 93.9108H91.5272C91.2087 93.9387 90.9013 93.9574 90.5742 93.9769V86.7582C90.9013 86.7387 91.2095 86.72 91.5272 86.692H91.5358C91.8629 86.6725 92.1814 86.6446 92.4982 86.6157Z" fill="#29AA8F"/>
<path d="M98.7866 85.8772V93.0951C98.4002 93.1519 98.0138 93.2096 97.6159 93.2562H97.6054C97.218 93.3037 96.8442 93.3605 96.4463 93.3987V86.1799C96.8442 86.1426 97.2191 86.0858 97.6044 86.0383H97.6159C98.0138 85.9909 98.4002 85.934 98.7866 85.8772V85.8772Z" fill="#29AA8F"/>
<path d="M104.502 84.5317V91.7504C104.117 91.8454 103.731 91.9395 103.333 92.0344H103.321C102.946 92.1192 102.561 92.2049 102.163 92.2905V85.0718C102.561 84.987 102.946 84.9013 103.321 84.8157H103.333C103.731 84.7216 104.117 84.6266 104.502 84.5317V84.5317Z" fill="#29AA8F"/>
<path d="M109.811 82.0593V89.2967C109.513 89.4773 109.195 89.6663 108.849 89.8368C108.849 89.8368 108.84 89.8368 108.84 89.8461C108.541 90.0072 108.224 90.159 107.888 90.3201V83.1005C108.223 82.9394 108.542 82.7876 108.84 82.6172C109.186 82.4476 109.503 82.2577 109.811 82.0585V82.0593Z" fill="#29AA8F"/>
<path d="M107.091 62.7021V69.92C107.091 71.5021 105.908 72.9893 103.811 74.2967C103.513 74.4773 103.196 74.6663 102.849 74.8368C102.849 74.8368 102.84 74.8368 102.84 74.8461C102.541 75.0072 102.224 75.159 101.888 75.3201C100.762 75.8406 99.4637 76.3239 98.0398 76.7504C97.7231 76.8454 97.4054 76.9395 97.0783 77.0344H97.0688C96.7606 77.1192 96.4438 77.2049 96.1167 77.2905C94.8455 77.6095 93.5617 77.8782 92.2687 78.096C91.9519 78.1519 91.6342 78.2096 91.3071 78.2571H91.2985C90.9799 78.3037 90.6726 78.3605 90.3455 78.3987C89.105 78.5784 87.8258 78.7208 86.4983 78.8345C86.1807 78.8624 85.8639 78.8913 85.5367 78.9108H85.5273C83.9302 79.0301 82.3295 79.0966 80.728 79.11C80.4095 79.1185 80.0927 79.1185 79.7655 79.1185H79.7561C79.4289 79.1185 79.1207 79.1185 78.8039 79.1092C77.1989 79.096 75.5948 79.0295 73.9943 78.9099H73.9857C73.6586 78.8913 73.3504 78.8624 73.0327 78.8336C71.7463 78.7263 70.4633 78.5812 69.1856 78.3987C68.8584 78.3605 68.5408 78.3037 68.224 78.2562H68.2145C67.8874 78.2096 67.5792 78.1519 67.2615 78.0951C65.9687 77.8774 64.6853 77.6087 63.4144 77.2896C63.0872 77.2049 62.7601 77.1201 62.4528 77.0353H62.4433C62.1162 76.9395 61.808 76.8454 61.4912 76.7504C60.0673 76.3239 58.7692 75.8406 57.6432 75.3201C57.3159 75.1724 56.9951 75.0111 56.6816 74.8368C56.6816 74.8368 56.673 74.8368 56.673 74.8274C56.3355 74.6663 56.0187 74.4866 55.72 74.2967C53.623 72.9994 52.4307 71.5021 52.4307 69.92V62.7021H107.091V62.7021Z" fill="#10BA97"/>
<path d="M107.091 62.7021C107.091 64.2842 105.908 65.7714 103.811 67.0601C103.504 67.2585 103.186 67.4476 102.84 67.618C102.541 67.7885 102.224 67.9402 101.888 68.1013C100.762 68.6228 99.4637 69.0959 98.0398 69.5317C97.7231 69.6266 97.4054 69.7216 97.0783 69.8157H97.0688C96.7606 69.9013 96.4438 69.987 96.1167 70.0718C94.8455 70.3909 93.5618 70.6596 92.2687 70.8772C91.9519 70.934 91.6342 70.9909 91.3071 71.0383H91.2985C90.9799 71.0858 90.6726 71.1426 90.3455 71.1799C89.105 71.3605 87.8258 71.5021 86.4983 71.6157C86.1807 71.6446 85.8639 71.6725 85.5367 71.692H85.5273C83.9302 71.8117 82.3296 71.8781 80.728 71.8913C80.4095 71.8998 80.0927 71.8998 79.7655 71.8998H79.7561C79.4289 71.8998 79.1216 71.8998 78.8039 71.8913C77.1989 71.8784 75.5948 71.8119 73.9943 71.692H73.9857C73.6586 71.6725 73.3504 71.6446 73.0327 71.6157C71.7463 71.508 70.4633 71.3627 69.1856 71.1799C68.8584 71.1426 68.5408 71.0858 68.224 71.0383H68.2145C67.8874 70.9909 67.5792 70.934 67.2615 70.8772C65.9687 70.6596 64.6853 70.3909 63.4144 70.0718C63.0872 69.987 62.7601 69.9013 62.4528 69.8157H62.4433C62.1162 69.7216 61.808 69.6266 61.4912 69.5317C60.0673 69.1052 58.7692 68.6228 57.6432 68.1013C57.3074 67.9496 56.9889 67.7885 56.6816 67.618C56.6816 67.618 56.673 67.618 56.673 67.6096C56.3355 67.4485 56.0187 67.2679 55.72 67.078C53.623 65.7807 52.4307 64.2842 52.4307 62.7021C52.4307 57.6243 64.6747 53.5028 79.7655 53.5028C94.8564 53.5028 107.091 57.6243 107.091 62.7021Z" fill="#21D8B3"/>
<path d="M79.6805 69.3299C79.4085 69.3299 79.1502 69.3299 78.8842 69.3214C77.3316 69.3085 75.7797 69.2451 74.2313 69.1315L74.1134 69.1213H74.0651C73.8181 69.106 73.5813 69.084 73.3403 69.062C72.0783 68.9575 70.8198 68.8161 69.5663 68.638C69.3072 68.6058 69.1255 68.5761 68.9448 68.5482L68.4145 68.4676C68.2225 68.4371 67.7292 68.3481 67.7292 68.3481C66.4953 68.1413 65.2704 67.8851 64.0577 67.5799C63.7675 67.5053 63.4551 67.423 63.1606 67.3425L62.2455 67.0712C61.2381 66.7739 60.2488 66.42 59.2825 66.0113V66.0003L57.8276 65.3034L57.3653 65.0482H57.3473C57.2764 65.0065 57.2064 64.9635 57.1372 64.9193C55.5825 63.957 55.041 63.1261 55.041 62.7021C55.041 60.3654 64.4278 56.0735 79.7658 56.0735C95.0977 56.0735 104.481 60.3654 104.481 62.7021C104.481 63.1244 103.944 63.9485 102.43 64.8786C102.186 65.0398 101.933 65.187 101.672 65.3195L101.531 65.3949C101.289 65.5331 101.029 65.6544 100.756 65.785C99.8178 66.2199 98.6358 66.6583 97.2662 67.0771L96.3623 67.3416C96.0678 67.423 95.764 67.5053 95.4515 67.5858C94.2351 67.8911 93.0436 68.1403 91.8324 68.343C91.5656 68.3905 91.3237 68.4345 91.0809 68.4718L90.5566 68.5515C90.387 68.5787 90.2166 68.6067 90.0401 68.6279C88.8177 68.8042 87.609 68.9407 86.2721 69.0552C85.9949 69.0806 85.7298 69.1044 85.4569 69.1213L85.2908 69.1315C83.7659 69.2445 82.2376 69.3076 80.7084 69.3206C80.383 69.329 80.1101 69.3299 79.8338 69.3299H79.6805Z" fill="url(#paint2_linear)"/>
<path d="M57.6437 68.1013V75.3201C57.3162 75.1724 56.9951 75.0111 56.6813 74.8368C56.6813 74.8368 56.6727 74.8368 56.6727 74.8274C56.3352 74.6663 56.0184 74.4866 55.7197 74.2967V67.078C56.0176 67.2679 56.3352 67.4476 56.6718 67.6087C56.6718 67.618 56.6813 67.618 56.6813 67.618C56.9895 67.7885 57.3072 67.9496 57.6437 68.1013Z" fill="#29AA8F"/>
<path d="M63.4152 70.0718V77.2905C63.0881 77.2057 62.761 77.1201 62.4528 77.0344H62.4433C62.1162 76.9395 61.808 76.8454 61.4912 76.7504V69.5317C61.808 69.6266 62.1162 69.7216 62.4433 69.8157H62.4528C62.761 69.9013 63.0872 69.987 63.4144 70.0718H63.4152Z" fill="#29AA8F"/>
<path d="M69.1857 71.1799V78.3986C68.8586 78.3605 68.541 78.3037 68.2242 78.2562H68.2147C67.8876 78.2096 67.5794 78.1519 67.2617 78.0951V70.8772C67.5802 70.934 67.8876 70.9909 68.2147 71.0383H68.2233C68.5418 71.0858 68.8586 71.1426 69.1857 71.1799Z" fill="#29AA8F"/>
<path d="M74.9572 71.7582V78.9769C74.6301 78.9574 74.3124 78.9387 73.9948 78.9099H73.9862C73.659 78.8913 73.3509 78.8624 73.0332 78.8336V71.6157C73.3509 71.6446 73.6582 71.6725 73.9853 71.692H73.9948C74.3133 71.72 74.6301 71.7387 74.9572 71.7582Z" fill="#29AA8F"/>
<path d="M80.7269 71.8904V79.1092C80.4101 79.1185 80.0924 79.1185 79.7653 79.1185H79.7558C79.4287 79.1185 79.1205 79.1185 78.8037 79.1092V71.8904C79.1214 71.8998 79.4287 71.8998 79.7558 71.8998H79.7653C80.0924 71.8998 80.4101 71.8998 80.7269 71.8913V71.8904Z" fill="#29AA8F"/>
<path d="M86.4982 71.6157V78.8345C86.1806 78.8624 85.8638 78.8913 85.5367 78.9108H85.5272C85.2087 78.9387 84.9013 78.9574 84.5742 78.9769V71.7582C84.9013 71.7387 85.2095 71.72 85.5272 71.692H85.5358C85.8629 71.6725 86.1814 71.6446 86.4982 71.6157Z" fill="#29AA8F"/>
<path d="M92.7866 70.8772V78.0951C92.4002 78.1519 92.0138 78.2096 91.6159 78.2562H91.6054C91.218 78.3037 90.8442 78.3605 90.4463 78.3987V71.1799C90.8442 71.1426 91.2191 71.0858 91.6044 71.0383H91.6159C92.0138 70.9909 92.4002 70.934 92.7866 70.8772V70.8772Z" fill="#29AA8F"/>
<path d="M98.5023 69.5317V76.7504C98.117 76.8454 97.7306 76.9395 97.3327 77.0344H97.3212C96.9463 77.1192 96.561 77.2049 96.1631 77.2905V70.0718C96.561 69.987 96.9463 69.9013 97.3212 69.8157H97.3327C97.7306 69.7216 98.117 69.6266 98.5023 69.5317V69.5317Z" fill="#29AA8F"/>
<path d="M103.811 67.0593V74.2967C103.513 74.4773 103.195 74.6663 102.849 74.8368C102.849 74.8368 102.84 74.8368 102.84 74.8461C102.541 75.0072 102.224 75.159 101.888 75.3201V68.1005C102.223 67.9394 102.542 67.7876 102.84 67.6172C103.186 67.4476 103.503 67.2577 103.811 67.0585V67.0593Z" fill="#29AA8F"/>
</g>
<defs>
<filter id="filter0_d" x="0" y="0" width="164" height="164" filterUnits="userSpaceOnUse" color-interpolation-filters="sRGB">
<feFlood flood-opacity="0" result="BackgroundImageFix"/>
<feColorMatrix in="SourceAlpha" type="matrix" values="0 0 0 0 0 0 0 0 0 0 0 0 0 0 0 0 0 0 127 0"/>
<feOffset/>
<feGaussianBlur stdDeviation="25"/>
<feColorMatrix type="matrix" values="0 0 0 0 0.686275 0 0 0 0 0.94902 0 0 0 0 0.419608 0 0 0 0.2 0"/>
<feBlend mode="normal" in2="BackgroundImageFix" result="effect1_dropShadow"/>
<feBlend mode="normal" in="SourceGraphic" in2="effect1_dropShadow" result="shape"/>
</filter>
<linearGradient id="paint0_linear" x1="81.7813" y1="97.3299" x2="81.3957" y2="84.082" gradientUnits="userSpaceOnUse">
<stop stop-color="#00E2DF"/>
<stop offset="1" stop-color="#BFF360"/>
</linearGradient>
<linearGradient id="paint1_linear" x1="88.7813" y1="84.3299" x2="88.3957" y2="71.082" gradientUnits="userSpaceOnUse">
<stop stop-color="#00E2DF"/>
<stop offset="1" stop-color="#BFF360"/>
</linearGradient>
<linearGradient id="paint2_linear" x1="82.7813" y1="69.3299" x2="82.3957" y2="56.082" gradientUnits="userSpaceOnUse">
<stop stop-color="#00E2DF"/>
<stop offset="1" stop-color="#BFF360"/>
</linearGradient>
</defs>
</svg>
