<?xml version="1.0" encoding="UTF-8"?>
<svg width="51px" height="56px" viewBox="0 0 51 56" version="1.1" xmlns="http://www.w3.org/2000/svg" xmlns:xlink="http://www.w3.org/1999/xlink">
    <!-- Generator: Sketch 56.3 (81716) - https://sketch.com -->
    <title>icon</title>
    <desc>Created with Sketch.</desc>
    <g id="buttons" stroke="none" stroke-width="1" fill="none" fill-rule="evenodd">
        <g id="atoms-/-button-/-lightMode-/-process-/-home-/-large-/-default" transform="translate(-143.000000, -74.000000)">
            <g id="atoms-/-icon-/-64px-/-thick-/-mint" transform="translate(136.000000, 70.000000)">
                <g id="atoms-/-spacing-/-boundingBox">
                    <rect id="boundingBox" x="0" y="0" width="64" height="64"></rect>
                </g>
                <g id="🎨-icon-colour" stroke-width="1" fill-rule="evenodd" transform="translate(7.000000, 4.000000)" fill="#10BA97">
                    <path d="M15,16 C23.1542889,16 30,12.840441 30,8 C30,3.15955898 23.1542889,0 15,0 C6.84571111,0 0,3.15955898 0,8 C0,12.840441 6.84571111,16 15,16 Z M15,12 C8.79488539,12 4,9.78697597 4,8 C4,6.21302403 8.79488539,4 15,4 C21.2051146,4 26,6.21302403 26,8 C26,9.78697597 21.2051146,12 15,12 Z" id="Oval"></path>
                    <path d="M26,8 L26,16.1666667 C26,16.7711292 25.155638,17.6668566 23.3735119,18.4665688 C21.2246152,19.4308657 18.2262902,20 15,20 C11.7737098,20 8.77538476,19.4308657 6.62648815,18.4665688 C4.84436198,17.6668566 4,16.7711292 4,16.1666667 L4,8 C4,6.8954305 3.1045695,6 2,6 C0.8954305,6 0,6.8954305 0,8 L0,16.1666667 C0,20.930437 6.8403968,24 15,24 C23.1596032,24 30,20.930437 30,16.1666667 L30,8 C30,6.8954305 29.1045695,6 28,6 C26.8954305,6 26,6.8954305 26,8 Z" id="Shape"></path>
                    <path d="M22.2971059,26.7940845 C20.249062,27.5629085 17.6245669,28 14.8333333,28 C8.72376976,28 4,25.8527241 4,24.1666667 L4,16 C4,14.8954305 3.1045695,14 2,14 C0.8954305,14 -3.55271368e-15,14.8954305 -3.55271368e-15,16 L-3.55271368e-15,24.1666667 C-3.55271368e-15,28.9232356 6.76854156,32 14.8333333,32 C18.0867044,32 21.1855665,31.483906 23.7028941,30.5389155 C24.7370007,30.1507178 25.2606132,28.9977124 24.8724155,27.9636059 C24.4842178,26.9294993 23.3312124,26.4058868 22.2971059,26.7940845 Z" id="Shape"></path>
                    <path d="M22.296816,34.7941933 C20.2501208,35.5628726 17.6255419,36 14.8340463,36 C8.72410053,36 4,33.852693 4,32.1666667 L4,24 C4,22.8954305 3.1045695,22 2,22 C0.8954305,22 -3.55271368e-15,22.8954305 -3.55271368e-15,24 L-3.55271368e-15,32.1666667 C-3.55271368e-15,36.9232667 6.76884929,40 14.8340463,40 C18.0878097,40 21.1869373,39.4838358 23.703184,38.5388067 C24.7372304,38.1504489 25.2606645,36.9973625 24.8723067,35.963316 C24.4839489,34.9292696 23.3308625,34.4058355 22.296816,34.7941933 Z" id="Shape"></path>
                    <path d="M22.2971059,43.7940845 C20.249062,44.5629085 17.6245669,45 14.8333333,45 C8.72376976,45 4,42.8527241 4,41.1666667 L4,33 C4,31.8954305 3.1045695,31 2,31 C0.8954305,31 8.8817842e-15,31.8954305 8.8817842e-15,33 L8.8817842e-15,41.1666667 C8.8817842e-15,45.9232356 6.76854156,49 14.8333333,49 C18.0867044,49 21.1855665,48.483906 23.7028941,47.5389155 C24.7370007,47.1507178 25.2606132,45.9977124 24.8724155,44.9636059 C24.4842178,43.9294993 23.3312124,43.4058868 22.2971059,43.7940845 Z" id="Shape"></path>
                    <path d="M36,31 C44.1542889,31 51,27.840441 51,23 C51,18.159559 44.1542889,15 36,15 C27.8457111,15 21,18.159559 21,23 C21,27.840441 27.8457111,31 36,31 Z M36,27 C29.7948854,27 25,24.786976 25,23 C25,21.213024 29.7948854,19 36,19 C42.2051146,19 47,21.213024 47,23 C47,24.786976 42.2051146,27 36,27 Z" id="Oval"></path>
                    <path d="M47,23 L47,31.1666667 C47,31.7711292 46.155638,32.6668566 44.3735119,33.4665688 C42.2246152,34.4308657 39.2262902,35 36,35 C32.7737098,35 29.7753848,34.4308657 27.6264881,33.4665688 C25.844362,32.6668566 25,31.7711292 25,31.1666667 L25,23 C25,21.8954305 24.1045695,21 23,21 C21.8954305,21 21,21.8954305 21,23 L21,31.1666667 C21,35.930437 27.8403968,39 36,39 C44.1596032,39 51,35.930437 51,31.1666667 L51,23 C51,21.8954305 50.1045695,21 49,21 C47.8954305,21 47,21.8954305 47,23 Z" id="Shape"></path>
                    <path d="M47,31 L47,39.1666667 C47,39.7711292 46.155638,40.6668566 44.3735119,41.4665688 C42.2246152,42.4308657 39.2262902,43 36,43 C32.7737098,43 29.7753848,42.4308657 27.6264881,41.4665688 C25.844362,40.6668566 25,39.7711292 25,39.1666667 L25,31 C25,29.8954305 24.1045695,29 23,29 C21.8954305,29 21,29.8954305 21,31 L21,39.1666667 C21,43.930437 27.8403968,47 36,47 C44.1596032,47 51,43.930437 51,39.1666667 L51,31 C51,29.8954305 50.1045695,29 49,29 C47.8954305,29 47,29.8954305 47,31 Z" id="Shape"></path>
                    <path d="M47,40 L47,48.1666667 C47,48.7711292 46.155638,49.6668566 44.3735119,50.4665688 C42.2246152,51.4308657 39.2262902,52 36,52 C32.7737098,52 29.7753848,51.4308657 27.6264881,50.4665688 C25.844362,49.6668566 25,48.7711292 25,48.1666667 L25,40 C25,38.8954305 24.1045695,38 23,38 C21.8954305,38 21,38.8954305 21,40 L21,48.1666667 C21,52.930437 27.8403968,56 36,56 C44.1596032,56 51,52.930437 51,48.1666667 L51,40 C51,38.8954305 50.1045695,38 49,38 C47.8954305,38 47,38.8954305 47,40 Z" id="Shape"></path>
                </g>
            </g>
        </g>
    </g>
</svg>