<?xml version="1.0" encoding="UTF-8"?>
<svg width="64px" height="64px" viewBox="0 0 64 64" version="1.1" xmlns="http://www.w3.org/2000/svg" xmlns:xlink="http://www.w3.org/1999/xlink">
    <!-- Generator: Sketch 56.3 (81716) - https://sketch.com -->
    <title>Mint</title>
    <desc>Created with Sketch.</desc>
    <g id="Mint" stroke="none" stroke-width="1" fill="none" fill-rule="evenodd">
        <g transform="translate(0.000000, 3.000000)" id="Coin-Copy">
            <g transform="translate(0.000000, 29.767442)">
                <g id="Group">
                    <path d="M58.0419767,10.3085043 L58.0419767,17.9774982 C58.0419767,19.6584969 56.7957907,21.2385998 54.5863953,22.6277209 C54.2725814,22.8196034 53.937907,23.0204945 53.5733023,23.2015667 C53.5733023,23.2015667 53.5633256,23.2015667 53.5633256,23.2114761 C53.2486047,23.3826389 52.9148372,23.5438923 52.5602093,23.7150551 C51.3738837,24.2681812 50.0061628,24.7816695 48.5060233,25.2348005 C48.1722558,25.3356965 47.8375814,25.4356916 47.4929302,25.5365875 L47.4829535,25.5365875 C47.1582558,25.6266732 46.8244884,25.7176597 46.4798372,25.8086463 C45.1405047,26.1476389 43.7880224,26.4331397 42.4256512,26.6644602 C42.0918837,26.7239168 41.7572093,26.785175 41.4125581,26.835623 L41.4034884,26.835623 C41.067907,26.8851701 40.7441163,26.9455275 40.3994651,26.9860661 C39.0925116,27.1770477 37.7447442,27.3283917 36.346186,27.4491065 C36.0115116,27.4788348 35.6777442,27.5094639 35.333093,27.5301836 L35.3231163,27.5301836 C33.6405163,27.6570178 31.9540985,27.7276248 30.2667209,27.7418849 C29.9311395,27.7508935 29.5973721,27.7508935 29.2527209,27.7508935 L29.2427442,27.7508935 C28.898093,27.7508935 28.5733953,27.7508935 28.2396279,27.7409841 C26.5486204,27.7269665 24.8585685,27.6563593 23.1723488,27.5292827 L23.1632791,27.5292827 C22.8186279,27.5094639 22.4939302,27.4788348 22.1592558,27.4482056 C20.8038451,27.3341431 19.4521534,27.1800283 18.1059767,26.9860661 C17.7613256,26.9455275 17.4266512,26.8851701 17.0928837,26.8347222 L17.082907,26.8347222 C16.7382558,26.785175 16.4135581,26.7239168 16.0788837,26.6635594 C14.7168156,26.4322219 13.3646361,26.1467211 12.0256047,25.8077454 C11.6809535,25.7176597 11.3363023,25.6275741 11.0125116,25.5374884 L11.0025349,25.5374884 C10.6578837,25.4356916 10.333186,25.3356965 9.9994186,25.2348005 C8.49927907,24.7816695 7.13155814,24.2681812 5.94523256,23.7150551 C5.60041085,23.5581278 5.26241229,23.3868125 4.93213953,23.2015667 C4.93213953,23.2015667 4.92306977,23.2015667 4.92306977,23.1916573 C4.56753488,23.0204945 4.23376744,22.8295129 3.91904651,22.6277209 C1.70965116,21.24941 0.453488372,19.6584969 0.453488372,17.9774982 L0.453488372,10.3085043 L58.0419767,10.3085043 L58.0419767,10.3085043 Z" id="Path" fill="#10BA97" fill-rule="nonzero"></path>
                    <path d="M58.0419767,10.3085043 C58.0419767,11.9895031 56.7957907,13.5696059 54.5863953,14.9389082 C54.2626047,15.1497087 53.9279302,15.3505998 53.5633256,15.531672 C53.2486047,15.7127442 52.9148372,15.8739976 52.5602093,16.0451603 C51.3738837,16.5991873 50.0061628,17.1018654 48.5060233,17.5649058 C48.1722558,17.6658017 47.8375814,17.7666977 47.4929302,17.8666928 L47.4829535,17.8666928 C47.1582558,17.9576793 46.8244884,18.0486659 46.4798372,18.1387515 C45.1405329,18.477864 43.7880457,18.7633658 42.4256512,18.9945655 C42.0918837,19.0549229 41.7572093,19.1152803 41.4125581,19.1657283 L41.4034884,19.1657283 C41.067907,19.2161763 40.7441163,19.2765337 40.3994651,19.3161714 C39.0925116,19.5080539 37.7447442,19.6584969 36.346186,19.7792118 C36.0115116,19.8098409 35.6777442,19.8395692 35.333093,19.8602889 L35.3231163,19.8602889 C33.6405332,19.9874073 31.9541057,20.0580147 30.2667209,20.0719902 C29.9311395,20.0809988 29.5973721,20.0809988 29.2527209,20.0809988 L29.2427442,20.0809988 C28.898093,20.0809988 28.5743023,20.0809988 28.2396279,20.0719902 C26.5486132,20.0582584 24.8585516,19.9876508 23.1723488,19.8602889 L23.1632791,19.8602889 C22.8186279,19.8395692 22.4939302,19.8098409 22.1592558,19.7792118 C20.8038421,19.6647897 19.4521521,19.5103747 18.1059767,19.3161714 C17.7613256,19.2765337 17.4266512,19.2161763 17.0928837,19.1657283 L17.082907,19.1657283 C16.7382558,19.1152803 16.4135581,19.0549229 16.0788837,18.9945655 C14.7167921,18.7633498 13.3646077,18.477848 12.0256047,18.1387515 C11.6809535,18.0486659 11.3363023,17.9576793 11.0125116,17.8666928 L11.0025349,17.8666928 C10.6578837,17.7666977 10.333186,17.6658017 9.9994186,17.5649058 C8.49927907,17.1117748 7.13155814,16.5991873 5.94523256,16.0451603 C5.59151163,15.883907 5.25593023,15.7127442 4.93213953,15.531672 C4.93213953,15.531672 4.92306977,15.531672 4.92306977,15.5226634 C4.56753488,15.3515006 4.23376744,15.1596181 3.91904651,14.9578262 C1.70965116,13.5795153 0.453488372,11.9895031 0.453488372,10.3085043 C0.453488372,4.91327295 13.3534186,0.534208078 29.2527209,0.534208078 C45.1520233,0.534208078 58.0419767,4.91327295 58.0419767,10.3085043 L58.0419767,10.3085043 Z" id="Path" fill="#21D8B3" fill-rule="nonzero"></path>
                    <path d="M29.1629302,17.3505018 C28.8763256,17.3505018 28.6042326,17.3505018 28.3239767,17.3414933 C26.6881189,17.3277339 25.0531619,17.2604334 23.4217674,17.1397013 L23.2975116,17.1288911 L23.2467209,17.1288911 C22.9864186,17.1126756 22.737,17.0892534 22.4830465,17.0658311 C21.1534556,16.9548029 19.8274762,16.804594 18.5068605,16.6154027 C18.2338605,16.5811701 18.0424884,16.5496401 17.8520233,16.5199119 L17.2933256,16.4343305 C17.0910698,16.4018996 16.5713721,16.3073097 16.5713721,16.3073097 C15.2713068,16.0876584 13.9808133,15.8153729 12.7031163,15.4911334 C12.3974651,15.411858 12.0682326,15.3244749 11.7580465,15.2388935 L10.7939302,14.9506193 C9.73253852,14.6347562 8.69022777,14.2587838 7.67211628,13.8245483 L7.67211628,13.8128372 L6.13932558,13.0723329 L5.65227907,12.801175 L5.63323256,12.801175 C5.55860242,12.7569217 5.48482178,12.7112702 5.41193023,12.6642448 C3.77393023,11.6417723 3.20344186,10.7589327 3.20344186,10.3085043 C3.20344186,7.82574296 13.0931163,3.26560588 29.2527209,3.26560588 C45.4059767,3.26560588 55.2920233,7.82574296 55.2920233,10.3085043 C55.2920233,10.757131 54.7260698,11.6327638 53.1316047,12.6210037 C52.8745146,12.7922334 52.6077255,12.94864 52.3325581,13.0894492 L52.183814,13.1696255 C51.9289535,13.3164651 51.6550465,13.4452876 51.3675349,13.5840196 C50.3789302,14.0461591 49.1336512,14.5119021 47.6906512,14.9569253 L46.7383256,15.2379927 C46.4281395,15.3244749 46.1079767,15.411858 45.7787442,15.4974394 C44.497186,15.8217479 43.2419302,16.0865998 41.965814,16.3019045 C41.6846512,16.3523525 41.4297907,16.3991971 41.1740233,16.4388348 L40.6216744,16.5235153 C40.443,16.5523427 40.2634186,16.582071 40.0774884,16.6045924 C38.7895814,16.7919706 37.516186,16.9370086 36.1076512,17.0586242 C35.8156047,17.0856499 35.5362558,17.1108739 35.2487442,17.1288911 L35.0736977,17.1397013 C33.4671057,17.2598056 31.8569367,17.3268063 30.2458605,17.3405924 C29.9030233,17.349601 29.6155116,17.3505018 29.3243721,17.3505018 L29.1629302,17.3505018 L29.1629302,17.3505018 Z" id="Path" fill="#10BA97" fill-rule="nonzero"></path>
                    <path d="M4.92216279,23.1916573 L4.92216279,11.8985165" id="Path"></path>
                    <path d="M5.94613953,16.0451603 L5.94613953,23.7150551 C5.60101067,23.5581506 5.26270909,23.3868351 4.93213953,23.2015667 C4.93213953,23.2015667 4.92306977,23.2015667 4.92306977,23.1916573 C4.56753488,23.0204945 4.23376744,22.8295129 3.91904651,22.6277209 L3.91904651,14.9578262 C4.23286047,15.1596181 4.56753488,15.3505998 4.92216279,15.5217625 C4.92216279,15.531672 4.93213953,15.531672 4.93213953,15.531672 C5.25683721,15.7127442 5.59151163,15.883907 5.94613953,16.0451603 L5.94613953,16.0451603 Z" id="Path" fill="#09997B" fill-rule="nonzero"></path>
                    <path d="M11.0016279,25.5365875 L11.0016279,17.8666928" id="Path"></path>
                    <path d="M12.0265116,18.1387515 L12.0265116,25.8086463 C11.6818605,25.7185606 11.3372093,25.6275741 11.0125116,25.5365875 L11.0025349,25.5365875 C10.6578837,25.4356916 10.333186,25.3356965 9.9994186,25.2348005 L9.9994186,17.5649058 C10.333186,17.6658017 10.6578837,17.7666977 11.0025349,17.8666928 L11.0125116,17.8666928 C11.3372093,17.9576793 11.6809535,18.0486659 12.0256047,18.1387515 L12.0265116,18.1387515 Z" id="Path" fill="#09997B" fill-rule="nonzero"></path>
                    <path d="M17.082907,26.8347222 L17.082907,19.1657283" id="Path"></path>
                    <path d="M18.1059767,19.3161714 L18.1059767,26.9860661 C17.7613256,26.9455275 17.4266512,26.8851701 17.0928837,26.8347222 L17.082907,26.8347222 C16.7382558,26.785175 16.4135581,26.7239168 16.0788837,26.6635594 L16.0788837,18.9945655 C16.4144651,19.0549229 16.7382558,19.1152803 17.082907,19.1657283 L17.0919767,19.1657283 C17.4275581,19.2161763 17.7613256,19.2765337 18.1059767,19.3161714 Z" id="Path" fill="#09997B" fill-rule="nonzero"></path>
                    <path d="M23.1623721,27.5301836 L23.1623721,19.8602889" id="Path"></path>
                    <path d="M24.1863488,19.9305557 L24.1863488,27.6004504 C23.8416977,27.5797307 23.5070233,27.5599119 23.1723488,27.5292827 L23.1632791,27.5292827 C22.8186279,27.5094639 22.4939302,27.4788348 22.1592558,27.4482056 L22.1592558,19.7792118 C22.4939302,19.8098409 22.8177209,19.8395692 23.1623721,19.8602889 L23.1723488,19.8602889 C23.5079302,19.8900171 23.8416977,19.909836 24.1863488,19.9305557 L24.1863488,19.9305557 Z" id="Path" fill="#09997B" fill-rule="nonzero"></path>
                    <path d="M29.2427442,27.7508935 L29.2427442,20.0809988" id="Path"></path>
                    <path d="M30.265814,20.0710894 L30.265814,27.7409841 C29.9320465,27.7508935 29.5973721,27.7508935 29.2527209,27.7508935 L29.2427442,27.7508935 C28.898093,27.7508935 28.5733953,27.7508935 28.2396279,27.7409841 L28.2396279,20.0710894 C28.5743023,20.0809988 28.898093,20.0809988 29.2427442,20.0809988 L29.2527209,20.0809988 C29.5973721,20.0809988 29.9320465,20.0809988 30.265814,20.0719902 L30.265814,20.0710894 Z" id="Path" fill="#09997B" fill-rule="nonzero"></path>
                    <path d="M35.3231163,27.5301836 L35.3231163,19.8602889" id="Path"></path>
                    <path d="M36.346186,19.7792118 L36.346186,27.4491065 C36.0115116,27.4788348 35.6777442,27.5094639 35.333093,27.5301836 L35.3231163,27.5301836 C34.9875349,27.5599119 34.6637442,27.5797307 34.319093,27.6004504 L34.319093,19.9305557 C34.6637442,19.909836 34.9884419,19.8900171 35.3231163,19.8602889 L35.332186,19.8602889 C35.6768372,19.8395692 36.0124186,19.8098409 36.346186,19.7792118 Z" id="Path" fill="#09997B" fill-rule="nonzero"></path>
                    <g transform="translate(39.906977, 18.917993)" id="Path">
                        <path d="M1.82028242,7.9167295 L1.82028242,0.247735618"></path>
                        <path d="M3.06469367,0.0765728274 L3.06469367,7.74556671 C2.65761233,7.80592411 2.25053099,7.86718237 1.83131443,7.9167295 L1.82028242,7.9167295 C1.41209788,7.96717748 1.01825495,8.02753488 0.599038395,8.06807344 L0.599038395,0.398178703 C1.01825495,0.358541004 1.41320108,0.298183599 1.81917922,0.247735618 L1.83131443,0.247735618 C2.25053099,0.197287638 2.65761233,0.136930233 3.06469367,0.0765728274 L3.06469367,0.0765728274 Z" fill="#09997B" fill-rule="nonzero"></path>
                    </g>
                    <g transform="translate(46.255814, 17.116279)" id="Path">
                        <path d="M1.49263158,8.42030845 L1.49263158,0.750413709"></path>
                        <path d="M2.73704283,0.448626683 L2.73704283,8.11852142 C2.3310647,8.21941738 1.92398335,8.31941248 1.5047668,8.42030845 L1.49263158,8.42030845 C1.09768546,8.51039412 0.691707318,8.60138066 0.272490762,8.6923672 L0.272490762,1.02247246 C0.691707318,0.932386781 1.09768546,0.841400245 1.49263158,0.750413709 L1.5047668,0.750413709 C1.92398335,0.650418605 2.3310647,0.549522644 2.73704283,0.448626683 L2.73704283,0.448626683 Z" fill="#09997B" fill-rule="nonzero"></path>
                    </g>
                    <path d="M53.5633256,23.2114761 L53.5633256,15.531672" id="Path"></path>
                    <path d="M54.5863953,14.9380073 L54.5863953,22.6277209 C54.2725814,22.8196034 53.937907,23.0204945 53.5733023,23.2015667 C53.5733023,23.2015667 53.5633256,23.2015667 53.5633256,23.2114761 C53.2486047,23.3826389 52.9148372,23.5438923 52.5602093,23.7150551 L52.5602093,16.0442595 C52.9139302,15.8730967 53.2495116,15.7118433 53.5633256,15.5307711 C53.9279302,15.3505998 54.2616977,15.1488078 54.5863953,14.9371065 L54.5863953,14.9380073 Z" id="Path" fill="#09997B" fill-rule="nonzero"></path>
                </g>
            </g>
            <g transform="translate(5.930233, 14.883721)">
                <g id="Group">
                    <path d="M58.0419767,10.3085043 L58.0419767,17.9774982 C58.0419767,19.6584969 56.7957907,21.2385998 54.5863953,22.6277209 C54.2725814,22.8196034 53.937907,23.0204945 53.5733023,23.2015667 C53.5733023,23.2015667 53.5633256,23.2015667 53.5633256,23.2114761 C53.2486047,23.3826389 52.9148372,23.5438923 52.5602093,23.7150551 C51.3738837,24.2681812 50.0061628,24.7816695 48.5060233,25.2348005 C48.1722558,25.3356965 47.8375814,25.4356916 47.4929302,25.5365875 L47.4829535,25.5365875 C47.1582558,25.6266732 46.8244884,25.7176597 46.4798372,25.8086463 C45.1405047,26.1476389 43.7880224,26.4331397 42.4256512,26.6644602 C42.0918837,26.7239168 41.7572093,26.785175 41.4125581,26.835623 L41.4034884,26.835623 C41.067907,26.8851701 40.7441163,26.9455275 40.3994651,26.9860661 C39.0925116,27.1770477 37.7447442,27.3283917 36.346186,27.4491065 C36.0115116,27.4788348 35.6777442,27.5094639 35.333093,27.5301836 L35.3231163,27.5301836 C33.6405163,27.6570178 31.9540985,27.7276248 30.2667209,27.7418849 C29.9311395,27.7508935 29.5973721,27.7508935 29.2527209,27.7508935 L29.2427442,27.7508935 C28.898093,27.7508935 28.5733953,27.7508935 28.2396279,27.7409841 C26.5486204,27.7269665 24.8585685,27.6563593 23.1723488,27.5292827 L23.1632791,27.5292827 C22.8186279,27.5094639 22.4939302,27.4788348 22.1592558,27.4482056 C20.8038451,27.3341431 19.4521534,27.1800283 18.1059767,26.9860661 C17.7613256,26.9455275 17.4266512,26.8851701 17.0928837,26.8347222 L17.082907,26.8347222 C16.7382558,26.785175 16.4135581,26.7239168 16.0788837,26.6635594 C14.7168156,26.4322219 13.3646361,26.1467211 12.0256047,25.8077454 C11.6809535,25.7176597 11.3363023,25.6275741 11.0125116,25.5374884 L11.0025349,25.5374884 C10.6578837,25.4356916 10.333186,25.3356965 9.9994186,25.2348005 C8.49927907,24.7816695 7.13155814,24.2681812 5.94523256,23.7150551 C5.60041085,23.5581278 5.26241229,23.3868125 4.93213953,23.2015667 C4.93213953,23.2015667 4.92306977,23.2015667 4.92306977,23.1916573 C4.56753488,23.0204945 4.23376744,22.8295129 3.91904651,22.6277209 C1.70965116,21.24941 0.453488372,19.6584969 0.453488372,17.9774982 L0.453488372,10.3085043 L58.0419767,10.3085043 L58.0419767,10.3085043 Z" id="Path" fill="#10BA97" fill-rule="nonzero"></path>
                    <path d="M58.0419767,10.3085043 C58.0419767,11.9895031 56.7957907,13.5696059 54.5863953,14.9389082 C54.2626047,15.1497087 53.9279302,15.3505998 53.5633256,15.531672 C53.2486047,15.7127442 52.9148372,15.8739976 52.5602093,16.0451603 C51.3738837,16.5991873 50.0061628,17.1018654 48.5060233,17.5649058 C48.1722558,17.6658017 47.8375814,17.7666977 47.4929302,17.8666928 L47.4829535,17.8666928 C47.1582558,17.9576793 46.8244884,18.0486659 46.4798372,18.1387515 C45.1405329,18.477864 43.7880457,18.7633658 42.4256512,18.9945655 C42.0918837,19.0549229 41.7572093,19.1152803 41.4125581,19.1657283 L41.4034884,19.1657283 C41.067907,19.2161763 40.7441163,19.2765337 40.3994651,19.3161714 C39.0925116,19.5080539 37.7447442,19.6584969 36.346186,19.7792118 C36.0115116,19.8098409 35.6777442,19.8395692 35.333093,19.8602889 L35.3231163,19.8602889 C33.6405332,19.9874073 31.9541057,20.0580147 30.2667209,20.0719902 C29.9311395,20.0809988 29.5973721,20.0809988 29.2527209,20.0809988 L29.2427442,20.0809988 C28.898093,20.0809988 28.5743023,20.0809988 28.2396279,20.0719902 C26.5486132,20.0582584 24.8585516,19.9876508 23.1723488,19.8602889 L23.1632791,19.8602889 C22.8186279,19.8395692 22.4939302,19.8098409 22.1592558,19.7792118 C20.8038421,19.6647897 19.4521521,19.5103747 18.1059767,19.3161714 C17.7613256,19.2765337 17.4266512,19.2161763 17.0928837,19.1657283 L17.082907,19.1657283 C16.7382558,19.1152803 16.4135581,19.0549229 16.0788837,18.9945655 C14.7167921,18.7633498 13.3646077,18.477848 12.0256047,18.1387515 C11.6809535,18.0486659 11.3363023,17.9576793 11.0125116,17.8666928 L11.0025349,17.8666928 C10.6578837,17.7666977 10.333186,17.6658017 9.9994186,17.5649058 C8.49927907,17.1117748 7.13155814,16.5991873 5.94523256,16.0451603 C5.59151163,15.883907 5.25593023,15.7127442 4.93213953,15.531672 C4.93213953,15.531672 4.92306977,15.531672 4.92306977,15.5226634 C4.56753488,15.3515006 4.23376744,15.1596181 3.91904651,14.9578262 C1.70965116,13.5795153 0.453488372,11.9895031 0.453488372,10.3085043 C0.453488372,4.91327295 13.3534186,0.534208078 29.2527209,0.534208078 C45.1520233,0.534208078 58.0419767,4.91327295 58.0419767,10.3085043 L58.0419767,10.3085043 Z" id="Path" fill="#21D8B3" fill-rule="nonzero"></path>
                    <path d="M29.1629302,17.3505018 C28.8763256,17.3505018 28.6042326,17.3505018 28.3239767,17.3414933 C26.6881189,17.3277339 25.0531619,17.2604334 23.4217674,17.1397013 L23.2975116,17.1288911 L23.2467209,17.1288911 C22.9864186,17.1126756 22.737,17.0892534 22.4830465,17.0658311 C21.1534556,16.9548029 19.8274762,16.804594 18.5068605,16.6154027 C18.2338605,16.5811701 18.0424884,16.5496401 17.8520233,16.5199119 L17.2933256,16.4343305 C17.0910698,16.4018996 16.5713721,16.3073097 16.5713721,16.3073097 C15.2713068,16.0876584 13.9808133,15.8153729 12.7031163,15.4911334 C12.3974651,15.411858 12.0682326,15.3244749 11.7580465,15.2388935 L10.7939302,14.9506193 C9.73253852,14.6347562 8.69022777,14.2587838 7.67211628,13.8245483 L7.67211628,13.8128372 L6.13932558,13.0723329 L5.65227907,12.801175 L5.63323256,12.801175 C5.55860242,12.7569217 5.48482178,12.7112702 5.41193023,12.6642448 C3.77393023,11.6417723 3.20344186,10.7589327 3.20344186,10.3085043 C3.20344186,7.82574296 13.0931163,3.26560588 29.2527209,3.26560588 C45.4059767,3.26560588 55.2920233,7.82574296 55.2920233,10.3085043 C55.2920233,10.757131 54.7260698,11.6327638 53.1316047,12.6210037 C52.8745146,12.7922334 52.6077255,12.94864 52.3325581,13.0894492 L52.183814,13.1696255 C51.9289535,13.3164651 51.6550465,13.4452876 51.3675349,13.5840196 C50.3789302,14.0461591 49.1336512,14.5119021 47.6906512,14.9569253 L46.7383256,15.2379927 C46.4281395,15.3244749 46.1079767,15.411858 45.7787442,15.4974394 C44.497186,15.8217479 43.2419302,16.0865998 41.965814,16.3019045 C41.6846512,16.3523525 41.4297907,16.3991971 41.1740233,16.4388348 L40.6216744,16.5235153 C40.443,16.5523427 40.2634186,16.582071 40.0774884,16.6045924 C38.7895814,16.7919706 37.516186,16.9370086 36.1076512,17.0586242 C35.8156047,17.0856499 35.5362558,17.1108739 35.2487442,17.1288911 L35.0736977,17.1397013 C33.4671057,17.2598056 31.8569367,17.3268063 30.2458605,17.3405924 C29.9030233,17.349601 29.6155116,17.3505018 29.3243721,17.3505018 L29.1629302,17.3505018 L29.1629302,17.3505018 Z" id="Path" fill="#10BA97" fill-rule="nonzero"></path>
                    <path d="M4.92216279,23.1916573 L4.92216279,11.8985165" id="Path"></path>
                    <path d="M4.92216279,33.0857674 L4.92216279,33.0749572" id="Path"></path>
                    <path d="M5.94613953,16.0451603 L5.94613953,23.7150551 C5.60101067,23.5581506 5.26270909,23.3868351 4.93213953,23.2015667 C4.93213953,23.2015667 4.92306977,23.2015667 4.92306977,23.1916573 C4.56753488,23.0204945 4.23376744,22.8295129 3.91904651,22.6277209 L3.91904651,14.9578262 C4.23286047,15.1596181 4.56753488,15.3505998 4.92216279,15.5217625 C4.92216279,15.531672 4.93213953,15.531672 4.93213953,15.531672 C5.25683721,15.7127442 5.59151163,15.883907 5.94613953,16.0451603 L5.94613953,16.0451603 Z" id="Path" fill="#09997B" fill-rule="nonzero"></path>
                    <path d="M11.0016279,25.5365875 L11.0016279,17.8666928" id="Path"></path>
                    <path d="M12.0265116,18.1387515 L12.0265116,25.8086463 C11.6818605,25.7185606 11.3372093,25.6275741 11.0125116,25.5365875 L11.0025349,25.5365875 C10.6578837,25.4356916 10.333186,25.3356965 9.9994186,25.2348005 L9.9994186,17.5649058 C10.333186,17.6658017 10.6578837,17.7666977 11.0025349,17.8666928 L11.0125116,17.8666928 C11.3372093,17.9576793 11.6809535,18.0486659 12.0256047,18.1387515 L12.0265116,18.1387515 Z" id="Path" fill="#09997B" fill-rule="nonzero"></path>
                    <path d="M17.082907,26.8347222 L17.082907,19.1657283" id="Path"></path>
                    <path d="M18.1059767,19.3161714 L18.1059767,26.9860661 C17.7613256,26.9455275 17.4266512,26.8851701 17.0928837,26.8347222 L17.082907,26.8347222 C16.7382558,26.785175 16.4135581,26.7239168 16.0788837,26.6635594 L16.0788837,18.9945655 C16.4144651,19.0549229 16.7382558,19.1152803 17.082907,19.1657283 L17.0919767,19.1657283 C17.4275581,19.2161763 17.7613256,19.2765337 18.1059767,19.3161714 Z" id="Path" fill="#09997B" fill-rule="nonzero"></path>
                    <path d="M23.1623721,27.5301836 L23.1623721,19.8602889" id="Path"></path>
                    <path d="M24.1863488,19.9305557 L24.1863488,27.6004504 C23.8416977,27.5797307 23.5070233,27.5599119 23.1723488,27.5292827 L23.1632791,27.5292827 C22.8186279,27.5094639 22.4939302,27.4788348 22.1592558,27.4482056 L22.1592558,19.7792118 C22.4939302,19.8098409 22.8177209,19.8395692 23.1623721,19.8602889 L23.1723488,19.8602889 C23.5079302,19.8900171 23.8416977,19.909836 24.1863488,19.9305557 L24.1863488,19.9305557 Z" id="Path" fill="#09997B" fill-rule="nonzero"></path>
                    <path d="M29.2427442,27.7508935 L29.2427442,20.0809988" id="Path"></path>
                    <path d="M30.265814,20.0710894 L30.265814,27.7409841 C29.9320465,27.7508935 29.5973721,27.7508935 29.2527209,27.7508935 L29.2427442,27.7508935 C28.898093,27.7508935 28.5733953,27.7508935 28.2396279,27.7409841 L28.2396279,20.0710894 C28.5743023,20.0809988 28.898093,20.0809988 29.2427442,20.0809988 L29.2527209,20.0809988 C29.5973721,20.0809988 29.9320465,20.0809988 30.265814,20.0719902 L30.265814,20.0710894 Z" id="Path" fill="#09997B" fill-rule="nonzero"></path>
                    <path d="M35.3231163,27.5301836 L35.3231163,19.8602889" id="Path"></path>
                    <path d="M36.346186,19.7792118 L36.346186,27.4491065 C36.0115116,27.4788348 35.6777442,27.5094639 35.333093,27.5301836 L35.3231163,27.5301836 C34.9875349,27.5599119 34.6637442,27.5797307 34.319093,27.6004504 L34.319093,19.9305557 C34.6637442,19.909836 34.9884419,19.8900171 35.3231163,19.8602889 L35.332186,19.8602889 C35.6768372,19.8395692 36.0124186,19.8098409 36.346186,19.7792118 Z" id="Path" fill="#09997B" fill-rule="nonzero"></path>
                    <g transform="translate(39.906977, 18.917993)" id="Path">
                        <path d="M1.82028242,7.9167295 L1.82028242,0.247735618"></path>
                        <path d="M3.06469367,0.0765728274 L3.06469367,7.74556671 C2.65761233,7.80592411 2.25053099,7.86718237 1.83131443,7.9167295 L1.82028242,7.9167295 C1.41209788,7.96717748 1.01825495,8.02753488 0.599038395,8.06807344 L0.599038395,0.398178703 C1.01825495,0.358541004 1.41320108,0.298183599 1.81917922,0.247735618 L1.83131443,0.247735618 C2.25053099,0.197287638 2.65761233,0.136930233 3.06469367,0.0765728274 L3.06469367,0.0765728274 Z" fill="#09997B" fill-rule="nonzero"></path>
                    </g>
                    <g transform="translate(46.255814, 17.116279)" id="Path">
                        <path d="M1.49263158,8.42030845 L1.49263158,0.750413709"></path>
                        <path d="M2.73704283,0.448626683 L2.73704283,8.11852142 C2.3310647,8.21941738 1.92398335,8.31941248 1.5047668,8.42030845 L1.49263158,8.42030845 C1.09768546,8.51039412 0.691707318,8.60138066 0.272490762,8.6923672 L0.272490762,1.02247246 C0.691707318,0.932386781 1.09768546,0.841400245 1.49263158,0.750413709 L1.5047668,0.750413709 C1.92398335,0.650418605 2.3310647,0.549522644 2.73704283,0.448626683 L2.73704283,0.448626683 Z" fill="#09997B" fill-rule="nonzero"></path>
                    </g>
                    <path d="M53.5633256,23.2114761 L53.5633256,15.531672" id="Path"></path>
                    <path d="M54.5863953,14.9380073 L54.5863953,22.6277209 C54.2725814,22.8196034 53.937907,23.0204945 53.5733023,23.2015667 C53.5733023,23.2015667 53.5633256,23.2015667 53.5633256,23.2114761 C53.2486047,23.3826389 52.9148372,23.5438923 52.5602093,23.7150551 L52.5602093,16.0442595 C52.9139302,15.8730967 53.2495116,15.7118433 53.5633256,15.5307711 C53.9279302,15.3505998 54.2616977,15.1488078 54.5863953,14.9371065 L54.5863953,14.9380073 Z" id="Path" fill="#09997B" fill-rule="nonzero"></path>
                </g>
            </g>
            <g transform="translate(1.488372, 0.000000)">
                <g id="Group">
                    <path d="M58.0419767,10.3085043 L58.0419767,17.9774982 C58.0419767,19.6584969 56.7957907,21.2385998 54.5863953,22.6277209 C54.2725814,22.8196034 53.937907,23.0204945 53.5733023,23.2015667 C53.5733023,23.2015667 53.5633256,23.2015667 53.5633256,23.2114761 C53.2486047,23.3826389 52.9148372,23.5438923 52.5602093,23.7150551 C51.3738837,24.2681812 50.0061628,24.7816695 48.5060233,25.2348005 C48.1722558,25.3356965 47.8375814,25.4356916 47.4929302,25.5365875 L47.4829535,25.5365875 C47.1582558,25.6266732 46.8244884,25.7176597 46.4798372,25.8086463 C45.1405047,26.1476389 43.7880224,26.4331397 42.4256512,26.6644602 C42.0918837,26.7239168 41.7572093,26.785175 41.4125581,26.835623 L41.4034884,26.835623 C41.067907,26.8851701 40.7441163,26.9455275 40.3994651,26.9860661 C39.0925116,27.1770477 37.7447442,27.3283917 36.346186,27.4491065 C36.0115116,27.4788348 35.6777442,27.5094639 35.333093,27.5301836 L35.3231163,27.5301836 C33.6405163,27.6570178 31.9540985,27.7276248 30.2667209,27.7418849 C29.9311395,27.7508935 29.5973721,27.7508935 29.2527209,27.7508935 L29.2427442,27.7508935 C28.898093,27.7508935 28.5733953,27.7508935 28.2396279,27.7409841 C26.5486204,27.7269665 24.8585685,27.6563593 23.1723488,27.5292827 L23.1632791,27.5292827 C22.8186279,27.5094639 22.4939302,27.4788348 22.1592558,27.4482056 C20.8038451,27.3341431 19.4521534,27.1800283 18.1059767,26.9860661 C17.7613256,26.9455275 17.4266512,26.8851701 17.0928837,26.8347222 L17.082907,26.8347222 C16.7382558,26.785175 16.4135581,26.7239168 16.0788837,26.6635594 C14.7168156,26.4322219 13.3646361,26.1467211 12.0256047,25.8077454 C11.6809535,25.7176597 11.3363023,25.6275741 11.0125116,25.5374884 L11.0025349,25.5374884 C10.6578837,25.4356916 10.333186,25.3356965 9.9994186,25.2348005 C8.49927907,24.7816695 7.13155814,24.2681812 5.94523256,23.7150551 C5.60041085,23.5581278 5.26241229,23.3868125 4.93213953,23.2015667 C4.93213953,23.2015667 4.92306977,23.2015667 4.92306977,23.1916573 C4.56753488,23.0204945 4.23376744,22.8295129 3.91904651,22.6277209 C1.70965116,21.24941 0.453488372,19.6584969 0.453488372,17.9774982 L0.453488372,10.3085043 L58.0419767,10.3085043 L58.0419767,10.3085043 Z" id="Path" fill="#10BA97" fill-rule="nonzero"></path>
                    <path d="M58.0419767,10.3085043 C58.0419767,11.9895031 56.7957907,13.5696059 54.5863953,14.9389082 C54.2626047,15.1497087 53.9279302,15.3505998 53.5633256,15.531672 C53.2486047,15.7127442 52.9148372,15.8739976 52.5602093,16.0451603 C51.3738837,16.5991873 50.0061628,17.1018654 48.5060233,17.5649058 C48.1722558,17.6658017 47.8375814,17.7666977 47.4929302,17.8666928 L47.4829535,17.8666928 C47.1582558,17.9576793 46.8244884,18.0486659 46.4798372,18.1387515 C45.1405329,18.477864 43.7880457,18.7633658 42.4256512,18.9945655 C42.0918837,19.0549229 41.7572093,19.1152803 41.4125581,19.1657283 L41.4034884,19.1657283 C41.067907,19.2161763 40.7441163,19.2765337 40.3994651,19.3161714 C39.0925116,19.5080539 37.7447442,19.6584969 36.346186,19.7792118 C36.0115116,19.8098409 35.6777442,19.8395692 35.333093,19.8602889 L35.3231163,19.8602889 C33.6405332,19.9874073 31.9541057,20.0580147 30.2667209,20.0719902 C29.9311395,20.0809988 29.5973721,20.0809988 29.2527209,20.0809988 L29.2427442,20.0809988 C28.898093,20.0809988 28.5743023,20.0809988 28.2396279,20.0719902 C26.5486132,20.0582584 24.8585516,19.9876508 23.1723488,19.8602889 L23.1632791,19.8602889 C22.8186279,19.8395692 22.4939302,19.8098409 22.1592558,19.7792118 C20.8038421,19.6647897 19.4521521,19.5103747 18.1059767,19.3161714 C17.7613256,19.2765337 17.4266512,19.2161763 17.0928837,19.1657283 L17.082907,19.1657283 C16.7382558,19.1152803 16.4135581,19.0549229 16.0788837,18.9945655 C14.7167921,18.7633498 13.3646077,18.477848 12.0256047,18.1387515 C11.6809535,18.0486659 11.3363023,17.9576793 11.0125116,17.8666928 L11.0025349,17.8666928 C10.6578837,17.7666977 10.333186,17.6658017 9.9994186,17.5649058 C8.49927907,17.1117748 7.13155814,16.5991873 5.94523256,16.0451603 C5.59151163,15.883907 5.25593023,15.7127442 4.93213953,15.531672 C4.93213953,15.531672 4.92306977,15.531672 4.92306977,15.5226634 C4.56753488,15.3515006 4.23376744,15.1596181 3.91904651,14.9578262 C1.70965116,13.5795153 0.453488372,11.9895031 0.453488372,10.3085043 C0.453488372,4.91327295 13.3534186,0.534208078 29.2527209,0.534208078 C45.1520233,0.534208078 58.0419767,4.91327295 58.0419767,10.3085043 L58.0419767,10.3085043 Z" id="Path" fill="#21D8B3" fill-rule="nonzero"></path>
                    <path d="M29.1629302,17.3505018 C28.8763256,17.3505018 28.6042326,17.3505018 28.3239767,17.3414933 C26.6881189,17.3277339 25.0531619,17.2604334 23.4217674,17.1397013 L23.2975116,17.1288911 L23.2467209,17.1288911 C22.9864186,17.1126756 22.737,17.0892534 22.4830465,17.0658311 C21.1534556,16.9548029 19.8274762,16.804594 18.5068605,16.6154027 C18.2338605,16.5811701 18.0424884,16.5496401 17.8520233,16.5199119 L17.2933256,16.4343305 C17.0910698,16.4018996 16.5713721,16.3073097 16.5713721,16.3073097 C15.2713068,16.0876584 13.9808133,15.8153729 12.7031163,15.4911334 C12.3974651,15.411858 12.0682326,15.3244749 11.7580465,15.2388935 L10.7939302,14.9506193 C9.73253852,14.6347562 8.69022777,14.2587838 7.67211628,13.8245483 L7.67211628,13.8128372 L6.13932558,13.0723329 L5.65227907,12.801175 L5.63323256,12.801175 C5.55860242,12.7569217 5.48482178,12.7112702 5.41193023,12.6642448 C3.77393023,11.6417723 3.20344186,10.7589327 3.20344186,10.3085043 C3.20344186,7.82574296 13.0931163,3.26560588 29.2527209,3.26560588 C45.4059767,3.26560588 55.2920233,7.82574296 55.2920233,10.3085043 C55.2920233,10.757131 54.7260698,11.6327638 53.1316047,12.6210037 C52.8745146,12.7922334 52.6077255,12.94864 52.3325581,13.0894492 L52.183814,13.1696255 C51.9289535,13.3164651 51.6550465,13.4452876 51.3675349,13.5840196 C50.3789302,14.0461591 49.1336512,14.5119021 47.6906512,14.9569253 L46.7383256,15.2379927 C46.4281395,15.3244749 46.1079767,15.411858 45.7787442,15.4974394 C44.497186,15.8217479 43.2419302,16.0865998 41.965814,16.3019045 C41.6846512,16.3523525 41.4297907,16.3991971 41.1740233,16.4388348 L40.6216744,16.5235153 C40.443,16.5523427 40.2634186,16.582071 40.0774884,16.6045924 C38.7895814,16.7919706 37.516186,16.9370086 36.1076512,17.0586242 C35.8156047,17.0856499 35.5362558,17.1108739 35.2487442,17.1288911 L35.0736977,17.1397013 C33.4671057,17.2598056 31.8569367,17.3268063 30.2458605,17.3405924 C29.9030233,17.349601 29.6155116,17.3505018 29.3243721,17.3505018 L29.1629302,17.3505018 L29.1629302,17.3505018 Z" id="Path" fill="#10BA97" fill-rule="nonzero"></path>
                    <path d="M4.92216279,23.1916573 L4.92216279,11.8985165" id="Path"></path>
                    <path d="M4.92216279,33.0857674 L4.92216279,33.0749572" id="Path"></path>
                    <path d="M5.94613953,16.0451603 L5.94613953,23.7150551 C5.60101067,23.5581506 5.26270909,23.3868351 4.93213953,23.2015667 C4.93213953,23.2015667 4.92306977,23.2015667 4.92306977,23.1916573 C4.56753488,23.0204945 4.23376744,22.8295129 3.91904651,22.6277209 L3.91904651,14.9578262 C4.23286047,15.1596181 4.56753488,15.3505998 4.92216279,15.5217625 C4.92216279,15.531672 4.93213953,15.531672 4.93213953,15.531672 C5.25683721,15.7127442 5.59151163,15.883907 5.94613953,16.0451603 L5.94613953,16.0451603 Z" id="Path" fill="#09997B" fill-rule="nonzero"></path>
                    <path d="M11.0016279,25.5365875 L11.0016279,17.8666928" id="Path"></path>
                    <path d="M12.0265116,18.1387515 L12.0265116,25.8086463 C11.6818605,25.7185606 11.3372093,25.6275741 11.0125116,25.5365875 L11.0025349,25.5365875 C10.6578837,25.4356916 10.333186,25.3356965 9.9994186,25.2348005 L9.9994186,17.5649058 C10.333186,17.6658017 10.6578837,17.7666977 11.0025349,17.8666928 L11.0125116,17.8666928 C11.3372093,17.9576793 11.6809535,18.0486659 12.0256047,18.1387515 L12.0265116,18.1387515 Z" id="Path" fill="#09997B" fill-rule="nonzero"></path>
                    <path d="M17.082907,26.8347222 L17.082907,19.1657283" id="Path"></path>
                    <path d="M18.1059767,19.3161714 L18.1059767,26.9860661 C17.7613256,26.9455275 17.4266512,26.8851701 17.0928837,26.8347222 L17.082907,26.8347222 C16.7382558,26.785175 16.4135581,26.7239168 16.0788837,26.6635594 L16.0788837,18.9945655 C16.4144651,19.0549229 16.7382558,19.1152803 17.082907,19.1657283 L17.0919767,19.1657283 C17.4275581,19.2161763 17.7613256,19.2765337 18.1059767,19.3161714 Z" id="Path" fill="#09997B" fill-rule="nonzero"></path>
                    <path d="M23.1623721,27.5301836 L23.1623721,19.8602889" id="Path"></path>
                    <path d="M24.1863488,19.9305557 L24.1863488,27.6004504 C23.8416977,27.5797307 23.5070233,27.5599119 23.1723488,27.5292827 L23.1632791,27.5292827 C22.8186279,27.5094639 22.4939302,27.4788348 22.1592558,27.4482056 L22.1592558,19.7792118 C22.4939302,19.8098409 22.8177209,19.8395692 23.1623721,19.8602889 L23.1723488,19.8602889 C23.5079302,19.8900171 23.8416977,19.909836 24.1863488,19.9305557 L24.1863488,19.9305557 Z" id="Path" fill="#09997B" fill-rule="nonzero"></path>
                    <path d="M29.2427442,27.7508935 L29.2427442,20.0809988" id="Path"></path>
                    <path d="M30.265814,20.0710894 L30.265814,27.7409841 C29.9320465,27.7508935 29.5973721,27.7508935 29.2527209,27.7508935 L29.2427442,27.7508935 C28.898093,27.7508935 28.5733953,27.7508935 28.2396279,27.7409841 L28.2396279,20.0710894 C28.5743023,20.0809988 28.898093,20.0809988 29.2427442,20.0809988 L29.2527209,20.0809988 C29.5973721,20.0809988 29.9320465,20.0809988 30.265814,20.0719902 L30.265814,20.0710894 Z" id="Path" fill="#09997B" fill-rule="nonzero"></path>
                    <path d="M35.3231163,27.5301836 L35.3231163,19.8602889" id="Path"></path>
                    <path d="M36.346186,19.7792118 L36.346186,27.4491065 C36.0115116,27.4788348 35.6777442,27.5094639 35.333093,27.5301836 L35.3231163,27.5301836 C34.9875349,27.5599119 34.6637442,27.5797307 34.319093,27.6004504 L34.319093,19.9305557 C34.6637442,19.909836 34.9884419,19.8900171 35.3231163,19.8602889 L35.332186,19.8602889 C35.6768372,19.8395692 36.0124186,19.8098409 36.346186,19.7792118 Z" id="Path" fill="#09997B" fill-rule="nonzero"></path>
                    <g transform="translate(39.906977, 18.917993)" id="Path">
                        <path d="M1.82028242,7.9167295 L1.82028242,0.247735618"></path>
                        <path d="M3.06469367,0.0765728274 L3.06469367,7.74556671 C2.65761233,7.80592411 2.25053099,7.86718237 1.83131443,7.9167295 L1.82028242,7.9167295 C1.41209788,7.96717748 1.01825495,8.02753488 0.599038395,8.06807344 L0.599038395,0.398178703 C1.01825495,0.358541004 1.41320108,0.298183599 1.81917922,0.247735618 L1.83131443,0.247735618 C2.25053099,0.197287638 2.65761233,0.136930233 3.06469367,0.0765728274 L3.06469367,0.0765728274 Z" fill="#09997B" fill-rule="nonzero"></path>
                    </g>
                    <g transform="translate(46.255814, 17.116279)" id="Path">
                        <path d="M1.49263158,8.42030845 L1.49263158,0.750413709"></path>
                        <path d="M2.73704283,0.448626683 L2.73704283,8.11852142 C2.3310647,8.21941738 1.92398335,8.31941248 1.5047668,8.42030845 L1.49263158,8.42030845 C1.09768546,8.51039412 0.691707318,8.60138066 0.272490762,8.6923672 L0.272490762,1.02247246 C0.691707318,0.932386781 1.09768546,0.841400245 1.49263158,0.750413709 L1.5047668,0.750413709 C1.92398335,0.650418605 2.3310647,0.549522644 2.73704283,0.448626683 L2.73704283,0.448626683 Z" fill="#09997B" fill-rule="nonzero"></path>
                    </g>
                    <path d="M53.5633256,23.2114761 L53.5633256,15.531672" id="Path"></path>
                    <path d="M54.5863953,14.9380073 L54.5863953,22.6277209 C54.2725814,22.8196034 53.937907,23.0204945 53.5733023,23.2015667 C53.5733023,23.2015667 53.5633256,23.2015667 53.5633256,23.2114761 C53.2486047,23.3826389 52.9148372,23.5438923 52.5602093,23.7150551 L52.5602093,16.0442595 C52.9139302,15.8730967 53.2495116,15.7118433 53.5633256,15.5307711 C53.9279302,15.3505998 54.2616977,15.1488078 54.5863953,14.9371065 L54.5863953,14.9380073 Z" id="Path" fill="#09997B" fill-rule="nonzero"></path>
                </g>
            </g>
        </g>
    </g>
</svg>