<svg width="16" height="16" xmlns="http://www.w3.org/2000/svg"><g fill="none" fill-rule="evenodd"><path d="M0 0h16v16H0z"/><path d="M3.333 7.355v4.916l3.001 1.41a.496.496 0 00.42.004l7.047-3.198a.716.716 0 00-.06-.099c-.08-.11-.2-.211-.364-.303a.503.503 0 00-.246-.065h-2.904c.075.23.11.469.106.713-.005.287-.256.517-.563.517H5.438c-.312 0-.564-.236-.564-.526 0-.291.252-.527.564-.527H9.1a1.623 1.623 0 00-.268-.41 1.924 1.924 0 00-.936-.617.6.6 0 00-.17-.025H5.98a.574.574 0 01-.474-.243 4.225 4.225 0 00-1.2-1.167 2.631 2.631 0 00-.972-.38zm0-1.067a3.84 3.84 0 011.613.582 5.32 5.32 0 011.331 1.222h1.45c.173 0 .345.025.51.074.406.12.771.316 1.092.584h3.802c.256 0 .508.067.738.195.298.167.543.376.73.632.266.366.401.808.401 1.302 0 .26-.14.494-.351.59l-7.482 3.396c-.405.183-.856.18-1.259-.01l-2.575-1.21v.284c0 .591-.26 1.071-.583 1.071H1.583C1.261 15 1 14.52 1 13.929V6.07C1 5.48 1.261 5 1.583 5H2.75c.322 0 .583.48.583 1.071v.217zM6.5 5a1.5 1.5 0 110-3 1.5 1.5 0 010 3zm5 2a1.5 1.5 0 110-3 1.5 1.5 0 010 3z" fill="#5485FF"/></g></svg>
