<?xml version="1.0" encoding="UTF-8"?>
<svg width="16px" height="16px" viewBox="0 0 16 16" version="1.1" xmlns="http://www.w3.org/2000/svg" xmlns:xlink="http://www.w3.org/1999/xlink">
    <!-- Generator: Sketch 56.3 (81716) - https://sketch.com -->
    <title>atoms / icon / 16px / mint</title>
    <desc>Created with Sketch.</desc>
    <g id="atoms-/-icon-/-16px-/-mint" stroke="none" stroke-width="1" fill="none" fill-rule="evenodd">
        <g id="atoms-/-spacing-/-boundingBox">
            <rect id="boundingBox" x="0" y="0" width="16" height="16"></rect>
        </g>
        <path d="M13.9659789,4.56845224 C13.9881059,4.64174932 14,4.71948565 14,4.8 L14,8.06666667 C14,8.22053548 13.9821589,8.36998547 13.9476396,8.51472698 C13.9814697,8.60333643 14,8.69950423 14,8.8 L14,12.0666667 C14,13.9721748 11.2638413,15.2 8,15.2 C4.73615872,15.2 2,13.9721748 2,12.0666667 L2,8.8 C2,8.69950423 2.01853025,8.60333643 2.05236039,8.51472698 C2.01784107,8.36998547 2,8.22053548 2,8.06666667 L2,4.8 C2,4.71948565 2.01189412,4.64174932 2.03402114,4.56845224 C2.01154243,4.44857684 2,4.32570547 2,4.2 C2,2.26382359 4.73828445,1 8,1 C11.2617156,1 14,2.26382359 14,4.2 C14,4.32570547 13.9884576,4.44857684 13.9659789,4.56845224 Z M12.4,6.43160599 C11.2958191,7.04825342 9.72075007,7.4 8,7.4 C6.27924993,7.4 4.70418088,7.04825342 3.6,6.43160599 L3.6,8.06666667 C3.6,8.30845166 3.93774479,8.66674264 4.65059526,8.98662751 C5.51015391,9.37234628 6.7094839,9.6 8,9.6 C9.2905161,9.6 10.4898461,9.37234628 11.3494047,8.98662751 C12.0622552,8.66674264 12.4,8.30845166 12.4,8.06666667 L12.4,6.43160599 Z M12.4,10.2560048 C11.2961645,10.8584274 9.72148111,11.2 8,11.2 C6.27851889,11.2 4.70383546,10.8584274 3.6,10.2560048 L3.6,12.0666667 C3.6,12.3084517 3.93774479,12.6667426 4.65059526,12.9866275 C5.51015391,13.3723463 6.7094839,13.6 8,13.6 C9.2905161,13.6 10.4898461,13.3723463 11.3494047,12.9866275 C12.0622552,12.6667426 12.4,12.3084517 12.4,12.0666667 L12.4,10.2560048 Z M8,5.8 C10.4820458,5.8 12.4,4.91479039 12.4,4.2 C12.4,3.48520961 10.4820458,2.6 8,2.6 C5.51795416,2.6 3.6,3.48520961 3.6,4.2 C3.6,4.91479039 5.51795416,5.8 8,5.8 Z" id="🎨-icon-colour" fill="#10BA97"></path>
    </g>
</svg>