<svg width="16" height="16" xmlns="http://www.w3.org/2000/svg"><g fill="none" fill-rule="evenodd"><path d="M7.684 1.9c-.129 1.041-.779 2.077-1.81 2.917C3.86 6.46 2.735 8.207 2.75 9.79a4.726 4.726 0 003.015 4.379c.058-.744.333-1.332 1.025-2.359l.027-.04c.45-.667.68-1.075.813-1.445l.467-1.301.836 1.101c.816 1.074 1.25 2.43 1.309 4.01 1.746-.683 2.817-2.071 2.988-3.96.145-1.604-.5-3.229-1.826-4.784-.225.324-.434.567-.63.724-.08.064-.175.128-.287.194l-1.148.683.015-1.335a5.577 5.577 0 00-.29-1.884c-.275-.794-.732-1.42-1.38-1.873zm2.564 12.521v.029a.267.267 0 00-.01-.076z" stroke="#F4C14D" stroke-width="1.5"/><path d="M0 0h16v16H0z"/></g></svg>
