<?xml version="1.0" encoding="UTF-8"?>
<svg width="64px" height="64px" viewBox="0 0 64 64" version="1.1" xmlns="http://www.w3.org/2000/svg" xmlns:xlink="http://www.w3.org/1999/xlink">
    <!-- Generator: Sketch 56.3 (81716) - https://sketch.com -->
    <title>Trade</title>
    <desc>Created with Sketch.</desc>
    <g id="Trade" stroke="none" stroke-width="1" fill="none" fill-rule="evenodd">
        <g transform="translate(2.000000, 2.000000)" stroke="#B93844">
            <path d="M30,60 C46.5685425,60 60,46.5685425 60,30 C60,26.8463556 59.5133912,23.8063649 58.6111616,20.9510157 C54.7732787,8.80499856 43.4148981,0 30,0 C13.4314575,0 0,13.4314575 0,30 C0,33.0960108 0.468985565,36.0824842 1.33978994,38.8922534 C5.12916281,51.1191823 16.5274683,60 30,60 Z" id="Oval" fill="#D94454"></path>
            <g id="Arrow,-Direction,-Up,-Way,-Upload" transform="translate(9.545455, 12.272727)" fill="#FF7382" fill-rule="nonzero">
                <path d="M9.7888297,-0.730399568 L20.7939001,10.9577177 L16.3655292,10.9577177 L14.1850209,10.9577177 C13.6535793,10.9577687 13.2313198,11.3621593 13.2312687,11.8499047 L13.2312687,33.2272727 L6.42808064,33.2272727 L6.42780887,32.7275446 L6.41645188,11.844519 C6.41640078,11.3567212 5.99414123,10.9523306 5.46274767,10.9522795 L-1.15337312,10.9522795 L9.7888297,-0.730399568 Z" id="Path"></path>
            </g>
            <g id="Arrow,-Direction,-Up,-Way,-Upload-Copy" transform="translate(40.000000, 31.227273) scale(1, -1) translate(-40.000000, -31.227273) translate(30.000000, 14.727273)" fill="#FF7382" fill-rule="nonzero">
                <path d="M9.7888297,-0.730399568 L20.7939001,10.9577177 L16.3655292,10.9577177 L14.1850209,10.9577177 C13.6535793,10.9577687 13.2313198,11.3621593 13.2312687,11.8499047 L13.2312687,33.2272727 L6.42808064,33.2272727 L6.42780887,32.7275446 L6.41645188,11.844519 C6.41640078,11.3567212 5.99414123,10.9523306 5.46274767,10.9522795 L-1.15337312,10.9522795 L9.7888297,-0.730399568 Z" id="Path"></path>
            </g>
        </g>
    </g>
</svg>