<?xml version="1.0" encoding="UTF-8"?>
<svg width="50px" height="48px" viewBox="0 0 50 48" version="1.1" xmlns="http://www.w3.org/2000/svg" xmlns:xlink="http://www.w3.org/1999/xlink">
    <!-- Generator: Sketch 56.3 (81716) - https://sketch.com -->
    <title>icon</title>
    <desc>Created with Sketch.</desc>
    <g id="buttons" stroke="none" stroke-width="1" fill="none" fill-rule="evenodd">
        <g id="atoms-/-button-/-lightMode-/-process-/-home-/-large-/-default" transform="translate(-143.000000, -78.000000)">
            <g id="atoms-/-icon-/-64px-/-thick-/-trade" transform="translate(136.000000, 70.000000)">
                <g id="atoms-/-spacing-/-boundingBox">
                    <rect id="boundingBox" x="0" y="0" width="64" height="64"></rect>
                </g>
                <path d="M11.8715321,21.783871 C16.640214,12.6763844 23.7486633,8 33,8 C42.6999882,8 50.0442069,13.1409531 54.805721,23.1401328 C55.2806126,24.137405 54.8571394,25.3308295 53.8598672,25.805721 C52.862595,26.2806126 51.6691705,25.8571394 51.194279,24.8598672 C47.0669043,16.1923803 41.0777896,12 33,12 C25.2912367,12 19.4846691,15.81808 15.383065,23.6999612 L18.3813414,22.8965755 C19.4482736,22.6106918 20.5449475,23.2438568 20.8308311,24.310789 C21.1167148,25.3777212 20.4835498,26.4743952 19.4166176,26.7602788 L11.689211,28.8308311 C10.6222788,29.1167148 9.52560485,28.4835498 9.23972122,27.4166176 L7.16916886,19.689211 C6.88328524,18.6222788 7.51645022,17.5256048 8.58338242,17.2397212 C9.65031463,16.9538376 10.7469885,17.5870026 11.0328722,18.6539348 L11.8715347,21.783866 Z M49.1916911,39.1460334 L45.6186586,40.1034245 C44.5517264,40.3893082 43.4550525,39.7561432 43.1691689,38.689211 C42.8832852,37.6222788 43.5164502,36.5256048 44.5833824,36.2397212 L52.310789,34.1691689 C53.3777212,33.8832852 54.4743952,34.5164502 54.7602788,35.5833824 L56.8308311,43.310789 C57.1167148,44.3777212 56.4835498,45.4743952 55.4166176,45.7602788 C54.3496854,46.0461624 53.2530115,45.4129974 52.9671278,44.3460652 L52.3050631,41.8752058 C47.5360265,51.2072011 40.3662365,56.0004664 31,56.0004664 C21.3000118,56.0004664 13.9557931,50.8595133 9.19427896,40.8603336 C8.71938744,39.8630614 9.14286065,38.6696369 10.1401328,38.1947454 C11.137405,37.7198538 12.3308295,38.1433271 12.805721,39.1405992 C16.9330957,47.8080861 22.9222104,52.0004664 31,52.0004664 C39.0761012,52.0004664 45.0644006,47.8098385 49.1916907,39.1460335 Z" id="🎨-icon-colour" fill="#D94454" fill-rule="evenodd"></path>
            </g>
        </g>
    </g>
</svg>