<svg width="16" height="16" xmlns="http://www.w3.org/2000/svg"><path d="M2.29 4.954C3.583 2.342 5.513 1 8.026 1c2.633 0 4.627 1.474 5.92 4.342a.588.588 0 01-.257.765.53.53 0 01-.723-.272c-1.121-2.485-2.747-3.688-4.94-3.688-2.096 0-3.673 1.097-4.787 3.362l.825-.22c.29-.078.591.107.673.413.082.306-.086.617-.376.694l-2.098.562c-.29.078-.59-.107-.673-.413L.997 4.329c-.082-.306.087-.617.376-.695.29-.077.591.108.673.414l.243.906zM12.925 10.4l-.972.26a.545.545 0 01-.283-1.054l2.1-.563a.545.545 0 01.667.387l.565 2.11a.545.545 0 11-1.05.28l-.18-.675C12.475 13.692 10.526 15 7.98 15c-2.636 0-4.633-1.403-5.927-4.132a.547.547 0 01.257-.728.543.543 0 01.725.258c1.122 2.366 2.75 3.51 4.945 3.51 2.196 0 3.824-1.144 4.946-3.509z" fill="#D94454" fill-rule="evenodd"/></svg>
