<?xml version="1.0" encoding="UTF-8"?>
<svg width="64px" height="64px" viewBox="0 0 64 64" version="1.1" xmlns="http://www.w3.org/2000/svg" xmlns:xlink="http://www.w3.org/1999/xlink">
    <!-- Generator: Sketch 56.3 (81716) - https://sketch.com -->
    <title>atoms / icon / 64px / thick / withdraw</title>
    <desc>Created with Sketch.</desc>
    <g id="atoms-/-icon-/-64px-/-thick-/-withdraw" stroke="none" stroke-width="1" fill="none" fill-rule="evenodd">
        <g id="atoms-/-spacing-/-boundingBox">
            <rect id="boundingBox" x="0" y="0" width="64" height="64"></rect>
        </g>
        <path d="M30,30.1715729 L27.7573593,32.4142136 C26.9763107,33.1952621 25.7099808,33.1952621 24.9289322,32.4142136 C24.1478836,31.633165 24.1478836,30.366835 24.9289322,29.5857864 L30.5857864,23.9289322 C31.366835,23.1478836 32.633165,23.1478836 33.4142136,23.9289322 L39.0710678,29.5857864 C39.8521164,30.366835 39.8521164,31.633165 39.0710678,32.4142136 C38.2900192,33.1952621 37.0236893,33.1952621 36.2426407,32.4142136 L34,30.1715729 L34,54 C34,55.1045695 33.1045695,56 32,56 C30.8954305,56 30,55.1045695 30,54 L30,30.1715729 Z M12,52 L21.6666667,52 C22.7712362,52 23.6666667,52.8954305 23.6666667,54 C23.6666667,55.1045695 22.7712362,56 21.6666667,56 L11.8333333,56 C9.71624179,56 8,54.2837582 8,52.1666667 L8,11.8333333 C8,9.71624179 9.71624179,8 11.8333333,8 L52.1666667,8 C54.2837582,8 56,9.71624179 56,11.8333333 L56,52.1666667 C56,54.2837582 54.2837582,56 52.1666667,56 L42.3333333,56 C41.2287638,56 40.3333333,55.1045695 40.3333333,54 C40.3333333,52.8954305 41.2287638,52 42.3333333,52 L52,52 L52,12 L12,12 L12,52 Z" id="🎨-icon-colour" fill="#F4C14D"></path>
    </g>
</svg>