<svg width="80" height="80" xmlns="http://www.w3.org/2000/svg"><g fill="none" fill-rule="evenodd"><path d="M0 0h64v64H0z"/><g transform="rotate(15 20.832 62.18)"><path d="M1.118 40.267h73a.5.5 0 01.5.5v20a.5.5 0 01-.5.5h-73a.5.5 0 01-.5-.5v-20a.5.5 0 01.5-.5z" fill="#27223F"/><path d="M9.733 47.345h32a.5.5 0 01.5.5v6a.5.5 0 01-.5.5h-32a.5.5 0 01-.5-.5v-6a.5.5 0 01.5-.5z" fill="#535285"/><path d="M24.538.134L72.08 43.47a10.005 10.005 0 01.736 14.043c-3.583 4.029-9.754 4.39-13.782.807a9.762 9.762 0 01-.09-.08L11.404 14.903 24.538.133z" fill="#6F6E98"/><circle stroke="#8F8EB1" fill="#27223F" cx="65.639" cy="51.023" r="5"/><path d="M10.427 60.808h7a.5.5 0 01.5.5v2a.5.5 0 01-.5.5h-7a.5.5 0 01-.5-.5v-2a.5.5 0 01.5-.5zM35.162 60.392h7a.5.5 0 01.5.5v2a.5.5 0 01-.5.5h-7a.5.5 0 01-.5-.5v-2a.5.5 0 01.5-.5z" fill="#27223F"/></g></g></svg>
