<svg width="102" height="88" viewBox="0 0 102 88" fill="none" xmlns="http://www.w3.org/2000/svg">
<circle cx="40" cy="40" r="40" fill="black"/>
<path fill-rule="evenodd" clip-rule="evenodd" d="M52.3729 44.6934C62.96 46.2591 70.3468 49.8001 70.3468 53.9177C70.3468 59.486 56.8377 64 40.1734 64C23.5091 64 10 59.486 10 53.9177C10 49.8001 17.3868 46.2591 27.9739 44.6934C31.6103 45.4329 35.7634 45.8518 40.1734 45.8518C44.4728 45.8518 48.528 45.4537 52.0985 44.749L52.3729 44.6934Z" fill="white"/>
<path fill-rule="evenodd" clip-rule="evenodd" d="M47.8099 28.1157C57.3987 29.1834 64.3121 32.2067 64.3121 35.7695C64.3121 40.2242 53.5048 43.8354 40.1734 43.8354C26.8419 43.8354 16.0347 40.2242 16.0347 35.7695C16.0347 32.2067 22.948 29.1834 32.5369 28.1157C34.8855 28.4997 37.4657 28.7119 40.1734 28.7119C42.7863 28.7119 45.2806 28.5143 47.5625 28.1555L47.8099 28.1157Z" fill="white"/>
<path d="M40.1734 27.0988C50.1719 27.0988 58.2774 24.3904 58.2774 21.0494C58.2774 17.7084 50.1719 15 40.1734 15C30.1748 15 22.0693 17.7084 22.0693 21.0494C22.0693 24.3904 30.1748 27.0988 40.1734 27.0988Z" fill="white"/>
<path d="M79.0044 88C91.4308 88 101.504 77.9264 101.504 65.5C101.504 53.0736 91.4308 43 79.0044 43C66.578 43 56.5044 53.0736 56.5044 65.5C56.5044 77.9264 66.578 88 79.0044 88Z" fill="#1E1A31"/>
<path opacity="0.5" fill-rule="evenodd" clip-rule="evenodd" d="M74.1181 74.2793L72.2456 72.9433L84.0231 56.5793L85.8956 57.9152L74.1181 74.2793Z" fill="white"/>
<path fill-rule="evenodd" clip-rule="evenodd" d="M80.1848 64.3524H80.8135C83.7081 64.3524 86.0546 66.6912 86.0546 69.5762C86.0546 72.4612 83.7081 74.8 80.8135 74.8H73.106C72.4701 74.8 71.9546 74.2862 71.9546 73.6524C71.9546 73.0186 72.4701 72.5048 73.106 72.5048H80.8135C82.4363 72.5048 83.7518 71.1936 83.7518 69.5762C83.7518 67.9588 82.4363 66.6476 80.8135 66.6476H77.8249H77.8244H77.1957C74.3011 66.6476 71.9546 64.3088 71.9546 61.4238C71.9546 58.5388 74.3011 56.2 77.1957 56.2H84.9032C85.5391 56.2 86.0546 56.7138 86.0546 57.3476C86.0546 57.9814 85.5391 58.4952 84.9032 58.4952H77.1957C75.5729 58.4952 74.2573 59.8063 74.2573 61.4238C74.2573 63.0412 75.5729 64.3524 77.1957 64.3524H80.1843C80.1845 64.3524 80.1846 64.3524 80.1848 64.3524Z" fill="white"/>
</svg>
