<svg width="114" height="110" viewBox="0 0 114 110" fill="none" xmlns="http://www.w3.org/2000/svg">
<path d="M34.5388 23.1049C33.4451 22.935 33.3989 22.915 33.9137 22.8358C34.9001 22.6838 37.2291 22.891 38.8342 23.2731C42.5812 24.1652 45.9908 26.4505 49.6303 30.5089L50.5972 31.5872L51.9803 31.3644C57.8075 30.4266 63.7355 31.1719 68.6936 33.4659C70.0576 34.0971 72.2083 35.3535 72.4769 35.6764C72.5627 35.7791 72.7199 36.4416 72.8263 37.1483C73.1945 39.5933 73.0103 41.4675 72.2635 42.8672C71.8573 43.629 71.8346 43.8703 72.1077 44.5223C72.3258 45.0426 72.9337 45.4275 73.5358 45.4268C74.768 45.4251 76.0941 43.4301 76.7086 40.6543L76.9527 39.5518L77.4362 40.1003C80.0886 43.11 82.1718 47.2146 82.5296 50.1362L82.6228 50.8978L82.1771 50.2054C81.4097 49.0138 80.6388 48.2025 79.6516 47.5483C77.8721 46.3689 75.9904 45.9677 71.0073 45.7046C66.5067 45.4671 63.9595 45.0821 61.4337 44.2571C57.1366 42.8539 54.9702 40.9851 49.8656 34.2773C47.5984 31.2981 46.1969 29.6496 44.803 28.3221C41.6354 25.3058 38.5229 23.7238 34.5388 23.1049Z" fill="#FF007A"/>
<path d="M73.4924 29.7569C73.6056 27.7606 73.876 26.4436 74.4194 25.2412C74.6345 24.7651 74.8361 24.3755 74.8672 24.3755C74.8983 24.3755 74.8049 24.7269 74.6594 25.1562C74.2642 26.3234 74.1995 27.9196 74.4715 29.777C74.817 32.1335 75.0134 32.4734 77.5003 35.0191C78.6668 36.2131 80.0235 37.7189 80.5153 38.3654L81.4096 39.5411L80.5153 38.7009C79.4216 37.6736 76.9065 35.6699 76.3508 35.3834C75.9785 35.1914 75.9231 35.1946 75.6932 35.4237C75.4814 35.6349 75.4369 35.9519 75.4075 37.4514C75.3618 39.7882 75.0438 41.2882 74.2762 42.788C73.8612 43.5991 73.7956 43.4261 74.1714 42.5105C74.4518 41.8269 74.4803 41.5263 74.4782 39.2639C74.4739 34.7187 73.9351 33.626 70.7754 31.754C69.9749 31.2798 68.656 30.5958 67.8447 30.2341C67.0331 29.8724 66.3886 29.5572 66.412 29.5338C66.5015 29.4446 69.5829 30.3453 70.8232 30.8231C72.6679 31.5339 72.9725 31.6259 73.1966 31.5402C73.3467 31.4829 73.4194 31.0447 73.4924 29.7569Z" fill="#FF007A"/>
<path d="M36.6636 37.533C34.4431 34.4713 33.0694 29.7769 33.3667 26.2676L33.4588 25.1816L33.9641 25.2741C34.9134 25.4475 36.5498 26.0576 37.3162 26.5238C39.4191 27.8029 40.3295 29.487 41.2558 33.8117C41.5271 35.0783 41.8829 36.5117 42.0467 36.9971C42.3105 37.7783 43.3068 39.6028 44.1169 40.7878C44.7004 41.6411 44.3129 42.0456 43.023 41.9289C41.0532 41.7508 38.385 39.9066 36.6636 37.533Z" fill="#FF007A"/>
<path d="M70.7989 60.3202C60.422 56.1356 56.7673 52.5034 56.7673 46.3747C56.7673 45.4729 56.7984 44.7349 56.836 44.7349C56.8739 44.7349 57.2754 45.0326 57.7283 45.3964C59.8325 47.0867 62.1889 47.8087 68.7121 48.7618C72.5506 49.3228 74.7108 49.7758 76.7034 50.4377C83.037 52.5414 86.9556 56.8108 87.89 62.6259C88.1616 64.3157 88.0023 67.4842 87.562 69.1543C87.2146 70.4734 86.154 72.8509 85.8727 72.942C85.7946 72.9673 85.7182 72.6681 85.6982 72.2606C85.5915 70.0772 84.4898 67.9513 82.6396 66.3589C80.5359 64.5484 77.7095 63.1069 70.7989 60.3202Z" fill="#FF007A"/>
<path d="M63.5141 62.0585C63.384 61.2837 63.1586 60.2941 63.013 59.8595L62.7483 59.0693L63.2401 59.6223C63.9206 60.3873 64.4584 61.3664 64.9143 62.6703C65.2621 63.6655 65.3012 63.9614 65.2986 65.5788C65.296 67.1665 65.2525 67.4993 64.9313 68.395C64.4247 69.8076 63.7961 70.8093 62.7412 71.8844C60.8457 73.8166 58.4086 74.8863 54.8919 75.3301C54.2805 75.4071 52.4988 75.5371 50.9325 75.6186C46.9848 75.8241 44.3868 76.249 42.0523 77.0701C41.7166 77.1882 41.4169 77.2598 41.3866 77.2295C41.2921 77.1353 42.8816 76.1862 44.1945 75.5528C46.0456 74.6598 47.8883 74.1725 52.0172 73.4838C54.0568 73.1435 56.1631 72.7308 56.6979 72.5665C61.7488 71.0155 64.345 67.013 63.5141 62.0585Z" fill="#FF007A"/>
<path d="M68.2709 70.52C66.8923 67.5515 66.5757 64.6855 67.3309 62.0125C67.4118 61.727 67.5417 61.4932 67.62 61.4932C67.698 61.4932 68.0234 61.6694 68.3428 61.8847C68.9782 62.3131 70.2523 63.0344 73.6471 64.8882C77.8832 67.2014 80.2984 68.9926 81.941 71.039C83.3793 72.8313 84.2694 74.8724 84.698 77.3615C84.9404 78.7715 84.7983 82.1639 84.4372 83.5837C83.2982 88.0602 80.6511 91.5764 76.8755 93.6282C76.3223 93.9288 75.8258 94.1757 75.7721 94.1768C75.7184 94.1778 75.9198 93.6646 76.2199 93.0361C77.4901 90.377 77.6346 87.7904 76.6744 84.9114C76.0864 83.1485 74.8877 80.9975 72.4673 77.362C69.6532 73.1354 68.9632 72.0104 68.2709 70.52Z" fill="#FF007A"/>
<path d="M29.2942 86.5358C33.145 83.2793 37.9362 80.9659 42.3008 80.2559C44.1817 79.9497 47.3149 80.0712 49.0567 80.5176C51.8487 81.2333 54.3461 82.8361 55.6449 84.7457C56.9144 86.6121 57.459 88.2385 58.026 91.8572C58.2495 93.2847 58.4929 94.7181 58.5665 95.0427C58.9922 96.9181 59.821 98.4171 60.8476 99.1699C62.4786 100.365 65.2869 100.44 68.0493 99.3606C68.5182 99.1774 68.9252 99.0507 68.9539 99.0794C69.054 99.1789 67.6631 100.112 66.6816 100.603C65.3612 101.263 64.3111 101.519 62.9159 101.519C60.3858 101.519 58.2851 100.229 56.5323 97.6009C56.1875 97.0836 55.412 95.5341 54.8094 94.1579C52.9589 89.9301 52.0449 88.6422 49.8962 87.2327C48.0261 86.0063 45.6145 85.7868 43.8003 86.6778C41.4172 87.8479 40.7522 90.8982 42.4592 92.8313C43.1374 93.5995 44.4026 94.2621 45.4371 94.3909C47.3722 94.6321 49.0354 93.1576 49.0354 91.2006C49.0354 89.9299 48.5477 89.2049 47.3202 88.6501C45.6436 87.8924 43.8415 88.7779 43.8501 90.3556C43.8539 91.0281 44.1463 91.4506 44.8195 91.7556C45.2514 91.9514 45.2615 91.9669 44.9091 91.8936C43.3709 91.5741 43.0105 89.7167 44.2474 88.4836C45.7323 87.0032 48.8031 87.6565 49.8576 89.6772C50.3005 90.5258 50.352 92.2161 49.9658 93.2369C49.1013 95.5214 46.5809 96.7227 44.024 96.0689C42.2834 95.6237 41.5746 95.1419 39.4758 92.9766C35.8288 89.2141 34.413 88.4849 29.1553 87.6629L28.1477 87.5054L29.2942 86.5358Z" fill="#FF007A"/>
<path fill-rule="evenodd" clip-rule="evenodd" d="M1.79367 2.25058C13.973 17.0557 32.7497 40.1064 33.682 41.397C34.4516 42.4626 34.162 43.4205 32.8435 44.1713C32.1102 44.5888 30.6026 45.0118 29.8478 45.0118C28.9941 45.0118 28.0324 44.6001 27.3321 43.9346C26.8369 43.4644 24.8391 40.4764 20.2268 33.3086C16.6978 27.8242 13.7444 23.2746 13.6639 23.1984C13.4776 23.0222 13.4808 23.0282 19.867 34.4726C23.877 41.6589 25.2307 44.1996 25.2307 44.5393C25.2307 45.2304 25.0426 45.5936 24.1913 46.5446C22.7723 48.1301 22.138 49.9116 21.6801 53.5986C21.1666 57.7316 19.7232 60.6512 15.723 65.6479C13.3814 68.5729 12.9982 69.1089 12.4074 70.2879C11.663 71.7724 11.4584 72.6039 11.3755 74.4786C11.2879 76.4606 11.4586 77.7411 12.0633 79.6361C12.5925 81.2953 13.145 82.3907 14.5574 84.582C15.7763 86.4728 16.4784 87.8781 16.4784 88.4276C16.4784 88.8651 16.5617 88.8656 18.4506 88.4385C22.9707 87.4161 26.6413 85.6179 28.7056 83.4144C29.9831 82.0506 30.2831 81.2974 30.2928 79.4284C30.2992 78.2059 30.2563 77.9499 29.9264 77.2466C29.3893 76.1019 28.4115 75.1502 26.2564 73.6748C23.4328 71.7414 22.2268 70.185 21.8935 68.0445C21.6202 66.2882 21.9373 65.049 23.4994 61.77C25.1163 58.3759 25.5169 56.9295 25.788 53.5084C25.9631 51.2979 26.2055 50.4263 26.8396 49.7267C27.5008 48.9969 28.0961 48.75 29.7327 48.5259C32.4007 48.1609 34.0997 47.4696 35.4962 46.1807C36.7076 45.0626 37.2146 43.9853 37.2925 42.3634L37.3514 41.1341L36.6745 40.3436C34.2228 37.4805 0.151822 0 0.000932437 0C-0.031286 0 0.775466 1.01283 1.79367 2.25058ZM17.8545 76.7212C18.4089 75.7382 18.1144 74.4741 17.1871 73.8566C16.311 73.2731 14.95 73.548 14.95 74.3083C14.95 74.5403 15.0782 74.7092 15.3669 74.8581C15.8529 75.1086 15.8883 75.3902 15.5058 75.966C15.1185 76.5491 15.1498 77.0618 15.594 77.4101C16.3101 77.9717 17.3236 77.6629 17.8545 76.7212Z" fill="#FF007A"/>
<path fill-rule="evenodd" clip-rule="evenodd" d="M39.0351 49.1709C37.7827 49.5562 36.5651 50.8858 36.188 52.2801C35.9581 53.1306 36.0886 54.6225 36.4331 55.0832C36.9895 55.8274 37.5275 56.0235 38.9845 56.0132C41.8368 55.9933 44.3166 54.768 44.6049 53.2361C44.8413 51.9806 43.7521 50.2404 42.2521 49.4766C41.478 49.0824 39.8316 48.9261 39.0351 49.1709ZM42.3696 51.7824C42.8096 51.1566 42.6171 50.4799 41.869 50.0224C40.4444 49.1511 38.2898 49.872 38.2898 51.2201C38.2898 51.8912 39.4132 52.6232 40.4433 52.6232C41.1286 52.6232 42.0667 52.2139 42.3696 51.7824Z" fill="#FF007A"/>
<path d="M91.0044 110C103.431 110 113.504 99.9264 113.504 87.5C113.504 75.0736 103.431 65 91.0044 65C78.578 65 68.5044 75.0736 68.5044 87.5C68.5044 99.9264 78.578 110 91.0044 110Z" fill="#F4C14D"/>
<path d="M98.4414 94.3833L95.3544 96.3453V94.7073L97.3344 93.4653L95.3544 92.1963V90.7203L98.4414 92.6823L101.654 90.6213V92.2683L99.5394 93.6093L101.654 94.9773V96.4443L98.4414 94.3833Z" fill="#1E1A31"/>
<path d="M101.654 90.4525L95.3544 88.1485V86.5285L101.654 84.2425V85.6915L100.277 86.1775V88.5715L101.654 89.0575V90.4525ZM99.1884 88.2115V86.5465L96.7944 87.3835L99.1884 88.2115Z" fill="#1E1A31"/>
<path d="M95.3544 82.7373H99.0084C99.5184 82.7373 99.9024 82.6383 100.16 82.4403C100.418 82.2423 100.547 81.9303 100.547 81.5043C100.547 81.0783 100.418 80.7663 100.16 80.5683C99.9024 80.3643 99.5184 80.2623 99.0084 80.2623H95.3544V78.9123H98.9364C99.8364 78.9123 100.523 79.1343 100.997 79.5783C101.471 80.0163 101.708 80.6583 101.708 81.5043C101.708 82.3503 101.471 82.9923 100.997 83.4303C100.523 83.8683 99.8364 84.0873 98.9364 84.0873H95.3544V82.7373Z" fill="#1E1A31"/>
<path opacity="0.5" fill-rule="evenodd" clip-rule="evenodd" d="M80.7181 96.2796L78.8456 94.9437L90.6231 78.5796L92.4956 79.9155L80.7181 96.2796Z" fill="#1E1A31"/>
<path fill-rule="evenodd" clip-rule="evenodd" d="M86.7847 86.3526H87.4134C90.3079 86.3526 92.6544 88.6914 92.6544 91.5764C92.6544 94.4614 90.3079 96.8002 87.4134 96.8002H79.7058C79.0699 96.8002 78.5544 96.2864 78.5544 95.6526C78.5544 95.0188 79.0699 94.505 79.7058 94.505H87.4134C89.0362 94.505 90.3517 93.1938 90.3517 91.5764C90.3517 89.959 89.0362 88.6478 87.4134 88.6478H84.4247H84.4242H83.7955C80.901 88.6478 78.5544 86.309 78.5544 83.424C78.5544 80.539 80.901 78.2002 83.7955 78.2002H91.5031C92.139 78.2002 92.6544 78.714 92.6544 79.3478C92.6544 79.9816 92.139 80.4953 91.5031 80.4953H83.7955C82.1727 80.4953 80.8572 81.8065 80.8572 83.424C80.8572 85.0414 82.1727 86.3526 83.7955 86.3526H86.7842C86.7843 86.3526 86.7845 86.3526 86.7847 86.3526Z" fill="#1E1A31"/>
</svg>
