<svg width="114" height="110" viewBox="0 0 114 110" fill="none" xmlns="http://www.w3.org/2000/svg">
<path d="M35.0344 23.1049C33.9407 22.935 33.8945 22.915 34.4093 22.8358C35.3957 22.6838 37.7247 22.891 39.3298 23.2731C43.0768 24.1652 46.4864 26.4505 50.1259 30.5089L51.0928 31.5872L52.4759 31.3644C58.3031 30.4266 64.2311 31.1719 69.1893 33.4659C70.5532 34.0971 72.7039 35.3535 72.9725 35.6764C73.0583 35.7791 73.2155 36.4416 73.3219 37.1483C73.6901 39.5933 73.5059 41.4675 72.7591 42.8672C72.3529 43.629 72.3302 43.8703 72.6034 44.5223C72.8215 45.0426 73.4293 45.4275 74.0314 45.4268C75.2636 45.4251 76.5897 43.4301 77.2042 40.6543L77.4483 39.5518L77.9318 40.1003C80.5842 43.11 82.6674 47.2146 83.0252 50.1362L83.1184 50.8978L82.6727 50.2054C81.9053 49.0138 81.1344 48.2025 80.1473 47.5483C78.3677 46.3689 76.486 45.9677 71.5029 45.7046C67.0023 45.4671 64.4551 45.0821 61.9293 44.2571C57.6322 42.8539 55.4658 40.9851 50.3612 34.2773C48.094 31.2981 46.6925 29.6496 45.2986 28.3221C42.131 25.3058 39.0185 23.7238 35.0344 23.1049Z" fill="#FF007A"/>
<path d="M73.988 29.7569C74.1012 27.7606 74.3716 26.4436 74.915 25.2412C75.1301 24.7651 75.3318 24.3755 75.3628 24.3755C75.3939 24.3755 75.3005 24.7269 75.155 25.1562C74.7598 26.3234 74.6951 27.9196 74.9671 29.777C75.3127 32.1335 75.509 32.4734 77.9959 35.0191C79.1624 36.2131 80.5191 37.7189 81.0109 38.3654L81.9052 39.5411L81.0109 38.7009C79.9172 37.6736 77.4021 35.6699 76.8464 35.3834C76.4741 35.1914 76.4187 35.1946 76.1888 35.4237C75.9771 35.6349 75.9325 35.9519 75.9031 37.4514C75.8574 39.7882 75.5394 41.2882 74.7718 42.788C74.3568 43.5991 74.2913 43.4261 74.667 42.5105C74.9474 41.8269 74.9759 41.5263 74.9738 39.2639C74.9695 34.7187 74.4307 33.626 71.271 31.754C70.4705 31.2798 69.1517 30.5958 68.3403 30.2341C67.5288 29.8724 66.8842 29.5572 66.9076 29.5338C66.9971 29.4446 70.0785 30.3453 71.3188 30.8231C73.1635 31.5339 73.4681 31.6259 73.6922 31.5402C73.8423 31.4829 73.915 31.0447 73.988 29.7569Z" fill="#FF007A"/>
<path d="M37.1592 37.533C34.9387 34.4713 33.565 29.7769 33.8623 26.2676L33.9544 25.1816L34.4597 25.2741C35.409 25.4475 37.0454 26.0576 37.8118 26.5238C39.9147 27.8029 40.8251 29.487 41.7514 33.8117C42.0227 35.0783 42.3785 36.5117 42.5423 36.9971C42.8061 37.7783 43.8024 39.6028 44.6125 40.7878C45.196 41.6411 44.8085 42.0456 43.5186 41.9289C41.5488 41.7508 38.8806 39.9066 37.1592 37.533Z" fill="#FF007A"/>
<path d="M71.2945 60.3202C60.9176 56.1356 57.2629 52.5034 57.2629 46.3747C57.2629 45.4729 57.294 44.7349 57.3316 44.7349C57.3695 44.7349 57.771 45.0326 58.2239 45.3964C60.3281 47.0867 62.6845 47.8087 69.2077 48.7618C73.0462 49.3228 75.2064 49.7758 77.199 50.4377C83.5326 52.5414 87.4513 56.8108 88.3856 62.6259C88.6572 64.3157 88.4979 67.4842 88.0576 69.1543C87.7102 70.4734 86.6496 72.8509 86.3683 72.942C86.2902 72.9673 86.2138 72.6681 86.1938 72.2606C86.0871 70.0772 84.9854 67.9513 83.1352 66.3589C81.0315 64.5484 78.2051 63.1069 71.2945 60.3202Z" fill="#FF007A"/>
<path d="M64.0097 62.0585C63.8796 61.2837 63.6542 60.2941 63.5086 59.8595L63.2439 59.0693L63.7357 59.6223C64.4162 60.3873 64.954 61.3664 65.4099 62.6703C65.7577 63.6655 65.7968 63.9614 65.7942 65.5788C65.7916 67.1665 65.7481 67.4993 65.4269 68.395C64.9203 69.8076 64.2917 70.8093 63.2368 71.8844C61.3413 73.8166 58.9042 74.8863 55.3875 75.3301C54.7761 75.4071 52.9945 75.5371 51.4281 75.6186C47.4804 75.8241 44.8824 76.249 42.5479 77.0701C42.2122 77.1882 41.9125 77.2598 41.8822 77.2295C41.7877 77.1353 43.3772 76.1862 44.6901 75.5528C46.5412 74.6598 48.3839 74.1725 52.5128 73.4838C54.5524 73.1435 56.6587 72.7308 57.1935 72.5665C62.2444 71.0155 64.8406 67.013 64.0097 62.0585Z" fill="#FF007A"/>
<path d="M68.7665 70.52C67.3879 67.5515 67.0713 64.6855 67.8265 62.0125C67.9074 61.727 68.0373 61.4932 68.1156 61.4932C68.1936 61.4932 68.519 61.6694 68.8384 61.8847C69.4738 62.3131 70.7479 63.0344 74.1427 64.8882C78.3788 67.2014 80.794 68.9926 82.4366 71.039C83.8749 72.8313 84.7651 74.8724 85.1936 77.3615C85.436 78.7715 85.2939 82.1639 84.9328 83.5837C83.7938 88.0602 81.1467 91.5764 77.3711 93.6282C76.8179 93.9288 76.3214 94.1757 76.2677 94.1768C76.214 94.1778 76.4154 93.6646 76.7155 93.0361C77.9857 90.377 78.1302 87.7904 77.17 84.9114C76.582 83.1485 75.3833 80.9975 72.9629 77.362C70.1488 73.1354 69.4588 72.0104 68.7665 70.52Z" fill="#FF007A"/>
<path d="M29.7898 86.5358C33.6406 83.2793 38.4318 80.9659 42.7964 80.2559C44.6773 79.9497 47.8105 80.0712 49.5523 80.5176C52.3443 81.2333 54.8417 82.8361 56.1405 84.7457C57.41 86.6121 57.9546 88.2385 58.5216 91.8572C58.7451 93.2847 58.9885 94.7181 59.0621 95.0427C59.4878 96.9181 60.3166 98.4171 61.3432 99.1699C62.9742 100.365 65.7825 100.44 68.5449 99.3606C69.0139 99.1774 69.4208 99.0507 69.4495 99.0794C69.5496 99.1789 68.1587 100.112 67.1772 100.603C65.8568 101.263 64.8067 101.519 63.4115 101.519C60.8814 101.519 58.7807 100.229 57.0279 97.6009C56.6831 97.0836 55.9076 95.5341 55.305 94.1579C53.4545 89.9301 52.5405 88.6422 50.3918 87.2327C48.5217 86.0063 46.1101 85.7868 44.2959 86.6778C41.9128 87.8479 41.2478 90.8982 42.9548 92.8313C43.633 93.5995 44.8982 94.2621 45.9327 94.3909C47.8678 94.6321 49.531 93.1576 49.531 91.2006C49.531 89.9299 49.0433 89.2049 47.8158 88.6501C46.1392 87.8924 44.3371 88.7779 44.3457 90.3556C44.3495 91.0281 44.6419 91.4506 45.3151 91.7556C45.747 91.9514 45.7571 91.9669 45.4047 91.8936C43.8665 91.5741 43.5061 89.7167 44.743 88.4836C46.2279 87.0032 49.2987 87.6565 50.3532 89.6772C50.7961 90.5258 50.8476 92.2161 50.4614 93.2369C49.5969 95.5214 47.0765 96.7227 44.5196 96.0689C42.779 95.6237 42.0702 95.1419 39.9714 92.9766C36.3244 89.2141 34.9086 88.4849 29.6509 87.6629L28.6433 87.5054L29.7898 86.5358Z" fill="#FF007A"/>
<path fill-rule="evenodd" clip-rule="evenodd" d="M2.28927 2.25058C14.4686 17.0557 33.2453 40.1064 34.1776 41.397C34.9472 42.4626 34.6576 43.4205 33.3391 44.1713C32.6058 44.5888 31.0982 45.0118 30.3434 45.0118C29.4897 45.0118 28.5281 44.6001 27.8277 43.9346C27.3325 43.4644 25.3347 40.4764 20.7224 33.3086C17.1934 27.8242 14.24 23.2746 14.1595 23.1984C13.9732 23.0222 13.9764 23.0282 20.3626 34.4726C24.3726 41.6589 25.7263 44.1996 25.7263 44.5393C25.7263 45.2304 25.5382 45.5936 24.6869 46.5446C23.2679 48.1301 22.6336 49.9116 22.1757 53.5986C21.6622 57.7316 20.2188 60.6512 16.2186 65.6479C13.877 68.5729 13.4938 69.1089 12.903 70.2879C12.1586 71.7724 11.954 72.6039 11.8711 74.4786C11.7835 76.4606 11.9542 77.7411 12.5589 79.6361C13.0881 81.2953 13.6406 82.3907 15.053 84.582C16.272 86.4728 16.974 87.8781 16.974 88.4276C16.974 88.8651 17.0573 88.8656 18.9462 88.4385C23.4663 87.4161 27.1369 85.6179 29.2013 83.4144C30.4788 82.0506 30.7787 81.2974 30.7884 79.4284C30.7948 78.2059 30.7519 77.9499 30.422 77.2466C29.8849 76.1019 28.9071 75.1502 26.752 73.6748C23.9284 71.7414 22.7224 70.185 22.3891 68.0445C22.1158 66.2882 22.433 65.049 23.995 61.77C25.6119 58.3759 26.0125 56.9295 26.2836 53.5084C26.4587 51.2979 26.7011 50.4263 27.3352 49.7267C27.9964 48.9969 28.5917 48.75 30.2283 48.5259C32.8964 48.1609 34.5953 47.4696 35.9918 46.1807C37.2032 45.0626 37.7102 43.9853 37.7881 42.3634L37.8471 41.1341L37.1701 40.3436C34.7184 37.4805 0.647427 0 0.496538 0C0.464319 0 1.27107 1.01283 2.28927 2.25058ZM18.3501 76.7212C18.9045 75.7382 18.61 74.4741 17.6827 73.8566C16.8066 73.2731 15.4456 73.548 15.4456 74.3083C15.4456 74.5403 15.5739 74.7092 15.8625 74.8581C16.3485 75.1086 16.3839 75.3902 16.0014 75.966C15.6141 76.5491 15.6454 77.0618 16.0896 77.4101C16.8057 77.9717 17.8192 77.6629 18.3501 76.7212Z" fill="#FF007A"/>
<path fill-rule="evenodd" clip-rule="evenodd" d="M39.5307 49.1709C38.2783 49.5562 37.0607 50.8858 36.6836 52.2801C36.4537 53.1306 36.5842 54.6225 36.9287 55.0832C37.4851 55.8274 38.0231 56.0235 39.4801 56.0132C42.3324 55.9933 44.8122 54.768 45.1005 53.2361C45.3369 51.9806 44.2478 50.2404 42.7477 49.4766C41.9736 49.0824 40.3273 48.9261 39.5307 49.1709ZM42.8652 51.7824C43.3052 51.1566 43.1127 50.4799 42.3646 50.0224C40.94 49.1511 38.7854 49.872 38.7854 51.2201C38.7854 51.8912 39.9088 52.6232 40.9389 52.6232C41.6242 52.6232 42.5623 52.2139 42.8652 51.7824Z" fill="#FF007A"/>
<path d="M91.5 110C103.926 110 114 99.9264 114 87.5C114 75.0736 103.926 65 91.5 65C79.0736 65 69 75.0736 69 87.5C69 99.9264 79.0736 110 91.5 110Z" fill="#6E97FF"/>
<path d="M95.8501 95.3052V91.0752H97.0111V93.9552H98.4241V91.6152H99.5311V93.9552H100.989V90.9762H102.15V95.3052H95.8501Z" fill="#1E1A31"/>
<path d="M95.8501 90.611V85.625H97.0111V87.443H102.15V88.793H97.0111V90.611H95.8501Z" fill="#1E1A31"/>
<path d="M95.8501 84.8901V83.5401H98.3791V81.0381H95.8501V79.6881H102.15V81.0381H99.5491V83.5401H102.15V84.8901H95.8501Z" fill="#1E1A31"/>
<path opacity="0.5" fill-rule="evenodd" clip-rule="evenodd" d="M81.2136 96.2796L79.3411 94.9437L91.1185 78.5796L92.9911 79.9155L81.2136 96.2796Z" fill="#1E1A31"/>
<path fill-rule="evenodd" clip-rule="evenodd" d="M87.2803 86.3526H87.909C90.8035 86.3526 93.1501 88.6914 93.1501 91.5764C93.1501 94.4614 90.8035 96.8002 87.909 96.8002H80.2014C79.5655 96.8002 79.05 96.2864 79.05 95.6526C79.05 95.0188 79.5655 94.505 80.2014 94.505H87.909C89.5318 94.505 90.8473 93.1938 90.8473 91.5764C90.8473 89.959 89.5318 88.6478 87.909 88.6478H84.9203H84.9198H84.2911C81.3966 88.6478 79.05 86.309 79.05 83.424C79.05 80.539 81.3966 78.2002 84.2911 78.2002H91.9987C92.6346 78.2002 93.1501 78.714 93.1501 79.3478C93.1501 79.9816 92.6346 80.4953 91.9987 80.4953H84.2911C82.6683 80.4953 81.3528 81.8065 81.3528 83.424C81.3528 85.0414 82.6683 86.3526 84.2911 86.3526H87.2798C87.2799 86.3526 87.2801 86.3526 87.2803 86.3526Z" fill="#1E1A31"/>
</svg>
