<svg width="60" height="60" viewBox="0 0 60 60" fill="none" xmlns="http://www.w3.org/2000/svg">
<mask id="mask0" mask-type="alpha" maskUnits="userSpaceOnUse" x="0" y="4" width="50" height="51">
<path fill-rule="evenodd" clip-rule="evenodd" d="M0 4.99072L49.7977 4.99072L49.7977 54.0103L0 54.0103L0 4.99072Z" fill="white"/>
</mask>
<g mask="url(#mask0)">
<path d="M47.1768 30.7905C47.1768 28.1293 46.6958 25.5802 45.8139 23.2209C45.2111 30.1726 41.4461 33.7433 37.5121 32.0805C33.8257 30.5222 36.3104 24.4476 36.4939 21.549C36.8031 16.6355 36.4781 11.0111 27.411 6.33489C31.1786 13.4298 27.8474 17.8364 24.3524 18.106C20.476 18.4027 16.9273 14.8269 18.2378 9.02194C13.9945 12.0999 13.87 17.2805 15.1791 20.6318C16.5446 24.1251 15.1254 27.0276 11.7942 27.3501C8.07378 27.7113 6.00587 23.4273 7.9126 16.6006C4.61284 20.4254 2.62094 25.379 2.62094 30.7905C2.62094 42.9022 12.5949 52.7203 24.8989 52.7203C37.2028 52.7203 47.1768 42.9022 47.1768 30.7905" fill="#F4900C"/>
</g>
<path fill-rule="evenodd" clip-rule="evenodd" d="M24.3524 18.106C20.4773 18.404 16.9273 14.8269 18.2378 9.02194V9.02194C13.9932 12.0999 13.8713 17.2817 15.1804 20.6318V20.6318C16.5446 24.1251 15.1254 27.0276 11.7942 27.3501V27.3501C8.07378 27.7113 6.00718 23.426 7.9126 16.6006V16.6006C4.61284 20.4254 2.62094 25.379 2.62094 30.7905V30.7905C2.62094 42.9022 12.5949 52.7203 24.8989 52.7203V52.7203C37.2028 52.7203 47.1768 42.9022 47.1768 30.7905V30.7905C47.1768 28.1293 46.6958 25.5802 45.8139 23.2209V23.2209C45.2111 30.1713 41.4461 33.7433 37.5121 32.0805V32.0805C33.8271 30.5222 36.3104 24.4476 36.4939 21.549V21.549C36.8031 16.6355 36.4781 11.0111 27.411 6.33489V6.33489C31.1786 13.4285 27.8474 17.8377 24.3524 18.106" fill="url(#paint0_linear)"/>
<mask id="mask1" mask-type="alpha" maskUnits="userSpaceOnUse" x="2" y="6" width="46" height="47">
<path fill-rule="evenodd" clip-rule="evenodd" d="M24.3524 18.106C20.4773 18.404 16.9273 14.8269 18.2378 9.02194V9.02194C13.9932 12.0999 13.8713 17.2817 15.1804 20.6318V20.6318C16.5446 24.1251 15.1254 27.0276 11.7942 27.3501V27.3501C8.07378 27.7113 6.00718 23.426 7.9126 16.6006V16.6006C4.61284 20.4254 2.62094 25.379 2.62094 30.7905V30.7905C2.62094 42.9022 12.5949 52.7203 24.8989 52.7203V52.7203C37.2028 52.7203 47.1768 42.9022 47.1768 30.7905V30.7905C47.1768 28.1293 46.6958 25.5802 45.8139 23.2209V23.2209C45.2111 30.1713 41.4461 33.7433 37.5121 32.0805V32.0805C33.8271 30.5222 36.3104 24.4476 36.4939 21.549V21.549C36.8031 16.6355 36.4781 11.0111 27.411 6.33489V6.33489C31.1786 13.4285 27.8474 17.8377 24.3524 18.106" fill="white"/>
</mask>
<g mask="url(#mask1)">
<path d="M40.6244 44.9804C40.6244 42.1592 39.8591 39.516 38.5211 37.2392C38.7138 41.2175 35.1637 42.7771 33.2531 42.0237C30.4945 40.9363 31.2336 39.0684 30.5234 35.1984C29.8131 31.3284 27.0834 28.6401 23.0419 27.4585C25.9905 35.628 21.4078 38.6388 19.0057 39.1767C16.5525 39.7263 14.0875 39.1755 13.8058 34.0078C10.945 36.8122 9.17326 40.6925 9.17326 44.9804C9.17326 53.5292 16.2144 60.4603 24.8989 60.4603C33.5833 60.4603 40.6244 53.5292 40.6244 44.9804" fill="#FFCD1D"/>
</g>
<circle cx="47.3684" cy="41.8947" r="12.6316" fill="url(#paint1_linear)"/>
<path d="M46.7936 44.4147H48.8399L49.3704 35.7368H46.263L46.7936 44.4147ZM46.2441 47.56C46.2441 48.4126 46.9262 49.1137 47.8167 49.1137C48.7072 49.1137 49.3893 48.4126 49.3893 47.56C49.3893 46.6694 48.6693 45.9684 47.8167 45.9684C46.9641 45.9684 46.2441 46.6694 46.2441 47.56Z" fill="white"/>
<defs>
<linearGradient id="paint0_linear" x1="24.8989" y1="52.7203" x2="24.8989" y2="6.33489" gradientUnits="userSpaceOnUse">
<stop stop-color="#F79D08"/>
<stop offset="1" stop-color="#FFC030"/>
</linearGradient>
<linearGradient id="paint1_linear" x1="46.579" y1="9.72368" x2="76.7444" y2="35.5015" gradientUnits="userSpaceOnUse">
<stop offset="0.0163564" stop-color="#FB6758"/>
<stop offset="1" stop-color="#CB3B79"/>
</linearGradient>
</defs>
</svg>
