<svg width="144" height="144" viewBox="0 0 144 144" fill="none" xmlns="http://www.w3.org/2000/svg">
<g filter="url(#filter0_d-925637)">
<mask id="mask0-939064" mask-type="alpha" maskUnits="userSpaceOnUse" x="40" y="41" width="64" height="63">
<path fill-rule="evenodd" clip-rule="evenodd" d="M40 41.2549L103.077 41.2549V103.346L40 103.346L40 41.2549Z" fill="white"/>
</mask>
<g mask="url(#mask0-939064)">
<path d="M99.7572 73.9346C99.7572 70.5637 99.1481 67.335 98.0309 64.3464C97.2674 73.152 92.4984 77.6748 87.5153 75.5686C82.8459 73.5948 85.9932 65.9003 86.2256 62.2288C86.6173 56.0049 86.2056 48.8807 74.7206 42.9575C79.4929 51.9444 75.2734 57.5261 70.8464 57.8676C65.9363 58.2435 61.4412 53.7141 63.1012 46.3611C57.7263 50.2598 57.5686 56.8219 59.2269 61.067C60.9565 65.4918 59.1588 69.1683 54.9393 69.5768C50.2268 70.0343 47.6074 64.6078 50.0226 55.9608C45.8429 60.8056 43.3199 67.0801 43.3199 73.9346C43.3199 89.2761 55.9535 101.712 71.5385 101.712C87.1236 101.712 99.7572 89.2761 99.7572 73.9346Z" fill="#F4900C"/>
</g>
<path fill-rule="evenodd" clip-rule="evenodd" d="M70.8464 57.8676C65.938 58.2451 61.4412 53.7141 63.1012 46.3611C57.7247 50.2598 57.5703 56.8235 59.2286 61.067C60.9565 65.4918 59.1588 69.1683 54.9393 69.5768C50.2268 70.0343 47.6091 64.6062 50.0226 55.9608C45.8429 60.8056 43.3199 67.0801 43.3199 73.9346C43.3199 89.2761 55.9535 101.712 71.5385 101.712C87.1236 101.712 99.7572 89.2761 99.7572 73.9346C99.7572 70.5637 99.1481 67.335 98.0309 64.3464C97.2674 73.1503 92.4984 77.6748 87.5153 75.5686C82.8476 73.5948 85.9932 65.9003 86.2256 62.2288C86.6173 56.0049 86.2056 48.8807 74.7206 42.9575C79.4929 51.9428 75.2734 57.5278 70.8464 57.8676Z" fill="url(#paint0_linear-377927)"/>
<mask id="mask1-663257" mask-type="alpha" maskUnits="userSpaceOnUse" x="43" y="42" width="57" height="60">
<path fill-rule="evenodd" clip-rule="evenodd" d="M70.8464 57.8676C65.938 58.2451 61.4412 53.7141 63.1012 46.3611C57.7247 50.2598 57.5703 56.8235 59.2286 61.067C60.9565 65.4918 59.1588 69.1683 54.9393 69.5768C50.2268 70.0343 47.6091 64.6062 50.0226 55.9608C45.8429 60.8056 43.3199 67.0801 43.3199 73.9346C43.3199 89.2761 55.9535 101.712 71.5385 101.712C87.1236 101.712 99.7572 89.2761 99.7572 73.9346C99.7572 70.5637 99.1481 67.335 98.0309 64.3464C97.2674 73.1503 92.4984 77.6748 87.5153 75.5686C82.8476 73.5948 85.9932 65.9003 86.2256 62.2288C86.6173 56.0049 86.2056 48.8807 74.7206 42.9575C79.4929 51.9428 75.2734 57.5278 70.8464 57.8676Z" fill="white"/>
</mask>
<g mask="url(#mask1-663257)">
<path d="M91.4576 91.9085C91.4576 88.335 90.4882 84.9869 88.7935 82.1029C89.0375 87.1422 84.5407 89.1176 82.1206 88.1634C78.6264 86.7859 79.5626 84.4199 78.6629 79.518C77.7633 74.616 74.3056 71.2108 69.1864 69.7141C72.9213 80.0621 67.1165 83.8758 64.0739 84.5572C60.9665 85.2533 57.8442 84.5556 57.4873 78.0098C53.8637 81.5621 51.6195 86.4771 51.6195 91.9085C51.6195 102.737 60.5382 111.516 71.5386 111.516C82.5389 111.516 91.4576 102.737 91.4576 91.9085Z" fill="#FFCD1D"/>
</g>
</g>
<defs>
<filter id="filter0_d-925637" x="0" y="0" width="144" height="144" filterUnits="userSpaceOnUse" color-interpolation-filters="sRGB">
<feFlood flood-opacity="0" result="BackgroundImageFix"/>
<feColorMatrix in="SourceAlpha" type="matrix" values="0 0 0 0 0 0 0 0 0 0 0 0 0 0 0 0 0 0 127 0"/>
<feOffset/>
<feGaussianBlur stdDeviation="20"/>
<feColorMatrix type="matrix" values="0 0 0 0 1 0 0 0 0 0.803922 0 0 0 0 0.113725 0 0 0 0.2 0"/>
<feBlend mode="normal" in2="BackgroundImageFix" result="effect1_dropShadow"/>
<feBlend mode="normal" in="SourceGraphic" in2="effect1_dropShadow" result="shape"/>
</filter>
<linearGradient id="paint0_linear-377927" x1="71.5385" y1="101.712" x2="71.5385" y2="42.9575" gradientUnits="userSpaceOnUse">
<stop stop-color="#F79D08"/>
<stop offset="1" stop-color="#FFC030"/>
</linearGradient>
</defs>
</svg>