<svg width="144" height="144" viewBox="0 0 144 144" fill="none" xmlns="http://www.w3.org/2000/svg">
<g filter="url(#filter0_d)">
<mask id="mask0" mask-type="alpha" maskUnits="userSpaceOnUse" x="40" y="41" width="64" height="63">
<path fill-rule="evenodd" clip-rule="evenodd" d="M40 41.2549L103.077 41.2549V103.346L40 103.346L40 41.2549Z" fill="white"/>
</mask>
<g mask="url(#mask0)">
<path d="M99.7572 73.9346C99.7572 70.5637 99.148 67.335 98.0309 64.3464C97.2673 73.1519 92.4984 77.6748 87.5153 75.5686C82.8459 73.5948 85.9931 65.9003 86.2255 62.2287C86.6173 56.0049 86.2056 48.8807 74.7206 42.9575C79.4929 51.9444 75.2733 57.5261 70.8463 57.8676C65.9363 58.2434 61.4412 53.714 63.1011 46.3611C57.7263 50.2598 57.5686 56.8219 59.2269 61.067C60.9565 65.4918 59.1588 69.1683 54.9393 69.5768C50.2268 70.0343 47.6074 64.6078 50.0226 55.9608C45.8429 60.8055 43.3198 67.08 43.3198 73.9346C43.3198 89.2761 55.9535 101.712 71.5385 101.712C87.1235 101.712 99.7572 89.2761 99.7572 73.9346Z" fill="#F4900C"/>
</g>
<path fill-rule="evenodd" clip-rule="evenodd" d="M70.8463 57.8676C65.9379 58.2451 61.4412 53.714 63.1011 46.3611C57.7246 50.2598 57.5703 56.8235 59.2285 61.067C60.9565 65.4918 59.1588 69.1683 54.9393 69.5768C50.2268 70.0343 47.6091 64.6062 50.0226 55.9608C45.8429 60.8055 43.3198 67.08 43.3198 73.9346C43.3198 89.2761 55.9535 101.712 71.5385 101.712C87.1235 101.712 99.7572 89.2761 99.7572 73.9346C99.7572 70.5637 99.148 67.335 98.0309 64.3464C97.2673 73.1503 92.4984 77.6748 87.5153 75.5686C82.8476 73.5948 85.9931 65.9003 86.2255 62.2287C86.6173 56.0049 86.2056 48.8807 74.7206 42.9575C79.4929 51.9428 75.2733 57.5278 70.8463 57.8676Z" fill="url(#paint0_linear)"/>
<mask id="mask1" mask-type="alpha" maskUnits="userSpaceOnUse" x="43" y="42" width="57" height="60">
<path fill-rule="evenodd" clip-rule="evenodd" d="M70.8463 57.8676C65.9379 58.2451 61.4412 53.714 63.1011 46.3611C57.7246 50.2598 57.5703 56.8235 59.2285 61.067C60.9565 65.4918 59.1588 69.1683 54.9393 69.5768C50.2268 70.0343 47.6091 64.6062 50.0226 55.9608C45.8429 60.8055 43.3198 67.08 43.3198 73.9346C43.3198 89.2761 55.9535 101.712 71.5385 101.712C87.1235 101.712 99.7572 89.2761 99.7572 73.9346C99.7572 70.5637 99.148 67.335 98.0309 64.3464C97.2673 73.1503 92.4984 77.6748 87.5153 75.5686C82.8476 73.5948 85.9931 65.9003 86.2255 62.2287C86.6173 56.0049 86.2056 48.8807 74.7206 42.9575C79.4929 51.9428 75.2733 57.5278 70.8463 57.8676Z" fill="white"/>
</mask>
<g mask="url(#mask1)">
<path d="M91.4575 91.9085C91.4575 88.3349 90.4881 84.9869 88.7934 82.1029C89.0374 87.1421 84.5406 89.1176 82.1205 88.1634C78.6263 86.7859 79.5625 84.4199 78.6629 79.5179C77.7632 74.616 74.3056 71.2107 69.1864 69.714C72.9212 80.062 67.1164 83.8758 64.0738 84.5571C60.9664 85.2532 57.8441 84.5555 57.4872 78.0098C53.8636 81.562 51.6194 86.4771 51.6194 91.9085C51.6194 102.737 60.5382 111.516 71.5385 111.516C82.5388 111.516 91.4575 102.737 91.4575 91.9085Z" fill="#FFCD1D"/>
</g>
</g>
<circle cx="100" cy="88" r="16" fill="url(#paint1_linear)"/>
<path d="M99.2718 91.192H101.864L102.536 80.2H98.5998L99.2718 91.192ZM98.5758 95.176C98.5758 96.256 99.4398 97.144 100.568 97.144C101.696 97.144 102.56 96.256 102.56 95.176C102.56 94.048 101.648 93.16 100.568 93.16C99.4878 93.16 98.5758 94.048 98.5758 95.176Z" fill="white"/>
<defs>
<filter id="filter0_d" x="0" y="0" width="144" height="144" filterUnits="userSpaceOnUse" color-interpolation-filters="sRGB">
<feFlood flood-opacity="0" result="BackgroundImageFix"/>
<feColorMatrix in="SourceAlpha" type="matrix" values="0 0 0 0 0 0 0 0 0 0 0 0 0 0 0 0 0 0 127 0"/>
<feOffset/>
<feGaussianBlur stdDeviation="20"/>
<feColorMatrix type="matrix" values="0 0 0 0 1 0 0 0 0 0.803922 0 0 0 0 0.113725 0 0 0 0.2 0"/>
<feBlend mode="normal" in2="BackgroundImageFix" result="effect1_dropShadow"/>
<feBlend mode="normal" in="SourceGraphic" in2="effect1_dropShadow" result="shape"/>
</filter>
<linearGradient id="paint0_linear" x1="71.5385" y1="101.712" x2="71.5385" y2="42.9575" gradientUnits="userSpaceOnUse">
<stop stop-color="#F79D08"/>
<stop offset="1" stop-color="#FFC030"/>
</linearGradient>
<linearGradient id="paint1_linear" x1="99" y1="47.25" x2="137.21" y2="79.9019" gradientUnits="userSpaceOnUse">
<stop offset="0.0163564" stop-color="#FB6758"/>
<stop offset="1" stop-color="#CB3B79"/>
</linearGradient>
</defs>
</svg>
