<svg width="140" height="136" viewBox="0 0 140 136" fill="none" xmlns="http://www.w3.org/2000/svg">
<g filter="url(#filter0_d)">
<path d="M96.3562 40.8L73.6493 57.6L77.8479 47.688L96.3562 40.8Z" fill="#F6B91B" stroke="#F6B91B"/>
<path fill-rule="evenodd" clip-rule="evenodd" d="M43.9308 41.1347L66.6413 58.0598L62.6153 48.009L43.9308 41.1347ZM88.5471 79.9987L82.4492 89.2097L95.4958 92.7489L99.2464 80.2025L88.5471 79.9987ZM45.2426 92.7489L41.5152 80.2025L52.1914 79.9982L58.2893 89.2097L45.2426 92.7489Z" fill="url(#paint0_linear)"/>
<path d="M66.6413 58.0598L66.3425 58.4607L67.7652 59.521L67.1054 57.8739L66.6413 58.0598ZM43.9308 41.1347L44.1034 40.6655L43.632 41.5357L43.9308 41.1347ZM62.6153 48.009L63.0794 47.823L62.9967 47.6165L62.7879 47.5397L62.6153 48.009ZM82.4492 89.2097L82.0323 88.9337L81.6501 89.511L82.3183 89.6922L82.4492 89.2097ZM88.5471 79.9987L88.5566 79.4988L88.2818 79.4936L88.1302 79.7227L88.5471 79.9987ZM95.4958 92.7489L95.3649 93.2315L95.8353 93.3591L95.9749 92.8921L95.4958 92.7489ZM99.2464 80.2025L99.7254 80.3457L99.9139 79.7152L99.2559 79.7026L99.2464 80.2025ZM41.5152 80.2025L41.5056 79.7026L40.8488 79.7152L41.0359 80.3449L41.5152 80.2025ZM45.2426 92.7489L44.7634 92.8913L44.9024 93.3593L45.3736 93.2315L45.2426 92.7489ZM52.1914 79.9982L52.6083 79.7222L52.4566 79.4931L52.1819 79.4983L52.1914 79.9982ZM58.2893 89.2097L58.4202 89.6922L59.0884 89.511L58.7062 88.9337L58.2893 89.2097ZM66.9401 57.6589L44.2296 40.7338L43.632 41.5357L66.3425 58.4607L66.9401 57.6589ZM62.1511 48.1949L66.1771 58.2457L67.1054 57.8739L63.0794 47.823L62.1511 48.1949ZM43.7581 41.604L62.4426 48.4782L62.7879 47.5397L44.1034 40.6655L43.7581 41.604ZM82.8661 89.4857L88.964 80.2747L88.1302 79.7227L82.0323 88.9337L82.8661 89.4857ZM95.6267 92.2664L82.5801 88.7271L82.3183 89.6922L95.3649 93.2315L95.6267 92.2664ZM98.7673 80.0593L95.0168 92.6057L95.9749 92.8921L99.7254 80.3457L98.7673 80.0593ZM88.5375 80.4986L99.2369 80.7024L99.2559 79.7026L88.5566 79.4988L88.5375 80.4986ZM41.0359 80.3449L44.7634 92.8913L45.7219 92.6065L41.9945 80.0601L41.0359 80.3449ZM52.1819 79.4983L41.5056 79.7026L41.5247 80.7024L52.201 80.4982L52.1819 79.4983ZM58.7062 88.9337L52.6083 79.7222L51.7745 80.2742L57.8724 89.4857L58.7062 88.9337ZM45.3736 93.2315L58.4202 89.6922L58.1584 88.7271L45.1117 92.2664L45.3736 93.2315Z" fill="#FFAA04"/>
<path fill-rule="evenodd" clip-rule="evenodd" d="M74.189 56.5393L83.1626 64.4349L86.8213 69.8569L73.8895 70.4237L74.189 56.5393ZM53.9177 69.8573L57.5529 64.4349L66.4115 56.6985L66.8716 70.4242L53.9177 69.8573ZM58.2893 89.2097L66.0664 85.4661L59.3474 80.2935L58.2893 89.2097ZM82.4492 89.2097L74.6491 85.4661L81.368 80.2935L82.4492 89.2097Z" fill="#FF8B00"/>
<path d="M83.1626 64.4349L83.577 64.1552L83.5411 64.102L83.4929 64.0595L83.1626 64.4349ZM74.189 56.5393L74.5193 56.1639L73.7123 55.4538L73.6891 56.5285L74.189 56.5393ZM86.8213 69.8569L86.8432 70.3564L87.7352 70.3173L87.2358 69.5772L86.8213 69.8569ZM73.8895 70.4237L73.3897 70.413L73.3781 70.9466L73.9114 70.9233L73.8895 70.4237ZM57.5529 64.4349L57.224 64.0583L57.1743 64.1017L57.1375 64.1565L57.5529 64.4349ZM53.9177 69.8573L53.5024 69.5789L53.0069 70.3179L53.8958 70.3568L53.9177 69.8573ZM66.4115 56.6985L66.9112 56.6818L66.8759 55.6291L66.0826 56.3219L66.4115 56.6985ZM66.8716 70.4242L66.8497 70.9237L67.3894 70.9474L67.3713 70.4075L66.8716 70.4242ZM66.0664 85.4661L66.2832 85.9167L67.0142 85.5648L66.3714 85.0699L66.0664 85.4661ZM58.2893 89.2097L57.7928 89.1508L57.6855 90.0553L58.5062 89.6602L58.2893 89.2097ZM59.3474 80.2935L59.6524 79.8973L58.9546 79.3602L58.8509 80.2346L59.3474 80.2935ZM74.6491 85.4661L74.3441 85.0699L73.7004 85.5655L74.4327 85.9169L74.6491 85.4661ZM82.4492 89.2097L82.2328 89.6604L83.0554 90.0552L82.9456 89.1495L82.4492 89.2097ZM81.368 80.2935L81.8644 80.2333L81.7587 79.3618L81.063 79.8973L81.368 80.2935ZM83.4929 64.0595L74.5193 56.1639L73.8587 56.9147L82.8323 64.8103L83.4929 64.0595ZM87.2358 69.5772L83.577 64.1552L82.7481 64.7146L86.4068 70.1365L87.2358 69.5772ZM73.9114 70.9233L86.8432 70.3564L86.7994 69.3573L73.8676 69.9242L73.9114 70.9233ZM73.6891 56.5285L73.3897 70.413L74.3894 70.4345L74.6889 56.5501L73.6891 56.5285ZM57.1375 64.1565L53.5024 69.5789L54.333 70.1357L57.9682 64.7134L57.1375 64.1565ZM66.0826 56.3219L57.224 64.0583L57.8817 64.8115L66.7404 57.0751L66.0826 56.3219ZM67.3713 70.4075L66.9112 56.6818L65.9118 56.7153L66.3718 70.441L67.3713 70.4075ZM53.8958 70.3568L66.8497 70.9237L66.8934 69.9247L53.9395 69.3578L53.8958 70.3568ZM65.8495 85.0156L58.0724 88.7592L58.5062 89.6602L66.2832 85.9167L65.8495 85.0156ZM59.0424 80.6897L65.7613 85.8623L66.3714 85.0699L59.6524 79.8973L59.0424 80.6897ZM58.7858 89.2686L59.8439 80.3525L58.8509 80.2346L57.7928 89.1508L58.7858 89.2686ZM74.4327 85.9169L82.2328 89.6604L82.6655 88.7589L74.8654 85.0154L74.4327 85.9169ZM81.063 79.8973L74.3441 85.0699L74.9541 85.8623L81.6731 80.6897L81.063 79.8973ZM82.9456 89.1495L81.8644 80.2333L80.8717 80.3537L81.9528 89.2699L82.9456 89.1495Z" fill="#FF8B00"/>
<path fill-rule="evenodd" clip-rule="evenodd" d="M65.5683 92.5966L58.367 89.3201L66.0942 85.6918L65.5224 90.5513L65.5683 92.5966ZM74.6219 85.6918L82.372 89.3201L75.1707 92.5966L75.2394 90.5518L74.6219 85.6918Z" fill="#FFE2D0"/>
<path d="M58.367 89.3201L58.1545 88.8676L57.1754 89.3273L58.1599 89.7753L58.367 89.3201ZM65.5683 92.5966L65.3612 93.0517L66.086 93.3815L66.0682 92.5854L65.5683 92.5966ZM66.0942 85.6918L66.5907 85.7502L66.6958 84.8569L65.8816 85.2392L66.0942 85.6918ZM65.5224 90.5513L65.0259 90.4929L65.0218 90.5276L65.0226 90.5626L65.5224 90.5513ZM82.372 89.3201L82.579 89.7753L83.5651 89.3266L82.584 88.8673L82.372 89.3201ZM74.6219 85.6918L74.8339 85.239L74.0114 84.8539L74.1259 85.7548L74.6219 85.6918ZM75.1707 92.5966L74.671 92.5798L74.6438 93.3856L75.3777 93.0517L75.1707 92.5966ZM75.2394 90.5518L75.7392 90.5686L75.7405 90.5285L75.7355 90.4888L75.2394 90.5518ZM58.1599 89.7753L65.3612 93.0517L65.7754 92.1415L58.574 88.865L58.1599 89.7753ZM65.8816 85.2392L58.1545 88.8676L58.5795 89.7727L66.3067 86.1444L65.8816 85.2392ZM66.019 90.6098L66.5907 85.7502L65.5976 85.6334L65.0259 90.4929L66.019 90.6098ZM66.0682 92.5854L66.0223 90.5401L65.0226 90.5626L65.0684 92.6078L66.0682 92.5854ZM82.584 88.8673L74.8339 85.239L74.4099 86.1446L82.16 89.773L82.584 88.8673ZM75.3777 93.0517L82.579 89.7753L82.1649 88.865L74.9636 92.1415L75.3777 93.0517ZM74.7397 90.535L74.671 92.5798L75.6704 92.6134L75.7392 90.5686L74.7397 90.535ZM74.1259 85.7548L74.7434 90.6148L75.7355 90.4888L75.1179 85.6288L74.1259 85.7548Z" fill="#FFE2D0"/>
<path fill-rule="evenodd" clip-rule="evenodd" d="M58.2411 74.892L64.8153 76.8L62.8808 72.8L58.2411 74.892ZM76.2854 72.8L74.3504 76.8L80.948 74.892L76.2854 72.8Z" fill="#1B1B3F"/>
<path d="M64.8153 76.8L64.676 77.2802L65.7544 77.5932L65.2655 76.5823L64.8153 76.8ZM58.2411 74.892L58.0356 74.4362L56.7986 74.9939L58.1018 75.3722L58.2411 74.892ZM62.8808 72.8L63.3309 72.5823L63.119 72.1441L62.6752 72.3442L62.8808 72.8ZM74.3504 76.8L73.9003 76.5823L73.4118 77.5919L74.4893 77.2803L74.3504 76.8ZM76.2854 72.8L76.4901 72.3438L76.0469 72.1449L75.8353 72.5823L76.2854 72.8ZM80.948 74.892L81.0869 75.3723L82.3961 74.9937L81.1526 74.4358L80.948 74.892ZM64.9547 76.3198L58.3805 74.4118L58.1018 75.3722L64.676 77.2802L64.9547 76.3198ZM62.4306 73.0177L64.3652 77.0177L65.2655 76.5823L63.3309 72.5823L62.4306 73.0177ZM58.4466 75.3478L63.0863 73.2558L62.6752 72.3442L58.0356 74.4362L58.4466 75.3478ZM74.8005 77.0177L76.7355 73.0177L75.8353 72.5823L73.9003 76.5823L74.8005 77.0177ZM80.8091 74.4116L74.2115 76.3197L74.4893 77.2803L81.0869 75.3723L80.8091 74.4116ZM76.0807 73.2562L80.7433 75.3482L81.1526 74.4358L76.4901 72.3438L76.0807 73.2562Z" fill="#1B1B3F"/>
<path fill-rule="evenodd" clip-rule="evenodd" d="M86.3106 69.8721L73.4617 70.44L74.6505 77.0093L76.5482 73.0544L81.1206 75.1228L86.3106 69.8721ZM59.0586 80.0312L57.9615 89.2591L51.9027 80.2358L59.0586 80.0312ZM81.9665 89.2591L80.8694 80.0316L88.0253 80.2358L81.9665 89.2591ZM63.4027 73.054L58.8298 75.1223L53.6179 69.8721L66.4887 70.44L65.277 77.0088L63.4027 73.054Z" fill="#FF6B00"/>
<path d="M73.4617 70.44L73.4396 69.9405L72.8678 69.9658L72.9697 70.529L73.4617 70.44ZM86.3106 69.8721L86.6662 70.2236L87.563 69.3162L86.2885 69.3726L86.3106 69.8721ZM74.6505 77.0093L74.1585 77.0983L74.4335 78.6175L75.1013 77.2256L74.6505 77.0093ZM76.5482 73.0544L76.7543 72.5989L76.3089 72.3974L76.0974 72.8381L76.5482 73.0544ZM81.1206 75.1228L80.9145 75.5783L81.2316 75.7218L81.4762 75.4743L81.1206 75.1228ZM57.9615 89.2591L57.5464 89.5378L58.2987 90.6582L58.458 89.3181L57.9615 89.2591ZM59.0586 80.0312L59.5551 80.0902L59.6235 79.5148L59.0443 79.5314L59.0586 80.0312ZM51.9027 80.2358L51.8884 79.736L50.9822 79.7619L51.4876 80.5145L51.9027 80.2358ZM80.8694 80.0316L80.8836 79.5318L80.3044 79.5153L80.3729 80.0907L80.8694 80.0316ZM81.9665 89.2591L81.47 89.3181L81.6293 90.6581L82.3816 89.5378L81.9665 89.2591ZM88.0253 80.2358L88.4404 80.5145L88.9458 79.7619L88.0395 79.736L88.0253 80.2358ZM58.8298 75.1223L58.475 75.4746L58.7196 75.721L59.0359 75.5779L58.8298 75.1223ZM63.4027 73.054L63.8545 72.8398L63.6442 72.396L63.1966 72.5984L63.4027 73.054ZM53.6179 69.8721L53.6399 69.3726L52.3615 69.3162L53.263 70.2243L53.6179 69.8721ZM66.4887 70.44L66.9804 70.5307L67.0846 69.9658L66.5108 69.9405L66.4887 70.44ZM65.277 77.0088L64.8251 77.223L65.4879 78.6215L65.7687 77.0995L65.277 77.0088ZM73.4838 70.9395L86.3327 70.3716L86.2885 69.3726L73.4396 69.9405L73.4838 70.9395ZM75.1426 76.9203L73.9537 70.351L72.9697 70.529L74.1585 77.0983L75.1426 76.9203ZM76.0974 72.8381L74.1998 76.793L75.1013 77.2256L76.999 73.2707L76.0974 72.8381ZM81.3267 74.6672L76.7543 72.5989L76.3421 73.51L80.9145 75.5783L81.3267 74.6672ZM85.955 69.5206L80.765 74.7713L81.4762 75.4743L86.6662 70.2236L85.955 69.5206ZM58.458 89.3181L59.5551 80.0902L58.5621 79.9721L57.465 89.2L58.458 89.3181ZM51.4876 80.5145L57.5464 89.5378L58.3766 88.9803L52.3178 79.9571L51.4876 80.5145ZM59.0443 79.5314L51.8884 79.736L51.917 80.7356L59.0729 80.531L59.0443 79.5314ZM80.3729 80.0907L81.47 89.3181L82.463 89.2L81.3659 79.9726L80.3729 80.0907ZM88.0395 79.736L80.8836 79.5318L80.8551 80.5314L88.011 80.7356L88.0395 79.736ZM82.3816 89.5378L88.4404 80.5145L87.6102 79.9571L81.5514 88.9803L82.3816 89.5378ZM59.0359 75.5779L63.6088 73.5095L63.1966 72.5984L58.6238 74.6668L59.0359 75.5779ZM53.263 70.2243L58.475 75.4746L59.1847 74.7701L53.9727 69.5198L53.263 70.2243ZM66.5108 69.9405L53.6399 69.3726L53.5958 70.3716L66.4667 70.9395L66.5108 69.9405ZM65.7687 77.0995L66.9804 70.5307L65.997 70.3493L64.7852 76.9181L65.7687 77.0995ZM62.9509 73.2681L64.8251 77.223L65.7288 76.7947L63.8545 72.8398L62.9509 73.2681Z" fill="#FF6B00"/>
<path fill-rule="evenodd" clip-rule="evenodd" d="M59.2366 80.223L53.8362 69.8695L59.054 75.0688L59.2366 80.223ZM81.1362 80.223L81.3656 75.0688L86.56 69.8695L81.1362 80.223ZM66.7196 70.4319L65.5067 76.937L67.0174 84.6121L67.3607 74.5064L66.7196 70.4319ZM73.0814 74.4833L73.6996 70.4319L74.8891 76.937L73.3558 84.6121L73.0814 74.4833Z" fill="#FF8B00"/>
<path d="M53.8362 69.8695L54.1891 69.5153L53.3928 70.1007L53.8362 69.8695ZM59.2366 80.223L58.7933 80.4542L59.7363 80.2053L59.2366 80.223ZM59.054 75.0688L59.5536 75.0511L59.5466 74.8539L59.4069 74.7146L59.054 75.0688ZM81.3656 75.0688L81.0119 74.7154L80.8748 74.8527L80.8661 75.0465L81.3656 75.0688ZM81.1362 80.223L80.6367 80.2007L81.5791 80.455L81.1362 80.223ZM86.56 69.8695L87.0029 70.1015L86.2063 69.5161L86.56 69.8695ZM65.5067 76.937L65.0151 76.8453L64.9976 76.9395L65.0161 77.0336L65.5067 76.937ZM66.7196 70.4319L67.2135 70.3541L66.228 70.3402L66.7196 70.4319ZM67.0174 84.6121L66.5268 84.7086L67.5171 84.629L67.0174 84.6121ZM67.3607 74.5064L67.8604 74.5233L67.862 74.4757L67.8546 74.4287L67.3607 74.5064ZM73.6996 70.4319L74.1914 70.3419L73.2053 70.3564L73.6996 70.4319ZM73.0814 74.4833L72.5871 74.4079L72.5804 74.4522L72.5816 74.4969L73.0814 74.4833ZM74.8891 76.937L75.3794 77.0349L75.3981 76.9411L75.3809 76.8471L74.8891 76.937ZM73.3558 84.6121L72.856 84.6256L73.8461 84.71L73.3558 84.6121ZM53.3928 70.1007L58.7933 80.4542L59.6799 79.9917L54.2795 69.6382L53.3928 70.1007ZM59.4069 74.7146L54.1891 69.5153L53.4832 70.2236L58.701 75.423L59.4069 74.7146ZM59.7363 80.2053L59.5536 75.0511L58.5543 75.0865L58.7369 80.2407L59.7363 80.2053ZM80.8661 75.0465L80.6367 80.2007L81.6357 80.2452L81.8652 75.091L80.8661 75.0465ZM86.2063 69.5161L81.0119 74.7154L81.7194 75.4222L86.9138 70.2228L86.2063 69.5161ZM81.5791 80.455L87.0029 70.1015L86.1171 69.6374L80.6933 79.9909L81.5791 80.455ZM65.9982 77.0286L67.2111 70.5235L66.228 70.3402L65.0151 76.8453L65.9982 77.0286ZM67.508 84.5155L65.9972 76.8404L65.0161 77.0336L66.5268 84.7086L67.508 84.5155ZM66.8609 74.4894L66.5177 84.5951L67.5171 84.629L67.8604 74.5233L66.8609 74.4894ZM66.2256 70.5096L66.8667 74.5841L67.8546 74.4287L67.2135 70.3541L66.2256 70.5096ZM73.2053 70.3564L72.5871 74.4079L73.5757 74.5588L74.1938 70.5073L73.2053 70.3564ZM75.3809 76.8471L74.1914 70.3419L73.2077 70.5218L74.3972 77.0269L75.3809 76.8471ZM73.8461 84.71L75.3794 77.0349L74.3987 76.839L72.8655 84.5141L73.8461 84.71ZM72.5816 74.4969L72.856 84.6256L73.8557 84.5985L73.5812 74.4698L72.5816 74.4969Z" fill="#FF8B00"/>
<path fill-rule="evenodd" clip-rule="evenodd" d="M58.4275 80.4114L58.2411 75.2L64.8087 77.089L66.3463 84.8493L65.2286 85.6L58.4275 80.4114ZM72.7971 84.8493L74.3575 77.089L80.948 75.2L80.7154 80.4114L73.9152 85.6L72.7971 84.8493Z" fill="#F99A17"/>
<path d="M58.2411 75.2L58.3793 74.7195L57.7168 74.5289L57.7414 75.2179L58.2411 75.2ZM58.4275 80.4114L57.9278 80.4293L57.9362 80.6655L58.1242 80.8089L58.4275 80.4114ZM64.8087 77.089L65.2992 76.9918L65.2399 76.6927L64.9469 76.6084L64.8087 77.089ZM66.3463 84.8493L66.6251 85.2643L66.9014 85.0787L66.8367 84.7521L66.3463 84.8493ZM65.2286 85.6L64.9253 85.9975L65.2101 86.2148L65.5074 86.0151L65.2286 85.6ZM74.3575 77.089L74.2197 76.6083L73.9273 76.6921L73.8673 76.9904L74.3575 77.089ZM72.7971 84.8493L72.3069 84.7507L72.2411 85.0782L72.5184 85.2644L72.7971 84.8493ZM80.948 75.2L81.4475 75.2223L81.4785 74.5278L80.8102 74.7194L80.948 75.2ZM80.7154 80.4114L81.0187 80.8089L81.2045 80.6672L81.2149 80.4337L80.7154 80.4114ZM73.9152 85.6L73.6365 86.0151L73.9338 86.2147L74.2185 85.9975L73.9152 85.6ZM57.7414 75.2179L57.9278 80.4293L58.9272 80.3935L58.7408 75.1821L57.7414 75.2179ZM64.9469 76.6084L58.3793 74.7195L58.1029 75.6805L64.6705 77.5695L64.9469 76.6084ZM66.8367 84.7521L65.2992 76.9918L64.3183 77.1861L65.8558 84.9464L66.8367 84.7521ZM65.5074 86.0151L66.6251 85.2643L66.0674 84.4342L64.9498 85.1849L65.5074 86.0151ZM58.1242 80.8089L64.9253 85.9975L65.5319 85.2025L58.7307 80.0139L58.1242 80.8089ZM73.8673 76.9904L72.3069 84.7507L73.2873 84.9478L74.8477 77.1875L73.8673 76.9904ZM80.8102 74.7194L74.2197 76.6083L74.4953 77.5696L81.0857 75.6806L80.8102 74.7194ZM81.2149 80.4337L81.4475 75.2223L80.4485 75.1777L80.2159 80.3891L81.2149 80.4337ZM74.2185 85.9975L81.0187 80.8089L80.4121 80.0139L73.6119 85.2025L74.2185 85.9975ZM72.5184 85.2644L73.6365 86.0151L74.1939 85.1849L73.0758 84.4341L72.5184 85.2644Z" fill="#F99A17"/>
<path d="M74.4605 93.0057L74.5297 90.8798L73.9507 90.3769H65.2151L64.6821 90.8798L64.7286 93.0057L57.4301 89.6L59.9788 91.6572L65.1459 95.2H74.02L79.2102 91.6572L81.7589 89.6L74.4605 93.0057Z" fill="#FFCEAF" stroke="#FFCEAF"/>
<path d="M73.8422 85.5273L72.7429 84.8H66.4007L65.3014 85.5273L64.7288 90.4L65.2555 89.9145H73.8882L74.4603 90.3995L73.8422 85.5273Z" fill="#1B1B3F" stroke="#1B1B3F"/>
<path fill-rule="evenodd" clip-rule="evenodd" d="M42.6426 58.8617L40.6913 49.6704L43.5837 41.1324L65.6704 57.2173L57.1757 64.2685L45.1684 67.7151L42.5279 64.6742L43.6757 63.8628L41.8391 62.2184L43.2397 61.1368L41.4027 59.763L42.6426 58.8617ZM99.2364 49.6704L97.2851 58.8617L98.502 59.763L96.6654 61.1373L98.089 62.2184L96.2519 63.8628L97.3997 64.6742L94.7367 67.7151L82.729 64.2685L74.2342 57.2173L96.3205 41.1324L99.2364 49.6704Z" fill="url(#paint1_linear)"/>
<path d="M40.6913 49.6704L40.2177 49.51L40.1737 49.64L40.2022 49.7743L40.6913 49.6704ZM42.6426 58.8617L42.9366 59.2662L43.1991 59.0753L43.1317 58.7579L42.6426 58.8617ZM43.5837 41.1324L43.878 40.7282L43.3283 40.3279L43.1101 40.972L43.5837 41.1324ZM65.6704 57.2173L65.9898 57.602L66.4843 57.1915L65.9648 56.8131L65.6704 57.2173ZM57.1757 64.2685L57.3136 64.7491L57.4144 64.7202L57.495 64.6533L57.1757 64.2685ZM45.1684 67.7151L44.7909 68.0429L44.9999 68.2836L45.3064 68.1957L45.1684 67.7151ZM42.5279 64.6742L42.2393 64.2659L41.7881 64.5849L42.1504 65.002L42.5279 64.6742ZM43.6757 63.8628L43.9644 64.2711L44.4768 63.9089L44.0093 63.4903L43.6757 63.8628ZM41.8391 62.2184L41.5335 61.8226L41.0578 62.19L41.5056 62.5909L41.8391 62.2184ZM43.2397 61.1368L43.5453 61.5326L44.0661 61.1305L43.5392 60.7364L43.2397 61.1368ZM41.4027 59.763L41.1087 59.3586L40.5601 59.7573L41.1032 60.1634L41.4027 59.763ZM97.2851 58.8617L96.796 58.7579L96.7293 59.0722L96.9875 59.2635L97.2851 58.8617ZM99.2364 49.6704L99.7255 49.7743L99.7541 49.6393L99.7095 49.5088L99.2364 49.6704ZM98.502 59.763L98.8016 60.1633L99.3393 59.761L98.7996 59.3612L98.502 59.763ZM96.6654 61.1373L96.3658 60.737L95.8348 61.1344L96.363 61.5355L96.6654 61.1373ZM98.089 62.2184L98.4225 62.5909L98.8741 62.1867L98.3914 61.8202L98.089 62.2184ZM96.2519 63.8628L95.9184 63.4903L95.4508 63.9089L95.9633 64.2711L96.2519 63.8628ZM97.3997 64.6742L97.7759 65.0036L98.1415 64.5862L97.6884 64.2659L97.3997 64.6742ZM94.7367 67.7151L94.5987 68.1957L94.9038 68.2832L95.1128 68.0445L94.7367 67.7151ZM82.729 64.2685L82.4096 64.6533L82.4903 64.7202L82.591 64.7491L82.729 64.2685ZM74.2342 57.2173L73.9399 56.8131L73.4203 57.1915L73.9149 57.602L74.2342 57.2173ZM96.3205 41.1324L96.7937 40.9708L96.5745 40.3289L96.0262 40.7282L96.3205 41.1324ZM40.2022 49.7743L42.1535 58.9656L43.1317 58.7579L41.1804 49.5666L40.2022 49.7743ZM43.1101 40.972L40.2177 49.51L41.1649 49.8309L44.0572 41.2928L43.1101 40.972ZM65.9648 56.8131L43.878 40.7282L43.2893 41.5366L65.3761 57.6215L65.9648 56.8131ZM57.495 64.6533L65.9898 57.602L65.3511 56.8325L56.8563 63.8838L57.495 64.6533ZM45.3064 68.1957L57.3136 64.7491L57.0377 63.7879L45.0305 67.2345L45.3064 68.1957ZM42.1504 65.002L44.7909 68.0429L45.546 67.3873L42.9055 64.3464L42.1504 65.002ZM43.3871 63.4545L42.2393 64.2659L42.8165 65.0825L43.9644 64.2711L43.3871 63.4545ZM41.5056 62.5909L43.3422 64.2353L44.0093 63.4903L42.1727 61.8459L41.5056 62.5909ZM42.9341 60.7411L41.5335 61.8226L42.1447 62.6141L43.5453 61.5326L42.9341 60.7411ZM41.1032 60.1634L42.9403 61.5373L43.5392 60.7364L41.7021 59.3626L41.1032 60.1634ZM42.3486 58.4573L41.1087 59.3586L41.6966 60.1674L42.9366 59.2662L42.3486 58.4573ZM97.7742 58.9656L99.7255 49.7743L98.7473 49.5666L96.796 58.7579L97.7742 58.9656ZM98.7996 59.3612L97.5827 58.4599L96.9875 59.2635L98.2044 60.1648L98.7996 59.3612ZM96.9649 61.5376L98.8016 60.1633L98.2024 59.3627L96.3658 60.737L96.9649 61.5376ZM98.3914 61.8202L96.9678 60.7391L96.363 61.5355L97.7866 62.6166L98.3914 61.8202ZM96.5854 64.2354L98.4225 62.5909L97.7555 61.8458L95.9184 63.4903L96.5854 64.2354ZM97.6884 64.2659L96.5405 63.4545L95.9633 64.2711L97.1111 65.0825L97.6884 64.2659ZM95.1128 68.0445L97.7759 65.0036L97.0236 64.3448L94.3605 67.3857L95.1128 68.0445ZM82.591 64.7491L94.5987 68.1957L94.8746 67.2345L82.8669 63.7879L82.591 64.7491ZM73.9149 57.602L82.4096 64.6533L83.0483 63.8838L74.5536 56.8325L73.9149 57.602ZM96.0262 40.7282L73.9399 56.8131L74.5286 57.6214L96.6149 41.5366L96.0262 40.7282ZM99.7095 49.5088L96.7937 40.9708L95.8474 41.294L98.7632 49.832L99.7095 49.5088Z" fill="#FFAA04"/>
<path fill-rule="evenodd" clip-rule="evenodd" d="M74.2572 57.3479L73.5002 70.471L73.2015 74.6106L73.1555 84.8H66.799L66.776 74.6106L66.5003 70.471L65.6972 57.3479L62.2548 48H77.7452L74.2572 57.3479ZM57.2062 64.4668L45.2038 67.9464L41.211 80.2736H51.859L58.996 80.3648L53.5802 69.9027L57.2062 64.4668ZM94.7507 67.9464L82.7482 64.4668L86.3973 69.9027L80.958 80.3648L88.118 80.2736H98.789L94.7507 67.9464Z" fill="url(#paint2_linear)"/>
<path d="M73.5002 70.471L73.9989 70.507L73.9994 70.4998L73.5002 70.471ZM74.2572 57.3479L73.7888 57.1731L73.7624 57.2438L73.7581 57.3191L74.2572 57.3479ZM73.2015 74.6106L72.7028 74.5746L72.7016 74.5915L72.7015 74.6083L73.2015 74.6106ZM73.1555 84.8V85.3H73.6532L73.6555 84.8023L73.1555 84.8ZM66.799 84.8L66.299 84.8011L66.3001 85.3H66.799V84.8ZM66.776 74.6106L67.276 74.6095L67.2759 74.5934L67.2749 74.5774L66.776 74.6106ZM66.5003 70.471L66.0012 70.5015L66.0014 70.5042L66.5003 70.471ZM65.6972 57.3479L66.1963 57.3174L66.1918 57.244L66.1664 57.1751L65.6972 57.3479ZM62.2548 48V47.5H61.5379L61.7856 48.1728L62.2548 48ZM77.7452 48L78.2137 48.1748L78.4655 47.5H77.7452V48ZM45.2038 67.9464L45.0646 67.4662L44.8099 67.54L44.7281 67.7924L45.2038 67.9464ZM57.2062 64.4668L57.6222 64.7443L58.3819 63.6054L57.067 63.9866L57.2062 64.4668ZM41.211 80.2736L40.7353 80.1195L40.5234 80.7736H41.211V80.2736ZM51.859 80.2736L51.8654 79.7736H51.859V80.2736ZM58.996 80.3648L58.9896 80.8648L59.8234 80.8754L59.44 80.135L58.996 80.3648ZM53.5802 69.9027L53.1642 69.6252L53.0006 69.8706L53.1362 70.1325L53.5802 69.9027ZM82.7482 64.4668L82.8874 63.9866L81.5666 63.6036L82.3331 64.7455L82.7482 64.4668ZM94.7507 67.9464L95.2258 67.7908L95.1436 67.5397L94.8899 67.4662L94.7507 67.9464ZM86.3973 69.9027L86.8409 70.1333L86.9777 69.8702L86.8124 69.624L86.3973 69.9027ZM80.958 80.3648L80.5144 80.1342L80.129 80.8754L80.9644 80.8648L80.958 80.3648ZM88.118 80.2736V79.7736L88.1117 79.7736L88.118 80.2736ZM98.789 80.2736V80.7736H99.479L99.2642 80.1179L98.789 80.2736ZM73.9994 70.4998L74.7564 57.3767L73.7581 57.3191L73.001 70.4422L73.9994 70.4998ZM73.7002 74.6466L73.9989 70.507L73.0015 70.435L72.7028 74.5746L73.7002 74.6466ZM73.6555 84.8023L73.7015 74.6129L72.7015 74.6083L72.6555 84.7977L73.6555 84.8023ZM66.799 85.3H73.1555V84.3H66.799V85.3ZM66.276 74.6117L66.299 84.8011L67.299 84.7989L67.276 74.6095L66.276 74.6117ZM66.0014 70.5042L66.2771 74.6438L67.2749 74.5774L66.9992 70.4377L66.0014 70.5042ZM65.1982 57.3784L66.0012 70.5015L66.9994 70.4404L66.1963 57.3174L65.1982 57.3784ZM61.7856 48.1728L65.228 57.5207L66.1664 57.1751L62.724 47.8272L61.7856 48.1728ZM77.7452 47.5H62.2548V48.5H77.7452V47.5ZM74.7257 57.5227L78.2137 48.1748L77.2768 47.8252L73.7888 57.1731L74.7257 57.5227ZM45.343 68.4266L57.3455 64.947L57.067 63.9866L45.0646 67.4662L45.343 68.4266ZM41.6866 80.4277L45.6795 68.1005L44.7281 67.7924L40.7353 80.1195L41.6866 80.4277ZM51.859 79.7736H41.211V80.7736H51.859V79.7736ZM59.0024 79.8649L51.8654 79.7736L51.8526 80.7736L58.9896 80.8648L59.0024 79.8649ZM53.1362 70.1325L58.552 80.5947L59.44 80.135L54.0242 69.6728L53.1362 70.1325ZM56.7903 64.1893L53.1642 69.6252L53.9961 70.1801L57.6222 64.7443L56.7903 64.1893ZM82.609 64.947L94.6114 68.4266L94.8899 67.4662L82.8874 63.9866L82.609 64.947ZM86.8124 69.624L83.1634 64.1881L82.3331 64.7455L85.9821 70.1813L86.8124 69.624ZM81.4016 80.5955L86.8409 70.1333L85.9537 69.672L80.5144 80.1342L81.4016 80.5955ZM88.1117 79.7736L80.9516 79.8649L80.9644 80.8648L88.1244 80.7736L88.1117 79.7736ZM98.789 79.7736H88.118V80.7736H98.789V79.7736ZM94.2755 68.1021L98.3139 80.4293L99.2642 80.1179L95.2258 67.7908L94.2755 68.1021Z" fill="url(#paint3_linear)"/>
</g>
<defs>
<filter id="filter0_d" x="-2" y="-4" width="144" height="144" filterUnits="userSpaceOnUse" color-interpolation-filters="sRGB">
<feFlood flood-opacity="0" result="BackgroundImageFix"/>
<feColorMatrix in="SourceAlpha" type="matrix" values="0 0 0 0 0 0 0 0 0 0 0 0 0 0 0 0 0 0 127 0"/>
<feOffset/>
<feGaussianBlur stdDeviation="20"/>
<feColorMatrix type="matrix" values="0 0 0 0 0.964706 0 0 0 0 0.72549 0 0 0 0 0.105882 0 0 0 0.2 0"/>
<feBlend mode="normal" in2="BackgroundImageFix" result="effect1_dropShadow"/>
<feBlend mode="normal" in="SourceGraphic" in2="effect1_dropShadow" result="shape"/>
</filter>
<linearGradient id="paint0_linear" x1="70" y1="94" x2="70" y2="47.5" gradientUnits="userSpaceOnUse">
<stop stop-color="#FFC148"/>
<stop offset="1" stop-color="#FFCC48"/>
<stop offset="1" stop-color="#FFBF2D"/>
</linearGradient>
<linearGradient id="paint1_linear" x1="69.9638" y1="41.1324" x2="69.9638" y2="67.7151" gradientUnits="userSpaceOnUse">
<stop stop-color="#F16703"/>
<stop offset="1" stop-color="#FFC93D"/>
</linearGradient>
<linearGradient id="paint2_linear" x1="70" y1="85" x2="70" y2="48" gradientUnits="userSpaceOnUse">
<stop stop-color="#FC9410"/>
<stop offset="1" stop-color="#EEB030"/>
</linearGradient>
<linearGradient id="paint3_linear" x1="70" y1="48" x2="70" y2="84.8" gradientUnits="userSpaceOnUse">
<stop stop-color="#F6B91B"/>
<stop offset="1" stop-color="#F6B91B" stop-opacity="0"/>
</linearGradient>
</defs>
</svg>
