<svg width="144" height="144" viewBox="0 0 144 144" fill="none" xmlns="http://www.w3.org/2000/svg">
<g filter="url(#filter0_d-416225)">
<path d="M74.5518 82.4166L63.8615 94.08L68.3071 77.44L74.56 82.4016L74.5518 82.4166Z" fill="url(#paint0_linear-845173)" stroke="#5534B2" stroke-linejoin="round"/>
<path d="M90.5801 94.08L75.5208 83.2257L68.3071 77.44L102.72 49.28L90.5801 94.08Z" fill="url(#paint1_linear-794736)" stroke="#4B41F7" stroke-linejoin="round"/>
<path d="M102.72 49.28L68.3723 78.1932L63.8615 94.08L60.48 73.4419L102.72 49.28Z" fill="url(#paint2_linear-360540)" stroke="#5534B2" stroke-linejoin="round"/>
<path d="M60.5083 73.6L41.28 65.6053L102.72 49.28L60.5083 73.6Z" fill="url(#paint3_linear-267519)" stroke="#4B41F7" stroke-linejoin="round"/>
</g>
<defs>
<filter id="filter0_d-416225" x="0" y="0" width="144" height="144" filterUnits="userSpaceOnUse" color-interpolation-filters="sRGB">
<feFlood flood-opacity="0" result="BackgroundImageFix"/>
<feColorMatrix in="SourceAlpha" type="matrix" values="0 0 0 0 0 0 0 0 0 0 0 0 0 0 0 0 0 0 127 0"/>
<feOffset/>
<feGaussianBlur stdDeviation="20"/>
<feColorMatrix type="matrix" values="0 0 0 0 0.0666667 0 0 0 0 0.490196 0 0 0 0 0.968627 0 0 0 0.4 0"/>
<feBlend mode="normal" in2="BackgroundImageFix" result="effect1_dropShadow"/>
<feBlend mode="normal" in="SourceGraphic" in2="effect1_dropShadow" result="shape"/>
</filter>
<linearGradient id="paint0_linear-845173" x1="63.8615" y1="77.44" x2="76.1418" y2="78.7033" gradientUnits="userSpaceOnUse">
<stop stop-color="#3130AF"/>
<stop offset="1" stop-color="#5834B2"/>
</linearGradient>
<linearGradient id="paint1_linear-794736" x1="85.5135" y1="49.28" x2="85.5135" y2="94.08" gradientUnits="userSpaceOnUse">
<stop stop-color="#0997FE"/>
<stop offset="1" stop-color="#813AF6"/>
</linearGradient>
<linearGradient id="paint2_linear-360540" x1="60.48" y1="49.28" x2="108.388" y2="56.5073" gradientUnits="userSpaceOnUse">
<stop stop-color="#3130AF"/>
<stop offset="1" stop-color="#5834B2"/>
</linearGradient>
<linearGradient id="paint3_linear-267519" x1="72" y1="49.28" x2="72" y2="73.6" gradientUnits="userSpaceOnUse">
<stop stop-color="#0985FE"/>
<stop offset="1" stop-color="#813AF6"/>
</linearGradient>
</defs>
</svg>