<svg width="144" height="144" viewBox="0 0 144 144" fill="none" xmlns="http://www.w3.org/2000/svg">
<g id="Group 15" filter="url(#filter0_d)">
<path id="Vector" d="M72 95C86.9117 95 99 82.9117 99 68C99 53.0883 86.9117 41 72 41C57.0883 41 45 53.0883 45 68C45 82.9117 57.0883 95 72 95Z" fill="url(#paint0_linear)"/>
<path id="Vector_2" d="M72 71C73.6569 71 75 69.6568 75 68C75 66.3431 73.6569 65 72 65C70.3431 65 69 66.3431 69 68C69 69.6568 70.3431 71 72 71Z" fill="url(#paint1_linear)"/>
<path id="Vector_3" d="M72 37C65.8688 37 59.8753 38.8181 54.7773 42.2244C49.6794 45.6308 45.7061 50.4723 43.3597 56.1368C41.0134 61.8013 40.3995 68.0344 41.5957 74.0478C42.7918 80.0612 45.7443 85.5849 50.0797 89.9203C54.4151 94.2557 59.9388 97.2082 65.9522 98.4043C71.9656 99.6005 78.1987 98.9866 83.8632 96.6403C89.5277 94.2939 94.3692 90.3206 97.7756 85.2227C101.182 80.1247 103 74.1312 103 68C103 59.7783 99.7339 51.8933 93.9203 46.0797C88.1067 40.2661 80.2217 37 72 37V37ZM72 93C67.0555 93 62.222 91.5338 58.1108 88.7867C53.9995 86.0397 50.7952 82.1352 48.903 77.5671C47.0108 72.9989 46.5158 67.9723 47.4804 63.1227C48.445 58.2732 50.826 53.8186 54.3223 50.3223C57.8187 46.826 62.2732 44.445 67.1227 43.4804C71.9723 42.5157 76.9989 43.0108 81.5671 44.903C86.1352 46.7952 90.0397 49.9995 92.7867 54.1107C95.5338 58.222 97 63.0555 97 68C97 71.283 96.3534 74.5339 95.097 77.5671C93.8406 80.6002 91.9991 83.3562 89.6777 85.6777C87.3562 87.9991 84.6002 89.8406 81.5671 91.097C78.534 92.3533 75.2831 93 72 93V93Z" fill="url(#paint2_linear)"/>
<path id="Vector_4" d="M83 67H74.8158C74.6666 66.5817 74.4263 66.2017 74.1123 65.8877C73.7983 65.5737 73.4183 65.3334 73 65.1842V53C73 52.7348 72.8947 52.4804 72.7071 52.2929C72.5196 52.1054 72.2652 52 72 52C71.7348 52 71.4804 52.1054 71.2929 52.2929C71.1054 52.4804 71 52.7348 71 53V65.1842C70.5227 65.352 70.0957 65.6381 69.759 66.0158C69.4223 66.3934 69.1868 66.8503 69.0746 67.3436C68.9623 67.837 68.977 68.3508 69.1173 68.8369C69.2575 69.323 69.5188 69.7657 69.8765 70.1235C70.2343 70.4812 70.677 70.7425 71.1631 70.8827C71.6492 71.023 72.163 71.0377 72.6564 70.9254C73.1497 70.8132 73.6066 70.5777 73.9842 70.241C74.3619 69.9043 74.648 69.4773 74.8158 69H83C83.2652 69 83.5196 68.8946 83.7071 68.7071C83.8946 68.5196 84 68.2652 84 68C84 67.7348 83.8946 67.4804 83.7071 67.2929C83.5196 67.1053 83.2652 67 83 67ZM72 69C71.8022 69 71.6089 68.9413 71.4444 68.8315C71.28 68.7216 71.1518 68.5654 71.0761 68.3827C71.0004 68.1999 70.9806 67.9989 71.0192 67.8049C71.0578 67.6109 71.153 67.4327 71.2929 67.2929C71.4328 67.153 71.6109 67.0578 71.8049 67.0192C71.9989 66.9806 72.2 67.0004 72.3827 67.0761C72.5654 67.1518 72.7216 67.28 72.8315 67.4444C72.9414 67.6089 73 67.8022 73 68C72.9998 68.2652 72.8944 68.5194 72.7069 68.7069C72.5194 68.8944 72.2652 68.9998 72 69ZM90.4283 49.6809C90.4109 49.6604 90.4042 49.6346 90.3848 49.6152C90.3653 49.5958 90.3396 49.5891 90.3191 49.5716C85.4554 44.7228 78.8678 42 72 42C65.1322 42 58.5446 44.7228 53.6809 49.5716C53.6604 49.5891 53.6347 49.5958 53.6152 49.6152C53.5958 49.6346 53.5891 49.6604 53.5717 49.6809C48.7228 54.5446 46 61.1322 46 68C46 74.8678 48.7228 81.4554 53.5717 86.3191C53.5891 86.3396 53.5958 86.3653 53.6152 86.3848C53.6347 86.4042 53.6604 86.4109 53.6809 86.4283C58.5446 91.2772 65.1322 94 72 94C78.8678 94 85.4554 91.2772 90.3191 86.4283C90.3396 86.4109 90.3653 86.4042 90.3848 86.3848C90.4042 86.3653 90.4109 86.3396 90.4283 86.3191C95.2772 81.4554 98 74.8678 98 68C98 61.1322 95.2772 54.5446 90.4283 49.6809ZM89.6359 84.2218L87.5566 82.1426C87.3685 81.9582 87.1152 81.8555 86.8517 81.8568C86.5883 81.8582 86.336 81.9634 86.1497 82.1497C85.9635 82.336 85.8582 82.5882 85.8569 82.8517C85.8556 83.1151 85.9583 83.3684 86.1426 83.5566L88.2219 85.6358C84.0582 89.4804 78.6625 91.7184 73 91.9493V89C73 88.7348 72.8947 88.4804 72.7071 88.2929C72.5196 88.1053 72.2652 88 72 88C71.7348 88 71.4804 88.1053 71.2929 88.2929C71.1054 88.4804 71 88.7348 71 89V91.9493C65.3375 91.7184 59.9419 89.4804 55.7782 85.6358L57.8574 83.5566C58.0418 83.3685 58.1445 83.1152 58.1432 82.8517C58.1418 82.5883 58.0366 82.336 57.8503 82.1497C57.664 81.9635 57.4118 81.8582 57.1483 81.8569C56.8849 81.8556 56.6316 81.9582 56.4434 82.1426L54.3642 84.2218C50.5196 80.0581 48.2816 74.6625 48.0507 69H51C51.2652 69 51.5196 68.8946 51.7071 68.7071C51.8947 68.5196 52 68.2652 52 68C52 67.7348 51.8947 67.4804 51.7071 67.2929C51.5196 67.1053 51.2652 67 51 67H48.0507C48.2816 61.3375 50.5196 55.9419 54.3642 51.7782L56.4434 53.8574C56.6315 54.0418 56.8848 54.1445 57.1483 54.1432C57.4117 54.1418 57.664 54.0366 57.8503 53.8503C58.0365 53.664 58.1418 53.4118 58.1431 53.1483C58.1444 52.8849 58.0418 52.6316 57.8574 52.4434L55.7782 50.3641C59.9419 46.5195 65.3375 44.2816 71 44.0507V47C71 47.2652 71.1054 47.5196 71.2929 47.7071C71.4804 47.8946 71.7348 48 72 48C72.2652 48 72.5196 47.8946 72.7071 47.7071C72.8947 47.5196 73 47.2652 73 47V44.0507C78.6625 44.2816 84.0581 46.5195 88.2218 50.3641L86.1426 52.4434C86.0482 52.5359 85.9731 52.6462 85.9216 52.7679C85.8701 52.8896 85.8432 53.0203 85.8426 53.1524C85.8419 53.2846 85.8674 53.4156 85.9177 53.5378C85.968 53.66 86.042 53.7711 86.1354 53.8645C86.2289 53.958 86.3399 54.032 86.4621 54.0822C86.5844 54.1325 86.7153 54.1581 86.8475 54.1574C86.9796 54.1567 87.1104 54.1299 87.2321 54.0784C87.3538 54.0269 87.4641 53.9517 87.5566 53.8574L89.6359 51.7782C93.4805 55.9419 95.7184 61.3375 95.9493 67H93C92.7348 67 92.4804 67.1053 92.2929 67.2929C92.1054 67.4804 92 67.7348 92 68C92 68.2652 92.1054 68.5196 92.2929 68.7071C92.4804 68.8946 92.7348 69 93 69H95.9493C95.7184 74.6625 93.4805 80.0581 89.6359 84.2218ZM72 36C65.671 36 59.4841 37.8768 54.2218 41.393C48.9594 44.9092 44.8579 49.9069 42.4359 55.7541C40.0139 61.6014 39.3802 68.0355 40.6149 74.2429C41.8496 80.4503 44.8973 86.1521 49.3726 90.6274C53.8479 95.1027 59.5497 98.1504 65.7571 99.3851C71.9645 100.62 78.3986 99.9861 84.2459 97.5641C90.0931 95.1421 95.0908 91.0406 98.607 85.7782C102.123 80.5159 104 74.329 104 68C103.99 59.516 100.616 51.3824 94.6167 45.3833C88.6176 39.3842 80.484 36.0097 72 36ZM72 98C66.0666 98 60.2664 96.2405 55.3329 92.9441C50.3994 89.6476 46.5543 84.9623 44.2836 79.4805C42.013 73.9987 41.4189 67.9667 42.5765 62.1473C43.734 56.3279 46.5912 50.9824 50.7868 46.7868C54.9824 42.5912 60.3279 39.734 66.1473 38.5764C71.9667 37.4189 77.9987 38.013 83.4805 40.2836C88.9623 42.5542 93.6476 46.3994 96.9441 51.3329C100.241 56.2664 102 62.0666 102 68C101.991 75.9537 98.8274 83.5791 93.2033 89.2033C87.5791 94.8274 79.9537 97.991 72 98Z" fill="#339BFF"/>
</g>
<defs>
<filter id="filter0_d" x="0" y="0" width="144" height="144" filterUnits="userSpaceOnUse" color-interpolation-filters="sRGB">
<feFlood flood-opacity="0" result="BackgroundImageFix"/>
<feColorMatrix in="SourceAlpha" type="matrix" values="0 0 0 0 0 0 0 0 0 0 0 0 0 0 0 0 0 0 127 0"/>
<feOffset dy="4"/>
<feGaussianBlur stdDeviation="20"/>
<feColorMatrix type="matrix" values="0 0 0 0 0.00784314 0 0 0 0 0.909804 0 0 0 0 0.956863 0 0 0 0.4 0"/>
<feBlend mode="normal" in2="BackgroundImageFix" result="effect1_dropShadow"/>
<feBlend mode="normal" in="SourceGraphic" in2="effect1_dropShadow" result="shape"/>
</filter>
<linearGradient id="paint0_linear" x1="72" y1="41" x2="72" y2="95" gradientUnits="userSpaceOnUse">
<stop stop-color="#86F3FF"/>
<stop offset="1" stop-color="#74BCFF"/>
</linearGradient>
<linearGradient id="paint1_linear" x1="72" y1="65" x2="72" y2="71" gradientUnits="userSpaceOnUse">
<stop stop-color="#76F3FD"/>
<stop offset="1" stop-color="#3A68F6"/>
</linearGradient>
<linearGradient id="paint2_linear" x1="72" y1="37" x2="72" y2="99" gradientUnits="userSpaceOnUse">
<stop stop-color="#76F3FD"/>
<stop offset="1" stop-color="#3A68F6"/>
</linearGradient>
</defs>
</svg>
